  0
SECTION
  2
HEADER
  9
$ACADVER
  1
AC1027
  9
$ACADMAINTVER
 70
105
  9
$DWGCODEPAGE
  3
ANSI_1252
  9
$LASTSAVEDBY
  1
ezdxf
  9
$REQUIREDVERSIONS
160
0
  9
$INSBASE
 10
0.0
 20
0.0
 30
0.0
  9
$EXTMIN
 10
-100
 20
-100
 30
-100
  9
$EXTMAX
 10
100
 20
100
 30
100
  9
$LIMMIN
 10
0.0
 20
0.0
  9
$LIMMAX
 10
420.0
 20
297.0
  9
$ORTHOMODE
 70
0
  9
$REGENMODE
 70
1
  9
$FILLMODE
 70
1
  9
$QTEXTMODE
 70
0
  9
$MIRRTEXT
 70
1
  9
$LTSCALE
 40
1.0
  9
$ATTMODE
 70
1
  9
$TEXTSIZE
 40
2.5
  9
$TRACEWID
 40
1.0
  9
$TEXTSTYLE
  7
OpenSans
  9
$CLAYER
  8
0
  9
$CELTYPE
  6
ByLayer
  9
$CECOLOR
 62
256
  9
$CELTSCALE
 40
1.0
  9
$DISPSILH
 70
0
  9
$DIMSCALE
 40
1.0
  9
$DIMASZ
 40
0.175
  9
$DIMEXO
 40
0.125
  9
$DIMDLI
 40
3.75
  9
$DIMRND
 40
0.0
  9
$DIMDLE
 40
0.0
  9
$DIMEXE
 40
0.375
  9
$DIMTP
 40
0.0
  9
$DIMTM
 40
0.0
  9
$DIMTXT
 40
0.25
  9
$DIMCEN
 40
2.5
  9
$DIMTSZ
 40
0.0
  9
$DIMTOL
 70
0
  9
$DIMLIM
 70
0
  9
$DIMTIH
 70
0
  9
$DIMTOH
 70
0
  9
$DIMSE1
 70
0
  9
$DIMSE2
 70
0
  9
$DIMTAD
 70
1
  9
$DIMZIN
 70
8
  9
$DIMBLK
  1
ARCHTICK
  9
$DIMASO
 70
1
  9
$DIMSHO
 70
1
  9
$DIMPOST
  1

  9
$DIMAPOST
  1

  9
$DIMALT
 70
0
  9
$DIMALTD
 70
3
  9
$DIMALTF
 40
0.03937007874
  9
$DIMLFAC
 40
100.0
  9
$DIMTOFL
 70
1
  9
$DIMTVP
 40
0.0
  9
$DIMTIX
 70
0
  9
$DIMSOXD
 70
0
  9
$DIMSAH
 70
0
  9
$DIMBLK1
  1

  9
$DIMBLK2
  1

  9
$DIMSTYLE
  2
EZDXF
  9
$DIMCLRD
 70
0
  9
$DIMCLRE
 70
0
  9
$DIMCLRT
 70
0
  9
$DIMTFAC
 40
1.0
  9
$DIMGAP
 40
0.1
  9
$DIMJUST
 70
0
  9
$DIMSD1
 70
0
  9
$DIMSD2
 70
0
  9
$DIMTOLJ
 70
0
  9
$DIMTZIN
 70
8
  9
$DIMALTZ
 70
0
  9
$DIMALTTZ
 70
0
  9
$DIMUPT
 70
1
  9
$DIMDEC
 70
2
  9
$DIMTDEC
 70
2
  9
$DIMALTU
 70
2
  9
$DIMALTTD
 70
3
  9
$DIMTXSTY
  7
OpenSansCondensed-Light
  9
$DIMAUNIT
 70
0
  9
$DIMADEC
 70
0
  9
$DIMALTRND
 40
0.0
  9
$DIMAZIN
 70
0
  9
$DIMDSEP
 70
46
  9
$DIMATFIT
 70
3
  9
$DIMFRAC
 70
0
  9
$DIMLDRBLK
  1

  9
$DIMLUNIT
 70
2
  9
$DIMLWD
 70
-2
  9
$DIMLWE
 70
-2
  9
$DIMTMOVE
 70
2
  9
$DIMFXL
 40
1.0
  9
$DIMFXLON
 70
0
  9
$DIMJOGANG
 40
0.785398163397
  9
$DIMTFILL
 70
0
  9
$DIMTFILLCLR
 70
0
  9
$DIMARCSYM
 70
0
  9
$DIMLTYPE
  6

  9
$DIMLTEX1
  6

  9
$DIMLTEX2
  6

  9
$DIMTXTDIRECTION
 70
0
  9
$LUNITS
 70
2
  9
$LUPREC
 70
4
  9
$SKETCHINC
 40
1.0
  9
$FILLETRAD
 40
10.0
  9
$AUNITS
 70
0
  9
$AUPREC
 70
2
  9
$MENU
  1
.
  9
$ELEVATION
 40
0.0
  9
$PELEVATION
 40
0.0
  9
$THICKNESS
 40
0.0
  9
$LIMCHECK
 70
0
  9
$CHAMFERA
 40
0.0
  9
$CHAMFERB
 40
0.0
  9
$CHAMFERC
 40
0.0
  9
$CHAMFERD
 40
0.0
  9
$SKPOLY
 70
0
  9
$TDCREATE
 40
2459313.7083217595
  9
$TDUCREATE
 40
2458532.153996898
  9
$TDUPDATE
 40
2459313.7083217595
  9
$TDUUPDATE
 40
2458532.1544311
  9
$TDINDWG
 40
0.0
  9
$TDUSRTIMER
 40
0.0
  9
$USRTIMER
 70
1
  9
$ANGBASE
 50
0.0
  9
$ANGDIR
 70
0
  9
$PDMODE
 70
0
  9
$PDSIZE
 40
0.0
  9
$PLINEWID
 40
0.0
  9
$SPLFRAME
 70
0
  9
$SPLINETYPE
 70
6
  9
$SPLINESEGS
 70
8
  9
$HANDSEED
  5
1F3
  9
$SURFTAB1
 70
6
  9
$SURFTAB2
 70
6
  9
$SURFTYPE
 70
6
  9
$SURFU
 70
6
  9
$SURFV
 70
6
  9
$UCSBASE
  2

  9
$UCSNAME
  2

  9
$UCSORG
 10
0.0
 20
0.0
 30
0.0
  9
$UCSXDIR
 10
1.0
 20
0.0
 30
0.0
  9
$UCSYDIR
 10
0.0
 20
1.0
 30
0.0
  9
$UCSORTHOREF
  2

  9
$UCSORTHOVIEW
 70
0
  9
$UCSORGTOP
 10
0.0
 20
0.0
 30
0.0
  9
$UCSORGBOTTOM
 10
0.0
 20
0.0
 30
0.0
  9
$UCSORGLEFT
 10
0.0
 20
0.0
 30
0.0
  9
$UCSORGRIGHT
 10
0.0
 20
0.0
 30
0.0
  9
$UCSORGFRONT
 10
0.0
 20
0.0
 30
0.0
  9
$UCSORGBACK
 10
0.0
 20
0.0
 30
0.0
  9
$PUCSBASE
  2

  9
$PUCSNAME
  2

  9
$PUCSORG
 10
0.0
 20
0.0
 30
0.0
  9
$PUCSXDIR
 10
1.0
 20
0.0
 30
0.0
  9
$PUCSYDIR
 10
0.0
 20
1.0
 30
0.0
  9
$PUCSORTHOREF
  2

  9
$PUCSORTHOVIEW
 70
0
  9
$PUCSORGTOP
 10
0.0
 20
0.0
 30
0.0
  9
$PUCSORGBOTTOM
 10
0.0
 20
0.0
 30
0.0
  9
$PUCSORGLEFT
 10
0.0
 20
0.0
 30
0.0
  9
$PUCSORGRIGHT
 10
0.0
 20
0.0
 30
0.0
  9
$PUCSORGFRONT
 10
0.0
 20
0.0
 30
0.0
  9
$PUCSORGBACK
 10
0.0
 20
0.0
 30
0.0
  9
$USERI1
 70
0
  9
$USERI2
 70
0
  9
$USERI3
 70
0
  9
$USERI4
 70
0
  9
$USERI5
 70
0
  9
$USERR1
 40
0.0
  9
$USERR2
 40
0.0
  9
$USERR3
 40
0.0
  9
$USERR4
 40
0.0
  9
$USERR5
 40
0.0
  9
$WORLDVIEW
 70
1
  9
$SHADEDGE
 70
3
  9
$SHADEDIF
 70
70
  9
$TILEMODE
 70
1
  9
$MAXACTVP
 70
64
  9
$PINSBASE
 10
0.0
 20
0.0
 30
0.0
  9
$PLIMCHECK
 70
0
  9
$PEXTMIN
 10
1e+20
 20
1e+20
 30
1e+20
  9
$PEXTMAX
 10
-1e+20
 20
-1e+20
 30
-1e+20
  9
$PLIMMIN
 10
0.0
 20
0.0
  9
$PLIMMAX
 10
420.0
 20
297.0
  9
$UNITMODE
 70
0
  9
$VISRETAIN
 70
1
  9
$PLINEGEN
 70
0
  9
$PSLTSCALE
 70
1
  9
$TREEDEPTH
 70
3020
  9
$CMLSTYLE
  2
Standard
  9
$CMLJUST
 70
0
  9
$CMLSCALE
 40
20.0
  9
$PROXYGRAPHICS
 70
1
  9
$MEASUREMENT
 70
1
  9
$CELWEIGHT
370
-1
  9
$ENDCAPS
280
0
  9
$JOINSTYLE
280
0
  9
$LWDISPLAY
290
0
  9
$INSUNITS
 70
6
  9
$HYPERLINKBASE
  1

  9
$STYLESHEET
  1

  9
$XEDIT
290
1
  9
$CEPSNTYPE
380
0
  9
$PSTYLEMODE
290
1
  9
$FINGERPRINTGUID
  2
C32596D6-98B5-11EB-A6A7-98FA9B02E1F3
  9
$VERSIONGUID
  2
C32B4A36-98B5-11EB-A6A7-98FA9B02E1F3
  9
$EXTNAMES
290
1
  9
$PSVPSCALE
 40
0.0
  9
$OLESTARTUP
290
0
  9
$SORTENTS
280
127
  9
$INDEXCTL
280
0
  9
$HIDETEXT
280
1
  9
$XCLIPFRAME
280
2
  9
$HALOGAP
280
0
  9
$OBSCOLOR
 70
257
  9
$OBSLTYPE
280
0
  9
$INTERSECTIONDISPLAY
280
0
  9
$INTERSECTIONCOLOR
 70
257
  9
$DIMASSOC
280
2
  9
$PROJECTNAME
  1

  9
$CAMERADISPLAY
290
0
  9
$LENSLENGTH
 40
50.0
  9
$CAMERAHEIGHT
 40
0.0
  9
$STEPSPERSEC
 40
24.0
  9
$STEPSIZE
 40
100.0
  9
$3DDWFPREC
 40
2.0
  9
$PSOLWIDTH
 40
0.005
  9
$PSOLHEIGHT
 40
0.08
  9
$LOFTANG1
 40
1.570796326795
  9
$LOFTANG2
 40
1.570796326795
  9
$LOFTMAG1
 40
0.0
  9
$LOFTMAG2
 40
0.0
  9
$LOFTPARAM
 70
7
  9
$LOFTNORMALS
280
1
  9
$LATITUDE
 40
37.795
  9
$LONGITUDE
 40
-122.394
  9
$NORTHDIRECTION
 40
0.0
  9
$TIMEZONE
 70
-8000
  9
$LIGHTGLYPHDISPLAY
280
1
  9
$TILEMODELIGHTSYNCH
280
1
  9
$CMATERIAL
347
20
  9
$SOLIDHIST
280
0
  9
$SHOWHIST
280
1
  9
$DWFFRAME
280
2
  9
$DGNFRAME
280
2
  9
$REALWORLDSCALE
290
1
  9
$INTERFERECOLOR
 62
256
  9
$CSHADOW
280
0
  9
$SHADOWPLANELOCATION
 40
0.0
  0
ENDSEC
  0
SECTION
  2
CLASSES
  0
CLASS
  1
ACDBDICTIONARYWDFLT
  2
AcDbDictionaryWithDefault
  3
ObjectDBX Classes
 90
0
 91
0
280
0
281
0
  0
CLASS
  1
SUN
  2
AcDbSun
  3
SCENEOE
 90
1153
 91
0
280
0
281
0
  0
CLASS
  1
VISUALSTYLE
  2
AcDbVisualStyle
  3
ObjectDBX Classes
 90
4095
 91
0
280
0
281
0
  0
CLASS
  1
MATERIAL
  2
AcDbMaterial
  3
ObjectDBX Classes
 90
1153
 91
0
280
0
281
0
  0
CLASS
  1
SCALE
  2
AcDbScale
  3
ObjectDBX Classes
 90
1153
 91
0
280
0
281
0
  0
CLASS
  1
TABLESTYLE
  2
AcDbTableStyle
  3
ObjectDBX Classes
 90
4095
 91
0
280
0
281
0
  0
CLASS
  1
MLEADERSTYLE
  2
AcDbMLeaderStyle
  3
ACDB_MLEADERSTYLE_CLASS
 90
4095
 91
0
280
0
281
0
  0
CLASS
  1
DICTIONARYVAR
  2
AcDbDictionaryVar
  3
ObjectDBX Classes
 90
0
 91
0
280
0
281
0
  0
CLASS
  1
CELLSTYLEMAP
  2
AcDbCellStyleMap
  3
ObjectDBX Classes
 90
1152
 91
0
280
0
281
0
  0
CLASS
  1
MENTALRAYRENDERSETTINGS
  2
AcDbMentalRayRenderSettings
  3
SCENEOE
 90
1024
 91
0
280
0
281
0
  0
CLASS
  1
ACDBDETAILVIEWSTYLE
  2
AcDbDetailViewStyle
  3
ObjectDBX Classes
 90
1025
 91
0
280
0
281
0
  0
CLASS
  1
ACDBSECTIONVIEWSTYLE
  2
AcDbSectionViewStyle
  3
ObjectDBX Classes
 90
1025
 91
0
280
0
281
0
  0
CLASS
  1
RASTERVARIABLES
  2
AcDbRasterVariables
  3
ISM
 90
0
 91
0
280
0
281
0
  0
CLASS
  1
ACDBPLACEHOLDER
  2
AcDbPlaceHolder
  3
ObjectDBX Classes
 90
0
 91
0
280
0
281
0
  0
CLASS
  1
LAYOUT
  2
AcDbLayout
  3
ObjectDBX Classes
 90
0
 91
0
280
0
281
0
  0
ENDSEC
  0
SECTION
  2
TABLES
  0
TABLE
  2
VPORT
  5
8
330
0
100
AcDbSymbolTable
 70
1
  0
VPORT
  5
23
330
8
100
AcDbSymbolTableRecord
100
AcDbViewportTableRecord
  2
*Active
 70
0
 10
0.0
 20
0.0
 11
1.0
 21
1.0
 12
70.0
 22
50.0
 13
0.0
 23
0.0
 14
0.5
 24
0.5
 15
0.5
 25
0.5
 16
0.0
 26
0.0
 36
1.0
 17
0.0
 27
0.0
 37
0.0
 40
1.0
 41
1.34
 42
50.0
 43
0.0
 44
0.0
 50
0.0
 51
0.0
 71
0
 72
1000
 73
1
 74
3
 75
0
 76
0
 77
0
 78
0
281
0
 65
0
146
0.0
  0
ENDTAB
  0
TABLE
  2
LTYPE
  5
2
330
0
100
AcDbSymbolTable
 70
21
  0
LTYPE
  5
24
330
2
100
AcDbSymbolTableRecord
100
AcDbLinetypeTableRecord
  2
ByBlock
 70
0
  3

 72
65
 73
0
 40
0.0
  0
LTYPE
  5
25
330
2
100
AcDbSymbolTableRecord
100
AcDbLinetypeTableRecord
  2
ByLayer
 70
0
  3

 72
65
 73
0
 40
0.0
  0
LTYPE
  5
26
330
2
100
AcDbSymbolTableRecord
100
AcDbLinetypeTableRecord
  2
Continuous
 70
0
  3

 72
65
 73
0
 40
0.0
  0
LTYPE
  5
2D
330
2
100
AcDbSymbolTableRecord
100
AcDbLinetypeTableRecord
  2
CENTER
 70
0
  3
Center ____ _ ____ _ ____ _ ____ _ ____ _ ____
 72
65
 73
4
 40
5.08
 49
3.175
 74
0
 49
-0.635
 74
0
 49
0.635
 74
0
 49
-0.635
 74
0
  0
LTYPE
  5
2E
330
2
100
AcDbSymbolTableRecord
100
AcDbLinetypeTableRecord
  2
CENTERX2
 70
0
  3
Center (2x) ________  __  ________  __  ________
 72
65
 73
4
 40
8.89
 49
6.35
 74
0
 49
-0.635
 74
0
 49
1.27
 74
0
 49
-0.635
 74
0
  0
LTYPE
  5
2F
330
2
100
AcDbSymbolTableRecord
100
AcDbLinetypeTableRecord
  2
CENTER2
 70
0
  3
Center (.5x) ____ _ ____ _ ____ _ ____ _ ____
 72
65
 73
4
 40
2.54
 49
1.587
 74
0
 49
-0.318
 74
0
 49
0.318
 74
0
 49
-0.318
 74
0
  0
LTYPE
  5
30
330
2
100
AcDbSymbolTableRecord
100
AcDbLinetypeTableRecord
  2
DASHED
 70
0
  3
Dashed __ __ __ __ __ __ __ __ __ __ __ __ __ _
 72
65
 73
2
 40
1.524
 49
1.27
 74
0
 49
-0.254
 74
0
  0
LTYPE
  5
31
330
2
100
AcDbSymbolTableRecord
100
AcDbLinetypeTableRecord
  2
DASHEDX2
 70
0
  3
Dashed (2x) ____  ____  ____  ____  ____  ____
 72
65
 73
2
 40
3.048
 49
2.54
 74
0
 49
-0.508
 74
0
  0
LTYPE
  5
32
330
2
100
AcDbSymbolTableRecord
100
AcDbLinetypeTableRecord
  2
DASHED2
 70
0
  3
Dashed (.5x) _ _ _ _ _ _ _ _ _ _ _ _ _ _
 72
65
 73
2
 40
0.762
 49
0.635
 74
0
 49
-0.127
 74
0
  0
LTYPE
  5
33
330
2
100
AcDbSymbolTableRecord
100
AcDbLinetypeTableRecord
  2
PHANTOM
 70
0
  3
Phantom ______  __  __  ______  __  __  ______
 72
65
 73
6
 40
6.35
 49
3.175
 74
0
 49
-0.635
 74
0
 49
0.635
 74
0
 49
-0.635
 74
0
 49
0.635
 74
0
 49
-0.635
 74
0
  0
LTYPE
  5
34
330
2
100
AcDbSymbolTableRecord
100
AcDbLinetypeTableRecord
  2
PHANTOMX2
 70
0
  3
Phantom (2x)____________    ____    ____    ____________
 72
65
 73
6
 40
10.795
 49
6.35
 74
0
 49
-0.635
 74
0
 49
1.27
 74
0
 49
-0.635
 74
0
 49
1.27
 74
0
 49
-0.635
 74
0
  0
LTYPE
  5
35
330
2
100
AcDbSymbolTableRecord
100
AcDbLinetypeTableRecord
  2
PHANTOM2
 70
0
  3
Phantom (.5x) ___ _ _ ___ _ _ ___ _ _ ___ _ _ ___
 72
65
 73
6
 40
3.175
 49
1.587
 74
0
 49
-0.318
 74
0
 49
0.318
 74
0
 49
-0.318
 74
0
 49
0.318
 74
0
 49
-0.318
 74
0
  0
LTYPE
  5
36
330
2
100
AcDbSymbolTableRecord
100
AcDbLinetypeTableRecord
  2
DASHDOT
 70
0
  3
Dash dot __ . __ . __ . __ . __ . __ . __ . __
 72
65
 73
4
 40
3.556
 49
2.54
 74
0
 49
-0.508
 74
0
 49
0.0
 74
0
 49
-0.508
 74
0
  0
LTYPE
  5
37
330
2
100
AcDbSymbolTableRecord
100
AcDbLinetypeTableRecord
  2
DASHDOTX2
 70
0
  3
Dash dot (2x) ____  .  ____  .  ____  .  ____
 72
65
 73
4
 40
6.096
 49
5.08
 74
0
 49
-0.508
 74
0
 49
0.0
 74
0
 49
-0.508
 74
0
  0
LTYPE
  5
38
330
2
100
AcDbSymbolTableRecord
100
AcDbLinetypeTableRecord
  2
DASHDOT2
 70
0
  3
Dash dot (.5x) _ . _ . _ . _ . _ . _ . _ . _
 72
65
 73
4
 40
1.778
 49
1.27
 74
0
 49
-0.254
 74
0
 49
0.0
 74
0
 49
-0.254
 74
0
  0
LTYPE
  5
39
330
2
100
AcDbSymbolTableRecord
100
AcDbLinetypeTableRecord
  2
DOT
 70
0
  3
Dot .  .  .  .  .  .  .  .  .  .  .  .  .  .  .  .
 72
65
 73
2
 40
0.508
 49
0.0
 74
0
 49
-0.508
 74
0
  0
LTYPE
  5
3A
330
2
100
AcDbSymbolTableRecord
100
AcDbLinetypeTableRecord
  2
DOTX2
 70
0
  3
Dot (2x) .    .    .    .    .    .    .    . 
 72
65
 73
2
 40
1.016
 49
0.0
 74
0
 49
-1.016
 74
0
  0
LTYPE
  5
3B
330
2
100
AcDbSymbolTableRecord
100
AcDbLinetypeTableRecord
  2
DOT2
 70
0
  3
Dot (.5) . . . . . . . . . . . . . . . . . . . 
 72
65
 73
2
 40
0.254
 49
0.0
 74
0
 49
-0.254
 74
0
  0
LTYPE
  5
3C
330
2
100
AcDbSymbolTableRecord
100
AcDbLinetypeTableRecord
  2
DIVIDE
 70
0
  3
Divide __ . . __ . . __ . . __ . . __ . . __
 72
65
 73
6
 40
4.064
 49
2.54
 74
0
 49
-0.508
 74
0
 49
0.0
 74
0
 49
-0.508
 74
0
 49
0.0
 74
0
 49
-0.508
 74
0
  0
LTYPE
  5
3D
330
2
100
AcDbSymbolTableRecord
100
AcDbLinetypeTableRecord
  2
DIVIDEX2
 70
0
  3
Divide (2x) ____  . .  ____  . .  ____  . .  ____
 72
65
 73
6
 40
6.604
 49
5.08
 74
0
 49
-0.508
 74
0
 49
0.0
 74
0
 49
-0.508
 74
0
 49
0.0
 74
0
 49
-0.508
 74
0
  0
LTYPE
  5
3E
330
2
100
AcDbSymbolTableRecord
100
AcDbLinetypeTableRecord
  2
DIVIDE2
 70
0
  3
Divide(.5x) _ . _ . _ . _ . _ . _ . _ . _
 72
65
 73
6
 40
2.032
 49
1.27
 74
0
 49
-0.254
 74
0
 49
0.0
 74
0
 49
-0.254
 74
0
 49
0.0
 74
0
 49
-0.254
 74
0
  0
ENDTAB
  0
TABLE
  2
LAYER
  5
1
330
0
100
AcDbSymbolTable
 70
5
  0
LAYER
  5
27
330
1
100
AcDbSymbolTableRecord
100
AcDbLayerTableRecord
  2
0
 70
0
 62
7
  6
Continuous
370
-3
390
13
347
21
  0
LAYER
  5
28
330
1
100
AcDbSymbolTableRecord
100
AcDbLayerTableRecord
  2
Defpoints
 70
0
 62
7
  6
Continuous
290
0
370
-3
390
13
347
21
  0
LAYER
  5
87
330
1
100
AcDbSymbolTableRecord
100
AcDbLayerTableRecord
  2
Inner
 70
0
 62
2
  6
CONTINUOUS
370
-3
390
13
347
21
  0
LAYER
  5
88
330
1
100
AcDbSymbolTableRecord
100
AcDbLayerTableRecord
  2
Outer
 70
0
 62
1
  6
CONTINUOUS
370
-3
390
13
347
21
  0
LAYER
  5
89
330
1
100
AcDbSymbolTableRecord
100
AcDbLayerTableRecord
  2
Fill
 70
0
 62
3
  6
CONTINUOUS
370
-3
390
13
347
21
  0
ENDTAB
  0
TABLE
  2
STYLE
  5
5
330
0
100
AcDbSymbolTable
 70
26
  0
STYLE
  5
29
330
5
100
AcDbSymbolTableRecord
100
AcDbTextStyleTableRecord
  2
Standard
 70
0
 40
0.0
 41
1.0
 50
0.0
 71
0
 42
2.5
  3
txt
  4

  0
STYLE
  5
3F
330
5
100
AcDbSymbolTableRecord
100
AcDbTextStyleTableRecord
  2
OpenSans-Light
 70
0
 40
0.0
 41
1.0
 50
0.0
 71
0
 42
2.5
  3
OpenSans-Light.ttf
  4

  0
STYLE
  5
40
330
5
100
AcDbSymbolTableRecord
100
AcDbTextStyleTableRecord
  2
OpenSans-Light-Italic
 70
0
 40
0.0
 41
1.0
 50
0.0
 71
0
 42
2.5
  3
OpenSans-LightItalic.ttf
  4

  0
STYLE
  5
41
330
5
100
AcDbSymbolTableRecord
100
AcDbTextStyleTableRecord
  2
OpenSans
 70
0
 40
0.0
 41
1.0
 50
0.0
 71
0
 42
2.5
  3
OpenSans-Regular.ttf
  4

  0
STYLE
  5
42
330
5
100
AcDbSymbolTableRecord
100
AcDbTextStyleTableRecord
  2
OpenSans-Italic
 70
0
 40
0.0
 41
1.0
 50
0.0
 71
0
 42
2.5
  3
OpenSans-Italic.ttf
  4

  0
STYLE
  5
43
330
5
100
AcDbSymbolTableRecord
100
AcDbTextStyleTableRecord
  2
OpenSans-SemiBold
 70
0
 40
0.0
 41
1.0
 50
0.0
 71
0
 42
2.5
  3
OpenSans-SemiBold.ttf
  4

  0
STYLE
  5
44
330
5
100
AcDbSymbolTableRecord
100
AcDbTextStyleTableRecord
  2
OpenSans-SemiBoldItalic
 70
0
 40
0.0
 41
1.0
 50
0.0
 71
0
 42
2.5
  3
OpenSans-SemiBoldItalic.ttf
  4

  0
STYLE
  5
45
330
5
100
AcDbSymbolTableRecord
100
AcDbTextStyleTableRecord
  2
OpenSans-Bold
 70
0
 40
0.0
 41
1.0
 50
0.0
 71
0
 42
2.5
  3
OpenSans-Bold.ttf
  4

  0
STYLE
  5
46
330
5
100
AcDbSymbolTableRecord
100
AcDbTextStyleTableRecord
  2
OpenSans-BoldItalic
 70
0
 40
0.0
 41
1.0
 50
0.0
 71
0
 42
2.5
  3
OpenSans-BoldItalic.ttf
  4

  0
STYLE
  5
47
330
5
100
AcDbSymbolTableRecord
100
AcDbTextStyleTableRecord
  2
OpenSans-ExtraBold
 70
0
 40
0.0
 41
1.0
 50
0.0
 71
0
 42
2.5
  3
OpenSans-ExtraBold.ttf
  4

  0
STYLE
  5
48
330
5
100
AcDbSymbolTableRecord
100
AcDbTextStyleTableRecord
  2
OpenSans-ExtraBoldItalic
 70
0
 40
0.0
 41
1.0
 50
0.0
 71
0
 42
2.5
  3
OpenSans-ExtraBoldItalic.ttf
  4

  0
STYLE
  5
49
330
5
100
AcDbSymbolTableRecord
100
AcDbTextStyleTableRecord
  2
OpenSansCondensed-Bold
 70
0
 40
0.0
 41
1.0
 50
0.0
 71
0
 42
2.5
  3
OpenSansCondensed-Bold.ttf
  4

  0
STYLE
  5
4A
330
5
100
AcDbSymbolTableRecord
100
AcDbTextStyleTableRecord
  2
OpenSansCondensed-Light
 70
0
 40
0.0
 41
1.0
 50
0.0
 71
0
 42
2.5
  3
OpenSansCondensed-Light.ttf
  4

  0
STYLE
  5
4B
330
5
100
AcDbSymbolTableRecord
100
AcDbTextStyleTableRecord
  2
OpenSansCondensed-Italic
 70
0
 40
0.0
 41
1.0
 50
0.0
 71
0
 42
2.5
  3
OpenSansCondensed-LightItalic.ttf
  4

  0
STYLE
  5
4C
330
5
100
AcDbSymbolTableRecord
100
AcDbTextStyleTableRecord
  2
LiberationSans
 70
0
 40
0.0
 41
1.0
 50
0.0
 71
0
 42
2.5
  3
LiberationSans-Regular.ttf
  4

  0
STYLE
  5
4D
330
5
100
AcDbSymbolTableRecord
100
AcDbTextStyleTableRecord
  2
LiberationSans-Bold
 70
0
 40
0.0
 41
1.0
 50
0.0
 71
0
 42
2.5
  3
LiberationSans-Bold.ttf
  4

  0
STYLE
  5
4E
330
5
100
AcDbSymbolTableRecord
100
AcDbTextStyleTableRecord
  2
LiberationSans-BoldItalic
 70
0
 40
0.0
 41
1.0
 50
0.0
 71
0
 42
2.5
  3
LiberationSans-BoldItalic.ttf
  4

  0
STYLE
  5
4F
330
5
100
AcDbSymbolTableRecord
100
AcDbTextStyleTableRecord
  2
LiberationSans-Italic
 70
0
 40
0.0
 41
1.0
 50
0.0
 71
0
 42
2.5
  3
LiberationSans-Italic.ttf
  4

  0
STYLE
  5
50
330
5
100
AcDbSymbolTableRecord
100
AcDbTextStyleTableRecord
  2
LiberationSerif
 70
0
 40
0.0
 41
1.0
 50
0.0
 71
0
 42
2.5
  3
LiberationSerif-Regular.ttf
  4

  0
STYLE
  5
51
330
5
100
AcDbSymbolTableRecord
100
AcDbTextStyleTableRecord
  2
LiberationSerif-Bold
 70
0
 40
0.0
 41
1.0
 50
0.0
 71
0
 42
2.5
  3
LiberationSerif-Bold.ttf
  4

  0
STYLE
  5
52
330
5
100
AcDbSymbolTableRecord
100
AcDbTextStyleTableRecord
  2
LiberationSerif-BoldItalic
 70
0
 40
0.0
 41
1.0
 50
0.0
 71
0
 42
2.5
  3
LiberationSerif-BoldItalic.ttf
  4

  0
STYLE
  5
53
330
5
100
AcDbSymbolTableRecord
100
AcDbTextStyleTableRecord
  2
LiberationSerif-Italic
 70
0
 40
0.0
 41
1.0
 50
0.0
 71
0
 42
2.5
  3
LiberationSerif-Italic.ttf
  4

  0
STYLE
  5
54
330
5
100
AcDbSymbolTableRecord
100
AcDbTextStyleTableRecord
  2
LiberationMono
 70
0
 40
0.0
 41
1.0
 50
0.0
 71
0
 42
2.5
  3
LiberationMono-Regular.ttf
  4

  0
STYLE
  5
55
330
5
100
AcDbSymbolTableRecord
100
AcDbTextStyleTableRecord
  2
LiberationMono-Bold
 70
0
 40
0.0
 41
1.0
 50
0.0
 71
0
 42
2.5
  3
LiberationMono-Bold.ttf
  4

  0
STYLE
  5
56
330
5
100
AcDbSymbolTableRecord
100
AcDbTextStyleTableRecord
  2
LiberationMono-BoldItalic
 70
0
 40
0.0
 41
1.0
 50
0.0
 71
0
 42
2.5
  3
LiberationMono-BoldItalic.ttf
  4

  0
STYLE
  5
57
330
5
100
AcDbSymbolTableRecord
100
AcDbTextStyleTableRecord
  2
LiberationMono-Italic
 70
0
 40
0.0
 41
1.0
 50
0.0
 71
0
 42
2.5
  3
LiberationMono-Italic.ttf
  4

  0
ENDTAB
  0
TABLE
  2
VIEW
  5
7
330
0
100
AcDbSymbolTable
 70
0
  0
ENDTAB
  0
TABLE
  2
UCS
  5
6
330
0
100
AcDbSymbolTable
 70
0
  0
ENDTAB
  0
TABLE
  2
APPID
  5
3
330
0
100
AcDbSymbolTable
 70
2
  0
APPID
  5
2A
330
3
100
AcDbSymbolTableRecord
100
AcDbRegAppTableRecord
  2
ACAD
 70
0
  0
APPID
  5
1F2
330
3
100
AcDbSymbolTableRecord
100
AcDbRegAppTableRecord
  2
HATCHBACKGROUNDCOLOR
 70
0
  0
ENDTAB
  0
TABLE
  2
DIMSTYLE
  5
4
330
0
100
AcDbSymbolTable
 70
11
100
AcDbDimStyleTable
  0
DIMSTYLE
105
2B
330
4
100
AcDbSymbolTableRecord
100
AcDbDimStyleTableRecord
  2
Standard
 70
0
 40
1.0
 41
2.5
 42
0.625
 43
3.75
 44
1.25
 45
0.0
 46
0.0
 47
0.0
 48
0.0
 49
2.5
140
2.5
141
2.5
142
0.0
143
0.03937007874
144
1.0
145
0.0
146
1.0
147
0.625
148
0.0
 69
0
 70
0
 71
0
 72
0
 73
0
 74
0
 75
0
 76
0
 77
1
 78
8
 79
0
170
0
171
3
172
1
173
0
174
0
175
0
176
0
177
0
178
0
179
0
271
0
272
2
273
2
274
3
275
0
276
0
277
2
278
44
279
0
280
0
281
0
282
0
283
0
284
8
285
0
286
0
288
0
289
3
290
0
371
-2
372
-2
  0
DIMSTYLE
105
71
330
4
100
AcDbSymbolTableRecord
100
AcDbDimStyleTableRecord
  2
EZDXF
 70
0
 40
1.0
 41
0.175
 42
0.125
 43
3.75
 44
0.375
 45
0.0
 46
0.0
 47
0.0
 48
0.0
 49
2.5
140
0.25
141
2.5
142
0.0
143
0.03937007874
144
100.0
145
0.0
146
1.0
147
0.1
148
0.0
 69
0
 70
0
 71
0
 72
0
 73
0
 74
0
 75
0
 76
0
 77
1
 78
8
 79
0
170
0
171
3
172
1
173
0
174
0
175
0
176
0
177
0
178
0
179
0
271
2
272
2
273
2
274
3
275
0
276
0
277
2
278
46
279
2
280
0
281
0
282
0
283
0
284
8
285
0
286
0
288
1
289
3
290
0
340
4A
342
72
371
-2
372
-2
  0
DIMSTYLE
105
7A
330
4
100
AcDbSymbolTableRecord
100
AcDbDimStyleTableRecord
  2
EZ_M_100_H25_CM
 70
0
 40
1.0
 41
0.25
 42
0.125
 43
3.75
 44
0.375
 45
0.0
 46
0.0
 47
0.0
 48
0.0
 49
2.5
140
0.25
141
2.5
142
0.125
143
0.03937007874
144
100.0
145
0.0
146
1.0
147
0.1
148
0.0
 69
0
 70
0
 71
0
 72
0
 73
0
 74
0
 75
0
 76
0
 77
1
 78
8
 79
0
170
0
171
3
172
1
173
0
174
0
175
0
176
0
177
0
178
0
179
0
271
2
272
2
273
2
274
3
275
0
276
0
277
2
278
46
279
2
280
0
281
0
282
0
283
0
284
8
285
0
286
0
288
1
289
3
290
0
340
4A
371
-2
372
-2
  0
DIMSTYLE
105
7B
330
4
100
AcDbSymbolTableRecord
100
AcDbDimStyleTableRecord
  2
EZ_M_50_H25_CM
 70
0
 40
1.0
 41
0.125
 42
0.0625
 43
3.75
 44
0.1875
 45
0.0
 46
0.0
 47
0.0
 48
0.0
 49
2.5
140
0.125
141
2.5
142
0.0625
143
0.03937007874
144
100.0
145
0.0
146
1.0
147
0.05
148
0.0
 69
0
 70
0
 71
0
 72
0
 73
0
 74
0
 75
0
 76
0
 77
1
 78
8
 79
0
170
0
171
3
172
1
173
0
174
0
175
0
176
0
177
0
178
0
179
0
271
2
272
2
273
2
274
3
275
0
276
0
277
2
278
46
279
2
280
0
281
0
282
0
283
0
284
8
285
0
286
0
288
1
289
3
290
0
340
4A
371
-2
372
-2
  0
DIMSTYLE
105
7C
330
4
100
AcDbSymbolTableRecord
100
AcDbDimStyleTableRecord
  2
EZ_M_25_H25_CM
 70
0
 40
1.0
 41
0.0625
 42
0.03125
 43
3.75
 44
0.09375
 45
0.0
 46
0.0
 47
0.0
 48
0.0
 49
2.5
140
0.0625
141
2.5
142
0.03125
143
0.03937007874
144
100.0
145
0.0
146
1.0
147
0.025
148
0.0
 69
0
 70
0
 71
0
 72
0
 73
0
 74
0
 75
0
 76
0
 77
1
 78
8
 79
0
170
0
171
3
172
1
173
0
174
0
175
0
176
0
177
0
178
0
179
0
271
2
272
2
273
2
274
3
275
0
276
0
277
2
278
46
279
2
280
0
281
0
282
0
283
0
284
8
285
0
286
0
288
1
289
3
290
0
340
4A
371
-2
372
-2
  0
DIMSTYLE
105
7D
330
4
100
AcDbSymbolTableRecord
100
AcDbDimStyleTableRecord
  2
EZ_M_20_H25_CM
 70
0
 40
1.0
 41
0.05
 42
0.025
 43
3.75
 44
0.07500000000000001
 45
0.0
 46
0.0
 47
0.0
 48
0.0
 49
2.5
140
0.05
141
2.5
142
0.025
143
0.03937007874
144
100.0
145
0.0
146
1.0
147
0.020000000000000004
148
0.0
 69
0
 70
0
 71
0
 72
0
 73
0
 74
0
 75
0
 76
0
 77
1
 78
8
 79
0
170
0
171
3
172
1
173
0
174
0
175
0
176
0
177
0
178
0
179
0
271
2
272
2
273
2
274
3
275
0
276
0
277
2
278
46
279
2
280
0
281
0
282
0
283
0
284
8
285
0
286
0
288
1
289
3
290
0
340
4A
371
-2
372
-2
  0
DIMSTYLE
105
7E
330
4
100
AcDbSymbolTableRecord
100
AcDbDimStyleTableRecord
  2
EZ_M_10_H25_CM
 70
0
 40
1.0
 41
0.025
 42
0.0125
 43
3.75
 44
0.037500000000000006
 45
0.0
 46
0.0
 47
0.0
 48
0.0
 49
2.5
140
0.025
141
2.5
142
0.0125
143
0.03937007874
144
100.0
145
0.0
146
1.0
147
0.010000000000000002
148
0.0
 69
0
 70
0
 71
0
 72
0
 73
0
 74
0
 75
0
 76
0
 77
1
 78
8
 79
0
170
0
171
3
172
1
173
0
174
0
175
0
176
0
177
0
178
0
179
0
271
2
272
2
273
2
274
3
275
0
276
0
277
2
278
46
279
2
280
0
281
0
282
0
283
0
284
8
285
0
286
0
288
1
289
3
290
0
340
4A
371
-2
372
-2
  0
DIMSTYLE
105
7F
330
4
100
AcDbSymbolTableRecord
100
AcDbDimStyleTableRecord
  2
EZ_M_5_H25_CM
 70
0
 40
1.0
 41
0.0125
 42
0.00625
 43
3.75
 44
0.018750000000000003
 45
0.0
 46
0.0
 47
0.0
 48
0.0
 49
2.5
140
0.0125
141
2.5
142
0.00625
143
0.03937007874
144
100.0
145
0.0
146
1.0
147
0.005000000000000001
148
0.0
 69
0
 70
0
 71
0
 72
0
 73
0
 74
0
 75
0
 76
0
 77
1
 78
8
 79
0
170
0
171
3
172
1
173
0
174
0
175
0
176
0
177
0
178
0
179
0
271
2
272
2
273
2
274
3
275
0
276
0
277
2
278
46
279
2
280
0
281
0
282
0
283
0
284
8
285
0
286
0
288
1
289
3
290
0
340
4A
371
-2
372
-2
  0
DIMSTYLE
105
80
330
4
100
AcDbSymbolTableRecord
100
AcDbDimStyleTableRecord
  2
EZ_M_1_H25_CM
 70
0
 40
1.0
 41
0.0025
 42
0.00125
 43
3.75
 44
0.00375
 45
0.0
 46
0.0
 47
0.0
 48
0.0
 49
2.5
140
0.0025
141
2.5
142
0.00125
143
0.03937007874
144
100.0
145
0.0
146
1.0
147
0.001
148
0.0
 69
0
 70
0
 71
0
 72
0
 73
0
 74
0
 75
0
 76
0
 77
1
 78
8
 79
0
170
0
171
3
172
1
173
0
174
0
175
0
176
0
177
0
178
0
179
0
271
2
272
2
273
2
274
3
275
0
276
0
277
2
278
46
279
2
280
0
281
0
282
0
283
0
284
8
285
0
286
0
288
1
289
3
290
0
340
4A
371
-2
372
-2
  0
DIMSTYLE
105
81
330
4
100
AcDbSymbolTableRecord
100
AcDbDimStyleTableRecord
  2
EZ_RADIUS
 70
0
 40
1.0
 41
0.25
 42
0.125
 43
3.75
 44
0.375
 45
0.0
 46
0.0
 47
0.0
 48
0.0
 49
2.5
140
0.25
141
0.0
142
0.0
143
0.03937007874
144
100.0
145
0.0
146
1.0
147
0.1
148
0.0
 69
0
 70
0
 71
0
 72
0
 73
0
 74
0
 75
0
 76
0
 77
1
 78
8
 79
0
170
0
171
3
172
0
173
0
174
0
175
0
176
0
177
0
178
0
179
0
271
2
272
2
273
2
274
3
275
0
276
0
277
2
278
46
279
1
280
0
281
0
282
0
283
0
284
8
285
0
286
0
288
1
289
3
290
0
340
4A
342
82
371
-2
372
-2
  0
DIMSTYLE
105
86
330
4
100
AcDbSymbolTableRecord
100
AcDbDimStyleTableRecord
  2
EZ_RADIUS_INSIDE
 70
0
 40
1.0
 41
0.25
 42
0.125
 43
3.75
 44
0.375
 45
0.0
 46
0.0
 47
0.0
 48
0.0
 49
2.5
140
0.25
141
0.0
142
0.0
143
0.03937007874
144
100.0
145
0.0
146
1.0
147
0.1
148
0.0
 69
0
 70
0
 71
0
 72
0
 73
0
 74
0
 75
0
 76
0
 77
0
 78
8
 79
0
170
0
171
3
172
0
173
0
174
1
175
0
176
0
177
0
178
0
179
0
271
2
272
2
273
2
274
3
275
0
276
0
277
2
278
46
279
0
280
0
281
0
282
0
283
0
284
8
285
0
286
0
288
1
289
0
290
0
340
4A
342
82
371
-2
372
-2
  0
ENDTAB
  0
TABLE
  2
BLOCK_RECORD
  5
9
330
0
100
AcDbSymbolTable
 70
5
  0
BLOCK_RECORD
  5
17
330
9
100
AcDbSymbolTableRecord
100
AcDbBlockTableRecord
  2
*Model_Space
340
1A
 70
0
280
1
281
0
  0
BLOCK_RECORD
  5
1B
330
9
100
AcDbSymbolTableRecord
100
AcDbBlockTableRecord
  2
*Paper_Space
340
1E
 70
0
280
1
281
0
  0
BLOCK_RECORD
  5
72
330
9
100
AcDbSymbolTableRecord
100
AcDbBlockTableRecord
  2
_ARCHTICK
340
0
 70
0
280
1
281
0
  0
BLOCK_RECORD
  5
76
330
9
100
AcDbSymbolTableRecord
100
AcDbBlockTableRecord
  2
_CLOSEDFILLED
340
0
 70
0
280
1
281
0
  0
BLOCK_RECORD
  5
82
330
9
100
AcDbSymbolTableRecord
100
AcDbBlockTableRecord
  2
_CLOSEDBLANK
340
0
 70
0
280
1
281
0
  0
ENDTAB
  0
ENDSEC
  0
SECTION
  2
BLOCKS
  0
BLOCK
  5
18
330
17
100
AcDbEntity
  8
0
100
AcDbBlockBegin
  2
*Model_Space
 70
0
 10
0.0
 20
0.0
 30
0.0
  3
*Model_Space
  1

  0
ENDBLK
  5
19
330
17
100
AcDbEntity
  8
0
100
AcDbBlockEnd
  0
BLOCK
  5
1C
330
1B
100
AcDbEntity
  8
0
100
AcDbBlockBegin
  2
*Paper_Space
 70
0
 10
0.0
 20
0.0
 30
0.0
  3
*Paper_Space
  1

  0
ENDBLK
  5
1D
330
1B
100
AcDbEntity
  8
0
100
AcDbBlockEnd
  0
BLOCK
  5
73
330
72
100
AcDbEntity
  8
0
100
AcDbBlockBegin
  2
_ARCHTICK
 70
0
 10
0.0
 20
0.0
 30
0.0
  3
_ARCHTICK
  1

  0
LWPOLYLINE
  5
75
330
72
100
AcDbEntity
  8
0
  6
BYBLOCK
 62
0
100
AcDbPolyline
 90
2
 70
0
 43
0.15
 10
-0.5
 20
-0.5000000000000001
 10
0.5000000000000001
 20
0.5
  0
ENDBLK
  5
74
330
72
100
AcDbEntity
  8
0
100
AcDbBlockEnd
  0
BLOCK
  5
77
330
76
100
AcDbEntity
  8
0
100
AcDbBlockBegin
  2
_CLOSEDFILLED
 70
0
 10
0.0
 20
0.0
 30
0.0
  3
_CLOSEDFILLED
  1

  0
SOLID
  5
79
330
76
100
AcDbEntity
  8
0
  6
BYBLOCK
 62
0
100
AcDbTrace
 10
-1.0
 20
0.1643989837240255
 30
0.0
 11
0.0
 21
0.0
 31
0.0
 12
-1.0
 22
-0.1643989837240255
 32
0.0
 13
-1.0
 23
-0.1643989837240255
 33
0.0
  0
ENDBLK
  5
78
330
76
100
AcDbEntity
  8
0
100
AcDbBlockEnd
  0
BLOCK
  5
83
330
82
100
AcDbEntity
  8
0
100
AcDbBlockBegin
  2
_CLOSEDBLANK
 70
0
 10
0.0
 20
0.0
 30
0.0
  3
_CLOSEDBLANK
  1

  0
LWPOLYLINE
  5
85
330
82
100
AcDbEntity
  8
0
  6
BYBLOCK
 62
0
100
AcDbPolyline
 90
3
 70
1
 10
-1.0
 20
0.1643989837240255
 10
0.0
 20
0.0
 10
-1.0
 20
-0.1643989837240255
  0
ENDBLK
  5
84
330
82
100
AcDbEntity
  8
0
100
AcDbBlockEnd
  0
ENDSEC
  0
SECTION
  2
ENTITIES
  0
LINE
  5
8A
330
17
100
AcDbEntity
  8
Inner
100
AcDbLine
 10
3.0
 20
0.0
 30
0.0
 11
480.0
 21
-4.702643708725837e-13
 31
0.0
  0
LINE
  5
8B
330
17
100
AcDbEntity
  8
Inner
100
AcDbLine
 10
480.0
 20
-4.702643708725837e-13
 30
0.0
 11
481.49460960707626
 21
33.66938301780713
 31
0.0
  0
LINE
  5
8C
330
17
100
AcDbEntity
  8
Inner
100
AcDbLine
 10
481.49460960707626
 20
33.66938301780713
 30
0.0
 11
480.62477333396413
 21
67.54740682300348
 31
0.0
  0
LINE
  5
8D
330
17
100
AcDbEntity
  8
Inner
100
AcDbLine
 10
480.62477333396413
 20
67.54740682300348
 30
0.0
 11
477.3686340781216
 21
101.46783550876059
 31
0.0
  0
LINE
  5
8E
330
17
100
AcDbEntity
  8
Inner
100
AcDbLine
 10
477.3686340781216
 20
101.46783550876059
 30
0.0
 11
471.7160357964574
 21
135.26239665307054
 31
0.0
  0
LINE
  5
8F
330
17
100
AcDbEntity
  8
Inner
100
AcDbLine
 10
471.7160357964574
 20
135.26239665307054
 30
0.0
 11
463.6687014970471
 21
168.76160590578536
 31
0.0
  0
LINE
  5
90
330
17
100
AcDbEntity
  8
Inner
100
AcDbLine
 10
463.6687014970471
 20
168.76160590578536
 30
0.0
 11
453.2403530517495
 21
201.79560651800602
 31
0.0
  0
LINE
  5
91
330
17
100
AcDbEntity
  8
Inner
100
AcDbLine
 10
453.2403530517495
 20
201.79560651800602
 30
0.0
 11
440.4567716095407
 21
234.19501970395896
 31
0.0
  0
LINE
  5
92
330
17
100
AcDbEntity
  8
Inner
100
AcDbLine
 10
440.4567716095407
 20
234.19501970395896
 30
0.0
 11
425.35579768106606
 21
265.7918016278427
 31
0.0
  0
LINE
  5
93
330
17
100
AcDbEntity
  8
Inner
100
AcDbLine
 10
425.35579768106606
 20
265.7918016278427
 30
0.0
 11
407.9872702632863
 21
296.42010273109383
 31
0.0
  0
LINE
  5
94
330
17
100
AcDbEntity
  8
Inner
100
AcDbLine
 10
407.9872702632863
 20
296.42010273109383
 30
0.0
 11
388.41290467773433
 21
325.9171250595817
 31
0.0
  0
LINE
  5
95
330
17
100
AcDbEntity
  8
Inner
100
AcDbLine
 10
388.41290467773433
 20
325.9171250595817
 30
0.0
 11
366.7061091052303
 21
354.1239732160998
 31
0.0
  0
LINE
  5
96
330
17
100
AcDbEntity
  8
Inner
100
AcDbLine
 10
366.7061091052303
 20
354.1239732160998
 30
0.0
 11
342.95174011246013
 21
380.88649455134725
 31
0.0
  0
LINE
  5
97
330
17
100
AcDbEntity
  8
Inner
100
AcDbLine
 10
342.95174011246013
 20
380.88649455134725
 30
0.0
 11
317.24579777993915
 21
406.0561042168502
 31
0.0
  0
LINE
  5
98
330
17
100
AcDbEntity
  8
Inner
100
AcDbLine
 10
317.24579777993915
 20
406.0561042168502
 30
0.0
 11
289.6950613550902
 21
429.4905907359589
 31
0.0
  0
LINE
  5
99
330
17
100
AcDbEntity
  8
Inner
100
AcDbLine
 10
289.6950613550902
 20
429.4905907359589
 30
0.0
 11
260.4166666666676
 21
451.0548978043945
 31
0.0
  0
LINE
  5
9A
330
17
100
AcDbEntity
  8
Inner
100
AcDbLine
 10
260.4166666666676
 20
451.0548978043945
 30
0.0
 11
229.53762684612053
 21
470.6218781095966
 31
0.0
  0
LINE
  5
9B
330
17
100
AcDbEntity
  8
Inner
100
AcDbLine
 10
229.53762684612053
 20
470.6218781095966
 30
0.0
 11
197.19429820596363
 21
488.07301505823295
 31
0.0
  0
LINE
  5
9C
330
17
100
AcDbEntity
  8
Inner
100
AcDbLine
 10
197.19429820596363
 20
488.07301505823295
 30
0.0
 11
163.5317934232227
 21
503.2991084233952
 31
0.0
  0
LINE
  5
9D
330
17
100
AcDbEntity
  8
Inner
100
AcDbLine
 10
163.5317934232227
 20
503.2991084233952
 30
0.0
 11
128.7033444660449
 21
516.2009200667051
 31
0.0
  0
LINE
  5
9E
330
17
100
AcDbEntity
  8
Inner
100
AcDbLine
 10
128.7033444660449
 20
516.2009200667051
 30
0.0
 11
92.86961798186893
 21
526.6897760554181
 31
0.0
  0
LINE
  5
9F
330
17
100
AcDbEntity
  8
Inner
100
AcDbLine
 10
92.86961798186893
 20
526.6897760554181
 30
0.0
 11
56.19798613479934
 21
534.6881216798294
 31
0.0
  0
LINE
  5
A0
330
17
100
AcDbEntity
  8
Inner
100
AcDbLine
 10
56.19798613479934
 20
534.6881216798294
 30
0.0
 11
18.861756136354984
 21
540.1300260812391
 31
0.0
  0
LINE
  5
A1
330
17
100
AcDbEntity
  8
Inner
100
AcDbLine
 10
18.861756136354984
 20
540.1300260812391
 30
0.0
 11
-18.960638043677605
 21
542.9616334244597
 31
0.0
  0
LINE
  5
A2
330
17
100
AcDbEntity
  8
Inner
100
AcDbLine
 10
-18.960638043677605
 20
542.9616334244597
 30
0.0
 11
-57.086478072575204
 21
543.1415577904596
 31
0.0
  0
LINE
  5
A3
330
17
100
AcDbEntity
  8
Inner
100
AcDbLine
 10
-57.086478072575204
 20
543.1415577904596
 30
0.0
 11
-95.3296338321512
 21
540.6412192230908
 31
0.0
  0
LINE
  5
A4
330
17
100
AcDbEntity
  8
Inner
100
AcDbLine
 10
-95.3296338321512
 20
540.6412192230908
 30
0.0
 11
-133.5014620621039
 21
535.4451186378459
 31
0.0
  0
LINE
  5
A5
330
17
100
AcDbEntity
  8
Inner
100
AcDbLine
 10
-133.5014620621039
 20
535.4451186378459
 30
0.0
 11
-171.41172677978275
 21
527.5510495889217
 31
0.0
  0
LINE
  5
A6
330
17
100
AcDbEntity
  8
Inner
100
AcDbLine
 10
-171.41172677978275
 20
527.5510495889217
 30
0.0
 11
-208.86953703409188
 21
516.9702451922317
 31
0.0
  0
LINE
  5
A7
330
17
100
AcDbEntity
  8
Inner
100
AcDbLine
 10
-208.86953703409188
 20
516.9702451922317
 30
0.0
 11
-245.6842974195189
 21
503.7274588149488
 31
0.0
  0
LINE
  5
A8
330
17
100
AcDbEntity
  8
Inner
100
AcDbLine
 10
-245.6842974195189
 20
503.7274588149488
 30
0.0
 11
-281.66666666666674
 21
487.86097746523376
 31
0.0
  0
LINE
  5
A9
330
17
100
AcDbEntity
  8
Inner
100
AcDbLine
 10
-281.66666666666674
 20
487.86097746523376
 30
0.0
 11
-316.6295195389302
 21
469.4225671473607
 31
0.0
  0
LINE
  5
AA
330
17
100
AcDbEntity
  8
Inner
100
AcDbLine
 10
-316.6295195389302
 20
469.4225671473607
 30
0.0
 11
-350.38890720163624
 21
448.47734978601284
 31
0.0
  0
LINE
  5
AB
330
17
100
AcDbEntity
  8
Inner
100
AcDbLine
 10
-350.38890720163624
 20
448.47734978601284
 30
0.0
 11
-382.7650111908127
 21
425.1036116672516
 31
0.0
  0
LINE
  5
AC
330
17
100
AcDbEntity
  8
Inner
100
AcDbLine
 10
-382.7650111908127
 20
425.1036116672516
 30
0.0
 11
-413.5830860939663
 21
399.39254369101053
 31
0.0
  0
LINE
  5
AD
330
17
100
AcDbEntity
  8
Inner
100
AcDbLine
 10
-413.5830860939663
 20
399.39254369101053
 30
0.0
 11
-442.67438606532784
 21
371.4479140790457
 31
0.0
  0
LINE
  5
AE
330
17
100
AcDbEntity
  8
Inner
100
AcDbLine
 10
-442.67438606532784
 20
371.4479140790457
 30
0.0
 11
-469.8770703329691
 21
341.3856745314689
 31
0.0
  0
LINE
  5
AF
330
17
100
AcDbEntity
  8
Inner
100
AcDbLine
 10
-469.8770703329691
 20
341.3856745314689
 30
0.0
 11
-495.03708291525174
 21
309.3335011723387
 31
0.0
  0
LINE
  5
B0
330
17
100
AcDbEntity
  8
Inner
100
AcDbLine
 10
-495.03708291525174
 20
309.3335011723387
 30
0.0
 11
-518.0090018489834
 21
275.4302719686523
 31
0.0
  0
LINE
  5
B1
330
17
100
AcDbEntity
  8
Inner
100
AcDbLine
 10
-518.0090018489834
 20
275.4302719686523
 30
0.0
 11
-538.6568533413323
 21
239.82548264559426
 31
0.0
  0
LINE
  5
B2
330
17
100
AcDbEntity
  8
Inner
100
AcDbLine
 10
-538.6568533413323
 20
239.82548264559426
 30
0.0
 11
-556.8548863916493
 21
202.67860345224852
 31
0.0
  0
LINE
  5
B3
330
17
100
AcDbEntity
  8
Inner
100
AcDbLine
 10
-556.8548863916493
 20
202.67860345224852
 30
0.0
 11
-572.4883035873243
 21
164.15837945455377
 31
0.0
  0
LINE
  5
B4
330
17
100
AcDbEntity
  8
Inner
100
AcDbLine
 10
-572.4883035873243
 20
164.15837945455377
 30
0.0
 11
-585.4539439592073
 21
124.44207734412214
 31
0.0
  0
LINE
  5
B5
330
17
100
AcDbEntity
  8
Inner
100
AcDbLine
 10
-585.4539439592073
 20
124.44207734412214
 30
0.0
 11
-595.66091398611
 21
83.714682051197
 31
0.0
  0
LINE
  5
B6
330
17
100
AcDbEntity
  8
Inner
100
AcDbLine
 10
-595.66091398611
 20
83.714682051197
 30
0.0
 11
-603.0311630637314
 21
42.16804673563409
 31
0.0
  0
LINE
  5
B7
330
17
100
AcDbEntity
  8
Inner
100
AcDbLine
 10
-603.0311630637314
 20
42.16804673563409
 30
0.0
 11
-607.5
 21
6.695756374338154e-13
 31
0.0
  0
LINE
  5
B8
330
17
100
AcDbEntity
  8
Inner
100
AcDbLine
 10
-607.5
 20
6.695756374338154e-13
 30
0.0
 11
-609.0165473652905
 21
-42.58658557809751
 31
0.0
  0
LINE
  5
B9
330
17
100
AcDbEntity
  8
Inner
100
AcDbLine
 10
-609.0165473652905
 20
-42.58658557809751
 30
0.0
 11
-607.5441308110087
 21
-85.3847592627186
 31
0.0
  0
LINE
  5
BA
330
17
100
AcDbEntity
  8
Inner
100
AcDbLine
 10
-607.5441308110087
 20
-85.3847592627186
 30
0.0
 11
-603.0606007724156
 21
-128.1844877788426
 31
0.0
  0
LINE
  5
BB
330
17
100
AcDbEntity
  8
Inner
100
AcDbLine
 10
-603.0606007724156
 20
-128.1844877788426
 30
0.0
 11
-595.5585842898441
 21
-170.77367599416044
 31
0.0
  0
LINE
  5
BC
330
17
100
AcDbEntity
  8
Inner
100
AcDbLine
 10
-595.5585842898441
 20
-170.77367599416044
 30
0.0
 11
-585.045665015227
 21
-212.93920775201732
 31
0.0
  0
LINE
  5
BD
330
17
100
AcDbEntity
  8
Inner
100
AcDbLine
 10
-585.045665015227
 20
-212.93920775201732
 30
0.0
 11
-571.5444898164656
 21
-254.46800179632388
 31
0.0
  0
LINE
  5
BE
330
17
100
AcDbEntity
  8
Inner
100
AcDbLine
 10
-571.5444898164656
 20
-254.46800179632388
 30
0.0
 11
-555.0928007490581
 21
-295.1480776056605
 31
0.0
  0
LINE
  5
BF
330
17
100
AcDbEntity
  8
Inner
100
AcDbLine
 10
-555.0928007490581
 20
-295.1480776056605
 30
0.0
 11
-535.743391530761
 21
-334.76962585553144
 31
0.0
  0
LINE
  5
C0
330
17
100
AcDbEntity
  8
Inner
100
AcDbLine
 10
-535.743391530761
 20
-334.76962585553144
 30
0.0
 11
-513.5639880292172
 21
-373.12607815526144
 31
0.0
  0
LINE
  5
C1
330
17
100
AcDbEntity
  8
Inner
100
AcDbLine
 10
-513.5639880292172
 20
-373.12607815526144
 30
0.0
 11
-488.63705265246745
 21
-410.015170660237
 31
0.0
  0
LINE
  5
C2
330
17
100
AcDbEntity
  8
Inner
100
AcDbLine
 10
-488.63705265246745
 20
-410.015170660237
 30
0.0
 11
-461.05951291631663
 21
-445.23999614130497
 31
0.0
  0
LINE
  5
C3
330
17
100
AcDbEntity
  8
Inner
100
AcDbLine
 10
-461.05951291631663
 20
-445.23999614130497
 30
0.0
 11
-430.94241484865
 21
-478.6100391016245
 31
0.0
  0
LINE
  5
C4
330
17
100
AcDbEntity
  8
Inner
100
AcDbLine
 10
-430.94241484865
 20
-478.6100391016245
 30
0.0
 11
-398.4105022770386
 21
-509.9421885673363
 31
0.0
  0
LINE
  5
C5
330
17
100
AcDbEntity
  8
Inner
100
AcDbLine
 10
-398.4105022770386
 20
-509.9421885673363
 30
0.0
 11
-363.6017234304741
 21
-539.0617232419835
 31
0.0
  0
LINE
  5
C6
330
17
100
AcDbEntity
  8
Inner
100
AcDbLine
 10
-363.6017234304741
 20
-539.0617232419835
 30
0.0
 11
-326.66666666666595
 21
-565.8032638058336
 31
0.0
  0
LINE
  5
C7
330
17
100
AcDbEntity
  8
Inner
100
AcDbLine
 10
-326.66666666666595
 20
-565.8032638058336
 30
0.0
 11
-287.7679275112696
 21
-590.0116872596692
 31
0.0
  0
LINE
  5
C8
330
17
100
AcDbEntity
  8
Inner
100
AcDbLine
 10
-287.7679275112696
 20
-590.0116872596692
 30
0.0
 11
-247.07940956251605
 21
-611.5429983580435
 31
0.0
  0
LINE
  5
C9
330
17
100
AcDbEntity
  8
Inner
100
AcDbLine
 10
-247.07940956251605
 20
-611.5429983580435
 30
0.0
 11
-204.7855621722784
 21
-630.2651533487981
 31
0.0
  0
LINE
  5
CA
330
17
100
AcDbEntity
  8
Inner
100
AcDbLine
 10
-204.7855621722784
 20
-630.2651533487981
 30
0.0
 11
-161.08055816046743
 21
-646.0588314333091
 31
0.0
  0
LINE
  5
CB
330
17
100
AcDbEntity
  8
Inner
100
AcDbLine
 10
-161.08055816046743
 20
-646.0588314333091
 30
0.0
 11
-116.16741515218204
 21
-658.8181495845561
 31
0.0
  0
LINE
  5
CC
330
17
100
AcDbEntity
  8
Inner
100
AcDbLine
 10
-116.16741515218204
 20
-658.8181495845561
 30
0.0
 11
-70.2570644442988
 21
-668.4513166068621
 31
0.0
  0
LINE
  5
CD
330
17
100
AcDbEntity
  8
Inner
100
AcDbLine
 10
-70.2570644442988
 20
-668.4513166068621
 30
0.0
 11
-23.567371608409037
 21
-674.8812225909804
 31
0.0
  0
LINE
  5
CE
330
17
100
AcDbEntity
  8
Inner
100
AcDbLine
 10
-23.567371608409037
 20
-674.8812225909804
 30
0.0
 11
23.677886681298716
 21
-678.0459602098742
 31
0.0
  0
LINE
  5
CF
330
17
100
AcDbEntity
  8
Inner
100
AcDbLine
 10
23.677886681298716
 20
-678.0459602098742
 30
0.0
 11
71.25008484534234
 21
-677.8992746128606
 31
0.0
  0
LINE
  5
D0
330
17
100
AcDbEntity
  8
Inner
100
AcDbLine
 10
71.25008484534234
 20
-677.8992746128606
 30
0.0
 11
118.91684463190924
 21
-674.4109390072491
 31
0.0
  0
LINE
  5
D1
330
17
100
AcDbEntity
  8
Inner
100
AcDbLine
 10
118.91684463190924
 20
-674.4109390072491
 30
0.0
 11
166.44316017959187
 21
-667.5670533657607
 31
0.0
  0
LINE
  5
D2
330
17
100
AcDbEntity
  8
Inner
100
AcDbLine
 10
166.44316017959187
 20
-667.5670533657607
 30
0.0
 11
213.59254651196287
 21
-657.3702640632104
 31
0.0
  0
LINE
  5
D3
330
17
100
AcDbEntity
  8
Inner
100
AcDbLine
 10
213.59254651196287
 20
-657.3702640632104
 30
0.0
 11
260.12820589983556
 21
-643.8399026254539
 31
0.0
  0
LINE
  5
D4
330
17
100
AcDbEntity
  8
Inner
100
AcDbLine
 10
260.12820589983556
 20
-643.8399026254539
 30
0.0
 11
305.81420638742077
 21
-627.0120421656512
 31
0.0
  0
LINE
  5
D5
330
17
100
AcDbEntity
  8
Inner
100
AcDbLine
 10
305.81420638742077
 20
-627.0120421656512
 30
0.0
 11
350.4166666666667
 21
-606.939470485594
 31
0.0
  0
LINE
  5
D6
330
17
100
AcDbEntity
  8
Inner
100
AcDbLine
 10
350.4166666666667
 20
-606.939470485594
 30
0.0
 11
393.70494140064795
 21
-583.6915792311974
 31
0.0
  0
LINE
  5
D7
330
17
100
AcDbEntity
  8
Inner
100
AcDbLine
 10
393.70494140064795
 20
-583.6915792311974
 30
0.0
 11
435.4528010424645
 21
-557.3541689093418
 31
0.0
  0
LINE
  5
D8
330
17
100
AcDbEntity
  8
Inner
100
AcDbLine
 10
435.4528010424645
 20
-557.3541689093418
 30
0.0
 11
475.4396001715147
 21
-528.0291699958706
 31
0.0
  0
LINE
  5
D9
330
17
100
AcDbEntity
  8
Inner
100
AcDbLine
 10
475.4396001715147
 20
-528.0291699958706
 30
0.0
 11
513.4514283743157
 21
-495.8342807897347
 31
0.0
  0
LINE
  5
DA
330
17
100
AcDbEntity
  8
Inner
100
AcDbLine
 10
513.4514283743157
 20
-495.8342807897347
 30
0.0
 11
549.2822377327188
 21
-460.90252309375575
 31
0.0
  0
LINE
  5
DB
330
17
100
AcDbEntity
  8
Inner
100
AcDbLine
 10
549.2822377327188
 20
-460.90252309375575
 30
0.0
 11
582.7349410482741
 21
-423.3817172262691
 31
0.0
  0
LINE
  5
DC
330
17
100
AcDbEntity
  8
Inner
100
AcDbLine
 10
582.7349410482741
 20
-423.3817172262691
 30
0.0
 11
613.6224750277919
 21
-383.4338782876155
 31
0.0
  0
LINE
  5
DD
330
17
100
AcDbEntity
  8
Inner
100
AcDbLine
 10
613.6224750277919
 20
-383.4338782876155
 30
0.0
 11
641.7688227813763
 21
-341.2345360191412
 31
0.0
  0
LINE
  5
DE
330
17
100
AcDbEntity
  8
Inner
100
AcDbLine
 10
641.7688227813763
 20
-341.2345360191412
 30
0.0
 11
667.0099901401177
 21
-296.97198099774425
 31
0.0
  0
LINE
  5
DF
330
17
100
AcDbEntity
  8
Inner
100
AcDbLine
 10
667.0099901401177
 20
-296.97198099774425
 30
0.0
 11
689.1949304856647
 21
-250.84644030394705
 31
0.0
  0
LINE
  5
E0
330
17
100
AcDbEntity
  8
Inner
100
AcDbLine
 10
689.1949304856647
 20
-250.84644030394705
 30
0.0
 11
708.1864129972836
 21
-203.06918618405376
 31
0.0
  0
LINE
  5
E1
330
17
100
AcDbEntity
  8
Inner
100
AcDbLine
 10
708.1864129972836
 20
-203.06918618405376
 30
0.0
 11
723.8618294630407
 21
-153.861581594835
 31
0.0
  0
LINE
  5
E2
330
17
100
AcDbEntity
  8
Inner
100
AcDbLine
 10
723.8618294630407
 20
-153.861581594835
 30
0.0
 11
736.1139350692895
 21
-103.45406687069963
 31
0.0
  0
LINE
  5
E3
330
17
100
AcDbEntity
  8
Inner
100
AcDbLine
 10
736.1139350692895
 20
-103.45406687069963
 30
0.0
 11
744.8515188756696
 21
-52.08509208625737
 31
0.0
  0
LINE
  5
E4
330
17
100
AcDbEntity
  8
Inner
100
AcDbLine
 10
744.8515188756696
 20
-52.08509208625737
 30
0.0
 11
750.0
 21
-9.18485099360515e-13
 31
0.0
  0
LINE
  5
E5
330
17
100
AcDbEntity
  8
Inner
100
AcDbLine
 10
750.0
 20
-9.18485099360515e-13
 30
0.0
 11
751.5019458774021
 21
52.550135244549715
 31
0.0
  0
LINE
  5
E6
330
17
100
AcDbEntity
  8
Inner
100
AcDbLine
 10
751.5019458774021
 20
52.550135244549715
 30
0.0
 11
749.3175093191769
 21
105.30970821683466
 31
0.0
  0
LINE
  5
E7
330
17
100
AcDbEntity
  8
Inner
100
AcDbLine
 10
749.3175093191769
 20
105.30970821683466
 30
0.0
 11
743.4247814777168
 21
158.019815411191
 31
0.0
  0
LINE
  5
E8
330
17
100
AcDbEntity
  8
Inner
100
AcDbLine
 10
743.4247814777168
 20
158.019815411191
 30
0.0
 11
733.8200582223059
 21
210.41951567250533
 31
0.0
  0
LINE
  5
E9
330
17
100
AcDbEntity
  8
Inner
100
AcDbLine
 10
733.8200582223059
 20
210.41951567250533
 30
0.0
 11
720.5180178451956
 21
262.2471117481343
 31
0.0
  0
LINE
  5
EA
330
17
100
AcDbEntity
  8
Inner
100
AcDbLine
 10
720.5180178451956
 20
262.2471117481343
 30
0.0
 11
703.5518084458213
 21
313.24144672077705
 31
0.0
  0
LINE
  5
EB
330
17
100
AcDbEntity
  8
Inner
100
AcDbLine
 10
703.5518084458213
 20
313.24144672077705
 30
0.0
 11
682.9730437814593
 21
363.1432089491503
 31
0.0
  0
LINE
  5
EC
330
17
100
AcDbEntity
  8
Inner
100
AcDbLine
 10
682.9730437814593
 20
363.1432089491503
 30
0.0
 11
658.851706822802
 21
411.6962390467182
 31
0.0
  0
LINE
  5
ED
330
17
100
AcDbEntity
  8
Inner
100
AcDbLine
 10
658.851706822802
 20
411.6962390467182
 30
0.0
 11
631.2759607107704
 21
458.64883236381826
 31
0.0
  0
LINE
  5
EE
330
17
100
AcDbEntity
  8
Inner
100
AcDbLine
 10
631.2759607107704
 20
458.64883236381826
 30
0.0
 11
600.3518672739852
 21
503.7550304061904
 31
0.0
  0
LINE
  5
EF
330
17
100
AcDbEntity
  8
Inner
100
AcDbLine
 10
600.3518672739852
 20
503.7550304061904
 30
0.0
 11
566.2030137324828
 21
546.7758946233951
 31
0.0
  0
LINE
  5
F0
330
17
100
AcDbEntity
  8
Inner
100
AcDbLine
 10
566.2030137324828
 20
546.7758946233951
 30
0.0
 11
528.970048680225
 21
587.480756034061
 31
0.0
  0
LINE
  5
F1
330
17
100
AcDbEntity
  8
Inner
100
AcDbLine
 10
528.970048680225
 20
587.480756034061
 30
0.0
 11
488.8101289040229
 21
625.6484342219233
 31
0.0
  0
LINE
  5
F2
330
17
100
AcDbEntity
  8
Inner
100
AcDbLine
 10
488.8101289040229
 20
625.6484342219233
 30
0.0
 11
445.89627905791696
 21
661.0684193363352
 31
0.0
  0
LINE
  5
F3
330
17
100
AcDbEntity
  8
Inner
100
AcDbLine
 10
445.89627905791696
 20
661.0684193363352
 30
0.0
 11
400.41666666666833
 21
693.5420108640369
 31
0.0
  0
LINE
  5
F4
330
17
100
AcDbEntity
  8
Inner
100
AcDbLine
 10
400.41666666666833
 20
693.5420108640369
 30
0.0
 11
352.573795378255
 21
722.8834071042295
 31
0.0
  0
LINE
  5
F5
330
17
100
AcDbEntity
  8
Inner
100
AcDbLine
 10
352.573795378255
 20
722.8834071042295
 30
0.0
 11
302.5836198203098
 21
748.9207394763547
 31
0.0
  0
LINE
  5
F6
330
17
100
AcDbEntity
  8
Inner
100
AcDbLine
 10
302.5836198203098
 20
748.9207394763547
 30
0.0
 11
250.67458583695833
 21
771.4970460186283
 31
0.0
  0
LINE
  5
F7
330
17
100
AcDbEntity
  8
Inner
100
AcDbLine
 10
250.67458583695833
 20
771.4970460186283
 30
0.0
 11
197.0866002888822
 21
790.4711786940538
 31
0.0
  0
LINE
  5
F8
330
17
100
AcDbEntity
  8
Inner
100
AcDbLine
 10
197.0866002888822
 20
790.4711786940538
 30
0.0
 11
142.069934987502
 21
805.7186394088765
 31
0.0
  0
LINE
  5
F9
330
17
100
AcDbEntity
  8
Inner
100
AcDbLine
 10
142.069934987502
 20
805.7186394088765
 30
0.0
 11
85.8840697028131
 21
817.132339964419
 31
0.0
  0
LINE
  5
FA
330
17
100
AcDbEntity
  8
Inner
100
AcDbLine
 10
85.8840697028131
 20
817.132339964419
 30
0.0
 11
28.79647953099772
 21
824.6232815060083
 31
0.0
  0
LINE
  5
FB
330
17
100
AcDbEntity
  8
Inner
100
AcDbLine
 10
28.79647953099772
 20
824.6232815060083
 30
0.0
 11
-28.918627769457274
 21
828.1211494005751
 31
0.0
  0
LINE
  5
FC
330
17
100
AcDbEntity
  8
Inner
100
AcDbLine
 10
-28.918627769457274
 20
828.1211494005751
 30
0.0
 11
-86.98161856712426
 21
827.5748198657857
 31
0.0
  0
LINE
  5
FD
330
17
100
AcDbEntity
  8
Inner
100
AcDbLine
 10
-86.98161856712426
 20
827.5748198657857
 30
0.0
 11
-145.1087780966683
 21
822.9527750865909
 31
0.0
  0
LINE
  5
FE
330
17
100
AcDbEntity
  8
Inner
100
AcDbLine
 10
-145.1087780966683
 20
822.9527750865909
 30
0.0
 11
-203.01368673107484
 21
814.2434239878156
 31
0.0
  0
LINE
  5
FF
330
17
100
AcDbEntity
  8
Inner
100
AcDbLine
 10
-203.01368673107484
 20
814.2434239878156
 30
0.0
 11
-260.40862115976995
 21
801.4553262819253
 31
0.0
  0
LINE
  5
100
330
17
100
AcDbEntity
  8
Inner
100
AcDbLine
 10
-260.40862115976995
 20
801.4553262819253
 30
0.0
 11
-317.0059736668178
 21
784.6173178771779
 31
0.0
  0
LINE
  5
101
330
17
100
AcDbEntity
  8
Inner
100
AcDbLine
 10
-317.0059736668178
 20
784.6173178771779
 30
0.0
 11
-372.51968255715866
 21
763.778536210841
 31
0.0
  0
LINE
  5
102
330
17
100
AcDbEntity
  8
Inner
100
AcDbLine
 10
-372.51968255715866
 20
763.778536210841
 30
0.0
 11
-426.66666666666396
 21
739.0083445627225
 31
0.0
  0
LINE
  5
103
330
17
100
AcDbEntity
  8
Inner
100
AcDbLine
 10
-426.66666666666396
 20
739.0083445627225
 30
0.0
 11
-479.1682568144269
 21
710.3961549033596
 31
0.0
  0
LINE
  5
104
330
17
100
AcDbEntity
  8
Inner
100
AcDbLine
 10
-479.1682568144269
 20
710.3961549033596
 30
0.0
 11
-529.75161701318
 21
678.0511493367696
 31
0.0
  0
LINE
  5
105
330
17
100
AcDbEntity
  8
Inner
100
AcDbLine
 10
-529.75161701318
 20
678.0511493367696
 30
0.0
 11
-578.1511482475971
 21
642.1019007066525
 31
0.0
  0
LINE
  5
106
330
17
100
AcDbEntity
  8
Inner
100
AcDbLine
 10
-578.1511482475971
 20
642.1019007066525
 30
0.0
 11
-624.1098676597449
 21
602.6958934453438
 31
0.0
  0
LINE
  5
107
330
17
100
AcDbEntity
  8
Inner
100
AcDbLine
 10
-624.1098676597449
 20
602.6958934453438
 30
0.0
 11
-667.3807560468925
 21
559.9989462537665
 31
0.0
  0
LINE
  5
108
330
17
100
AcDbEntity
  8
Inner
100
AcDbLine
 10
-667.3807560468925
 20
559.9989462537665
 30
0.0
 11
-707.7280666792035
 21
514.1945387054566
 31
0.0
  0
LINE
  5
109
330
17
100
AcDbEntity
  8
Inner
100
AcDbLine
 10
-707.7280666792035
 20
514.1945387054566
 30
0.0
 11
-744.92858858268
 21
465.4830443663878
 31
0.0
  0
LINE
  5
10A
330
17
100
AcDbEntity
  8
Inner
100
AcDbLine
 10
-744.92858858268
 20
465.4830443663878
 30
0.0
 11
-778.7728576066517
 21
414.0808735114214
 31
0.0
  0
LINE
  5
10B
330
17
100
AcDbEntity
  8
Inner
100
AcDbLine
 10
-778.7728576066517
 20
414.0808735114214
 30
0.0
 11
-809.0663088035421
 21
360.21952899603133
 31
0.0
  0
LINE
  5
10C
330
17
100
AcDbEntity
  8
Inner
100
AcDbLine
 10
-809.0663088035421
 20
360.21952899603133
 30
0.0
 11
-835.6303638914699
 21
304.1445793055277
 31
0.0
  0
LINE
  5
10D
330
17
100
AcDbEntity
  8
Inner
100
AcDbLine
 10
-835.6303638914699
 20
304.1445793055277
 30
0.0
 11
-858.3034478463176
 21
246.11455325080883
 31
0.0
  0
LINE
  5
10E
330
17
100
AcDbEntity
  8
Inner
100
AcDbLine
 10
-858.3034478463176
 20
246.11455325080883
 30
0.0
 11
-876.9419289778813
 21
186.39976120781424
 31
0.0
  0
LINE
  5
10F
330
17
100
AcDbEntity
  8
Inner
100
AcDbLine
 10
-876.9419289778813
 20
186.39976120781424
 30
0.0
 11
-891.4209771835918
 21
125.28104820460646
 31
0.0
  0
LINE
  5
110
330
17
100
AcDbEntity
  8
Inner
100
AcDbLine
 10
-891.4209771835918
 20
125.28104820460646
 30
0.0
 11
-901.6353354415055
 21
63.04848454304259
 31
0.0
  0
LINE
  5
111
330
17
100
AcDbEntity
  8
Inner
100
AcDbLine
 10
-901.6353354415055
 20
63.04848454304259
 30
0.0
 11
-907.5
 21
-2.0015839962626093e-12
 31
0.0
  0
LINE
  5
112
330
17
100
AcDbEntity
  8
Inner
100
AcDbLine
 10
-907.5
 20
-2.0015839962626093e-12
 30
0.0
 11
-908.9508051434109
 21
-63.560032017163714
 31
0.0
  0
LINE
  5
113
330
17
100
AcDbEntity
  8
Inner
100
AcDbLine
 10
-908.9508051434109
 20
-63.560032017163714
 30
0.0
 11
-905.9449088584686
 21
-127.32225368535167
 31
0.0
  0
LINE
  5
114
330
17
100
AcDbEntity
  8
Inner
100
AcDbLine
 10
-905.9449088584686
 20
-127.32225368535167
 30
0.0
 11
-898.4611761940258
 21
-190.97381840580255
 31
0.0
  0
LINE
  5
115
330
17
100
AcDbEntity
  8
Inner
100
AcDbLine
 10
-898.4611761940258
 20
-190.97381840580255
 30
0.0
 11
-886.5004575938422
 21
-254.1999156881051
 31
0.0
  0
LINE
  5
116
330
17
100
AcDbEntity
  8
Inner
100
AcDbLine
 10
-886.5004575938422
 20
-254.1999156881051
 30
0.0
 11
-870.0857599869515
 21
-316.68531789413925
 31
0.0
  0
LINE
  5
117
330
17
100
AcDbEntity
  8
Inner
100
AcDbLine
 10
-870.0857599869515
 20
-316.68531789413925
 30
0.0
 11
-849.2623089398174
 21
-378.1159412913642
 31
0.0
  0
LINE
  5
118
330
17
100
AcDbEntity
  8
Inner
100
AcDbLine
 10
-849.2623089398174
 20
-378.1159412913642
 30
0.0
 11
-824.0975007067445
 21
-438.18041373442844
 31
0.0
  0
LINE
  5
119
330
17
100
AcDbEntity
  8
Inner
100
AcDbLine
 10
-824.0975007067445
 20
-438.18041373442844
 30
0.0
 11
-794.6807435571915
 21
-496.5716412014002
 31
0.0
  0
LINE
  5
11A
330
17
100
AcDbEntity
  8
Inner
100
AcDbLine
 10
-794.6807435571915
 20
-496.5716412014002
 30
0.0
 11
-761.1231883079512
 21
-552.9883653567576
 31
0.0
  0
LINE
  5
11B
330
17
100
AcDbEntity
  8
Inner
100
AcDbLine
 10
-761.1231883079512
 20
-552.9883653567576
 30
0.0
 11
-723.5573485422857
 21
-607.1367042974443
 31
0.0
  0
LINE
  5
11C
330
17
100
AcDbEntity
  8
Inner
100
AcDbLine
 10
-723.5573485422857
 20
-607.1367042974443
 30
0.0
 11
-682.1366115537311
 21
-658.7316686623677
 31
0.0
  0
LINE
  5
11D
330
17
100
AcDbEntity
  8
Inner
100
AcDbLine
 10
-682.1366115537311
 20
-658.7316686623677
 30
0.0
 11
-637.0346416071786
 21
-707.498645348662
 31
0.0
  0
LINE
  5
11E
330
17
100
AcDbEntity
  8
Inner
100
AcDbLine
 10
-637.0346416071786
 20
-707.498645348662
 30
0.0
 11
-588.4446776608895
 21
-753.1748411806129
 31
0.0
  0
LINE
  5
11F
330
17
100
AcDbEntity
  8
Inner
100
AcDbLine
 10
-588.4446776608895
 20
-753.1748411806129
 30
0.0
 11
-536.5787282374258
 21
-795.5106790190094
 31
0.0
  0
LINE
  5
120
330
17
100
AcDbEntity
  8
Inner
100
AcDbLine
 10
-536.5787282374258
 20
-795.5106790190094
 30
0.0
 11
-481.66666666666583
 21
-834.2711389790096
 31
0.0
  0
LINE
  5
121
330
17
100
AcDbEntity
  8
Inner
100
AcDbLine
 10
-481.66666666666583
 20
-834.2711389790096
 30
0.0
 11
-423.9552304470796
 21
-869.2370376432757
 31
0.0
  0
LINE
  5
122
330
17
100
AcDbEntity
  8
Inner
100
AcDbLine
 10
-423.9552304470796
 20
-869.2370376432757
 30
0.0
 11
-363.70692897933696
 21
-900.2062384131698
 31
0.0
  0
LINE
  5
123
330
17
100
AcDbEntity
  8
Inner
100
AcDbLine
 10
-363.70692897933696
 20
-900.2062384131698
 30
0.0
 11
-301.1988644172593
 21
-926.9947864328868
 31
0.0
  0
LINE
  5
124
330
17
100
AcDbEntity
  8
Inner
100
AcDbLine
 10
-301.1988644172593
 20
-926.9947864328868
 30
0.0
 11
-236.72147085129768
 21
-949.4379618489371
 31
0.0
  0
LINE
  5
125
330
17
100
AcDbEntity
  8
Inner
100
AcDbLine
 10
-236.72147085129768
 20
-949.4379618489371
 30
0.0
 11
-170.5771774878202
 21
-967.3912455283812
 31
0.0
  0
LINE
  5
126
330
17
100
AcDbEntity
  8
Inner
100
AcDbLine
 10
-170.5771774878202
 20
-967.3912455283812
 30
0.0
 11
-103.07900191034571
 21
-980.7311917524995
 31
0.0
  0
LINE
  5
127
330
17
100
AcDbEntity
  8
Inner
100
AcDbLine
 10
-103.07900191034571
 20
-980.7311917524995
 30
0.0
 11
-34.549079904129826
 21
-989.3562028263225
 31
0.0
  0
LINE
  5
128
330
17
100
AcDbEntity
  8
Inner
100
AcDbLine
 10
-34.549079904129826
 20
-989.3562028263225
 30
0.0
 11
34.68286130815681
 21
-993.1872009965623
 31
0.0
  0
LINE
  5
129
330
17
100
AcDbEntity
  8
Inner
100
AcDbLine
 10
34.68286130815681
 20
-993.1872009965623
 30
0.0
 11
104.28107923791745
 21
-992.1681935492354
 31
0.0
  0
LINE
  5
12A
330
17
100
AcDbEntity
  8
Inner
100
AcDbLine
 10
104.28107923791745
 20
-992.1681935492354
 30
0.0
 11
173.90543422643705
 21
-986.2667274611149
 31
0.0
  0
LINE
  5
12B
330
17
100
AcDbEntity
  8
Inner
100
AcDbLine
 10
173.90543422643705
 20
-986.2667274611149
 30
0.0
 11
243.2130417165562
 21
-975.4742305040095
 31
0.0
  0
LINE
  5
12C
330
17
100
AcDbEntity
  8
Inner
100
AcDbLine
 10
243.2130417165562
 20
-975.4742305040095
 30
0.0
 11
311.85995072319554
 21
-959.8062362450693
 31
0.0
  0
LINE
  5
12D
330
17
100
AcDbEntity
  8
Inner
100
AcDbLine
 10
311.85995072319554
 20
-959.8062362450693
 30
0.0
 11
379.5028403350421
 21
-939.3024909474025
 31
0.0
  0
LINE
  5
12E
330
17
100
AcDbEntity
  8
Inner
100
AcDbLine
 10
379.5028403350421
 20
-939.3024909474025
 30
0.0
 11
445.8007259287295
 21
-914.0269409505199
 31
0.0
  0
LINE
  5
12F
330
17
100
AcDbEntity
  8
Inner
100
AcDbLine
 10
445.8007259287295
 20
-914.0269409505199
 30
0.0
 11
510.41666666666646
 21
-884.0675996966147
 31
0.0
  0
LINE
  5
130
330
17
100
AcDbEntity
  8
Inner
100
AcDbLine
 10
510.41666666666646
 20
-884.0675996966147
 30
0.0
 11
573.01946578027
 21
-849.5362941638456
 31
0.0
  0
LINE
  5
131
330
17
100
AcDbEntity
  8
Inner
100
AcDbLine
 10
573.01946578027
 20
-849.5362941638456
 30
0.0
 11
633.2853551137754
 21
-810.5682910683022
 31
0.0
  0
LINE
  5
132
330
17
100
AcDbEntity
  8
Inner
100
AcDbLine
 10
633.2853551137754
 20
-810.5682910683022
 30
0.0
 11
690.8996554190669
 21
-767.3218037995913
 31
0.0
  0
LINE
  5
133
330
17
100
AcDbEntity
  8
Inner
100
AcDbLine
 10
690.8996554190669
 20
-767.3218037995913
 30
0.0
 11
745.5584039502512
 21
-719.9773816578405
 31
0.0
  0
LINE
  5
134
330
17
100
AcDbEntity
  8
Inner
100
AcDbLine
 10
745.5584039502512
 20
-719.9773816578405
 30
0.0
 11
796.9699410078549
 21
-668.7371835590706
 31
0.0
  0
LINE
  5
135
330
17
100
AcDbEntity
  8
Inner
100
AcDbLine
 10
796.9699410078549
 20
-668.7371835590706
 30
0.0
 11
844.8564472257591
 21
-613.824138969028
 31
0.0
  0
LINE
  5
136
330
17
100
AcDbEntity
  8
Inner
100
AcDbLine
 10
844.8564472257591
 20
-613.824138969028
 30
0.0
 11
888.9554235799111
 21
-555.4809994086636
 31
0.0
  0
LINE
  5
137
330
17
100
AcDbEntity
  8
Inner
100
AcDbLine
 10
888.9554235799111
 20
-555.4809994086636
 30
0.0
 11
929.0211063248139
 21
-493.96928444548433
 31
0.0
  0
LINE
  5
138
330
17
100
AcDbEntity
  8
Inner
100
AcDbLine
 10
929.0211063248139
 20
-493.96928444548433
 30
0.0
 11
964.825809331604
 21
-429.56812664045884
 31
0.0
  0
LINE
  5
139
330
17
100
AcDbEntity
  8
Inner
100
AcDbLine
 10
964.825809331604
 20
-429.56812664045884
 30
0.0
 11
996.1611866090611
 21
-362.5730204569993
 31
0.0
  0
LINE
  5
13A
330
17
100
AcDbEntity
  8
Inner
100
AcDbLine
 10
996.1611866090611
 20
-362.5730204569993
 30
0.0
 11
1022.8394081344275
 21
-293.2944806548153
 31
0.0
  0
LINE
  5
13B
330
17
100
AcDbEntity
  8
Inner
100
AcDbLine
 10
1022.8394081344275
 20
-293.2944806548153
 30
0.0
 11
1044.6942425037282
 21
-222.05661618306365
 31
0.0
  0
LINE
  5
13C
330
17
100
AcDbEntity
  8
Inner
100
AcDbLine
 10
1044.6942425037282
 20
-222.05661618306365
 30
0.0
 11
1061.5820403290188
 21
-149.19562605290795
 31
0.0
  0
LINE
  5
13D
330
17
100
AcDbEntity
  8
Inner
100
AcDbLine
 10
1061.5820403290188
 20
-149.19562605290795
 30
0.0
 11
1073.3826127612388
 21
-75.0582241059859
 31
0.0
  0
LINE
  5
13E
330
17
100
AcDbEntity
  8
Inner
100
AcDbLine
 10
1073.3826127612388
 20
-75.0582241059859
 30
0.0
 11
1080.0
 21
-1.5871422516949697e-12
 31
0.0
  0
LINE
  5
13F
330
17
100
AcDbEntity
  8
Inner
100
AcDbLine
 10
1080.0
 20
-1.5871422516949697e-12
 30
0.0
 11
1081.363125163317
 21
75.61627589594339
 31
0.0
  0
LINE
  5
140
330
17
100
AcDbEntity
  8
Inner
100
AcDbLine
 10
1081.363125163317
 20
75.61627589594339
 30
0.0
 11
1077.4263294288844
 21
151.42239566826584
 31
0.0
  0
LINE
  5
141
330
17
100
AcDbEntity
  8
Inner
100
AcDbLine
 10
1077.4263294288844
 20
151.42239566826584
 30
0.0
 11
1068.1697849213404
 21
227.04649676268684
 31
0.0
  0
LINE
  5
142
330
17
100
AcDbEntity
  8
Inner
100
AcDbLine
 10
1068.1697849213404
 20
227.04649676268684
 30
0.0
 11
1053.5997824044525
 21
302.1148760409636
 31
0.0
  0
LINE
  5
143
330
17
100
AcDbEntity
  8
Inner
100
AcDbLine
 10
1053.5997824044525
 20
302.1148760409636
 30
0.0
 11
1033.7488914404985
 21
376.253826190023
 31
0.0
  0
LINE
  5
144
330
17
100
AcDbEntity
  8
Inner
100
AcDbLine
 10
1033.7488914404985
 20
376.253826190023
 30
0.0
 11
1008.6759912984498
 21
449.0914855080944
 31
0.0
  0
LINE
  5
145
330
17
100
AcDbEntity
  8
Inner
100
AcDbLine
 10
1008.6759912984498
 20
449.0914855080944
 30
0.0
 11
978.4661715249155
 21
520.2596919614914
 31
0.0
  0
LINE
  5
146
330
17
100
AcDbEntity
  8
Inner
100
AcDbLine
 10
978.4661715249155
 20
520.2596919614914
 30
0.0
 11
943.2305017339238
 21
589.3958323195859
 31
0.0
  0
LINE
  5
147
330
17
100
AcDbEntity
  8
Inner
100
AcDbLine
 10
943.2305017339238
 20
589.3958323195859
 30
0.0
 11
903.1056708207523
 21
656.1446771340894
 31
0.0
  0
LINE
  5
148
330
17
100
AcDbEntity
  8
Inner
100
AcDbLine
 10
903.1056708207523
 20
656.1446771340894
 30
0.0
 11
858.2534964573751
 21
720.1601923339912
 31
0.0
  0
LINE
  5
149
330
17
100
AcDbEntity
  8
Inner
100
AcDbLine
 10
858.2534964573751
 20
720.1601923339912
 30
0.0
 11
808.8603063800547
 21
781.1073182582302
 31
0.0
  0
LINE
  5
14A
330
17
100
AcDbEntity
  8
Inner
100
AcDbLine
 10
808.8603063800547
 20
781.1073182582302
 30
0.0
 11
755.1361936295202
 21
838.6637070454193
 31
0.0
  0
LINE
  5
14B
330
17
100
AcDbEntity
  8
Inner
100
AcDbLine
 10
755.1361936295202
 20
838.6637070454193
 30
0.0
 11
697.3141485476464
 21
892.5214094433993
 31
0.0
  0
LINE
  5
14C
330
17
100
AcDbEntity
  8
Inner
100
AcDbLine
 10
697.3141485476464
 20
892.5214094433993
 30
0.0
 11
635.6490709689901
 21
942.388502290013
 31
0.0
  0
LINE
  5
14D
330
17
100
AcDbEntity
  8
Inner
100
AcDbLine
 10
635.6490709689901
 20
942.388502290013
 30
0.0
 11
570.4166666666692
 21
987.9906481507454
 31
0.0
  0
LINE
  5
14E
330
17
100
AcDbEntity
  8
Inner
100
AcDbLine
 10
570.4166666666692
 20
987.9906481507454
 30
0.0
 11
501.9122327177342
 21
1029.0725788768123
 31
0.0
  0
LINE
  5
14F
330
17
100
AcDbEntity
  8
Inner
100
AcDbLine
 10
501.9122327177342
 20
1029.0725788768123
 30
0.0
 11
430.44933703960174
 21
1065.3994951684872
 31
0.0
  0
LINE
  5
150
330
17
100
AcDbEntity
  8
Inner
100
AcDbLine
 10
430.44933703960174
 20
1065.3994951684872
 30
0.0
 11
356.3583979131911
 21
1096.7583745915706
 31
0.0
  0
LINE
  5
151
330
17
100
AcDbEntity
  8
Inner
100
AcDbLine
 10
356.3583979131911
 20
1096.7583745915706
 30
0.0
 11
279.98516984770146
 21
1122.9591808979621
 31
0.0
  0
LINE
  5
152
330
17
100
AcDbEntity
  8
Inner
100
AcDbLine
 10
279.98516984770146
 20
1122.9591808979621
 30
0.0
 11
201.68914265314933
 21
1143.8359679430678
 31
0.0
  0
LINE
  5
153
330
17
100
AcDbEntity
  8
Inner
100
AcDbLine
 10
201.68914265314933
 20
1143.8359679430678
 30
0.0
 11
121.84186106688622
 21
1159.247871971105
 31
0.0
  0
LINE
  5
154
330
17
100
AcDbEntity
  8
Inner
100
AcDbLine
 10
121.84186106688622
 20
1159.247871971105
 30
0.0
 11
40.82517272779242
 21
1169.0799865519234
 31
0.0
  0
LINE
  5
155
330
17
100
AcDbEntity
  8
Inner
100
AcDbLine
 10
40.82517272779242
 20
1169.0799865519234
 30
0.0
 11
-40.97058729738674
 21
1173.244114997836
 31
0.0
  0
LINE
  5
156
330
17
100
AcDbEntity
  8
Inner
100
AcDbLine
 10
-40.97058729738674
 20
1173.244114997836
 30
0.0
 11
-123.14846685773247
 21
1171.6793956632084
 31
0.0
  0
LINE
  5
157
330
17
100
AcDbEntity
  8
Inner
100
AcDbLine
 10
-123.14846685773247
 20
1171.6793956632084
 30
0.0
 11
-205.30681302120271
 21
1164.3527961308234
 31
0.0
  0
LINE
  5
158
330
17
100
AcDbEntity
  8
Inner
100
AcDbLine
 10
-205.30681302120271
 20
1164.3527961308234
 30
0.0
 11
-287.0412251360256
 21
1151.2594729143452
 31
0.0
  0
LINE
  5
159
330
17
100
AcDbEntity
  8
Inner
100
AcDbLine
 10
-287.0412251360256
 20
1151.2594729143452
 30
0.0
 11
-367.9465352022521
 21
1132.4229939526385
 31
0.0
  0
LINE
  5
15A
330
17
100
AcDbEntity
  8
Inner
100
AcDbLine
 10
-367.9465352022521
 20
1132.4229939526385
 30
0.0
 11
-447.6188059044982
 21
1107.8954218361316
 31
0.0
  0
LINE
  5
15B
330
17
100
AcDbEntity
  8
Inner
100
AcDbLine
 10
-447.6188059044982
 20
1107.8954218361316
 30
0.0
 11
-525.657336502143
 21
1077.7572563846834
 31
0.0
  0
LINE
  5
15C
330
17
100
AcDbEntity
  8
Inner
100
AcDbLine
 10
-525.657336502143
 20
1077.7572563846834
 30
0.0
 11
-601.6666666666626
 21
1042.117235887277
 31
0.0
  0
LINE
  5
15D
330
17
100
AcDbEntity
  8
Inner
100
AcDbLine
 10
-601.6666666666626
 20
1042.117235887277
 30
0.0
 11
-675.2585682981683
 21
1001.1119970126612
 31
0.0
  0
LINE
  5
15E
330
17
100
AcDbEntity
  8
Inner
100
AcDbLine
 10
-675.2585682981683
 20
1001.1119970126612
 30
0.0
 11
-746.0540153442614
 21
954.9055941039312
 31
0.0
  0
LINE
  5
15F
330
17
100
AcDbEntity
  8
Inner
100
AcDbLine
 10
-746.0540153442614
 20
954.9055941039312
 30
0.0
 11
-813.6851216859142
 21
903.688879274696
 31
0.0
  0
LINE
  5
160
330
17
100
AcDbEntity
  8
Inner
100
AcDbLine
 10
-813.6851216859142
 20
903.688879274696
 30
0.0
 11
-877.7970372458424
 21
847.678745427217
 31
0.0
  0
LINE
  5
161
330
17
100
AcDbEntity
  8
Inner
100
AcDbLine
 10
-877.7970372458424
 20
847.678745427217
 30
0.0
 11
-938.0497926156025
 21
787.1172350096717
 31
0.0
  0
LINE
  5
162
330
17
100
AcDbEntity
  8
Inner
100
AcDbLine
 10
-938.0497926156025
 20
787.1172350096717
 30
0.0
 11
-994.1200826879343
 21
722.2705180169926
 31
0.0
  0
LINE
  5
163
330
17
100
AcDbEntity
  8
Inner
100
AcDbLine
 10
-994.1200826879343
 20
722.2705180169926
 30
0.0
 11
-1045.7029800194925
 21
653.427743414431
 31
0.0
  0
LINE
  5
164
330
17
100
AcDbEntity
  8
Inner
100
AcDbLine
 10
-1045.7029800194925
 20
653.427743414431
 30
0.0
 11
-1092.5135689358567
 21
580.8997688213426
 31
0.0
  0
LINE
  5
165
330
17
100
AcDbEntity
  8
Inner
100
AcDbLine
 10
-1092.5135689358567
 20
580.8997688213426
 30
0.0
 11
-1134.2884917243077
 21
505.01777393101645
 31
0.0
  0
LINE
  5
166
330
17
100
AcDbEntity
  8
Inner
100
AcDbLine
 10
-1134.2884917243077
 20
505.01777393101645
 30
0.0
 11
-1170.787398638444
 21
426.131763758349
 31
0.0
  0
LINE
  5
167
330
17
100
AcDbEntity
  8
Inner
100
AcDbLine
 10
-1170.787398638444
 20
426.131763758349
 30
0.0
 11
-1201.79429386161
 21
344.60896839608415
 31
0.0
  0
LINE
  5
168
330
17
100
AcDbEntity
  8
Inner
100
AcDbLine
 10
-1201.79429386161
 20
344.60896839608415
 30
0.0
 11
-1227.1187700405837
 21
260.83214652057205
 31
0.0
  0
LINE
  5
169
330
17
100
AcDbEntity
  8
Inner
100
AcDbLine
 10
-1227.1187700405837
 20
260.83214652057205
 30
0.0
 11
-1246.5971245055682
 21
175.19780041561808
 31
0.0
  0
LINE
  5
16A
330
17
100
AcDbEntity
  8
Inner
100
AcDbLine
 10
-1246.5971245055682
 20
175.19780041561808
 30
0.0
 11
-1260.093350834869
 21
88.11431077509877
 31
0.0
  0
LINE
  5
16B
330
17
100
AcDbEntity
  8
Inner
100
AcDbLine
 10
-1260.093350834869
 20
88.11431077509877
 30
0.0
 11
-1267.5
 21
-2.4851528245845835e-12
 31
0.0
  0
LINE
  5
16C
330
17
100
AcDbEntity
  8
Inner
100
AcDbLine
 10
-1267.5
 20
-2.4851528245845835e-12
 30
0.0
 11
-1268.7389059371208
 21
-88.71886688087714
 31
0.0
  0
LINE
  5
16D
330
17
100
AcDbEntity
  8
Inner
100
AcDbLine
 10
-1268.7389059371208
 20
-88.71886688087714
 30
0.0
 11
-1263.7617710304228
 21
-177.61013416558862
 31
0.0
  0
LINE
  5
16E
330
17
100
AcDbEntity
  8
Inner
100
AcDbLine
 10
-1263.7617710304228
 20
-177.61013416558862
 30
0.0
 11
-1252.5506076596637
 21
-266.2378504818298
 31
0.0
  0
LINE
  5
16F
330
17
100
AcDbEntity
  8
Inner
100
AcDbLine
 10
-1252.5506076596637
 20
-266.2378504818298
 30
0.0
 11
-1235.1180326541394
 21
-354.1643967310695
 31
0.0
  0
LINE
  5
170
330
17
100
AcDbEntity
  8
Inner
100
AcDbLine
 10
-1235.1180326541394
 20
-354.1643967310695
 30
0.0
 11
-1211.5074122058315
 21
-440.9526366357992
 31
0.0
  0
LINE
  5
171
330
17
100
AcDbEntity
  8
Inner
100
AcDbLine
 10
-1211.5074122058315
 20
-440.9526366357992
 30
0.0
 11
-1181.7928555217247
 21
-526.1680793709544
 31
0.0
  0
LINE
  5
172
330
17
100
AcDbEntity
  8
Inner
100
AcDbLine
 10
-1181.7928555217247
 20
-526.1680793709544
 30
0.0
 11
-1146.0790562359666
 21
-609.3810436303497
 31
0.0
  0
LINE
  5
173
330
17
100
AcDbEntity
  8
Inner
100
AcDbLine
 10
-1146.0790562359666
 20
-609.3810436303497
 30
0.0
 11
-1104.5009813530019
 21
-690.1688124012707
 31
0.0
  0
LINE
  5
174
330
17
100
AcDbEntity
  8
Inner
100
AcDbLine
 10
-1104.5009813530019
 20
-690.1688124012707
 30
0.0
 11
-1057.2234082491823
 21
-768.117767695802
 31
0.0
  0
LINE
  5
175
330
17
100
AcDbEntity
  8
Inner
100
AcDbLine
 10
-1057.2234082491823
 20
-768.117767695802
 30
0.0
 11
-1004.4403110192443
 21
-842.8254945158423
 31
0.0
  0
LINE
  5
176
330
17
100
AcDbEntity
  8
Inner
100
AcDbLine
 10
-1004.4403110192443
 20
-842.8254945158423
 30
0.0
 11
-946.3740982114634
 21
-913.9028434109719
 31
0.0
  0
LINE
  5
177
330
17
100
AcDbEntity
  8
Inner
100
AcDbLine
 10
-946.3740982114634
 20
-913.9028434109719
 30
0.0
 11
-883.2747047472386
 21
-980.9759411243425
 31
0.0
  0
LINE
  5
178
330
17
100
AcDbEntity
  8
Inner
100
AcDbLine
 10
-883.2747047472386
 20
-980.9759411243425
 30
0.0
 11
-815.4185415642816
 21
-1043.6881390102915
 31
0.0
  0
LINE
  5
179
330
17
100
AcDbEntity
  8
Inner
100
AcDbLine
 10
-815.4185415642816
 20
-1043.6881390102915
 30
0.0
 11
-743.1073072526224
 21
-1101.7018891493376
 31
0.0
  0
LINE
  5
17A
330
17
100
AcDbEntity
  8
Inner
100
AcDbLine
 10
-743.1073072526224
 20
-1101.7018891493376
 30
0.0
 11
-666.666666666666
 21
-1154.7005383792523
 31
0.0
  0
LINE
  5
17B
330
17
100
AcDbEntity
  8
Inner
100
AcDbLine
 10
-666.666666666666
 20
-1154.7005383792523
 30
0.0
 11
-586.4448021902323
 21
-1202.3900308048328
 31
0.0
  0
LINE
  5
17C
330
17
100
AcDbEntity
  8
Inner
100
AcDbLine
 10
-586.4448021902323
 20
-1202.3900308048328
 30
0.0
 11
-502.81084400111286
 21
-1244.5005097423034
 31
0.0
  0
LINE
  5
17D
330
17
100
AcDbEntity
  8
Inner
100
AcDbLine
 10
-502.81084400111286
 20
-1244.5005097423034
 30
0.0
 11
-416.1531863247393
 21
-1280.7878104946842
 31
0.0
  0
LINE
  5
17E
330
17
100
AcDbEntity
  8
Inner
100
AcDbLine
 10
-416.1531863247393
 20
-1280.7878104946842
 30
0.0
 11
-326.8776972781083
 21
-1311.034835841125
 31
0.0
  0
LINE
  5
17F
330
17
100
AcDbEntity
  8
Inner
100
AcDbLine
 10
-326.8776972781083
 20
-1311.034835841125
 30
0.0
 11
-235.40583048347432
 21
-1335.052806652939
 31
0.0
  0
LINE
  5
180
330
17
100
AcDbEntity
  8
Inner
100
AcDbLine
 10
-235.40583048347432
 20
-1335.052806652939
 30
0.0
 11
-142.17264717244984
 21
-1352.6823806202335
 31
0.0
  0
LINE
  5
181
330
17
100
AcDbEntity
  8
Inner
100
AcDbLine
 10
-142.17264717244984
 20
-1352.6823806202335
 30
0.0
 11
-47.624758002000895
 21
-1363.7946326828103
 31
0.0
  0
LINE
  5
182
330
17
100
AcDbEntity
  8
Inner
100
AcDbLine
 10
-47.624758002000895
 20
-1363.7946326828103
 30
0.0
 11
47.7818057371625
 21
-1368.2918914043962
 31
0.0
  0
LINE
  5
183
330
17
100
AcDbEntity
  8
Inner
100
AcDbLine
 10
47.7818057371625
 20
-1368.2918914043962
 30
0.0
 11
143.58378142655386
 21
-1366.1084262077063
 31
0.0
  0
LINE
  5
184
330
17
100
AcDbEntity
  8
Inner
100
AcDbLine
 10
143.58378142655386
 20
-1366.1084262077063
 30
0.0
 11
239.31291448098057
 21
-1357.2109810957134
 31
0.0
  0
LINE
  5
185
330
17
100
AcDbEntity
  8
Inner
100
AcDbLine
 10
239.31291448098057
 20
-1357.2109810957134
 30
0.0
 11
334.49823698949825
 21
-1341.5991512188186
 31
0.0
  0
LINE
  5
186
330
17
100
AcDbEntity
  8
Inner
100
AcDbLine
 10
334.49823698949825
 20
-1341.5991512188186
 30
0.0
 11
428.6683745969248
 21
-1319.3055994046376
 31
0.0
  0
LINE
  5
187
330
17
100
AcDbEntity
  8
Inner
100
AcDbLine
 10
428.6683745969248
 20
-1319.3055994046376
 30
0.0
 11
521.3538703752009
 21
-1290.3961105433593
 31
0.0
  0
LINE
  5
188
330
17
100
AcDbEntity
  8
Inner
100
AcDbLine
 10
521.3538703752009
 20
-1290.3961105433593
 30
0.0
 11
612.089514277385
 21
-1254.969482513338
 31
0.0
  0
LINE
  5
189
330
17
100
AcDbEntity
  8
Inner
100
AcDbLine
 10
612.089514277385
 20
-1254.969482513338
 30
0.0
 11
700.4166666666661
 21
-1213.1572531347015
 31
0.0
  0
LINE
  5
18A
330
17
100
AcDbEntity
  8
Inner
100
AcDbLine
 10
700.4166666666661
 20
-1213.1572531347015
 30
0.0
 11
785.8855643681347
 21
-1165.1232634497976
 31
0.0
  0
LINE
  5
18B
330
17
100
AcDbEntity
  8
Inner
100
AcDbLine
 10
785.8855643681347
 20
-1165.1232634497976
 30
0.0
 11
868.0575977046254
 21
-1111.063058443666
 31
0.0
  0
LINE
  5
18C
330
17
100
AcDbEntity
  8
Inner
100
AcDbLine
 10
868.0575977046254
 20
-1111.063058443666
 30
0.0
 11
946.5075470481509
 21
-1051.203127131956
 31
0.0
  0
LINE
  5
18D
330
17
100
AcDbEntity
  8
Inner
100
AcDbLine
 10
946.5075470481509
 20
-1051.203127131956
 30
0.0
 11
1020.8257675465072
 21
-985.7999847534846
 31
0.0
  0
LINE
  5
18E
330
17
100
AcDbEntity
  8
Inner
100
AcDbLine
 10
1020.8257675465072
 20
-985.7999847534846
 30
0.0
 11
1090.6203108701293
 21
-915.1391006055777
 31
0.0
  0
LINE
  5
18F
330
17
100
AcDbEntity
  8
Inner
100
AcDbLine
 10
1090.6203108701293
 20
-915.1391006055777
 30
0.0
 11
1155.5189730657391
 21
-839.5336758493372
 31
0.0
  0
LINE
  5
190
330
17
100
AcDbEntity
  8
Inner
100
AcDbLine
 10
1155.5189730657391
 20
-839.5336758493372
 30
0.0
 11
1215.1712579014156
 21
-759.323276383704
 31
0.0
  0
LINE
  5
191
330
17
100
AcDbEntity
  8
Inner
100
AcDbLine
 10
1215.1712579014156
 20
-759.323276383704
 30
0.0
 11
1269.250245439787
 21
-674.8723266389811
 31
0.0
  0
LINE
  5
192
330
17
100
AcDbEntity
  8
Inner
100
AcDbLine
 10
1269.250245439787
 20
-674.8723266389811
 30
0.0
 11
1317.454355981647
 21
-586.5684708677193
 31
0.0
  0
LINE
  5
193
330
17
100
AcDbEntity
  8
Inner
100
AcDbLine
 10
1317.454355981647
 20
-586.5684708677193
 30
0.0
 11
1359.5089999796123
 21
-494.82080920959197
 31
0.0
  0
LINE
  5
194
330
17
100
AcDbEntity
  8
Inner
100
AcDbLine
 10
1359.5089999796123
 20
-494.82080920959197
 30
0.0
 11
1395.1681050278696
 21
-400.0580164745993
 31
0.0
  0
LINE
  5
195
330
17
100
AcDbEntity
  8
Inner
100
AcDbLine
 10
1395.1681050278696
 20
-400.0580164745993
 30
0.0
 11
1424.2155115884445
 21
-302.72635222035564
 31
0.0
  0
LINE
  5
196
330
17
100
AcDbEntity
  8
Inner
100
AcDbLine
 10
1424.2155115884445
 20
-302.72635222035564
 30
0.0
 11
1446.4662297132422
 21
-203.28757129272037
 31
0.0
  0
LINE
  5
197
330
17
100
AcDbEntity
  8
Inner
100
AcDbLine
 10
1446.4662297132422
 20
-203.28757129272037
 30
0.0
 11
1461.7675496623972
 21
-102.21674455036461
 31
0.0
  0
LINE
  5
198
330
17
100
AcDbEntity
  8
Inner
100
AcDbLine
 10
1461.7675496623972
 20
-102.21674455036461
 30
0.0
 11
1470.0
 21
-2.5203231126452527e-12
 31
0.0
  0
LINE
  5
199
330
17
100
AcDbEntity
  8
Inner
100
AcDbLine
 10
1470.0
 20
-2.5203231126452527e-12
 30
0.0
 11
1471.0781474648218
 21
102.86780497198181
 31
0.0
  0
LINE
  5
19A
330
17
100
AcDbEntity
  8
Inner
100
AcDbLine
 10
1471.0781474648218
 20
102.86780497198181
 30
0.0
 11
1464.951233663086
 21
205.8854691773033
 31
0.0
  0
LINE
  5
19B
330
17
100
AcDbEntity
  8
Inner
100
AcDbLine
 10
1464.951233663086
 20
205.8854691773033
 30
0.0
 11
1451.6036444089923
 21
308.547879563248
 31
0.0
  0
LINE
  5
19C
330
17
100
AcDbEntity
  8
Inner
100
AcDbLine
 10
1451.6036444089923
 20
308.547879563248
 30
0.0
 11
1431.0552083428986
 21
410.3484777584392
 31
0.0
  0
LINE
  5
19D
330
17
100
AcDbEntity
  8
Inner
100
AcDbLine
 10
1431.0552083428986
 20
410.3484777584392
 30
0.0
 11
1403.3613222829563
 21
510.78174923145167
 31
0.0
  0
LINE
  5
19E
330
17
100
AcDbEntity
  8
Inner
100
AcDbLine
 10
1403.3613222829563
 20
510.78174923145167
 30
0.0
 11
1368.612901609635
 21
609.3457228799597
 31
0.0
  0
LINE
  5
19F
330
17
100
AcDbEntity
  8
Inner
100
AcDbLine
 10
1368.612901609635
 20
609.3457228799597
 30
0.0
 11
1326.9361548399058
 21
705.544468740988
 31
0.0
  0
LINE
  5
1A0
330
17
100
AcDbEntity
  8
Inner
100
AcDbLine
 10
1326.9361548399058
 20
705.544468740988
 30
0.0
 11
1278.4921824144312
 21
798.8905814464456
 31
0.0
  0
LINE
  5
1A1
330
17
100
AcDbEntity
  8
Inner
100
AcDbLine
 10
1278.4921824144312
 20
798.8905814464456
 30
0.0
 11
1223.4764005932311
 21
888.9076370419092
 31
0.0
  0
LINE
  5
1A2
330
17
100
AcDbEntity
  8
Inner
100
AcDbLine
 10
1223.4764005932311
 20
888.9076370419092
 30
0.0
 11
1162.117792227904
 21
975.132610842984
 31
0.0
  0
LINE
  5
1A3
330
17
100
AcDbEntity
  8
Inner
100
AcDbLine
 10
1162.117792227904
 20
975.132610842984
 30
0.0
 11
1094.6779870479456
 21
1057.1182441206051
 31
0.0
  0
LINE
  5
1A4
330
17
100
AcDbEntity
  8
Inner
100
AcDbLine
 10
1094.6779870479456
 20
1057.1182441206051
 30
0.0
 11
1021.450174960347
 21
1134.4353475854207
 31
0.0
  0
LINE
  5
1A5
330
17
100
AcDbEntity
  8
Inner
100
AcDbLine
 10
1021.450174960347
 20
1134.4353475854207
 30
0.0
 11
942.7578567108095
 21
1206.6750298812788
 31
0.0
  0
LINE
  5
1A6
330
17
100
AcDbEntity
  8
Inner
100
AcDbLine
 10
942.7578567108095
 20
1206.6750298812788
 30
0.0
 11
858.9534370883082
 21
1273.4508395969933
 31
0.0
  0
LINE
  5
1A7
330
17
100
AcDbEntity
  8
Inner
100
AcDbLine
 10
858.9534370883082
 20
1273.4508395969933
 30
0.0
 11
770.4166666666707
 21
1334.4008096645205
 31
0.0
  0
LINE
  5
1A8
330
17
100
AcDbEntity
  8
Inner
100
AcDbLine
 10
770.4166666666707
 20
1334.4008096645205
 30
0.0
 11
677.5529388645581
 21
1389.1893934273448
 31
0.0
  0
LINE
  5
1A9
330
17
100
AcDbEntity
  8
Inner
100
AcDbLine
 10
677.5529388645581
 20
1389.1893934273448
 30
0.0
 11
580.7914498638537
 21
1437.5092821346245
 31
0.0
  0
LINE
  5
1AA
330
17
100
AcDbEntity
  8
Inner
100
AcDbLine
 10
580.7914498638537
 20
1437.5092821346245
 30
0.0
 11
480.5832296519209
 21
1479.0830941422219
 31
0.0
  0
LINE
  5
1AB
330
17
100
AcDbEntity
  8
Inner
100
AcDbLine
 10
480.5832296519209
 20
1479.0830941422219
 30
0.0
 11
377.39905314250086
 21
1513.66492667843
 31
0.0
  0
LINE
  5
1AC
330
17
100
AcDbEntity
  8
Inner
100
AcDbLine
 10
377.39905314250086
 20
1513.66492667843
 30
0.0
 11
271.72724097881286
 21
1541.0417616579914
 31
0.0
  0
LINE
  5
1AD
330
17
100
AcDbEntity
  8
Inner
100
AcDbLine
 10
271.72724097881286
 20
1541.0417616579914
 30
0.0
 11
164.07136022701872
 21
1561.0347176998873
 31
0.0
  0
LINE
  5
1AE
330
17
100
AcDbEntity
  8
Inner
100
AcDbLine
 10
164.07136022701872
 20
1561.0347176998873
 30
0.0
 11
54.947835726737225
 21
1573.5001412189843
 31
0.0
  0
LINE
  5
1AF
330
17
100
AcDbEntity
  8
Inner
100
AcDbLine
 10
54.947835726737225
 20
1573.5001412189843
 30
0.0
 11
-55.11651662746598
 21
1578.330530216243
 31
0.0
  0
LINE
  5
1B0
330
17
100
AcDbEntity
  8
Inner
100
AcDbLine
 10
-55.11651662746598
 20
1578.330530216243
 30
0.0
 11
-165.5870229443997
 21
1575.4552851827275
 31
0.0
  0
LINE
  5
1B1
330
17
100
AcDbEntity
  8
Inner
100
AcDbLine
 10
-165.5870229443997
 20
1575.4552851827275
 30
0.0
 11
-275.9237386057526
 21
1564.841282355788
 31
0.0
  0
LINE
  5
1B2
330
17
100
AcDbEntity
  8
Inner
100
AcDbLine
 10
-275.9237386057526
 20
1564.841282355788
 30
0.0
 11
-385.58407727695624
 21
1546.4932654174343
 31
0.0
  0
LINE
  5
1B3
330
17
100
AcDbEntity
  8
Inner
100
AcDbLine
 10
-385.58407727695624
 20
1546.4932654174343
 30
0.0
 11
-494.0254689072311
 21
1520.454052601061
 31
0.0
  0
LINE
  5
1B4
330
17
100
AcDbEntity
  8
Inner
100
AcDbLine
 10
-494.0254689072311
 20
1520.454052601061
 30
0.0
 11
-600.708033747133
 21
1486.8045570690924
 31
0.0
  0
LINE
  5
1B5
330
17
100
AcDbEntity
  8
Inner
100
AcDbLine
 10
-600.708033747133
 20
1486.8045570690924
 30
0.0
 11
-705.0972592544719
 21
1445.6636193364761
 31
0.0
  0
LINE
  5
1B6
330
17
100
AcDbEntity
  8
Inner
100
AcDbLine
 10
-705.0972592544719
 20
1445.6636193364761
 30
0.0
 11
-806.6666666666608
 21
1397.1876514388975
 31
0.0
  0
LINE
  5
1B7
330
17
100
AcDbEntity
  8
Inner
100
AcDbLine
 10
-806.6666666666608
 20
1397.1876514388975
 30
0.0
 11
-904.9004539901543
 21
1341.5700934752656
 31
0.0
  0
LINE
  5
1B8
330
17
100
AcDbEntity
  8
Inner
100
AcDbLine
 10
-904.9004539901543
 20
1341.5700934752656
 30
0.0
 11
-999.2961021948825
 21
1279.040684087496
 31
0.0
  0
LINE
  5
1B9
330
17
100
AcDbEntity
  8
Inner
100
AcDbLine
 10
-999.2961021948825
 20
1279.040684087496
 30
0.0
 11
-1089.366931505763
 21
1209.8645473713837
 31
0.0
  0
LINE
  5
1BA
330
17
100
AcDbEntity
  8
Inner
100
AcDbLine
 10
-1089.366931505763
 20
1209.8645473713837
 30
0.0
 11
-1174.6445948522587
 21
1134.3410996366301
 31
0.0
  0
LINE
  5
1BB
330
17
100
AcDbEntity
  8
Inner
100
AcDbLine
 10
-1174.6445948522587
 20
1134.3410996366301
 30
0.0
 11
-1254.6814957714473
 21
1052.8027803467742
 31
0.0
  0
LINE
  5
1BC
330
17
100
AcDbEntity
  8
Inner
100
AcDbLine
 10
-1254.6814957714473
 20
1052.8027803467742
 30
0.0
 11
-1329.053118359162
 21
965.6136124660774
 31
0.0
  0
LINE
  5
1BD
330
17
100
AcDbEntity
  8
Inner
100
AcDbLine
 10
-1329.053118359162
 20
965.6136124660774
 30
0.0
 11
-1397.3602572256907
 21
873.1675983164665
 31
0.0
  0
LINE
  5
1BE
330
17
100
AcDbEntity
  8
Inner
100
AcDbLine
 10
-1397.3602572256907
 20
873.1675983164665
 30
0.0
 11
-1459.2311358365966
 21
775.8869578984172
 31
0.0
  0
LINE
  5
1BF
330
17
100
AcDbEntity
  8
Inner
100
AcDbLine
 10
-1459.2311358365966
 20
775.8869578984172
 30
0.0
 11
-1514.3234021036294
 21
674.2202174505499
 31
0.0
  0
LINE
  5
1C0
330
17
100
AcDbEntity
  8
Inner
100
AcDbLine
 10
-1514.3234021036294
 20
674.2202174505499
 30
0.0
 11
-1562.3259906325727
 21
568.6401568107104
 31
0.0
  0
LINE
  5
1C1
330
17
100
AcDbEntity
  8
Inner
100
AcDbLine
 10
-1562.3259906325727
 20
568.6401568107104
 30
0.0
 11
-1602.9608416332012
 21
459.6416248903796
 31
0.0
  0
LINE
  5
1C2
330
17
100
AcDbEntity
  8
Inner
100
AcDbLine
 10
-1602.9608416332012
 20
459.6416248903796
 30
0.0
 11
-1635.9844671473147
 21
347.73923328239556
 31
0.0
  0
LINE
  5
1C3
330
17
100
AcDbEntity
  8
Inner
100
AcDbLine
 10
-1635.9844671473147
 20
347.73923328239556
 30
0.0
 11
-1661.1893559520386
 21
233.464938684234
 31
0.0
  0
LINE
  5
1C4
330
17
100
AcDbEntity
  8
Inner
100
AcDbLine
 10
-1661.1893559520386
 20
233.464938684234
 30
0.0
 11
-1678.4052092438221
 21
117.36552543180275
 31
0.0
  0
LINE
  5
1C5
330
17
100
AcDbEntity
  8
Inner
100
AcDbLine
 10
-1678.4052092438221
 20
117.36552543180275
 30
0.0
 11
-1687.5
 21
-2.8953171226341077e-12
 31
0.0
  0
LINE
  5
1C6
330
17
100
AcDbEntity
  8
Inner
100
AcDbLine
 10
-1687.5
 20
-2.8953171226341077e-12
 30
0.0
 11
-1688.3808497464204
 21
-118.0630901692378
 31
0.0
  0
LINE
  5
1C7
330
17
100
AcDbEntity
  8
Inner
100
AcDbLine
 10
-1688.3808497464204
 20
-118.0630901692378
 30
0.0
 11
-1680.9947173268708
 21
-236.24840070342924
 31
0.0
  0
LINE
  5
1C8
330
17
100
AcDbEntity
  8
Inner
100
AcDbLine
 10
-1680.9947173268708
 20
-236.24840070342924
 30
0.0
 11
-1665.3288951693298
 21
-353.97658400692217
 31
0.0
  0
LINE
  5
1C9
330
17
100
AcDbEntity
  8
Inner
100
AcDbLine
 10
-1665.3288951693298
 20
-353.97658400692217
 30
0.0
 11
-1641.4113094707354
 21
-470.66711912305357
 31
0.0
  0
LINE
  5
1CA
330
17
100
AcDbEntity
  8
Inner
100
AcDbLine
 10
-1641.4113094707354
 20
-470.66711912305357
 30
0.0
 11
-1609.3106216718659
 21
-585.7411639769991
 31
0.0
  0
LINE
  5
1CB
330
17
100
AcDbEntity
  8
Inner
100
AcDbLine
 10
-1609.3106216718659
 20
-585.7411639769991
 30
0.0
 11
-1569.1361295621882
 21
-698.6244160350923
 31
0.0
  0
LINE
  5
1CC
330
17
100
AcDbEntity
  8
Inner
100
AcDbLine
 10
-1569.1361295621882
 20
-698.6244160350923
 30
0.0
 11
-1521.0374673367244
 21
-808.7499672934242
 31
0.0
  0
LINE
  5
1CD
330
17
100
AcDbEntity
  8
Inner
100
AcDbLine
 10
-1521.0374673367244
 20
-808.7499672934242
 30
0.0
 11
-1465.2041049182014
 21
-915.5611394551278
 31
0.0
  0
LINE
  5
1CE
330
17
100
AcDbEntity
  8
Inner
100
AcDbLine
 10
-1465.2041049182014
 20
-915.5611394551278
 30
0.0
 11
-1401.8646478529106
 21
-1018.5142851723946
 31
0.0
  0
LINE
  5
1CF
330
17
100
AcDbEntity
  8
Inner
100
AcDbLine
 10
-1401.8646478529106
 20
-1018.5142851723946
 30
0.0
 11
-1331.2859400833415
 21
-1117.0815413154323
 31
0.0
  0
LINE
  5
1D0
330
17
100
AcDbEntity
  8
Inner
100
AcDbLine
 10
-1331.2859400833415
 20
-1117.0815413154323
 30
0.0
 11
-1253.771972889515
 21
-1210.7535203871153
 31
0.0
  0
LINE
  5
1D1
330
17
100
AcDbEntity
  8
Inner
100
AcDbLine
 10
-1253.771972889515
 20
-1210.7535203871153
 30
0.0
 11
-1169.6626042688304
 21
-1299.041926428667
 31
0.0
  0
LINE
  5
1D2
330
17
100
AcDbEntity
  8
Inner
100
AcDbLine
 10
-1169.6626042688304
 20
-1299.041926428667
 30
0.0
 11
-1079.3320939872133
 21
-1381.4820820563734
 31
0.0
  0
LINE
  5
1D3
330
17
100
AcDbEntity
  8
Inner
100
AcDbLine
 10
-1079.3320939872133
 20
-1381.4820820563734
 30
0.0
 11
-983.1874604760641
 21
-1457.635353632968
 31
0.0
  0
LINE
  5
1D4
330
17
100
AcDbEntity
  8
Inner
100
AcDbLine
 10
-983.1874604760641
 20
-1457.635353632968
 30
0.0
 11
-881.666666666666
 21
-1527.0914620065607
 31
0.0
  0
LINE
  5
1D5
330
17
100
AcDbEntity
  8
Inner
100
AcDbLine
 10
-881.666666666666
 20
-1527.0914620065607
 30
0.0
 11
-775.2366427407302
 21
-1589.4706667443397
 31
0.0
  0
LINE
  5
1D6
330
17
100
AcDbEntity
  8
Inner
100
AcDbLine
 10
-775.2366427407302
 20
-1589.4706667443397
 30
0.0
 11
-664.3911546278437
 21
-1644.425812345444
 31
0.0
  0
LINE
  5
1D7
330
17
100
AcDbEntity
  8
Inner
100
AcDbLine
 10
-664.3911546278437
 20
-1644.425812345444
 30
0.0
 11
-549.6485278947162
 21
-1691.6442255341906
 31
0.0
  0
LINE
  5
1D8
330
17
100
AcDbEntity
  8
Inner
100
AcDbLine
 10
-549.6485278947162
 20
-1691.6442255341906
 30
0.0
 11
-431.54923744089933
 21
-1730.8494534098725
 31
0.0
  0
LINE
  5
1D9
330
17
100
AcDbEntity
  8
Inner
100
AcDbLine
 10
-431.54923744089933
 20
-1730.8494534098725
 30
0.0
 11
-310.6533741391445
 21
-1761.8028329582291
 31
0.0
  0
LINE
  5
1DA
330
17
100
AcDbEntity
  8
Inner
100
AcDbLine
 10
-310.6533741391445
 20
-1761.8028329582291
 30
0.0
 11
-187.53800023061362
 21
-1784.3048832100637
 31
0.0
  0
LINE
  5
1DB
330
17
100
AcDbEntity
  8
Inner
100
AcDbLine
 10
-187.53800023061362
 20
-1784.3048832100637
 30
0.0
 11
-62.79440590202232
 21
-1798.196512160444
 31
0.0
  0
LINE
  5
1DC
330
17
100
AcDbEntity
  8
Inner
100
AcDbLine
 10
-62.79440590202232
 20
-1798.196512160444
 30
0.0
 11
62.974719968318134
 21
-1803.3600314333758
 31
0.0
  0
LINE
  5
1DD
330
17
100
AcDbEntity
  8
Inner
100
AcDbLine
 10
62.974719968318134
 20
-1803.3600314333758
 30
0.0
 11
189.1581914112491
 21
-1799.7199725882735
 31
0.0
  0
LINE
  5
1DE
330
17
100
AcDbEntity
  8
Inner
100
AcDbLine
 10
189.1581914112491
 20
-1799.7199725882735
 30
0.0
 11
315.1392853955396
 21
-1787.2436999110441
 31
0.0
  0
LINE
  5
1DF
330
17
100
AcDbEntity
  8
Inner
100
AcDbLine
 10
315.1392853955396
 20
-1787.2436999110441
 30
0.0
 11
440.2987459984203
 21
-1765.9418155101876
 31
0.0
  0
LINE
  5
1E0
330
17
100
AcDbEntity
  8
Inner
100
AcDbLine
 10
440.2987459984203
 20
-1765.9418155101876
 30
0.0
 11
564.0178181331507
 21
-1735.8683535419152
 31
0.0
  0
LINE
  5
1E1
330
17
100
AcDbEntity
  8
Inner
100
AcDbLine
 10
564.0178181331507
 20
-1735.8683535419152
 30
0.0
 11
685.6812960203143
 21
-1697.1207614133234
 31
0.0
  0
LINE
  5
1E2
330
17
100
AcDbEntity
  8
Inner
100
AcDbLine
 10
685.6812960203143
 20
-1697.1207614133234
 30
0.0
 11
804.6805714333846
 21
-1649.839666854106
 31
0.0
  0
LINE
  5
1E3
330
17
100
AcDbEntity
  8
Inner
100
AcDbLine
 10
804.6805714333846
 20
-1649.839666854106
 30
0.0
 11
920.4166666666655
 21
-1594.2084307998548
 31
0.0
  0
LINE
  5
1E4
330
17
100
AcDbEntity
  8
Inner
100
AcDbLine
 10
920.4166666666655
 20
-1594.2084307998548
 30
0.0
 11
1032.3032371642444
 21
-1530.4524870890523
 31
0.0
  0
LINE
  5
1E5
330
17
100
AcDbEntity
  8
Inner
100
AcDbLine
 10
1032.3032371642444
 20
-1530.4524870890523
 30
0.0
 11
1139.769528815015
 21
-1458.8384710354335
 31
0.0
  0
LINE
  5
1E6
330
17
100
AcDbEntity
  8
Inner
100
AcDbLine
 10
1139.769528815015
 20
-1458.8384710354335
 30
0.0
 11
1242.263275058766
 21
-1379.6731399929643
 31
0.0
  0
LINE
  5
1E7
330
17
100
AcDbEntity
  8
Inner
100
AcDbLine
 10
1242.263275058766
 20
-1379.6731399929643
 30
0.0
 11
1339.2535191630818
 21
-1293.302090076669
 31
0.0
  0
LINE
  5
1E8
330
17
100
AcDbEntity
  8
Inner
100
AcDbLine
 10
1339.2535191630818
 20
-1293.302090076669
 30
0.0
 11
1430.2333473195424
 21
-1200.1082742332776
 31
0.0
  0
LINE
  5
1E9
330
17
100
AcDbEntity
  8
Inner
100
AcDbLine
 10
1430.2333473195424
 20
-1200.1082742332776
 30
0.0
 11
1514.722518568216
 21
-1100.510327867195
 31
0.0
  0
LINE
  5
1EA
330
17
100
AcDbEntity
  8
Inner
100
AcDbLine
 10
1514.722518568216
 20
-1100.510327867195
 30
0.0
 11
1592.2699779923055
 21
-994.9607092127371
 31
0.0
  0
LINE
  5
1EB
330
17
100
AcDbEntity
  8
Inner
100
AcDbLine
 10
1592.2699779923055
 20
-994.9607092127371
 30
0.0
 11
1662.4562401262958
 21
-883.9436625996316
 31
0.0
  0
LINE
  5
1EC
330
17
100
AcDbEntity
  8
Inner
100
AcDbLine
 10
1662.4562401262958
 20
-883.9436625996316
 30
0.0
 11
1724.895630090246
 21
-767.9730136795283
 31
0.0
  0
LINE
  5
1ED
330
17
100
AcDbEntity
  8
Inner
100
AcDbLine
 10
1724.895630090246
 20
-767.9730136795283
 30
0.0
 11
1779.2383705973177
 21
-647.589806561725
 31
0.0
  0
LINE
  5
1EE
330
17
100
AcDbEntity
  8
Inner
100
AcDbLine
 10
1779.2383705973177
 20
-647.589806561725
 30
0.0
 11
1825.172503677611
 21
-523.3597936434035
 31
0.0
  0
LINE
  5
1EF
330
17
100
AcDbEntity
  8
Inner
100
AcDbLine
 10
1825.172503677611
 20
-523.3597936434035
 30
0.0
 11
1862.4256367171893
 21
-395.87078970671354
 31
0.0
  0
LINE
  5
1F0
330
17
100
AcDbEntity
  8
Inner
100
AcDbLine
 10
1862.4256367171893
 20
-395.87078970671354
 30
0.0
 11
1890.7665032219602
 21
-265.72990259013693
 31
0.0
  0
LINE
  5
1F1
330
17
100
AcDbEntity
  8
Inner
100
AcDbLine
 10
1890.7665032219602
 20
-265.72990259013693
 30
0.0
 11
1910.006329579145
 21
-133.56065341939083
 31
0.0
  0
ENDSEC
  0
SECTION
  2
OBJECTS
  0
DICTIONARY
  5
A
330
0
100
AcDbDictionary
281
1
  3
ACAD_COLOR
350
B
  3
ACAD_GROUP
350
C
  3
ACAD_LAYOUT
350
D
  3
ACAD_MATERIAL
350
E
  3
ACAD_MLEADERSTYLE
350
F
  3
ACAD_MLINESTYLE
350
10
  3
ACAD_PLOTSETTINGS
350
11
  3
ACAD_PLOTSTYLENAME
350
12
  3
ACAD_SCALELIST
350
14
  3
ACAD_TABLESTYLE
350
15
  3
ACAD_VISUALSTYLE
350
16
  0
DICTIONARY
  5
B
330
A
100
AcDbDictionary
281
1
  0
DICTIONARY
  5
C
330
A
100
AcDbDictionary
281
1
  0
DICTIONARY
  5
D
330
A
100
AcDbDictionary
281
1
  3
Model
350
1A
  3
Layout1
350
1E
  0
DICTIONARY
  5
E
330
A
100
AcDbDictionary
281
1
  3
ByBlock
350
1F
  3
ByLayer
350
20
  3
Global
350
21
  0
DICTIONARY
  5
F
330
A
100
AcDbDictionary
281
1
  3
Standard
350
2C
  0
DICTIONARY
  5
10
330
A
100
AcDbDictionary
281
1
  3
Standard
350
22
  0
DICTIONARY
  5
11
330
A
100
AcDbDictionary
281
1
  0
ACDBDICTIONARYWDFLT
  5
12
330
A
100
AcDbDictionary
281
1
  3
Normal
350
13
100
AcDbDictionaryWithDefault
340
13
  0
ACDBPLACEHOLDER
  5
13
330
12
  0
DICTIONARY
  5
14
330
A
100
AcDbDictionary
281
1
  0
DICTIONARY
  5
15
330
A
100
AcDbDictionary
281
1
  0
DICTIONARY
  5
16
330
A
100
AcDbDictionary
281
1
  3
2dWireframe
350
58
  3
Basic
350
59
  3
Brighten
350
5A
  3
ColorChange
350
5B
  3
Conceptual
350
5C
  3
Dim
350
5D
  3
EdgeColorOff
350
5E
  3
Facepattern
350
5F
  3
Flat
350
60
  3
FlatWithEdges
350
61
  3
Gouraud
350
62
  3
GouraudWithEdges
350
63
  3
Hidden
350
64
  3
JitterOff
350
65
  3
Linepattern
350
66
  3
Modeling
350
67
  3
OverhangOff
350
68
  3
Realistic
350
69
  3
Shaded
350
6A
  3
Shaded with edges
350
6B
  3
Shades of Gray
350
6C
  3
Sketchy
350
6D
  3
Thicken
350
6E
  3
Wireframe
350
6F
  3
X-Ray
350
70
  0
LAYOUT
  5
1A
330
D
100
AcDbPlotSettings
  1

  2
Adobe PDF
  4
A4
  6

 40
3.175
 41
3.175
 42
3.175
 43
3.175
 44
209.91
 45
297.03
 46
0.0
 47
0.0
 48
0.0
 49
0.0
140
0.0
141
0.0
142
1.0
143
1.0
 70
1024
 72
0
 73
1
 74
5
  7

 75
16
 76
0
 77
2
 78
300
147
1.0
148
0.0
149
0.0
100
AcDbLayout
  1
Model
 70
1
 71
0
 10
-3.175
 20
-3.175
 11
293.857
 21
206.735
 12
0.0
 22
0.0
 32
0.0
 14
29.068
 24
20.356
 34
0.0
 15
261.614
 25
183.204
 35
0.0
146
0.0
 13
0.0
 23
0.0
 33
0.0
 16
1.0
 26
0.0
 36
0.0
 17
0.0
 27
1.0
 37
0.0
 76
1
330
17
  0
LAYOUT
  5
1E
330
D
100
AcDbPlotSettings
  1

  2
Adobe PDF
  4
A4
  6

 40
3.175
 41
3.175
 42
3.175
 43
3.175
 44
209.91
 45
297.03
 46
0.0
 47
0.0
 48
0.0
 49
0.0
140
0.0
141
0.0
142
1.0
143
1.0
 70
0
 72
0
 73
1
 74
5
  7

 75
16
 76
0
 77
2
 78
300
147
1.0
148
0.0
149
0.0
100
AcDbLayout
  1
Layout1
 70
1
 71
1
 10
-3.175
 20
-3.175
 11
293.857
 21
206.735
 12
0.0
 22
0.0
 32
0.0
 14
29.068
 24
20.356
 34
0.0
 15
261.614
 25
183.204
 35
0.0
146
0.0
 13
0.0
 23
0.0
 33
0.0
 16
1.0
 26
0.0
 36
0.0
 17
0.0
 27
1.0
 37
0.0
 76
1
330
1B
  0
MATERIAL
  5
1F
102
{ACAD_REACTORS
330
E
102
}
330
E
100
AcDbMaterial
  1
ByBlock
  2

 70
0
 40
1.0
 71
1
 41
1.0
 91
-1023410177
 42
1.0
 72
1
  3

 73
1
 74
1
 75
1
 44
0.5
 73
0
 45
1.0
 46
1.0
 77
1
  4

 78
1
 79
1
170
1
 48
1.0
171
1
  6

172
1
173
1
174
1
140
1.0
141
1.0
175
1
  7

176
1
177
1
178
1
143
1.0
179
1
  8

270
1
271
1
272
1
145
1.0
146
1.0
273
1
  9

274
1
275
1
276
1
 42
1.0
 72
1
  3

 73
1
 74
1
 75
1
 94
63
  0
MATERIAL
  5
20
102
{ACAD_REACTORS
330
E
102
}
330
E
100
AcDbMaterial
  1
ByLayer
  2

 70
0
 40
1.0
 71
1
 41
1.0
 91
-1023410177
 42
1.0
 72
1
  3

 73
1
 74
1
 75
1
 44
0.5
 73
0
 45
1.0
 46
1.0
 77
1
  4

 78
1
 79
1
170
1
 48
1.0
171
1
  6

172
1
173
1
174
1
140
1.0
141
1.0
175
1
  7

176
1
177
1
178
1
143
1.0
179
1
  8

270
1
271
1
272
1
145
1.0
146
1.0
273
1
  9

274
1
275
1
276
1
 42
1.0
 72
1
  3

 73
1
 74
1
 75
1
 94
63
  0
MATERIAL
  5
21
102
{ACAD_REACTORS
330
E
102
}
330
E
100
AcDbMaterial
  1
Global
  2

 70
0
 40
1.0
 71
1
 41
1.0
 91
-1023410177
 42
1.0
 72
1
  3

 73
1
 74
1
 75
1
 44
0.5
 73
0
 45
1.0
 46
1.0
 77
1
  4

 78
1
 79
1
170
1
 48
1.0
171
1
  6

172
1
173
1
174
1
140
1.0
141
1.0
175
1
  7

176
1
177
1
178
1
143
1.0
179
1
  8

270
1
271
1
272
1
145
1.0
146
1.0
273
1
  9

274
1
275
1
276
1
 42
1.0
 72
1
  3

 73
1
 74
1
 75
1
 94
63
  0
MLINESTYLE
  5
22
102
{ACAD_REACTORS
330
10
102
}
330
10
100
AcDbMlineStyle
  2
Standard
 70
0
  3

 62
256
 51
90.0
 52
90.0
 71
2
 49
0.5
 62
256
  6
BYLAYER
 49
-0.5
 62
256
  6
BYLAYER
  0
MLEADERSTYLE
  5
2C
102
{ACAD_REACTORS
330
F
102
}
330
F
100
AcDbMLeaderStyle
179
2
170
2
171
1
172
0
 90
2
 40
0.0
 41
0.0
173
1
 91
-1056964608
 92
-2
290
1
 42
2.0
291
1
 43
8.0
  3
Standard
 44
4.0
300

342
29
174
1
175
1
176
0
178
1
 93
-1056964608
 45
4.0
292
0
297
0
 46
4.0
 94
-1056964608
 47
1.0
 49
1.0
140
1.0
294
1
141
0.0
177
0
142
1.0
295
0
296
0
143
3.75
271
0
272
9
273
9
  0
VISUALSTYLE
  5
58
102
{ACAD_REACTORS
330
16
102
}
330
16
100
AcDbVisualStyle
  2
2dWireframe
 70
4
 90
0
 40
0.6
 62
7
290
0
291
0
  0
VISUALSTYLE
  5
59
102
{ACAD_REACTORS
330
16
102
}
330
16
100
AcDbVisualStyle
  2
Basic
 70
7
 90
1
 40
0.6
 62
7
290
0
291
1
  0
VISUALSTYLE
  5
5A
102
{ACAD_REACTORS
330
16
102
}
330
16
100
AcDbVisualStyle
  2
Brighten
 70
12
 90
2
 40
0.6
 62
7
290
0
291
1
  0
VISUALSTYLE
  5
5B
102
{ACAD_REACTORS
330
16
102
}
330
16
100
AcDbVisualStyle
  2
ColorChange
 70
16
 90
2
 40
0.6
 62
8
290
0
291
1
  0
VISUALSTYLE
  5
5C
102
{ACAD_REACTORS
330
16
102
}
330
16
100
AcDbVisualStyle
  2
Conceptual
 70
9
 90
3
 40
0.6
 62
7
290
0
291
0
  0
VISUALSTYLE
  5
5D
102
{ACAD_REACTORS
330
16
102
}
330
16
100
AcDbVisualStyle
  2
Dim
 70
11
 90
2
 40
0.6
 62
7
290
0
291
1
  0
VISUALSTYLE
  5
5E
102
{ACAD_REACTORS
330
16
102
}
330
16
100
AcDbVisualStyle
  2
EdgeColorOff
 70
22
 90
2
 40
0.6
 62
7
290
0
291
1
  0
VISUALSTYLE
  5
5F
102
{ACAD_REACTORS
330
16
102
}
330
16
100
AcDbVisualStyle
  2
Facepattern
 70
15
 90
2
 40
0.6
 62
7
290
0
291
1
  0
VISUALSTYLE
  5
60
102
{ACAD_REACTORS
330
16
102
}
330
16
100
AcDbVisualStyle
  2
Flat
 70
0
 90
2
 40
0.6
 62
7
290
0
291
1
  0
VISUALSTYLE
  5
61
102
{ACAD_REACTORS
330
16
102
}
330
16
100
AcDbVisualStyle
  2
FlatWithEdges
 70
1
 90
2
 40
0.6
 62
7
290
0
291
1
  0
VISUALSTYLE
  5
62
102
{ACAD_REACTORS
330
16
102
}
330
16
100
AcDbVisualStyle
  2
Gouraud
 70
2
 90
2
 40
0.6
 62
7
290
0
291
1
  0
VISUALSTYLE
  5
63
102
{ACAD_REACTORS
330
16
102
}
330
16
100
AcDbVisualStyle
  2
GouraudWithEdges
 70
3
 90
2
 40
0.6
 62
7
290
0
291
1
  0
VISUALSTYLE
  5
64
102
{ACAD_REACTORS
330
16
102
}
330
16
100
AcDbVisualStyle
  2
Hidden
 70
6
 90
1
 40
0.6
 62
7
290
0
291
0
  0
VISUALSTYLE
  5
65
102
{ACAD_REACTORS
330
16
102
}
330
16
100
AcDbVisualStyle
  2
JitterOff
 70
20
 90
2
 40
0.6
 62
7
290
0
291
1
  0
VISUALSTYLE
  5
66
102
{ACAD_REACTORS
330
16
102
}
330
16
100
AcDbVisualStyle
  2
Linepattern
 70
14
 90
2
 40
0.6
 62
7
290
0
291
1
  0
VISUALSTYLE
  5
67
102
{ACAD_REACTORS
330
16
102
}
330
16
100
AcDbVisualStyle
  2
Modeling
 70
10
 90
2
 40
0.6
 62
7
290
0
291
0
  0
VISUALSTYLE
  5
68
102
{ACAD_REACTORS
330
16
102
}
330
16
100
AcDbVisualStyle
  2
OverhangOff
 70
21
 90
2
 40
0.6
 62
7
290
0
291
1
  0
VISUALSTYLE
  5
69
102
{ACAD_REACTORS
330
16
102
}
330
16
100
AcDbVisualStyle
  2
Realistic
 70
8
 90
2
 40
0.6
 62
7
290
0
291
0
  0
VISUALSTYLE
  5
6A
102
{ACAD_REACTORS
330
16
102
}
330
16
100
AcDbVisualStyle
  2
Shaded
 70
27
 90
2
 40
0.6
 62
7
290
0
291
0
  0
VISUALSTYLE
  5
6B
102
{ACAD_REACTORS
330
16
102
}
330
16
100
AcDbVisualStyle
  2
Shaded with edges
 70
26
 90
2
 40
0.6
 62
7
290
0
291
0
  0
VISUALSTYLE
  5
6C
102
{ACAD_REACTORS
330
16
102
}
330
16
100
AcDbVisualStyle
  2
Shades of Gray
 70
23
 90
2
 40
0.6
 62
7
290
0
291
0
  0
VISUALSTYLE
  5
6D
102
{ACAD_REACTORS
330
16
102
}
330
16
100
AcDbVisualStyle
  2
Sketchy
 70
24
 90
1
 40
0.6
 62
7
290
0
291
0
  0
VISUALSTYLE
  5
6E
102
{ACAD_REACTORS
330
16
102
}
330
16
100
AcDbVisualStyle
  2
Thicken
 70
13
 90
2
 40
0.6
 62
7
290
0
291
1
  0
VISUALSTYLE
  5
6F
102
{ACAD_REACTORS
330
16
102
}
330
16
100
AcDbVisualStyle
  2
Wireframe
 70
5
 90
0
 40
0.6
 62
7
290
0
291
0
  0
VISUALSTYLE
  5
70
102
{ACAD_REACTORS
330
16
102
}
330
16
100
AcDbVisualStyle
  2
X-Ray
 70
25
 90
2
 40
0.5
 62
7
290
0
291
0
  0
ENDSEC
  0
EOF
