  0
SECTION
  2
HEADER
  9
$ACADVER
  1
AC1027
  9
$ACADMAINTVER
 70
105
  9
$DWGCODEPAGE
  3
ANSI_1252
  9
$LASTSAVEDBY
  1
ezdxf
  9
$REQUIREDVERSIONS
160
0
  9
$INSBASE
 10
0.0
 20
0.0
 30
0.0
  9
$EXTMIN
 10
-100
 20
-100
 30
-100
  9
$EXTMAX
 10
100
 20
100
 30
100
  9
$LIMMIN
 10
0.0
 20
0.0
  9
$LIMMAX
 10
420.0
 20
297.0
  9
$ORTHOMODE
 70
0
  9
$REGENMODE
 70
1
  9
$FILLMODE
 70
1
  9
$QTEXTMODE
 70
0
  9
$MIRRTEXT
 70
1
  9
$LTSCALE
 40
1.0
  9
$ATTMODE
 70
1
  9
$TEXTSIZE
 40
2.5
  9
$TRACEWID
 40
1.0
  9
$TEXTSTYLE
  7
OpenSans
  9
$CLAYER
  8
0
  9
$CELTYPE
  6
ByLayer
  9
$CECOLOR
 62
256
  9
$CELTSCALE
 40
1.0
  9
$DISPSILH
 70
0
  9
$DIMSCALE
 40
1.0
  9
$DIMASZ
 40
0.175
  9
$DIMEXO
 40
0.125
  9
$DIMDLI
 40
3.75
  9
$DIMRND
 40
0.0
  9
$DIMDLE
 40
0.0
  9
$DIMEXE
 40
0.375
  9
$DIMTP
 40
0.0
  9
$DIMTM
 40
0.0
  9
$DIMTXT
 40
0.25
  9
$DIMCEN
 40
2.5
  9
$DIMTSZ
 40
0.0
  9
$DIMTOL
 70
0
  9
$DIMLIM
 70
0
  9
$DIMTIH
 70
0
  9
$DIMTOH
 70
0
  9
$DIMSE1
 70
0
  9
$DIMSE2
 70
0
  9
$DIMTAD
 70
1
  9
$DIMZIN
 70
8
  9
$DIMBLK
  1
ARCHTICK
  9
$DIMASO
 70
1
  9
$DIMSHO
 70
1
  9
$DIMPOST
  1

  9
$DIMAPOST
  1

  9
$DIMALT
 70
0
  9
$DIMALTD
 70
3
  9
$DIMALTF
 40
0.03937007874
  9
$DIMLFAC
 40
100.0
  9
$DIMTOFL
 70
1
  9
$DIMTVP
 40
0.0
  9
$DIMTIX
 70
0
  9
$DIMSOXD
 70
0
  9
$DIMSAH
 70
0
  9
$DIMBLK1
  1

  9
$DIMBLK2
  1

  9
$DIMSTYLE
  2
EZDXF
  9
$DIMCLRD
 70
0
  9
$DIMCLRE
 70
0
  9
$DIMCLRT
 70
0
  9
$DIMTFAC
 40
1.0
  9
$DIMGAP
 40
0.1
  9
$DIMJUST
 70
0
  9
$DIMSD1
 70
0
  9
$DIMSD2
 70
0
  9
$DIMTOLJ
 70
0
  9
$DIMTZIN
 70
8
  9
$DIMALTZ
 70
0
  9
$DIMALTTZ
 70
0
  9
$DIMUPT
 70
1
  9
$DIMDEC
 70
2
  9
$DIMTDEC
 70
2
  9
$DIMALTU
 70
2
  9
$DIMALTTD
 70
3
  9
$DIMTXSTY
  7
OpenSansCondensed-Light
  9
$DIMAUNIT
 70
0
  9
$DIMADEC
 70
0
  9
$DIMALTRND
 40
0.0
  9
$DIMAZIN
 70
0
  9
$DIMDSEP
 70
46
  9
$DIMATFIT
 70
3
  9
$DIMFRAC
 70
0
  9
$DIMLDRBLK
  1

  9
$DIMLUNIT
 70
2
  9
$DIMLWD
 70
-2
  9
$DIMLWE
 70
-2
  9
$DIMTMOVE
 70
2
  9
$DIMFXL
 40
1.0
  9
$DIMFXLON
 70
0
  9
$DIMJOGANG
 40
0.785398163397
  9
$DIMTFILL
 70
0
  9
$DIMTFILLCLR
 70
0
  9
$DIMARCSYM
 70
0
  9
$DIMLTYPE
  6

  9
$DIMLTEX1
  6

  9
$DIMLTEX2
  6

  9
$DIMTXTDIRECTION
 70
0
  9
$LUNITS
 70
2
  9
$LUPREC
 70
4
  9
$SKETCHINC
 40
1.0
  9
$FILLETRAD
 40
10.0
  9
$AUNITS
 70
0
  9
$AUPREC
 70
2
  9
$MENU
  1
.
  9
$ELEVATION
 40
0.0
  9
$PELEVATION
 40
0.0
  9
$THICKNESS
 40
0.0
  9
$LIMCHECK
 70
0
  9
$CHAMFERA
 40
0.0
  9
$CHAMFERB
 40
0.0
  9
$CHAMFERC
 40
0.0
  9
$CHAMFERD
 40
0.0
  9
$SKPOLY
 70
0
  9
$TDCREATE
 40
2459313.704039352
  9
$TDUCREATE
 40
2458532.153996898
  9
$TDUPDATE
 40
2459313.704050926
  9
$TDUUPDATE
 40
2458532.1544311
  9
$TDINDWG
 40
0.0
  9
$TDUSRTIMER
 40
0.0
  9
$USRTIMER
 70
1
  9
$ANGBASE
 50
0.0
  9
$ANGDIR
 70
0
  9
$PDMODE
 70
0
  9
$PDSIZE
 40
0.0
  9
$PLINEWID
 40
0.0
  9
$SPLFRAME
 70
0
  9
$SPLINETYPE
 70
6
  9
$SPLINESEGS
 70
8
  9
$HANDSEED
  5
1F3
  9
$SURFTAB1
 70
6
  9
$SURFTAB2
 70
6
  9
$SURFTYPE
 70
6
  9
$SURFU
 70
6
  9
$SURFV
 70
6
  9
$UCSBASE
  2

  9
$UCSNAME
  2

  9
$UCSORG
 10
0.0
 20
0.0
 30
0.0
  9
$UCSXDIR
 10
1.0
 20
0.0
 30
0.0
  9
$UCSYDIR
 10
0.0
 20
1.0
 30
0.0
  9
$UCSORTHOREF
  2

  9
$UCSORTHOVIEW
 70
0
  9
$UCSORGTOP
 10
0.0
 20
0.0
 30
0.0
  9
$UCSORGBOTTOM
 10
0.0
 20
0.0
 30
0.0
  9
$UCSORGLEFT
 10
0.0
 20
0.0
 30
0.0
  9
$UCSORGRIGHT
 10
0.0
 20
0.0
 30
0.0
  9
$UCSORGFRONT
 10
0.0
 20
0.0
 30
0.0
  9
$UCSORGBACK
 10
0.0
 20
0.0
 30
0.0
  9
$PUCSBASE
  2

  9
$PUCSNAME
  2

  9
$PUCSORG
 10
0.0
 20
0.0
 30
0.0
  9
$PUCSXDIR
 10
1.0
 20
0.0
 30
0.0
  9
$PUCSYDIR
 10
0.0
 20
1.0
 30
0.0
  9
$PUCSORTHOREF
  2

  9
$PUCSORTHOVIEW
 70
0
  9
$PUCSORGTOP
 10
0.0
 20
0.0
 30
0.0
  9
$PUCSORGBOTTOM
 10
0.0
 20
0.0
 30
0.0
  9
$PUCSORGLEFT
 10
0.0
 20
0.0
 30
0.0
  9
$PUCSORGRIGHT
 10
0.0
 20
0.0
 30
0.0
  9
$PUCSORGFRONT
 10
0.0
 20
0.0
 30
0.0
  9
$PUCSORGBACK
 10
0.0
 20
0.0
 30
0.0
  9
$USERI1
 70
0
  9
$USERI2
 70
0
  9
$USERI3
 70
0
  9
$USERI4
 70
0
  9
$USERI5
 70
0
  9
$USERR1
 40
0.0
  9
$USERR2
 40
0.0
  9
$USERR3
 40
0.0
  9
$USERR4
 40
0.0
  9
$USERR5
 40
0.0
  9
$WORLDVIEW
 70
1
  9
$SHADEDGE
 70
3
  9
$SHADEDIF
 70
70
  9
$TILEMODE
 70
1
  9
$MAXACTVP
 70
64
  9
$PINSBASE
 10
0.0
 20
0.0
 30
0.0
  9
$PLIMCHECK
 70
0
  9
$PEXTMIN
 10
1e+20
 20
1e+20
 30
1e+20
  9
$PEXTMAX
 10
-1e+20
 20
-1e+20
 30
-1e+20
  9
$PLIMMIN
 10
0.0
 20
0.0
  9
$PLIMMAX
 10
420.0
 20
297.0
  9
$UNITMODE
 70
0
  9
$VISRETAIN
 70
1
  9
$PLINEGEN
 70
0
  9
$PSLTSCALE
 70
1
  9
$TREEDEPTH
 70
3020
  9
$CMLSTYLE
  2
Standard
  9
$CMLJUST
 70
0
  9
$CMLSCALE
 40
20.0
  9
$PROXYGRAPHICS
 70
1
  9
$MEASUREMENT
 70
1
  9
$CELWEIGHT
370
-1
  9
$ENDCAPS
280
0
  9
$JOINSTYLE
280
0
  9
$LWDISPLAY
290
0
  9
$INSUNITS
 70
6
  9
$HYPERLINKBASE
  1

  9
$STYLESHEET
  1

  9
$XEDIT
290
1
  9
$CEPSNTYPE
380
0
  9
$PSTYLEMODE
290
1
  9
$FINGERPRINTGUID
  2
E6BE0DFE-98B4-11EB-B4BF-98FA9B02E1F3
  9
$VERSIONGUID
  2
E71D1DDA-98B4-11EB-B4BF-98FA9B02E1F3
  9
$EXTNAMES
290
1
  9
$PSVPSCALE
 40
0.0
  9
$OLESTARTUP
290
0
  9
$SORTENTS
280
127
  9
$INDEXCTL
280
0
  9
$HIDETEXT
280
1
  9
$XCLIPFRAME
280
2
  9
$HALOGAP
280
0
  9
$OBSCOLOR
 70
257
  9
$OBSLTYPE
280
0
  9
$INTERSECTIONDISPLAY
280
0
  9
$INTERSECTIONCOLOR
 70
257
  9
$DIMASSOC
280
2
  9
$PROJECTNAME
  1

  9
$CAMERADISPLAY
290
0
  9
$LENSLENGTH
 40
50.0
  9
$CAMERAHEIGHT
 40
0.0
  9
$STEPSPERSEC
 40
24.0
  9
$STEPSIZE
 40
100.0
  9
$3DDWFPREC
 40
2.0
  9
$PSOLWIDTH
 40
0.005
  9
$PSOLHEIGHT
 40
0.08
  9
$LOFTANG1
 40
1.570796326795
  9
$LOFTANG2
 40
1.570796326795
  9
$LOFTMAG1
 40
0.0
  9
$LOFTMAG2
 40
0.0
  9
$LOFTPARAM
 70
7
  9
$LOFTNORMALS
280
1
  9
$LATITUDE
 40
37.795
  9
$LONGITUDE
 40
-122.394
  9
$NORTHDIRECTION
 40
0.0
  9
$TIMEZONE
 70
-8000
  9
$LIGHTGLYPHDISPLAY
280
1
  9
$TILEMODELIGHTSYNCH
280
1
  9
$CMATERIAL
347
20
  9
$SOLIDHIST
280
0
  9
$SHOWHIST
280
1
  9
$DWFFRAME
280
2
  9
$DGNFRAME
280
2
  9
$REALWORLDSCALE
290
1
  9
$INTERFERECOLOR
 62
256
  9
$CSHADOW
280
0
  9
$SHADOWPLANELOCATION
 40
0.0
  0
ENDSEC
  0
SECTION
  2
CLASSES
  0
CLASS
  1
ACDBDICTIONARYWDFLT
  2
AcDbDictionaryWithDefault
  3
ObjectDBX Classes
 90
0
 91
0
280
0
281
0
  0
CLASS
  1
SUN
  2
AcDbSun
  3
SCENEOE
 90
1153
 91
0
280
0
281
0
  0
CLASS
  1
VISUALSTYLE
  2
AcDbVisualStyle
  3
ObjectDBX Classes
 90
4095
 91
0
280
0
281
0
  0
CLASS
  1
MATERIAL
  2
AcDbMaterial
  3
ObjectDBX Classes
 90
1153
 91
0
280
0
281
0
  0
CLASS
  1
SCALE
  2
AcDbScale
  3
ObjectDBX Classes
 90
1153
 91
0
280
0
281
0
  0
CLASS
  1
TABLESTYLE
  2
AcDbTableStyle
  3
ObjectDBX Classes
 90
4095
 91
0
280
0
281
0
  0
CLASS
  1
MLEADERSTYLE
  2
AcDbMLeaderStyle
  3
ACDB_MLEADERSTYLE_CLASS
 90
4095
 91
0
280
0
281
0
  0
CLASS
  1
DICTIONARYVAR
  2
AcDbDictionaryVar
  3
ObjectDBX Classes
 90
0
 91
0
280
0
281
0
  0
CLASS
  1
CELLSTYLEMAP
  2
AcDbCellStyleMap
  3
ObjectDBX Classes
 90
1152
 91
0
280
0
281
0
  0
CLASS
  1
MENTALRAYRENDERSETTINGS
  2
AcDbMentalRayRenderSettings
  3
SCENEOE
 90
1024
 91
0
280
0
281
0
  0
CLASS
  1
ACDBDETAILVIEWSTYLE
  2
AcDbDetailViewStyle
  3
ObjectDBX Classes
 90
1025
 91
0
280
0
281
0
  0
CLASS
  1
ACDBSECTIONVIEWSTYLE
  2
AcDbSectionViewStyle
  3
ObjectDBX Classes
 90
1025
 91
0
280
0
281
0
  0
CLASS
  1
RASTERVARIABLES
  2
AcDbRasterVariables
  3
ISM
 90
0
 91
0
280
0
281
0
  0
CLASS
  1
LAYOUT
  2
AcDbLayout
  3
ObjectDBX Classes
 90
0
 91
0
280
0
281
0
  0
CLASS
  1
ACDBPLACEHOLDER
  2
AcDbPlaceHolder
  3
ObjectDBX Classes
 90
0
 91
0
280
0
281
0
  0
ENDSEC
  0
SECTION
  2
TABLES
  0
TABLE
  2
VPORT
  5
8
330
0
100
AcDbSymbolTable
 70
1
  0
VPORT
  5
23
330
8
100
AcDbSymbolTableRecord
100
AcDbViewportTableRecord
  2
*Active
 70
0
 10
0.0
 20
0.0
 11
1.0
 21
1.0
 12
70.0
 22
50.0
 13
0.0
 23
0.0
 14
0.5
 24
0.5
 15
0.5
 25
0.5
 16
0.0
 26
0.0
 36
1.0
 17
0.0
 27
0.0
 37
0.0
 40
1.0
 41
1.34
 42
50.0
 43
0.0
 44
0.0
 50
0.0
 51
0.0
 71
0
 72
1000
 73
1
 74
3
 75
0
 76
0
 77
0
 78
0
281
0
 65
0
146
0.0
  0
ENDTAB
  0
TABLE
  2
LTYPE
  5
2
330
0
100
AcDbSymbolTable
 70
21
  0
LTYPE
  5
24
330
2
100
AcDbSymbolTableRecord
100
AcDbLinetypeTableRecord
  2
ByBlock
 70
0
  3

 72
65
 73
0
 40
0.0
  0
LTYPE
  5
25
330
2
100
AcDbSymbolTableRecord
100
AcDbLinetypeTableRecord
  2
ByLayer
 70
0
  3

 72
65
 73
0
 40
0.0
  0
LTYPE
  5
26
330
2
100
AcDbSymbolTableRecord
100
AcDbLinetypeTableRecord
  2
Continuous
 70
0
  3

 72
65
 73
0
 40
0.0
  0
LTYPE
  5
2D
330
2
100
AcDbSymbolTableRecord
100
AcDbLinetypeTableRecord
  2
CENTER
 70
0
  3
Center ____ _ ____ _ ____ _ ____ _ ____ _ ____
 72
65
 73
4
 40
5.08
 49
3.175
 74
0
 49
-0.635
 74
0
 49
0.635
 74
0
 49
-0.635
 74
0
  0
LTYPE
  5
2E
330
2
100
AcDbSymbolTableRecord
100
AcDbLinetypeTableRecord
  2
CENTERX2
 70
0
  3
Center (2x) ________  __  ________  __  ________
 72
65
 73
4
 40
8.89
 49
6.35
 74
0
 49
-0.635
 74
0
 49
1.27
 74
0
 49
-0.635
 74
0
  0
LTYPE
  5
2F
330
2
100
AcDbSymbolTableRecord
100
AcDbLinetypeTableRecord
  2
CENTER2
 70
0
  3
Center (.5x) ____ _ ____ _ ____ _ ____ _ ____
 72
65
 73
4
 40
2.54
 49
1.587
 74
0
 49
-0.318
 74
0
 49
0.318
 74
0
 49
-0.318
 74
0
  0
LTYPE
  5
30
330
2
100
AcDbSymbolTableRecord
100
AcDbLinetypeTableRecord
  2
DASHED
 70
0
  3
Dashed __ __ __ __ __ __ __ __ __ __ __ __ __ _
 72
65
 73
2
 40
1.524
 49
1.27
 74
0
 49
-0.254
 74
0
  0
LTYPE
  5
31
330
2
100
AcDbSymbolTableRecord
100
AcDbLinetypeTableRecord
  2
DASHEDX2
 70
0
  3
Dashed (2x) ____  ____  ____  ____  ____  ____
 72
65
 73
2
 40
3.048
 49
2.54
 74
0
 49
-0.508
 74
0
  0
LTYPE
  5
32
330
2
100
AcDbSymbolTableRecord
100
AcDbLinetypeTableRecord
  2
DASHED2
 70
0
  3
Dashed (.5x) _ _ _ _ _ _ _ _ _ _ _ _ _ _
 72
65
 73
2
 40
0.762
 49
0.635
 74
0
 49
-0.127
 74
0
  0
LTYPE
  5
33
330
2
100
AcDbSymbolTableRecord
100
AcDbLinetypeTableRecord
  2
PHANTOM
 70
0
  3
Phantom ______  __  __  ______  __  __  ______
 72
65
 73
6
 40
6.35
 49
3.175
 74
0
 49
-0.635
 74
0
 49
0.635
 74
0
 49
-0.635
 74
0
 49
0.635
 74
0
 49
-0.635
 74
0
  0
LTYPE
  5
34
330
2
100
AcDbSymbolTableRecord
100
AcDbLinetypeTableRecord
  2
PHANTOMX2
 70
0
  3
Phantom (2x)____________    ____    ____    ____________
 72
65
 73
6
 40
10.795
 49
6.35
 74
0
 49
-0.635
 74
0
 49
1.27
 74
0
 49
-0.635
 74
0
 49
1.27
 74
0
 49
-0.635
 74
0
  0
LTYPE
  5
35
330
2
100
AcDbSymbolTableRecord
100
AcDbLinetypeTableRecord
  2
PHANTOM2
 70
0
  3
Phantom (.5x) ___ _ _ ___ _ _ ___ _ _ ___ _ _ ___
 72
65
 73
6
 40
3.175
 49
1.587
 74
0
 49
-0.318
 74
0
 49
0.318
 74
0
 49
-0.318
 74
0
 49
0.318
 74
0
 49
-0.318
 74
0
  0
LTYPE
  5
36
330
2
100
AcDbSymbolTableRecord
100
AcDbLinetypeTableRecord
  2
DASHDOT
 70
0
  3
Dash dot __ . __ . __ . __ . __ . __ . __ . __
 72
65
 73
4
 40
3.556
 49
2.54
 74
0
 49
-0.508
 74
0
 49
0.0
 74
0
 49
-0.508
 74
0
  0
LTYPE
  5
37
330
2
100
AcDbSymbolTableRecord
100
AcDbLinetypeTableRecord
  2
DASHDOTX2
 70
0
  3
Dash dot (2x) ____  .  ____  .  ____  .  ____
 72
65
 73
4
 40
6.096
 49
5.08
 74
0
 49
-0.508
 74
0
 49
0.0
 74
0
 49
-0.508
 74
0
  0
LTYPE
  5
38
330
2
100
AcDbSymbolTableRecord
100
AcDbLinetypeTableRecord
  2
DASHDOT2
 70
0
  3
Dash dot (.5x) _ . _ . _ . _ . _ . _ . _ . _
 72
65
 73
4
 40
1.778
 49
1.27
 74
0
 49
-0.254
 74
0
 49
0.0
 74
0
 49
-0.254
 74
0
  0
LTYPE
  5
39
330
2
100
AcDbSymbolTableRecord
100
AcDbLinetypeTableRecord
  2
DOT
 70
0
  3
Dot .  .  .  .  .  .  .  .  .  .  .  .  .  .  .  .
 72
65
 73
2
 40
0.508
 49
0.0
 74
0
 49
-0.508
 74
0
  0
LTYPE
  5
3A
330
2
100
AcDbSymbolTableRecord
100
AcDbLinetypeTableRecord
  2
DOTX2
 70
0
  3
Dot (2x) .    .    .    .    .    .    .    . 
 72
65
 73
2
 40
1.016
 49
0.0
 74
0
 49
-1.016
 74
0
  0
LTYPE
  5
3B
330
2
100
AcDbSymbolTableRecord
100
AcDbLinetypeTableRecord
  2
DOT2
 70
0
  3
Dot (.5) . . . . . . . . . . . . . . . . . . . 
 72
65
 73
2
 40
0.254
 49
0.0
 74
0
 49
-0.254
 74
0
  0
LTYPE
  5
3C
330
2
100
AcDbSymbolTableRecord
100
AcDbLinetypeTableRecord
  2
DIVIDE
 70
0
  3
Divide __ . . __ . . __ . . __ . . __ . . __
 72
65
 73
6
 40
4.064
 49
2.54
 74
0
 49
-0.508
 74
0
 49
0.0
 74
0
 49
-0.508
 74
0
 49
0.0
 74
0
 49
-0.508
 74
0
  0
LTYPE
  5
3D
330
2
100
AcDbSymbolTableRecord
100
AcDbLinetypeTableRecord
  2
DIVIDEX2
 70
0
  3
Divide (2x) ____  . .  ____  . .  ____  . .  ____
 72
65
 73
6
 40
6.604
 49
5.08
 74
0
 49
-0.508
 74
0
 49
0.0
 74
0
 49
-0.508
 74
0
 49
0.0
 74
0
 49
-0.508
 74
0
  0
LTYPE
  5
3E
330
2
100
AcDbSymbolTableRecord
100
AcDbLinetypeTableRecord
  2
DIVIDE2
 70
0
  3
Divide(.5x) _ . _ . _ . _ . _ . _ . _ . _
 72
65
 73
6
 40
2.032
 49
1.27
 74
0
 49
-0.254
 74
0
 49
0.0
 74
0
 49
-0.254
 74
0
 49
0.0
 74
0
 49
-0.254
 74
0
  0
ENDTAB
  0
TABLE
  2
LAYER
  5
1
330
0
100
AcDbSymbolTable
 70
5
  0
LAYER
  5
27
330
1
100
AcDbSymbolTableRecord
100
AcDbLayerTableRecord
  2
0
 70
0
 62
7
  6
Continuous
370
-3
390
13
347
21
  0
LAYER
  5
28
330
1
100
AcDbSymbolTableRecord
100
AcDbLayerTableRecord
  2
Defpoints
 70
0
 62
7
  6
Continuous
290
0
370
-3
390
13
347
21
  0
LAYER
  5
87
330
1
100
AcDbSymbolTableRecord
100
AcDbLayerTableRecord
  2
Inner
 70
0
 62
2
  6
CONTINUOUS
370
-3
390
13
347
21
  0
LAYER
  5
88
330
1
100
AcDbSymbolTableRecord
100
AcDbLayerTableRecord
  2
Outer
 70
0
 62
1
  6
CONTINUOUS
370
-3
390
13
347
21
  0
LAYER
  5
89
330
1
100
AcDbSymbolTableRecord
100
AcDbLayerTableRecord
  2
Fill
 70
0
 62
3
  6
CONTINUOUS
370
-3
390
13
347
21
  0
ENDTAB
  0
TABLE
  2
STYLE
  5
5
330
0
100
AcDbSymbolTable
 70
26
  0
STYLE
  5
29
330
5
100
AcDbSymbolTableRecord
100
AcDbTextStyleTableRecord
  2
Standard
 70
0
 40
0.0
 41
1.0
 50
0.0
 71
0
 42
2.5
  3
txt
  4

  0
STYLE
  5
3F
330
5
100
AcDbSymbolTableRecord
100
AcDbTextStyleTableRecord
  2
OpenSans-Light
 70
0
 40
0.0
 41
1.0
 50
0.0
 71
0
 42
2.5
  3
OpenSans-Light.ttf
  4

  0
STYLE
  5
40
330
5
100
AcDbSymbolTableRecord
100
AcDbTextStyleTableRecord
  2
OpenSans-Light-Italic
 70
0
 40
0.0
 41
1.0
 50
0.0
 71
0
 42
2.5
  3
OpenSans-LightItalic.ttf
  4

  0
STYLE
  5
41
330
5
100
AcDbSymbolTableRecord
100
AcDbTextStyleTableRecord
  2
OpenSans
 70
0
 40
0.0
 41
1.0
 50
0.0
 71
0
 42
2.5
  3
OpenSans-Regular.ttf
  4

  0
STYLE
  5
42
330
5
100
AcDbSymbolTableRecord
100
AcDbTextStyleTableRecord
  2
OpenSans-Italic
 70
0
 40
0.0
 41
1.0
 50
0.0
 71
0
 42
2.5
  3
OpenSans-Italic.ttf
  4

  0
STYLE
  5
43
330
5
100
AcDbSymbolTableRecord
100
AcDbTextStyleTableRecord
  2
OpenSans-SemiBold
 70
0
 40
0.0
 41
1.0
 50
0.0
 71
0
 42
2.5
  3
OpenSans-SemiBold.ttf
  4

  0
STYLE
  5
44
330
5
100
AcDbSymbolTableRecord
100
AcDbTextStyleTableRecord
  2
OpenSans-SemiBoldItalic
 70
0
 40
0.0
 41
1.0
 50
0.0
 71
0
 42
2.5
  3
OpenSans-SemiBoldItalic.ttf
  4

  0
STYLE
  5
45
330
5
100
AcDbSymbolTableRecord
100
AcDbTextStyleTableRecord
  2
OpenSans-Bold
 70
0
 40
0.0
 41
1.0
 50
0.0
 71
0
 42
2.5
  3
OpenSans-Bold.ttf
  4

  0
STYLE
  5
46
330
5
100
AcDbSymbolTableRecord
100
AcDbTextStyleTableRecord
  2
OpenSans-BoldItalic
 70
0
 40
0.0
 41
1.0
 50
0.0
 71
0
 42
2.5
  3
OpenSans-BoldItalic.ttf
  4

  0
STYLE
  5
47
330
5
100
AcDbSymbolTableRecord
100
AcDbTextStyleTableRecord
  2
OpenSans-ExtraBold
 70
0
 40
0.0
 41
1.0
 50
0.0
 71
0
 42
2.5
  3
OpenSans-ExtraBold.ttf
  4

  0
STYLE
  5
48
330
5
100
AcDbSymbolTableRecord
100
AcDbTextStyleTableRecord
  2
OpenSans-ExtraBoldItalic
 70
0
 40
0.0
 41
1.0
 50
0.0
 71
0
 42
2.5
  3
OpenSans-ExtraBoldItalic.ttf
  4

  0
STYLE
  5
49
330
5
100
AcDbSymbolTableRecord
100
AcDbTextStyleTableRecord
  2
OpenSansCondensed-Bold
 70
0
 40
0.0
 41
1.0
 50
0.0
 71
0
 42
2.5
  3
OpenSansCondensed-Bold.ttf
  4

  0
STYLE
  5
4A
330
5
100
AcDbSymbolTableRecord
100
AcDbTextStyleTableRecord
  2
OpenSansCondensed-Light
 70
0
 40
0.0
 41
1.0
 50
0.0
 71
0
 42
2.5
  3
OpenSansCondensed-Light.ttf
  4

  0
STYLE
  5
4B
330
5
100
AcDbSymbolTableRecord
100
AcDbTextStyleTableRecord
  2
OpenSansCondensed-Italic
 70
0
 40
0.0
 41
1.0
 50
0.0
 71
0
 42
2.5
  3
OpenSansCondensed-LightItalic.ttf
  4

  0
STYLE
  5
4C
330
5
100
AcDbSymbolTableRecord
100
AcDbTextStyleTableRecord
  2
LiberationSans
 70
0
 40
0.0
 41
1.0
 50
0.0
 71
0
 42
2.5
  3
LiberationSans-Regular.ttf
  4

  0
STYLE
  5
4D
330
5
100
AcDbSymbolTableRecord
100
AcDbTextStyleTableRecord
  2
LiberationSans-Bold
 70
0
 40
0.0
 41
1.0
 50
0.0
 71
0
 42
2.5
  3
LiberationSans-Bold.ttf
  4

  0
STYLE
  5
4E
330
5
100
AcDbSymbolTableRecord
100
AcDbTextStyleTableRecord
  2
LiberationSans-BoldItalic
 70
0
 40
0.0
 41
1.0
 50
0.0
 71
0
 42
2.5
  3
LiberationSans-BoldItalic.ttf
  4

  0
STYLE
  5
4F
330
5
100
AcDbSymbolTableRecord
100
AcDbTextStyleTableRecord
  2
LiberationSans-Italic
 70
0
 40
0.0
 41
1.0
 50
0.0
 71
0
 42
2.5
  3
LiberationSans-Italic.ttf
  4

  0
STYLE
  5
50
330
5
100
AcDbSymbolTableRecord
100
AcDbTextStyleTableRecord
  2
LiberationSerif
 70
0
 40
0.0
 41
1.0
 50
0.0
 71
0
 42
2.5
  3
LiberationSerif-Regular.ttf
  4

  0
STYLE
  5
51
330
5
100
AcDbSymbolTableRecord
100
AcDbTextStyleTableRecord
  2
LiberationSerif-Bold
 70
0
 40
0.0
 41
1.0
 50
0.0
 71
0
 42
2.5
  3
LiberationSerif-Bold.ttf
  4

  0
STYLE
  5
52
330
5
100
AcDbSymbolTableRecord
100
AcDbTextStyleTableRecord
  2
LiberationSerif-BoldItalic
 70
0
 40
0.0
 41
1.0
 50
0.0
 71
0
 42
2.5
  3
LiberationSerif-BoldItalic.ttf
  4

  0
STYLE
  5
53
330
5
100
AcDbSymbolTableRecord
100
AcDbTextStyleTableRecord
  2
LiberationSerif-Italic
 70
0
 40
0.0
 41
1.0
 50
0.0
 71
0
 42
2.5
  3
LiberationSerif-Italic.ttf
  4

  0
STYLE
  5
54
330
5
100
AcDbSymbolTableRecord
100
AcDbTextStyleTableRecord
  2
LiberationMono
 70
0
 40
0.0
 41
1.0
 50
0.0
 71
0
 42
2.5
  3
LiberationMono-Regular.ttf
  4

  0
STYLE
  5
55
330
5
100
AcDbSymbolTableRecord
100
AcDbTextStyleTableRecord
  2
LiberationMono-Bold
 70
0
 40
0.0
 41
1.0
 50
0.0
 71
0
 42
2.5
  3
LiberationMono-Bold.ttf
  4

  0
STYLE
  5
56
330
5
100
AcDbSymbolTableRecord
100
AcDbTextStyleTableRecord
  2
LiberationMono-BoldItalic
 70
0
 40
0.0
 41
1.0
 50
0.0
 71
0
 42
2.5
  3
LiberationMono-BoldItalic.ttf
  4

  0
STYLE
  5
57
330
5
100
AcDbSymbolTableRecord
100
AcDbTextStyleTableRecord
  2
LiberationMono-Italic
 70
0
 40
0.0
 41
1.0
 50
0.0
 71
0
 42
2.5
  3
LiberationMono-Italic.ttf
  4

  0
ENDTAB
  0
TABLE
  2
VIEW
  5
7
330
0
100
AcDbSymbolTable
 70
0
  0
ENDTAB
  0
TABLE
  2
UCS
  5
6
330
0
100
AcDbSymbolTable
 70
0
  0
ENDTAB
  0
TABLE
  2
APPID
  5
3
330
0
100
AcDbSymbolTable
 70
2
  0
APPID
  5
2A
330
3
100
AcDbSymbolTableRecord
100
AcDbRegAppTableRecord
  2
ACAD
 70
0
  0
APPID
  5
1F2
330
3
100
AcDbSymbolTableRecord
100
AcDbRegAppTableRecord
  2
HATCHBACKGROUNDCOLOR
 70
0
  0
ENDTAB
  0
TABLE
  2
DIMSTYLE
  5
4
330
0
100
AcDbSymbolTable
 70
11
100
AcDbDimStyleTable
  0
DIMSTYLE
105
2B
330
4
100
AcDbSymbolTableRecord
100
AcDbDimStyleTableRecord
  2
Standard
 70
0
 40
1.0
 41
2.5
 42
0.625
 43
3.75
 44
1.25
 45
0.0
 46
0.0
 47
0.0
 48
0.0
 49
2.5
140
2.5
141
2.5
142
0.0
143
0.03937007874
144
1.0
145
0.0
146
1.0
147
0.625
148
0.0
 69
0
 70
0
 71
0
 72
0
 73
0
 74
0
 75
0
 76
0
 77
1
 78
8
 79
0
170
0
171
3
172
1
173
0
174
0
175
0
176
0
177
0
178
0
179
0
271
0
272
2
273
2
274
3
275
0
276
0
277
2
278
44
279
0
280
0
281
0
282
0
283
0
284
8
285
0
286
0
288
0
289
3
290
0
371
-2
372
-2
  0
DIMSTYLE
105
71
330
4
100
AcDbSymbolTableRecord
100
AcDbDimStyleTableRecord
  2
EZDXF
 70
0
 40
1.0
 41
0.175
 42
0.125
 43
3.75
 44
0.375
 45
0.0
 46
0.0
 47
0.0
 48
0.0
 49
2.5
140
0.25
141
2.5
142
0.0
143
0.03937007874
144
100.0
145
0.0
146
1.0
147
0.1
148
0.0
 69
0
 70
0
 71
0
 72
0
 73
0
 74
0
 75
0
 76
0
 77
1
 78
8
 79
0
170
0
171
3
172
1
173
0
174
0
175
0
176
0
177
0
178
0
179
0
271
2
272
2
273
2
274
3
275
0
276
0
277
2
278
46
279
2
280
0
281
0
282
0
283
0
284
8
285
0
286
0
288
1
289
3
290
0
340
4A
342
72
371
-2
372
-2
  0
DIMSTYLE
105
7A
330
4
100
AcDbSymbolTableRecord
100
AcDbDimStyleTableRecord
  2
EZ_M_100_H25_CM
 70
0
 40
1.0
 41
0.25
 42
0.125
 43
3.75
 44
0.375
 45
0.0
 46
0.0
 47
0.0
 48
0.0
 49
2.5
140
0.25
141
2.5
142
0.125
143
0.03937007874
144
100.0
145
0.0
146
1.0
147
0.1
148
0.0
 69
0
 70
0
 71
0
 72
0
 73
0
 74
0
 75
0
 76
0
 77
1
 78
8
 79
0
170
0
171
3
172
1
173
0
174
0
175
0
176
0
177
0
178
0
179
0
271
2
272
2
273
2
274
3
275
0
276
0
277
2
278
46
279
2
280
0
281
0
282
0
283
0
284
8
285
0
286
0
288
1
289
3
290
0
340
4A
371
-2
372
-2
  0
DIMSTYLE
105
7B
330
4
100
AcDbSymbolTableRecord
100
AcDbDimStyleTableRecord
  2
EZ_M_50_H25_CM
 70
0
 40
1.0
 41
0.125
 42
0.0625
 43
3.75
 44
0.1875
 45
0.0
 46
0.0
 47
0.0
 48
0.0
 49
2.5
140
0.125
141
2.5
142
0.0625
143
0.03937007874
144
100.0
145
0.0
146
1.0
147
0.05
148
0.0
 69
0
 70
0
 71
0
 72
0
 73
0
 74
0
 75
0
 76
0
 77
1
 78
8
 79
0
170
0
171
3
172
1
173
0
174
0
175
0
176
0
177
0
178
0
179
0
271
2
272
2
273
2
274
3
275
0
276
0
277
2
278
46
279
2
280
0
281
0
282
0
283
0
284
8
285
0
286
0
288
1
289
3
290
0
340
4A
371
-2
372
-2
  0
DIMSTYLE
105
7C
330
4
100
AcDbSymbolTableRecord
100
AcDbDimStyleTableRecord
  2
EZ_M_25_H25_CM
 70
0
 40
1.0
 41
0.0625
 42
0.03125
 43
3.75
 44
0.09375
 45
0.0
 46
0.0
 47
0.0
 48
0.0
 49
2.5
140
0.0625
141
2.5
142
0.03125
143
0.03937007874
144
100.0
145
0.0
146
1.0
147
0.025
148
0.0
 69
0
 70
0
 71
0
 72
0
 73
0
 74
0
 75
0
 76
0
 77
1
 78
8
 79
0
170
0
171
3
172
1
173
0
174
0
175
0
176
0
177
0
178
0
179
0
271
2
272
2
273
2
274
3
275
0
276
0
277
2
278
46
279
2
280
0
281
0
282
0
283
0
284
8
285
0
286
0
288
1
289
3
290
0
340
4A
371
-2
372
-2
  0
DIMSTYLE
105
7D
330
4
100
AcDbSymbolTableRecord
100
AcDbDimStyleTableRecord
  2
EZ_M_20_H25_CM
 70
0
 40
1.0
 41
0.05
 42
0.025
 43
3.75
 44
0.07500000000000001
 45
0.0
 46
0.0
 47
0.0
 48
0.0
 49
2.5
140
0.05
141
2.5
142
0.025
143
0.03937007874
144
100.0
145
0.0
146
1.0
147
0.020000000000000004
148
0.0
 69
0
 70
0
 71
0
 72
0
 73
0
 74
0
 75
0
 76
0
 77
1
 78
8
 79
0
170
0
171
3
172
1
173
0
174
0
175
0
176
0
177
0
178
0
179
0
271
2
272
2
273
2
274
3
275
0
276
0
277
2
278
46
279
2
280
0
281
0
282
0
283
0
284
8
285
0
286
0
288
1
289
3
290
0
340
4A
371
-2
372
-2
  0
DIMSTYLE
105
7E
330
4
100
AcDbSymbolTableRecord
100
AcDbDimStyleTableRecord
  2
EZ_M_10_H25_CM
 70
0
 40
1.0
 41
0.025
 42
0.0125
 43
3.75
 44
0.037500000000000006
 45
0.0
 46
0.0
 47
0.0
 48
0.0
 49
2.5
140
0.025
141
2.5
142
0.0125
143
0.03937007874
144
100.0
145
0.0
146
1.0
147
0.010000000000000002
148
0.0
 69
0
 70
0
 71
0
 72
0
 73
0
 74
0
 75
0
 76
0
 77
1
 78
8
 79
0
170
0
171
3
172
1
173
0
174
0
175
0
176
0
177
0
178
0
179
0
271
2
272
2
273
2
274
3
275
0
276
0
277
2
278
46
279
2
280
0
281
0
282
0
283
0
284
8
285
0
286
0
288
1
289
3
290
0
340
4A
371
-2
372
-2
  0
DIMSTYLE
105
7F
330
4
100
AcDbSymbolTableRecord
100
AcDbDimStyleTableRecord
  2
EZ_M_5_H25_CM
 70
0
 40
1.0
 41
0.0125
 42
0.00625
 43
3.75
 44
0.018750000000000003
 45
0.0
 46
0.0
 47
0.0
 48
0.0
 49
2.5
140
0.0125
141
2.5
142
0.00625
143
0.03937007874
144
100.0
145
0.0
146
1.0
147
0.005000000000000001
148
0.0
 69
0
 70
0
 71
0
 72
0
 73
0
 74
0
 75
0
 76
0
 77
1
 78
8
 79
0
170
0
171
3
172
1
173
0
174
0
175
0
176
0
177
0
178
0
179
0
271
2
272
2
273
2
274
3
275
0
276
0
277
2
278
46
279
2
280
0
281
0
282
0
283
0
284
8
285
0
286
0
288
1
289
3
290
0
340
4A
371
-2
372
-2
  0
DIMSTYLE
105
80
330
4
100
AcDbSymbolTableRecord
100
AcDbDimStyleTableRecord
  2
EZ_M_1_H25_CM
 70
0
 40
1.0
 41
0.0025
 42
0.00125
 43
3.75
 44
0.00375
 45
0.0
 46
0.0
 47
0.0
 48
0.0
 49
2.5
140
0.0025
141
2.5
142
0.00125
143
0.03937007874
144
100.0
145
0.0
146
1.0
147
0.001
148
0.0
 69
0
 70
0
 71
0
 72
0
 73
0
 74
0
 75
0
 76
0
 77
1
 78
8
 79
0
170
0
171
3
172
1
173
0
174
0
175
0
176
0
177
0
178
0
179
0
271
2
272
2
273
2
274
3
275
0
276
0
277
2
278
46
279
2
280
0
281
0
282
0
283
0
284
8
285
0
286
0
288
1
289
3
290
0
340
4A
371
-2
372
-2
  0
DIMSTYLE
105
81
330
4
100
AcDbSymbolTableRecord
100
AcDbDimStyleTableRecord
  2
EZ_RADIUS
 70
0
 40
1.0
 41
0.25
 42
0.125
 43
3.75
 44
0.375
 45
0.0
 46
0.0
 47
0.0
 48
0.0
 49
2.5
140
0.25
141
0.0
142
0.0
143
0.03937007874
144
100.0
145
0.0
146
1.0
147
0.1
148
0.0
 69
0
 70
0
 71
0
 72
0
 73
0
 74
0
 75
0
 76
0
 77
1
 78
8
 79
0
170
0
171
3
172
0
173
0
174
0
175
0
176
0
177
0
178
0
179
0
271
2
272
2
273
2
274
3
275
0
276
0
277
2
278
46
279
1
280
0
281
0
282
0
283
0
284
8
285
0
286
0
288
1
289
3
290
0
340
4A
342
82
371
-2
372
-2
  0
DIMSTYLE
105
86
330
4
100
AcDbSymbolTableRecord
100
AcDbDimStyleTableRecord
  2
EZ_RADIUS_INSIDE
 70
0
 40
1.0
 41
0.25
 42
0.125
 43
3.75
 44
0.375
 45
0.0
 46
0.0
 47
0.0
 48
0.0
 49
2.5
140
0.25
141
0.0
142
0.0
143
0.03937007874
144
100.0
145
0.0
146
1.0
147
0.1
148
0.0
 69
0
 70
0
 71
0
 72
0
 73
0
 74
0
 75
0
 76
0
 77
0
 78
8
 79
0
170
0
171
3
172
0
173
0
174
1
175
0
176
0
177
0
178
0
179
0
271
2
272
2
273
2
274
3
275
0
276
0
277
2
278
46
279
0
280
0
281
0
282
0
283
0
284
8
285
0
286
0
288
1
289
0
290
0
340
4A
342
82
371
-2
372
-2
  0
ENDTAB
  0
TABLE
  2
BLOCK_RECORD
  5
9
330
0
100
AcDbSymbolTable
 70
5
  0
BLOCK_RECORD
  5
17
330
9
100
AcDbSymbolTableRecord
100
AcDbBlockTableRecord
  2
*Model_Space
340
1A
 70
0
280
1
281
0
  0
BLOCK_RECORD
  5
1B
330
9
100
AcDbSymbolTableRecord
100
AcDbBlockTableRecord
  2
*Paper_Space
340
1E
 70
0
280
1
281
0
  0
BLOCK_RECORD
  5
72
330
9
100
AcDbSymbolTableRecord
100
AcDbBlockTableRecord
  2
_ARCHTICK
340
0
 70
0
280
1
281
0
  0
BLOCK_RECORD
  5
76
330
9
100
AcDbSymbolTableRecord
100
AcDbBlockTableRecord
  2
_CLOSEDFILLED
340
0
 70
0
280
1
281
0
  0
BLOCK_RECORD
  5
82
330
9
100
AcDbSymbolTableRecord
100
AcDbBlockTableRecord
  2
_CLOSEDBLANK
340
0
 70
0
280
1
281
0
  0
ENDTAB
  0
ENDSEC
  0
SECTION
  2
BLOCKS
  0
BLOCK
  5
18
330
17
100
AcDbEntity
  8
0
100
AcDbBlockBegin
  2
*Model_Space
 70
0
 10
0.0
 20
0.0
 30
0.0
  3
*Model_Space
  1

  0
ENDBLK
  5
19
330
17
100
AcDbEntity
  8
0
100
AcDbBlockEnd
  0
BLOCK
  5
1C
330
1B
100
AcDbEntity
  8
0
100
AcDbBlockBegin
  2
*Paper_Space
 70
0
 10
0.0
 20
0.0
 30
0.0
  3
*Paper_Space
  1

  0
ENDBLK
  5
1D
330
1B
100
AcDbEntity
  8
0
100
AcDbBlockEnd
  0
BLOCK
  5
73
330
72
100
AcDbEntity
  8
0
100
AcDbBlockBegin
  2
_ARCHTICK
 70
0
 10
0.0
 20
0.0
 30
0.0
  3
_ARCHTICK
  1

  0
LWPOLYLINE
  5
75
330
72
100
AcDbEntity
  8
0
  6
BYBLOCK
 62
0
100
AcDbPolyline
 90
2
 70
0
 43
0.15
 10
-0.5
 20
-0.5000000000000001
 10
0.5000000000000001
 20
0.5
  0
ENDBLK
  5
74
330
72
100
AcDbEntity
  8
0
100
AcDbBlockEnd
  0
BLOCK
  5
77
330
76
100
AcDbEntity
  8
0
100
AcDbBlockBegin
  2
_CLOSEDFILLED
 70
0
 10
0.0
 20
0.0
 30
0.0
  3
_CLOSEDFILLED
  1

  0
SOLID
  5
79
330
76
100
AcDbEntity
  8
0
  6
BYBLOCK
 62
0
100
AcDbTrace
 10
-1.0
 20
0.1643989837240255
 30
0.0
 11
0.0
 21
0.0
 31
0.0
 12
-1.0
 22
-0.1643989837240255
 32
0.0
 13
-1.0
 23
-0.1643989837240255
 33
0.0
  0
ENDBLK
  5
78
330
76
100
AcDbEntity
  8
0
100
AcDbBlockEnd
  0
BLOCK
  5
83
330
82
100
AcDbEntity
  8
0
100
AcDbBlockBegin
  2
_CLOSEDBLANK
 70
0
 10
0.0
 20
0.0
 30
0.0
  3
_CLOSEDBLANK
  1

  0
LWPOLYLINE
  5
85
330
82
100
AcDbEntity
  8
0
  6
BYBLOCK
 62
0
100
AcDbPolyline
 90
3
 70
1
 10
-1.0
 20
0.1643989837240255
 10
0.0
 20
0.0
 10
-1.0
 20
-0.1643989837240255
  0
ENDBLK
  5
84
330
82
100
AcDbEntity
  8
0
100
AcDbBlockEnd
  0
ENDSEC
  0
SECTION
  2
ENTITIES
  0
LINE
  5
8A
330
17
100
AcDbEntity
  8
Inner
100
AcDbLine
 10
0.0
 20
0.0
 30
0.0
 11
6.0
 21
-1.4695761589768238e-15
 31
0.0
  0
LINE
  5
8B
330
17
100
AcDbEntity
  8
Inner
100
AcDbLine
 10
6.0
 20
-1.4695761589768238e-15
 30
0.0
 11
6.007418235064651
 21
0.1048598753440091
 31
0.0
  0
LINE
  5
8C
330
17
100
AcDbEntity
  8
Inner
100
AcDbLine
 10
6.007418235064651
 20
0.1048598753440091
 30
0.0
 11
6.013001475898226
 21
0.20997863849338233
 31
0.0
  0
LINE
  5
8D
330
17
100
AcDbEntity
  8
Inner
100
AcDbLine
 10
6.013001475898226
 20
0.20997863849338233
 30
0.0
 11
6.016742946896308
 21
0.3153241363637369
 31
0.0
  0
LINE
  5
8E
330
17
100
AcDbEntity
  8
Inner
100
AcDbLine
 10
6.016742946896308
 20
0.3153241363637369
 30
0.0
 11
6.018636436567607
 21
0.42086405825622175
 31
0.0
  0
LINE
  5
8F
330
17
100
AcDbEntity
  8
Inner
100
AcDbLine
 10
6.018636436567607
 20
0.42086405825622175
 30
0.0
 11
6.018676300970962
 21
0.5265659457670994
 31
0.0
  0
LINE
  5
90
330
17
100
AcDbEntity
  8
Inner
100
AcDbLine
 10
6.018676300970962
 20
0.5265659457670994
 30
0.0
 11
6.0168574669780535
 21
0.6323972027693002
 31
0.0
  0
LINE
  5
91
330
17
100
AcDbEntity
  8
Inner
100
AcDbLine
 10
6.0168574669780535
 20
0.6323972027693002
 30
0.0
 11
6.013175435360343
 21
0.7383251054628528
 31
0.0
  0
LINE
  5
92
330
17
100
AcDbEntity
  8
Inner
100
AcDbLine
 10
6.013175435360343
 20
0.7383251054628528
 30
0.0
 11
6.00762628369886
 21
0.8443168124910633
 31
0.0
  0
LINE
  5
93
330
17
100
AcDbEntity
  8
Inner
100
AcDbLine
 10
6.00762628369886
 20
0.8443168124910633
 30
0.0
 11
6.000206669115461
 21
0.9503393751194009
 31
0.0
  0
LINE
  5
94
330
17
100
AcDbEntity
  8
Inner
100
AcDbLine
 10
6.000206669115461
 20
0.9503393751194009
 30
0.0
 11
5.990913830824266
 21
1.0563597474738236
 31
0.0
  0
LINE
  5
95
330
17
100
AcDbEntity
  8
Inner
100
AcDbLine
 10
5.990913830824266
 20
1.0563597474738236
 30
0.0
 11
5.979745592502019
 21
1.1623447968354537
 31
0.0
  0
LINE
  5
96
330
17
100
AcDbEntity
  8
Inner
100
AcDbLine
 10
5.979745592502019
 20
1.1623447968354537
 30
0.0
 11
5.966700364476215
 21
1.2682613139883323
 31
0.0
  0
LINE
  5
97
330
17
100
AcDbEntity
  8
Inner
100
AcDbLine
 10
5.966700364476215
 20
1.2682613139883323
 30
0.0
 11
5.951777145729812
 21
1.3740760236171077
 31
0.0
  0
LINE
  5
98
330
17
100
AcDbEntity
  8
Inner
100
AcDbLine
 10
5.951777145729812
 20
1.3740760236171077
 30
0.0
 11
5.934975525721513
 21
1.4797555947512988
 31
0.0
  0
LINE
  5
99
330
17
100
AcDbEntity
  8
Inner
100
AcDbLine
 10
5.934975525721513
 20
1.4797555947512988
 30
0.0
 11
5.916295686020544
 21
1.5852666512529365
 31
0.0
  0
LINE
  5
9A
330
17
100
AcDbEntity
  8
Inner
100
AcDbLine
 10
5.916295686020544
 20
1.5852666512529365
 30
0.0
 11
5.895738401755022
 21
1.6905757823442626
 31
0.0
  0
LINE
  5
9B
330
17
100
AcDbEntity
  8
Inner
100
AcDbLine
 10
5.895738401755022
 20
1.6905757823442626
 30
0.0
 11
5.8733050428729765
 21
1.795649553172141
 31
0.0
  0
LINE
  5
9C
330
17
100
AcDbEntity
  8
Inner
100
AcDbLine
 10
5.8733050428729765
 20
1.795649553172141
 30
0.0
 11
5.848997575215195
 21
1.9004545154059251
 31
0.0
  0
LINE
  5
9D
330
17
100
AcDbEntity
  8
Inner
100
AcDbLine
 10
5.848997575215195
 20
1.9004545154059251
 30
0.0
 11
5.822818561399127
 21
2.0049572178653206
 31
0.0
  0
LINE
  5
9E
330
17
100
AcDbEntity
  8
Inner
100
AcDbLine
 10
5.822818561399127
 20
2.0049572178653206
 30
0.0
 11
5.7947711615131015
 21
2.1091242171749585
 31
0.0
  0
LINE
  5
9F
330
17
100
AcDbEntity
  8
Inner
100
AcDbLine
 10
5.7947711615131015
 20
2.1091242171749585
 30
0.0
 11
5.76485913362022
 21
2.2129220884422294
 31
0.0
  0
LINE
  5
A0
330
17
100
AcDbEntity
  8
Inner
100
AcDbLine
 10
5.76485913362022
 20
2.2129220884422294
 30
0.0
 11
5.733086834071303
 21
2.3163174359550553
 31
0.0
  0
LINE
  5
A1
330
17
100
AcDbEntity
  8
Inner
100
AcDbLine
 10
5.733086834071303
 20
2.3163174359550553
 30
0.0
 11
5.6994592176263605
 21
2.4192769038960846
 31
0.0
  0
LINE
  5
A2
330
17
100
AcDbEntity
  8
Inner
100
AcDbLine
 10
5.6994592176263605
 20
2.4192769038960846
 30
0.0
 11
5.663981837384124
 21
2.521767187069963
 31
0.0
  0
LINE
  5
A3
330
17
100
AcDbEntity
  8
Inner
100
AcDbLine
 10
5.663981837384124
 20
2.521767187069963
 30
0.0
 11
5.6266608445192015
 21
2.6237550416401763
 31
0.0
  0
LINE
  5
A4
330
17
100
AcDbEntity
  8
Inner
100
AcDbLine
 10
5.6266608445192015
 20
2.6237550416401763
 30
0.0
 11
5.587502987826489
 21
2.7252072958720976
 31
0.0
  0
LINE
  5
A5
330
17
100
AcDbEntity
  8
Inner
100
AcDbLine
 10
5.587502987826489
 20
2.7252072958720976
 30
0.0
 11
5.54651561307259
 21
2.8260908608786774
 31
0.0
  0
LINE
  5
A6
330
17
100
AcDbEntity
  8
Inner
100
AcDbLine
 10
5.54651561307259
 20
2.8260908608786774
 30
0.0
 11
5.50370666215398
 21
2.9263727413653835
 31
0.0
  0
LINE
  5
A7
330
17
100
AcDbEntity
  8
Inner
100
AcDbLine
 10
5.50370666215398
 20
2.9263727413653835
 30
0.0
 11
5.459084672061728
 21
3.026020046370888
 31
0.0
  0
LINE
  5
A8
330
17
100
AcDbEntity
  8
Inner
100
AcDbLine
 10
5.459084672061728
 20
3.026020046370888
 30
0.0
 11
5.412658773652741
 21
3.125
 31
0.0
  0
LINE
  5
A9
330
17
100
AcDbEntity
  8
Inner
100
AcDbLine
 10
5.412658773652741
 20
3.125
 30
0.0
 11
5.364438690227386
 21
3.2232799521454214
 31
0.0
  0
LINE
  5
AA
330
17
100
AcDbEntity
  8
Inner
100
AcDbLine
 10
5.364438690227386
 20
3.2232799521454214
 30
0.0
 11
5.314434735913604
 21
3.3208273891947493
 31
0.0
  0
LINE
  5
AB
330
17
100
AcDbEntity
  8
Inner
100
AcDbLine
 10
5.314434735913604
 20
3.3208273891947493
 30
0.0
 11
5.262657813857534
 21
3.4176099447192962
 31
0.0
  0
LINE
  5
AC
330
17
100
AcDbEntity
  8
Inner
100
AcDbLine
 10
5.262657813857534
 20
3.4176099447192962
 30
0.0
 11
5.209119414220845
 21
3.513595410141193
 31
0.0
  0
LINE
  5
AD
330
17
100
AcDbEntity
  8
Inner
100
AcDbLine
 10
5.209119414220845
 20
3.513595410141193
 30
0.0
 11
5.153831611984907
 21
3.6087517453753315
 31
0.0
  0
LINE
  5
AE
330
17
100
AcDbEntity
  8
Inner
100
AcDbLine
 10
5.153831611984907
 20
3.6087517453753315
 30
0.0
 11
5.09680706456217
 21
3.7030470894425798
 31
0.0
  0
LINE
  5
AF
330
17
100
AcDbEntity
  8
Inner
100
AcDbLine
 10
5.09680706456217
 20
3.7030470894425798
 30
0.0
 11
5.038059009215008
 21
3.796449771050836
 31
0.0
  0
LINE
  5
B0
330
17
100
AcDbEntity
  8
Inner
100
AcDbLine
 10
5.038059009215008
 20
3.796449771050836
 30
0.0
 11
4.9776012602824595
 21
3.8889283191404087
 31
0.0
  0
LINE
  5
B1
330
17
100
AcDbEntity
  8
Inner
100
AcDbLine
 10
4.9776012602824595
 20
3.8889283191404087
 30
0.0
 11
4.915448206215341
 21
3.980451473390222
 31
0.0
  0
LINE
  5
B2
330
17
100
AcDbEntity
  8
Inner
100
AcDbLine
 10
4.915448206215341
 20
3.980451473390222
 30
0.0
 11
4.851614806420195
 21
4.070988194681415
 31
0.0
  0
LINE
  5
B3
330
17
100
AcDbEntity
  8
Inner
100
AcDbLine
 10
4.851614806420195
 20
4.070988194681415
 30
0.0
 11
4.786116587912748
 21
4.160507675514799
 31
0.0
  0
LINE
  5
B4
330
17
100
AcDbEntity
  8
Inner
100
AcDbLine
 10
4.786116587912748
 20
4.160507675514799
 30
0.0
 11
4.7189696417814515
 21
4.248979350378751
 31
0.0
  0
LINE
  5
B5
330
17
100
AcDbEntity
  8
Inner
100
AcDbLine
 10
4.7189696417814515
 20
4.248979350378751
 30
0.0
 11
4.650190619461892
 21
4.336372906064054
 31
0.0
  0
LINE
  5
B6
330
17
100
AcDbEntity
  8
Inner
100
AcDbLine
 10
4.650190619461892
 20
4.336372906064054
 30
0.0
 11
4.579796728822746
 21
4.422658291922283
 31
0.0
  0
LINE
  5
B7
330
17
100
AcDbEntity
  8
Inner
100
AcDbLine
 10
4.579796728822746
 20
4.422658291922283
 30
0.0
 11
4.507805730064241
 21
4.50780573006424
 31
0.0
  0
LINE
  5
B8
330
17
100
AcDbEntity
  8
Inner
100
AcDbLine
 10
4.507805730064241
 20
4.50780573006424
 30
0.0
 11
4.434235931429934
 21
4.591785725495054
 31
0.0
  0
LINE
  5
B9
330
17
100
AcDbEntity
  8
Inner
100
AcDbLine
 10
4.434235931429934
 20
4.591785725495054
 30
0.0
 11
4.359106184732802
 21
4.674569076182532
 31
0.0
  0
LINE
  5
BA
330
17
100
AcDbEntity
  8
Inner
100
AcDbLine
 10
4.359106184732802
 20
4.674569076182532
 30
0.0
 11
4.282435880696693
 21
4.756126883055323
 31
0.0
  0
LINE
  5
BB
330
17
100
AcDbEntity
  8
Inner
100
AcDbLine
 10
4.282435880696693
 20
4.756126883055323
 30
0.0
 11
4.204244944114168
 21
4.836430559927597
 31
0.0
  0
LINE
  5
BC
330
17
100
AcDbEntity
  8
Inner
100
AcDbLine
 10
4.204244944114168
 20
4.836430559927597
 30
0.0
 11
4.124553828821962
 21
4.915451843346774
 31
0.0
  0
LINE
  5
BD
330
17
100
AcDbEntity
  8
Inner
100
AcDbLine
 10
4.124553828821962
 20
4.915451843346774
 30
0.0
 11
4.043383512495204
 21
4.99316280236104
 31
0.0
  0
LINE
  5
BE
330
17
100
AcDbEntity
  8
Inner
100
AcDbLine
 10
4.043383512495204
 20
4.99316280236104
 30
0.0
 11
3.9607554912617347
 21
5.0695358482032455
 31
0.0
  0
LINE
  5
BF
330
17
100
AcDbEntity
  8
Inner
100
AcDbLine
 10
3.9607554912617347
 20
5.0695358482032455
 30
0.0
 11
3.876691774137778
 21
5.1445437438879775
 31
0.0
  0
LINE
  5
C0
330
17
100
AcDbEntity
  8
Inner
100
AcDbLine
 10
3.876691774137778
 20
5.1445437438879775
 30
0.0
 11
3.791214877286453
 21
5.218159613718409
 31
0.0
  0
LINE
  5
C1
330
17
100
AcDbEntity
  8
Inner
100
AcDbLine
 10
3.791214877286453
 20
5.218159613718409
 30
0.0
 11
3.7043478181005085
 21
5.290356952699736
 31
0.0
  0
LINE
  5
C2
330
17
100
AcDbEntity
  8
Inner
100
AcDbLine
 10
3.7043478181005085
 20
5.290356952699736
 30
0.0
 11
3.6161141091108284
 21
5.361109635855938
 31
0.0
  0
LINE
  5
C3
330
17
100
AcDbEntity
  8
Inner
100
AcDbLine
 10
3.6161141091108284
 20
5.361109635855938
 30
0.0
 11
3.5265377517223007
 21
5.430391927446621
 31
0.0
  0
LINE
  5
C4
330
17
100
AcDbEntity
  8
Inner
100
AcDbLine
 10
3.5265377517223007
 20
5.430391927446621
 30
0.0
 11
3.4356432297786133
 21
5.498178490080828
 31
0.0
  0
LINE
  5
C5
330
17
100
AcDbEntity
  8
Inner
100
AcDbLine
 10
3.4356432297786133
 20
5.498178490080828
 30
0.0
 11
3.3434555029577706
 21
5.5644443937245445
 31
0.0
  0
LINE
  5
C6
330
17
100
AcDbEntity
  8
Inner
100
AcDbLine
 10
3.3434555029577706
 20
5.5644443937245445
 30
0.0
 11
3.2499999999999982
 21
5.6291651245988525
 31
0.0
  0
LINE
  5
C7
330
17
100
AcDbEntity
  8
Inner
100
AcDbLine
 10
3.2499999999999982
 20
5.6291651245988525
 30
0.0
 11
3.1553026117699097
 21
5.692316593965568
 31
0.0
  0
LINE
  5
C8
330
17
100
AcDbEntity
  8
Inner
100
AcDbLine
 10
3.1553026117699097
 20
5.692316593965568
 30
0.0
 11
3.059389684154722
 21
5.75387514679734
 31
0.0
  0
LINE
  5
C9
330
17
100
AcDbEntity
  8
Inner
100
AcDbLine
 10
3.059389684154722
 20
5.75387514679734
 30
0.0
 11
2.9622880108005445
 21
5.8138175703291
 31
0.0
  0
LINE
  5
CA
330
17
100
AcDbEntity
  8
Inner
100
AcDbLine
 10
2.9622880108005445
 20
5.8138175703291
 30
0.0
 11
2.864024825688642
 21
5.87212110248789
 31
0.0
  0
LINE
  5
CB
330
17
100
AcDbEntity
  8
Inner
100
AcDbLine
 10
2.864024825688642
 20
5.87212110248789
 30
0.0
 11
2.764627795553741
 21
5.928763440198086
 31
0.0
  0
LINE
  5
CC
330
17
100
AcDbEntity
  8
Inner
100
AcDbLine
 10
2.764627795553741
 20
5.928763440198086
 30
0.0
 11
2.6641250121464912
 21
5.983722747559035
 31
0.0
  0
LINE
  5
CD
330
17
100
AcDbEntity
  8
Inner
100
AcDbLine
 10
2.6641250121464912
 20
5.983722747559035
 30
0.0
 11
2.562544984342155
 21
6.036977663892254
 31
0.0
  0
LINE
  5
CE
330
17
100
AcDbEntity
  8
Inner
100
AcDbLine
 10
2.562544984342155
 20
6.036977663892254
 30
0.0
 11
2.459916630097825
 21
6.088507311655236
 31
0.0
  0
LINE
  5
CF
330
17
100
AcDbEntity
  8
Inner
100
AcDbLine
 10
2.459916630097825
 20
6.088507311655236
 30
0.0
 11
2.3562692682603474
 21
6.138291304219102
 31
0.0
  0
LINE
  5
D0
330
17
100
AcDbEntity
  8
Inner
100
AcDbLine
 10
2.3562692682603474
 20
6.138291304219102
 30
0.0
 11
2.2516326102273188
 21
6.1863097535072304
 31
0.0
  0
LINE
  5
D1
330
17
100
AcDbEntity
  8
Inner
100
AcDbLine
 10
2.2516326102273188
 20
6.1863097535072304
 30
0.0
 11
2.146036751463425
 21
6.232543277492163
 31
0.0
  0
LINE
  5
D2
330
17
100
AcDbEntity
  8
Inner
100
AcDbLine
 10
2.146036751463425
 20
6.232543277492163
 30
0.0
 11
2.039512162874655
 21
6.276973007548013
 31
0.0
  0
LINE
  5
D3
330
17
100
AcDbEntity
  8
Inner
100
AcDbLine
 10
2.039512162874655
 20
6.276973007548013
 30
0.0
 11
1.932089682042755
 21
6.319580595655725
 31
0.0
  0
LINE
  5
D4
330
17
100
AcDbEntity
  8
Inner
100
AcDbLine
 10
1.932089682042755
 20
6.319580595655725
 30
0.0
 11
1.8238005043224765
 21
6.360348221458543
 31
0.0
  0
LINE
  5
D5
330
17
100
AcDbEntity
  8
Inner
100
AcDbLine
 10
1.8238005043224765
 20
6.360348221458543
 30
0.0
 11
1.7146761738041998
 21
6.399258599165077
 31
0.0
  0
LINE
  5
D6
330
17
100
AcDbEntity
  8
Inner
100
AcDbLine
 10
1.7146761738041998
 20
6.399258599165077
 30
0.0
 11
1.6047485741444638
 21
6.436294984297443
 31
0.0
  0
LINE
  5
D7
330
17
100
AcDbEntity
  8
Inner
100
AcDbLine
 10
1.6047485741444638
 20
6.436294984297443
 30
0.0
 11
1.4940499192671726
 21
6.4714411802819365
 31
0.0
  0
LINE
  5
D8
330
17
100
AcDbEntity
  8
Inner
100
AcDbLine
 10
1.4940499192671726
 20
6.4714411802819365
 30
0.0
 11
1.3826127439380975
 21
6.504681544879808
 31
0.0
  0
LINE
  5
D9
330
17
100
AcDbEntity
  8
Inner
100
AcDbLine
 10
1.3826127439380975
 20
6.504681544879808
 30
0.0
 11
1.2704698942154935
 21
6.536000996455696
 31
0.0
  0
LINE
  5
DA
330
17
100
AcDbEntity
  8
Inner
100
AcDbLine
 10
1.2704698942154935
 20
6.536000996455696
 30
0.0
 11
1.1576545177795363
 21
6.565385020081387
 31
0.0
  0
LINE
  5
DB
330
17
100
AcDbEntity
  8
Inner
100
AcDbLine
 10
1.1576545177795363
 20
6.565385020081387
 30
0.0
 11
1.0442000541435432
 21
6.592819673472545
 31
0.0
  0
LINE
  5
DC
330
17
100
AcDbEntity
  8
Inner
100
AcDbLine
 10
1.0442000541435432
 20
6.592819673472545
 30
0.0
 11
0.9301402247497741
 21
6.618291592756162
 31
0.0
  0
LINE
  5
DD
330
17
100
AcDbEntity
  8
Inner
100
AcDbLine
 10
0.9301402247497741
 20
6.618291592756162
 30
0.0
 11
0.8155090229527773
 21
6.641787998066514
 31
0.0
  0
LINE
  5
DE
330
17
100
AcDbEntity
  8
Inner
100
AcDbLine
 10
0.8155090229527773
 20
6.641787998066514
 30
0.0
 11
0.7003407038932783
 21
6.663296698967431
 31
0.0
  0
LINE
  5
DF
330
17
100
AcDbEntity
  8
Inner
100
AcDbLine
 10
0.7003407038932783
 20
6.663296698967431
 30
0.0
 11
0.5846697742655417
 21
6.6828060996987935
 31
0.0
  0
LINE
  5
E0
330
17
100
AcDbEntity
  8
Inner
100
AcDbLine
 10
0.5846697742655417
 20
6.6828060996987935
 30
0.0
 11
0.46853098198137766
 21
6.7003052042451525
 31
0.0
  0
LINE
  5
E1
330
17
100
AcDbEntity
  8
Inner
100
AcDbLine
 10
0.46853098198137766
 20
6.7003052042451525
 30
0.0
 11
0.3519593057337953
 21
6.715783621224509
 31
0.0
  0
LINE
  5
E2
330
17
100
AcDbEntity
  8
Inner
100
AcDbLine
 10
0.3519593057337953
 20
6.715783621224509
 30
0.0
 11
0.23498994446350593
 21
6.729231568595245
 31
0.0
  0
LINE
  5
E3
330
17
100
AcDbEntity
  8
Inner
100
AcDbLine
 10
0.23498994446350593
 20
6.729231568595245
 30
0.0
 11
0.11765830673135375
 21
6.740639878179338
 31
0.0
  0
LINE
  5
E4
330
17
100
AcDbEntity
  8
Inner
100
AcDbLine
 10
0.11765830673135375
 20
6.740639878179338
 30
0.0
 11
2.0665914735611588e-15
 21
6.75
 31
0.0
  0
LINE
  5
E5
330
17
100
AcDbEntity
  8
Inner
100
AcDbLine
 10
2.0665914735611588e-15
 20
6.75
 30
0.0
 11
-0.117949180171971
 21
6.757304006431944
 31
0.0
  0
LINE
  5
E6
330
17
100
AcDbEntity
  8
Inner
100
AcDbLine
 10
-0.117949180171971
 20
6.757304006431944
 30
0.0
 11
-0.23615326102025783
 21
6.762544596162548
 31
0.0
  0
LINE
  5
E7
330
17
100
AcDbEntity
  8
Inner
100
AcDbLine
 10
-0.23615326102025783
 20
6.762544596162548
 30
0.0
 11
-0.3545761035459444
 21
6.7657150979622385
 31
0.0
  0
LINE
  5
E8
330
17
100
AcDbEntity
  8
Inner
100
AcDbLine
 10
-0.3545761035459444
 20
6.7657150979622385
 30
0.0
 11
-0.4731814135643152
 21
6.766809474262475
 31
0.0
  0
LINE
  5
E9
330
17
100
AcDbEntity
  8
Inner
100
AcDbLine
 10
-0.4731814135643152
 20
6.766809474262475
 30
0.0
 11
-0.5919327528278423
 21
6.765822324539771
 31
0.0
  0
LINE
  5
EA
330
17
100
AcDbEntity
  8
Inner
100
AcDbLine
 10
-0.5919327528278423
 20
6.765822324539771
 30
0.0
 11
-0.7107935502200454
 21
6.762748888504258
 31
0.0
  0
LINE
  5
EB
330
17
100
AcDbEntity
  8
Inner
100
AcDbLine
 10
-0.7107935502200454
 20
6.762748888504258
 30
0.0
 11
-0.829727113016713
 21
6.757585049091334
 31
0.0
  0
LINE
  5
EC
330
17
100
AcDbEntity
  8
Inner
100
AcDbLine
 10
-0.829727113016713
 20
6.757585049091334
 30
0.0
 11
-0.9486966382111119
 21
6.7503273352550375
 31
0.0
  0
LINE
  5
ED
330
17
100
AcDbEntity
  8
Inner
100
AcDbLine
 10
-0.9486966382111119
 20
6.7503273352550375
 30
0.0
 11
-1.0676652238995794
 21
6.740972924561814
 31
0.0
  0
LINE
  5
EE
330
17
100
AcDbEntity
  8
Inner
100
AcDbLine
 10
-1.0676652238995794
 20
6.740972924561814
 30
0.0
 11
-1.1865958807240207
 21
6.729519645583422
 31
0.0
  0
LINE
  5
EF
330
17
100
AcDbEntity
  8
Inner
100
AcDbLine
 10
-1.1865958807240207
 20
6.729519645583422
 30
0.0
 11
-1.305451543367862
 21
6.715965980087767
 31
0.0
  0
LINE
  5
F0
330
17
100
AcDbEntity
  8
Inner
100
AcDbLine
 10
-1.305451543367862
 20
6.715965980087767
 30
0.0
 11
-1.4241950821016456
 21
6.70031106502657
 31
0.0
  0
LINE
  5
F1
330
17
100
AcDbEntity
  8
Inner
100
AcDbLine
 10
-1.4241950821016456
 20
6.70031106502657
 30
0.0
 11
-1.542789314375006
 21
6.682554694318738
 31
0.0
  0
LINE
  5
F2
330
17
100
AcDbEntity
  8
Inner
100
AcDbLine
 10
-1.542789314375006
 20
6.682554694318738
 30
0.0
 11
-1.661197016451055
 21
6.662697320428509
 31
0.0
  0
LINE
  5
F3
330
17
100
AcDbEntity
  8
Inner
100
AcDbLine
 10
-1.661197016451055
 20
6.662697320428509
 30
0.0
 11
-1.7793809350798262
 21
6.6407400557373455
 31
0.0
  0
LINE
  5
F4
330
17
100
AcDbEntity
  8
Inner
100
AcDbLine
 10
-1.7793809350798262
 20
6.6407400557373455
 30
0.0
 11
-1.8973037992070119
 21
6.616684673708762
 31
0.0
  0
LINE
  5
F5
330
17
100
AcDbEntity
  8
Inner
100
AcDbLine
 10
-1.8973037992070119
 20
6.616684673708762
 30
0.0
 11
-2.0149283317141875
 21
6.590533609845255
 31
0.0
  0
LINE
  5
F6
330
17
100
AcDbEntity
  8
Inner
100
AcDbLine
 10
-2.0149283317141875
 20
6.590533609845255
 30
0.0
 11
-2.1322172611871353
 21
6.5622899624365605
 31
0.0
  0
LINE
  5
F7
330
17
100
AcDbEntity
  8
Inner
100
AcDbLine
 10
-2.1322172611871353
 20
6.5622899624365605
 30
0.0
 11
-2.249133333708193
 21
6.531957493098613
 31
0.0
  0
LINE
  5
F8
330
17
100
AcDbEntity
  8
Inner
100
AcDbLine
 10
-2.249133333708193
 20
6.531957493098613
 30
0.0
 11
-2.3656393246692042
 21
6.499540627102535
 31
0.0
  0
LINE
  5
F9
330
17
100
AcDbEntity
  8
Inner
100
AcDbLine
 10
-2.3656393246692042
 20
6.499540627102535
 30
0.0
 11
-2.4816980506012043
 21
6.465044453493122
 31
0.0
  0
LINE
  5
FA
330
17
100
AcDbEntity
  8
Inner
100
AcDbLine
 10
-2.4816980506012043
 20
6.465044453493122
 30
0.0
 11
-2.597272381016994
 21
6.428474724996391
 31
0.0
  0
LINE
  5
FB
330
17
100
AcDbEntity
  8
Inner
100
AcDbLine
 10
-2.597272381016994
 20
6.428474724996391
 30
0.0
 11
-2.7123252502630395
 21
6.3898378577156905
 31
0.0
  0
LINE
  5
FC
330
17
100
AcDbEntity
  8
Inner
100
AcDbLine
 10
-2.7123252502630395
 20
6.3898378577156905
 30
0.0
 11
-2.826819669376813
 21
6.349140930616075
 31
0.0
  0
LINE
  5
FD
330
17
100
AcDbEntity
  8
Inner
100
AcDbLine
 10
-2.826819669376813
 20
6.349140930616075
 30
0.0
 11
-2.940718737945695
 21
6.306391684796691
 31
0.0
  0
LINE
  5
FE
330
17
100
AcDbEntity
  8
Inner
100
AcDbLine
 10
-2.940718737945695
 20
6.306391684796691
 30
0.0
 11
-3.0539856559639054
 21
6.261598522550864
 31
0.0
  0
LINE
  5
FF
330
17
100
AcDbEntity
  8
Inner
100
AcDbLine
 10
-3.0539856559639054
 20
6.261598522550864
 30
0.0
 11
-3.1665837356833424
 21
6.214770506213863
 31
0.0
  0
LINE
  5
100
330
17
100
AcDbEntity
  8
Inner
100
AcDbLine
 10
-3.1665837356833424
 20
6.214770506213863
 30
0.0
 11
-3.2784764134548006
 21
6.165917356798175
 31
0.0
  0
LINE
  5
101
330
17
100
AcDbEntity
  8
Inner
100
AcDbLine
 10
-3.2784764134548006
 20
6.165917356798175
 30
0.0
 11
-3.3896272615556406
 21
6.115049452416275
 31
0.0
  0
LINE
  5
102
330
17
100
AcDbEntity
  8
Inner
100
AcDbLine
 10
-3.3896272615556406
 20
6.115049452416275
 30
0.0
 11
-3.4999999999999947
 21
6.062177826491074
 31
0.0
  0
LINE
  5
103
330
17
100
AcDbEntity
  8
Inner
100
AcDbLine
 10
-3.4999999999999947
 20
6.062177826491074
 30
0.0
 11
-3.6095585083279618
 21
6.007314165753971
 31
0.0
  0
LINE
  5
104
330
17
100
AcDbEntity
  8
Inner
100
AcDbLine
 10
-3.6095585083279618
 20
6.007314165753971
 30
0.0
 11
-3.7182668373696575
 21
5.9504708080309205
 31
0.0
  0
LINE
  5
105
330
17
100
AcDbEntity
  8
Inner
100
AcDbLine
 10
-3.7182668373696575
 20
5.9504708080309205
 30
0.0
 11
-3.826089220980561
 21
5.891660739816606
 31
0.0
  0
LINE
  5
106
330
17
100
AcDbEntity
  8
Inner
100
AcDbLine
 10
-3.826089220980561
 20
5.891660739816606
 30
0.0
 11
-3.932990087744253
 21
5.830897593637126
 31
0.0
  0
LINE
  5
107
330
17
100
AcDbEntity
  8
Inner
100
AcDbLine
 10
-3.932990087744253
 20
5.830897593637126
 30
0.0
 11
-4.038934072638611
 21
5.768195645201655
 31
0.0
  0
LINE
  5
108
330
17
100
AcDbEntity
  8
Inner
100
AcDbLine
 10
-4.038934072638611
 20
5.768195645201655
 30
0.0
 11
-4.143886028661934
 21
5.703569810343382
 31
0.0
  0
LINE
  5
109
330
17
100
AcDbEntity
  8
Inner
100
AcDbLine
 10
-4.143886028661934
 20
5.703569810343382
 30
0.0
 11
-4.247811038414876
 21
5.637035641750474
 31
0.0
  0
LINE
  5
10A
330
17
100
AcDbEntity
  8
Inner
100
AcDbLine
 10
-4.247811038414876
 20
5.637035641750474
 30
0.0
 11
-4.350674425634648
 21
5.568609325487505
 31
0.0
  0
LINE
  5
10B
330
17
100
AcDbEntity
  8
Inner
100
AcDbLine
 10
-4.350674425634648
 20
5.568609325487505
 30
0.0
 11
-4.4524417666776
 21
5.49830767730807
 31
0.0
  0
LINE
  5
10C
330
17
100
AcDbEntity
  8
Inner
100
AcDbLine
 10
-4.4524417666776
 20
5.49830767730807
 30
0.0
 11
-4.553078901946324
 21
5.426148138759425
 31
0.0
  0
LINE
  5
10D
330
17
100
AcDbEntity
  8
Inner
100
AcDbLine
 10
-4.553078901946324
 20
5.426148138759425
 30
0.0
 11
-4.652551947257678
 21
5.3521487730798265
 31
0.0
  0
LINE
  5
10E
330
17
100
AcDbEntity
  8
Inner
100
AcDbLine
 10
-4.652551947257678
 20
5.3521487730798265
 30
0.0
 11
-4.750827305147895
 21
5.276328260889497
 31
0.0
  0
LINE
  5
10F
330
17
100
AcDbEntity
  8
Inner
100
AcDbLine
 10
-4.750827305147895
 20
5.276328260889497
 30
0.0
 11
-4.847871676110922
 21
5.198705895676274
 31
0.0
  0
LINE
  5
110
330
17
100
AcDbEntity
  8
Inner
100
AcDbLine
 10
-4.847871676110922
 20
5.198705895676274
 30
0.0
 11
-4.94365206976653
 21
5.119301579076734
 31
0.0
  0
LINE
  5
111
330
17
100
AcDbEntity
  8
Inner
100
AcDbLine
 10
-4.94365206976653
 20
5.119301579076734
 30
0.0
 11
-5.038135815954154
 21
5.038135815954148
 31
0.0
  0
LINE
  5
112
330
17
100
AcDbEntity
  8
Inner
100
AcDbLine
 10
-5.038135815954154
 20
5.038135815954148
 30
0.0
 11
-5.131290575749041
 21
4.9552297092741835
 31
0.0
  0
LINE
  5
113
330
17
100
AcDbEntity
  8
Inner
100
AcDbLine
 10
-5.131290575749041
 20
4.9552297092741835
 30
0.0
 11
-5.22308435239691
 21
4.870604954779676
 31
0.0
  0
LINE
  5
114
330
17
100
AcDbEntity
  8
Inner
100
AcDbLine
 10
-5.22308435239691
 20
4.870604954779676
 30
0.0
 11
-5.313485502163364
 21
4.784283835465842
 31
0.0
  0
LINE
  5
115
330
17
100
AcDbEntity
  8
Inner
100
AcDbLine
 10
-5.313485502163364
 20
4.784283835465842
 30
0.0
 11
-5.402462745094675
 21
4.69628921585705
 31
0.0
  0
LINE
  5
116
330
17
100
AcDbEntity
  8
Inner
100
AcDbLine
 10
-5.402462745094675
 20
4.69628921585705
 30
0.0
 11
-5.489985175686011
 21
4.606644536086863
 31
0.0
  0
LINE
  5
117
330
17
100
AcDbEntity
  8
Inner
100
AcDbLine
 10
-5.489985175686011
 20
4.606644536086863
 30
0.0
 11
-5.576022273453763
 21
4.515373805782587
 31
0.0
  0
LINE
  5
118
330
17
100
AcDbEntity
  8
Inner
100
AcDbLine
 10
-5.576022273453763
 20
4.515373805782587
 30
0.0
 11
-5.660543913408286
 21
4.4225015977559785
 31
0.0
  0
LINE
  5
119
330
17
100
AcDbEntity
  8
Inner
100
AcDbLine
 10
-5.660543913408286
 20
4.4225015977559785
 30
0.0
 11
-5.743520376423444
 21
4.32805304150182
 31
0.0
  0
LINE
  5
11A
330
17
100
AcDbEntity
  8
Inner
100
AcDbLine
 10
-5.743520376423444
 20
4.32805304150182
 30
0.0
 11
-5.824922359499619
 21
4.2320538165058075
 31
0.0
  0
LINE
  5
11B
330
17
100
AcDbEntity
  8
Inner
100
AcDbLine
 10
-5.824922359499619
 20
4.2320538165058075
 30
0.0
 11
-5.904720985916484
 21
4.134530145363788
 31
0.0
  0
LINE
  5
11C
330
17
100
AcDbEntity
  8
Inner
100
AcDbLine
 10
-5.904720985916484
 20
4.134530145363788
 30
0.0
 11
-5.982887815272215
 21
4.035508786713894
 31
0.0
  0
LINE
  5
11D
330
17
100
AcDbEntity
  8
Inner
100
AcDbLine
 10
-5.982887815272215
 20
4.035508786713894
 30
0.0
 11
-6.059394853405689
 21
3.935017027983571
 31
0.0
  0
LINE
  5
11E
330
17
100
AcDbEntity
  8
Inner
100
AcDbLine
 10
-6.059394853405689
 20
3.935017027983571
 30
0.0
 11
-6.13421456219815
 21
3.833082677953512
 31
0.0
  0
LINE
  5
11F
330
17
100
AcDbEntity
  8
Inner
100
AcDbLine
 10
-6.13421456219815
 20
3.833082677953512
 30
0.0
 11
-6.207319869251129
 21
3.7297340591403123
 31
0.0
  0
LINE
  5
120
330
17
100
AcDbEntity
  8
Inner
100
AcDbLine
 10
-6.207319869251129
 20
3.7297340591403123
 30
0.0
 11
-6.2786841774371815
 21
3.6249999999999982
 31
0.0
  0
LINE
  5
121
330
17
100
AcDbEntity
  8
Inner
100
AcDbLine
 10
-6.2786841774371815
 20
3.6249999999999982
 30
0.0
 11
-6.348281374320112
 21
3.5189098269546686
 31
0.0
  0
LINE
  5
122
330
17
100
AcDbEntity
  8
Inner
100
AcDbLine
 10
-6.348281374320112
 20
3.5189098269546686
 30
0.0
 11
-6.416085841441535
 21
3.4114933562441405
 31
0.0
  0
LINE
  5
123
330
17
100
AcDbEntity
  8
Inner
100
AcDbLine
 10
-6.416085841441535
 20
3.4114933562441405
 30
0.0
 11
-6.482072463470378
 21
3.3027808856051997
 31
0.0
  0
LINE
  5
124
330
17
100
AcDbEntity
  8
Inner
100
AcDbLine
 10
-6.482072463470378
 20
3.3027808856051997
 30
0.0
 11
-6.546216637212264
 21
3.1928031857804506
 31
0.0
  0
LINE
  5
125
330
17
100
AcDbEntity
  8
Inner
100
AcDbLine
 10
-6.546216637212264
 20
3.1928031857804506
 30
0.0
 11
-6.608494280475574
 21
3.081591491859266
 31
0.0
  0
LINE
  5
126
330
17
100
AcDbEntity
  8
Inner
100
AcDbLine
 10
-6.608494280475574
 20
3.081591491859266
 30
0.0
 11
-6.668881840790983
 21
2.9691774944533478
 31
0.0
  0
LINE
  5
127
330
17
100
AcDbEntity
  8
Inner
100
AcDbLine
 10
-6.668881840790983
 20
2.9691774944533478
 30
0.0
 11
-6.727356303981584
 21
2.855593330709111
 31
0.0
  0
LINE
  5
128
330
17
100
AcDbEntity
  8
Inner
100
AcDbLine
 10
-6.727356303981584
 20
2.855593330709111
 30
0.0
 11
-6.783895202580329
 21
2.7408715751597534
 31
0.0
  0
LINE
  5
129
330
17
100
AcDbEntity
  8
Inner
100
AcDbLine
 10
-6.783895202580329
 20
2.7408715751597534
 30
0.0
 11
-6.838476624092001
 21
2.625045230419329
 31
0.0
  0
LINE
  5
12A
330
17
100
AcDbEntity
  8
Inner
100
AcDbLine
 10
-6.838476624092001
 20
2.625045230419329
 30
0.0
 11
-6.891079219096661
 21
2.5081477177215703
 31
0.0
  0
LINE
  5
12B
330
17
100
AcDbEntity
  8
Inner
100
AcDbLine
 10
-6.891079219096661
 20
2.5081477177215703
 30
0.0
 11
-6.941682209191653
 21
2.390212867306287
 31
0.0
  0
LINE
  5
12C
330
17
100
AcDbEntity
  8
Inner
100
AcDbLine
 10
-6.941682209191653
 20
2.390212867306287
 30
0.0
 11
-6.990265394769377
 21
2.271274908655866
 31
0.0
  0
LINE
  5
12D
330
17
100
AcDbEntity
  8
Inner
100
AcDbLine
 10
-6.990265394769377
 20
2.271274908655866
 30
0.0
 11
-7.036809162628003
 21
2.151368460584802
 31
0.0
  0
LINE
  5
12E
330
17
100
AcDbEntity
  8
Inner
100
AcDbLine
 10
-7.036809162628003
 20
2.151368460584802
 30
0.0
 11
-7.081294493412281
 21
2.030528521185232
 31
0.0
  0
LINE
  5
12F
330
17
100
AcDbEntity
  8
Inner
100
AcDbLine
 10
-7.081294493412281
 20
2.030528521185232
 30
0.0
 11
-7.1237029688818785
 21
1.9087904576310908
 31
0.0
  0
LINE
  5
130
330
17
100
AcDbEntity
  8
Inner
100
AcDbLine
 10
-7.1237029688818785
 20
1.9087904576310908
 30
0.0
 11
-7.164016779004441
 21
1.7861899958442087
 31
0.0
  0
LINE
  5
131
330
17
100
AcDbEntity
  8
Inner
100
AcDbLine
 10
-7.164016779004441
 20
1.7861899958442087
 30
0.0
 11
-7.202218728870863
 21
1.662763210025072
 31
0.0
  0
LINE
  5
132
330
17
100
AcDbEntity
  8
Inner
100
AcDbLine
 10
-7.202218728870863
 20
1.662763210025072
 30
0.0
 11
-7.238292245430162
 21
1.5385465120514175
 31
0.0
  0
LINE
  5
133
330
17
100
AcDbEntity
  8
Inner
100
AcDbLine
 10
-7.238292245430162
 20
1.5385465120514175
 30
0.0
 11
-7.272221384041442
 21
1.413576640747909
 31
0.0
  0
LINE
  5
134
330
17
100
AcDbEntity
  8
Inner
100
AcDbLine
 10
-7.272221384041442
 20
1.413576640747909
 30
0.0
 11
-7.303990834840543
 21
1.2878906510297345
 31
0.0
  0
LINE
  5
135
330
17
100
AcDbEntity
  8
Inner
100
AcDbLine
 10
-7.303990834840543
 20
1.2878906510297345
 30
0.0
 11
-7.3335859289188985
 21
1.1615259029237104
 31
0.0
  0
LINE
  5
136
330
17
100
AcDbEntity
  8
Inner
100
AcDbLine
 10
-7.3335859289188985
 20
1.1615259029237104
 30
0.0
 11
-7.360992644312339
 21
1.034520050469824
 31
0.0
  0
LINE
  5
137
330
17
100
AcDbEntity
  8
Inner
100
AcDbLine
 10
-7.360992644312339
 20
1.034520050469824
 30
0.0
 11
-7.386197611797505
 21
0.9069110305066381
 31
0.0
  0
LINE
  5
138
330
17
100
AcDbEntity
  8
Inner
100
AcDbLine
 10
-7.386197611797505
 20
0.9069110305066381
 30
0.0
 11
-7.409188120493636
 21
0.7787370513440255
 31
0.0
  0
LINE
  5
139
330
17
100
AcDbEntity
  8
Inner
100
AcDbLine
 10
-7.409188120493636
 20
0.7787370513440255
 30
0.0
 11
-7.4299521232676025
 21
0.650036581326286
 31
0.0
  0
LINE
  5
13A
330
17
100
AcDbEntity
  8
Inner
100
AcDbLine
 10
-7.4299521232676025
 20
0.650036581326286
 30
0.0
 11
-7.4484782419400215
 21
0.5208483372894657
 31
0.0
  0
LINE
  5
13B
330
17
100
AcDbEntity
  8
Inner
100
AcDbLine
 10
-7.4484782419400215
 20
0.5208483372894657
 30
0.0
 11
-7.464755772290439
 21
0.3912112729160101
 31
0.0
  0
LINE
  5
13C
330
17
100
AcDbEntity
  8
Inner
100
AcDbLine
 10
-7.464755772290439
 20
0.3912112729160101
 30
0.0
 11
-7.478774688859566
 21
0.26116456699038204
 31
0.0
  0
LINE
  5
13D
330
17
100
AcDbEntity
  8
Inner
100
AcDbLine
 10
-7.478774688859566
 20
0.26116456699038204
 30
0.0
 11
-7.4905256495466315
 21
0.13074761155931028
 31
0.0
  0
LINE
  5
13E
330
17
100
AcDbEntity
  8
Inner
100
AcDbLine
 10
-7.4905256495466315
 20
0.13074761155931028
 30
0.0
 11
-7.5
 21
2.7554552980815444e-15
 31
0.0
  0
LINE
  5
13F
330
17
100
AcDbEntity
  8
Inner
100
AcDbLine
 10
-7.5
 20
2.7554552980815444e-15
 30
0.0
 11
-7.507189777799237
 21
-0.13103848499993945
 31
0.0
  0
LINE
  5
140
330
17
100
AcDbEntity
  8
Inner
100
AcDbLine
 10
-7.507189777799237
 20
-0.13103848499993945
 30
0.0
 11
-7.51208771642687
 21
-0.26232788354712655
 31
0.0
  0
LINE
  5
141
330
17
100
AcDbEntity
  8
Inner
100
AcDbLine
 10
-7.51208771642687
 20
-0.26232788354712655
 30
0.0
 11
-7.514687249028168
 21
-0.3938280707281518
 31
0.0
  0
LINE
  5
142
330
17
100
AcDbEntity
  8
Inner
100
AcDbLine
 10
-7.514687249028168
 20
-0.3938280707281518
 30
0.0
 11
-7.514982511957342
 21
-0.5254987688724152
 31
0.0
  0
LINE
  5
143
330
17
100
AcDbEntity
  8
Inner
100
AcDbLine
 10
-7.514982511957342
 20
-0.5254987688724152
 30
0.0
 11
-7.51296834810858
 21
-0.6572995598885851
 31
0.0
  0
LINE
  5
144
330
17
100
AcDbEntity
  8
Inner
100
AcDbLine
 10
-7.51296834810858
 20
-0.6572995598885851
 30
0.0
 11
-7.508640310030463
 21
-0.7891898976707854
 31
0.0
  0
LINE
  5
145
330
17
100
AcDbEntity
  8
Inner
100
AcDbLine
 10
-7.508640310030463
 20
-0.7891898976707854
 30
0.0
 11
-7.501994662822327
 21
-0.9211291205705665
 31
0.0
  0
LINE
  5
146
330
17
100
AcDbEntity
  8
Inner
100
AcDbLine
 10
-7.501994662822327
 20
-0.9211291205705665
 30
0.0
 11
-7.493028386811216
 21
-1.0530764639311605
 31
0.0
  0
LINE
  5
147
330
17
100
AcDbEntity
  8
Inner
100
AcDbLine
 10
-7.493028386811216
 20
-1.0530764639311605
 30
0.0
 11
-7.481739180008167
 21
-1.1849910726797526
 31
0.0
  0
LINE
  5
148
330
17
100
AcDbEntity
  8
Inner
100
AcDbLine
 10
-7.481739180008167
 20
-1.1849910726797526
 30
0.0
 11
-7.468125460342578
 21
-1.3168320139742173
 31
0.0
  0
LINE
  5
149
330
17
100
AcDbEntity
  8
Inner
100
AcDbLine
 10
-7.468125460342578
 20
-1.3168320139742173
 30
0.0
 11
-7.452186367673516
 21
-1.4485582899002702
 31
0.0
  0
LINE
  5
14A
330
17
100
AcDbEntity
  8
Inner
100
AcDbLine
 10
-7.452186367673516
 20
-1.4485582899002702
 30
0.0
 11
-7.433921765576924
 21
-1.580128850214964
 31
0.0
  0
LINE
  5
14B
330
17
100
AcDbEntity
  8
Inner
100
AcDbLine
 10
-7.433921765576924
 20
-1.580128850214964
 30
0.0
 11
-7.413332242907665
 21
-1.711502605132904
 31
0.0
  0
LINE
  5
14C
330
17
100
AcDbEntity
  8
Inner
100
AcDbLine
 10
-7.413332242907665
 20
-1.711502605132904
 30
0.0
 11
-7.390419115135506
 21
-1.8426384381508056
 31
0.0
  0
LINE
  5
14D
330
17
100
AcDbEntity
  8
Inner
100
AcDbLine
 10
-7.390419115135506
 20
-1.8426384381508056
 30
0.0
 11
-7.365184425454147
 21
-1.973495218906716
 31
0.0
  0
LINE
  5
14E
330
17
100
AcDbEntity
  8
Inner
100
AcDbLine
 10
-7.365184425454147
 20
-1.973495218906716
 30
0.0
 11
-7.337630945662501
 21
-2.1040318160697606
 31
0.0
  0
LINE
  5
14F
330
17
100
AcDbEntity
  8
Inner
100
AcDbLine
 10
-7.337630945662501
 20
-2.1040318160697606
 30
0.0
 11
-7.307762176817528
 21
-2.2342071102562513
 31
0.0
  0
LINE
  5
150
330
17
100
AcDbEntity
  8
Inner
100
AcDbLine
 10
-7.307762176817528
 20
-2.2342071102562513
 30
0.0
 11
-7.275582349657926
 21
-2.363980006968345
 31
0.0
  0
LINE
  5
151
330
17
100
AcDbEntity
  8
Inner
100
AcDbLine
 10
-7.275582349657926
 20
-2.363980006968345
 30
0.0
 11
-7.2410964247981005
 21
-2.4933094495510604
 31
0.0
  0
LINE
  5
152
330
17
100
AcDbEntity
  8
Inner
100
AcDbLine
 10
-7.2410964247981005
 20
-2.4933094495510604
 30
0.0
 11
-7.2043100926919665
 21
-2.622154432163455
 31
0.0
  0
LINE
  5
153
330
17
100
AcDbEntity
  8
Inner
100
AcDbLine
 10
-7.2043100926919665
 20
-2.622154432163455
 30
0.0
 11
-7.165229773366023
 21
-2.750474012760179
 31
0.0
  0
LINE
  5
154
330
17
100
AcDbEntity
  8
Inner
100
AcDbLine
 10
-7.165229773366023
 20
-2.750474012760179
 30
0.0
 11
-7.123862615921482
 21
-2.878227326078928
 31
0.0
  0
LINE
  5
155
330
17
100
AcDbEntity
  8
Inner
100
AcDbLine
 10
-7.123862615921482
 20
-2.878227326078928
 30
0.0
 11
-7.080216497805021
 21
-3.005373596629994
 31
0.0
  0
LINE
  5
156
330
17
100
AcDbEntity
  8
Inner
100
AcDbLine
 10
-7.080216497805021
 20
-3.005373596629994
 30
0.0
 11
-7.034300023848026
 21
-3.131872151683663
 31
0.0
  0
LINE
  5
157
330
17
100
AcDbEntity
  8
Inner
100
AcDbLine
 10
-7.034300023848026
 20
-3.131872151683663
 30
0.0
 11
-6.98612252507418
 21
-3.257682434251219
 31
0.0
  0
LINE
  5
158
330
17
100
AcDbEntity
  8
Inner
100
AcDbLine
 10
-6.98612252507418
 20
-3.257682434251219
 30
0.0
 11
-6.9356940572752395
 21
-3.3827640160557126
 31
0.0
  0
LINE
  5
159
330
17
100
AcDbEntity
  8
Inner
100
AcDbLine
 10
-6.9356940572752395
 20
-3.3827640160557126
 30
0.0
 11
-6.88302539935514
 21
-3.5070766104880025
 31
0.0
  0
LINE
  5
15A
330
17
100
AcDbEntity
  8
Inner
100
AcDbLine
 10
-6.88302539935514
 20
-3.5070766104880025
 30
0.0
 11
-6.828128051442371
 21
-3.630580085544218
 31
0.0
  0
LINE
  5
15B
330
17
100
AcDbEntity
  8
Inner
100
AcDbLine
 10
-6.828128051442371
 20
-3.630580085544218
 30
0.0
 11
-6.771014232770821
 21
-3.753234476740393
 31
0.0
  0
LINE
  5
15C
330
17
100
AcDbEntity
  8
Inner
100
AcDbLine
 10
-6.771014232770821
 20
-3.753234476740393
 30
0.0
 11
-6.711696879329404
 21
-3.8749999999999933
 31
0.0
  0
LINE
  5
15D
330
17
100
AcDbEntity
  8
Inner
100
AcDbLine
 10
-6.711696879329404
 20
-3.8749999999999933
 30
0.0
 11
-6.650189641280555
 21
-3.9958370645105017
 31
0.0
  0
LINE
  5
15E
330
17
100
AcDbEntity
  8
Inner
100
AcDbLine
 10
-6.650189641280555
 20
-3.9958370645105017
 30
0.0
 11
-6.58650688014824
 21
-4.115706285544562
 31
0.0
  0
LINE
  5
15F
330
17
100
AcDbEntity
  8
Inner
100
AcDbLine
 10
-6.58650688014824
 20
-4.115706285544562
 30
0.0
 11
-6.5206636657756745
 21
-4.234568497241831
 31
0.0
  0
LINE
  5
160
330
17
100
AcDbEntity
  8
Inner
100
AcDbLine
 10
-6.5206636657756745
 20
-4.234568497241831
 30
0.0
 11
-6.452675773053408
 21
-4.3523847653473124
 31
0.0
  0
LINE
  5
161
330
17
100
AcDbEntity
  8
Inner
100
AcDbLine
 10
-6.452675773053408
 20
-4.3523847653473124
 30
0.0
 11
-6.382559678418391
 21
-4.469116399901906
 31
0.0
  0
LINE
  5
162
330
17
100
AcDbEntity
  8
Inner
100
AcDbLine
 10
-6.382559678418391
 20
-4.469116399901906
 30
0.0
 11
-6.310332556124592
 21
-4.5847249678812885
 31
0.0
  0
LINE
  5
163
330
17
100
AcDbEntity
  8
Inner
100
AcDbLine
 10
-6.310332556124592
 20
-4.5847249678812885
 30
0.0
 11
-6.236012274285944
 21
-4.699172305778912
 31
0.0
  0
LINE
  5
164
330
17
100
AcDbEntity
  8
Inner
100
AcDbLine
 10
-6.236012274285944
 20
-4.699172305778912
 30
0.0
 11
-6.159617390692547
 21
-4.812420532128891
 31
0.0
  0
LINE
  5
165
330
17
100
AcDbEntity
  8
Inner
100
AcDbLine
 10
-6.159617390692547
 20
-4.812420532128891
 30
0.0
 11
-6.081167148400797
 21
-4.924432059964977
 31
0.0
  0
LINE
  5
166
330
17
100
AcDbEntity
  8
Inner
100
AcDbLine
 10
-6.081167148400797
 20
-4.924432059964977
 30
0.0
 11
-6.000681471098659
 21
-5.035169609211229
 31
0.0
  0
LINE
  5
167
330
17
100
AcDbEntity
  8
Inner
100
AcDbLine
 10
-6.000681471098659
 20
-5.035169609211229
 30
0.0
 11
-5.918180958246906
 21
-5.144596219000559
 31
0.0
  0
LINE
  5
168
330
17
100
AcDbEntity
  8
Inner
100
AcDbLine
 10
-5.918180958246906
 20
-5.144596219000559
 30
0.0
 11
-5.833686879997543
 21
-5.252675259917038
 31
0.0
  0
LINE
  5
169
330
17
100
AcDbEntity
  8
Inner
100
AcDbLine
 10
-5.833686879997543
 20
-5.252675259917038
 30
0.0
 11
-5.747221171890653
 21
-5.359370446157795
 31
0.0
  0
LINE
  5
16A
330
17
100
AcDbEntity
  8
Inner
100
AcDbLine
 10
-5.747221171890653
 20
-5.359370446157795
 30
0.0
 11
-5.658806429330724
 21
-5.464645847610778
 31
0.0
  0
LINE
  5
16B
330
17
100
AcDbEntity
  8
Inner
100
AcDbLine
 10
-5.658806429330724
 20
-5.464645847610778
 30
0.0
 11
-5.568465901844059
 21
-5.568465901844065
 31
0.0
  0
LINE
  5
16C
330
17
100
AcDbEntity
  8
Inner
100
AcDbLine
 10
-5.568465901844059
 20
-5.568465901844065
 30
0.0
 11
-5.476223487118432
 21
-5.670795426003029
 31
0.0
  0
LINE
  5
16D
330
17
100
AcDbEntity
  8
Inner
100
AcDbLine
 10
-5.476223487118432
 20
-5.670795426003029
 30
0.0
 11
-5.382103724826551
 21
-5.771599628611288
 31
0.0
  0
LINE
  5
16E
330
17
100
AcDbEntity
  8
Inner
100
AcDbLine
 10
-5.382103724826551
 20
-5.771599628611288
 30
0.0
 11
-5.286131790234985
 21
-5.87084412127141
 31
0.0
  0
LINE
  5
16F
330
17
100
AcDbEntity
  8
Inner
100
AcDbLine
 10
-5.286131790234985
 20
-5.87084412127141
 30
0.0
 11
-5.18833348759993
 21
-5.968494930261754
 31
0.0
  0
LINE
  5
170
330
17
100
AcDbEntity
  8
Inner
100
AcDbLine
 10
-5.18833348759993
 20
-5.968494930261754
 30
0.0
 11
-5.088735243351767
 21
-6.064518508025244
 31
0.0
  0
LINE
  5
171
330
17
100
AcDbEntity
  8
Inner
100
AcDbLine
 10
-5.088735243351767
 20
-6.064518508025244
 30
0.0
 11
-4.987364099069966
 21
-6.158881744546491
 31
0.0
  0
LINE
  5
172
330
17
100
AcDbEntity
  8
Inner
100
AcDbLine
 10
-4.987364099069966
 20
-6.158881744546491
 30
0.0
 11
-4.884247704250223
 21
-6.251551978613327
 31
0.0
  0
LINE
  5
173
330
17
100
AcDbEntity
  8
Inner
100
AcDbLine
 10
-4.884247704250223
 20
-6.251551978613327
 30
0.0
 11
-4.779414308865846
 21
-6.3424970089589205
 31
0.0
  0
LINE
  5
174
330
17
100
AcDbEntity
  8
Inner
100
AcDbLine
 10
-4.779414308865846
 20
-6.3424970089589205
 30
0.0
 11
-4.672892755725163
 21
-6.43168510528083
 31
0.0
  0
LINE
  5
175
330
17
100
AcDbEntity
  8
Inner
100
AcDbLine
 10
-4.672892755725163
 20
-6.43168510528083
 30
0.0
 11
-4.564712472627073
 21
-6.519085019133227
 31
0.0
  0
LINE
  5
176
330
17
100
AcDbEntity
  8
Inner
100
AcDbLine
 10
-4.564712472627073
 20
-6.519085019133227
 30
0.0
 11
-4.4549034643169545
 21
-6.604665994688496
 31
0.0
  0
LINE
  5
177
330
17
100
AcDbEntity
  8
Inner
100
AcDbLine
 10
-4.4549034643169545
 20
-6.604665994688496
 30
0.0
 11
-4.343496304244842
 21
-6.688397779364756
 31
0.0
  0
LINE
  5
178
330
17
100
AcDbEntity
  8
Inner
100
AcDbLine
 10
-4.343496304244842
 20
-6.688397779364756
 30
0.0
 11
-4.230522126128416
 21
-6.77025063431547
 31
0.0
  0
LINE
  5
179
330
17
100
AcDbEntity
  8
Inner
100
AcDbLine
 10
-4.230522126128416
 20
-6.77025063431547
 30
0.0
 11
-4.116012615322854
 21
-6.850195344777712
 31
0.0
  0
LINE
  5
17A
330
17
100
AcDbEntity
  8
Inner
100
AcDbLine
 10
-4.116012615322854
 20
-6.850195344777712
 30
0.0
 11
-3.9999999999999987
 21
-6.92820323027551
 31
0.0
  0
LINE
  5
17B
330
17
100
AcDbEntity
  8
Inner
100
AcDbLine
 10
-3.9999999999999987
 20
-6.92820323027551
 30
0.0
 11
-3.8825170421394217
 21
-7.004246154674658
 31
0.0
  0
LINE
  5
17C
330
17
100
AcDbEntity
  8
Inner
100
AcDbLine
 10
-3.8825170421394217
 20
-7.004246154674658
 30
0.0
 11
-3.763597028333559
 21
-7.0782965360857295
 31
0.0
  0
LINE
  5
17D
330
17
100
AcDbEntity
  8
Inner
100
AcDbLine
 10
-3.763597028333559
 20
-7.0782965360857295
 30
0.0
 11
-3.6432737604098597
 21
-7.150327356611655
 31
0.0
  0
LINE
  5
17E
330
17
100
AcDbEntity
  8
Inner
100
AcDbLine
 10
-3.6432737604098597
 20
-7.150327356611655
 30
0.0
 11
-3.5215815458722597
 21
-7.220312171936639
 31
0.0
  0
LINE
  5
17F
330
17
100
AcDbEntity
  8
Inner
100
AcDbLine
 10
-3.5215815458722597
 20
-7.220312171936639
 30
0.0
 11
-3.3985551881647913
 21
-7.2882251207530615
 31
0.0
  0
LINE
  5
180
330
17
100
AcDbEntity
  8
Inner
100
AcDbLine
 10
-3.3985551881647913
 20
-7.2882251207530615
 30
0.0
 11
-3.2742299767601994
 21
-7.354040934022935
 31
0.0
  0
LINE
  5
181
330
17
100
AcDbEntity
  8
Inner
100
AcDbLine
 10
-3.2742299767601994
 20
-7.354040934022935
 30
0.0
 11
-3.148641677076067
 21
-7.417734944070914
 31
0.0
  0
LINE
  5
182
330
17
100
AcDbEntity
  8
Inner
100
AcDbLine
 10
-3.148641677076067
 20
-7.417734944070914
 30
0.0
 11
-3.0218265202216874
 21
-7.479283093505419
 31
0.0
  0
LINE
  5
183
330
17
100
AcDbEntity
  8
Inner
100
AcDbLine
 10
-3.0218265202216874
 20
-7.479283093505419
 30
0.0
 11
-2.893821192578305
 21
-7.538661943964901
 31
0.0
  0
LINE
  5
184
330
17
100
AcDbEntity
  8
Inner
100
AcDbLine
 10
-2.893821192578305
 20
-7.538661943964901
 30
0.0
 11
-2.7646628252158223
 21
-7.595848684686092
 31
0.0
  0
LINE
  5
185
330
17
100
AcDbEntity
  8
Inner
100
AcDbLine
 10
-2.7646628252158223
 20
-7.595848684686092
 30
0.0
 11
-2.6343889831491545
 21
-7.650821140891141
 31
0.0
  0
LINE
  5
186
330
17
100
AcDbEntity
  8
Inner
100
AcDbLine
 10
-2.6343889831491545
 20
-7.650821140891141
 30
0.0
 11
-2.5030376544370774
 21
-7.703557781990742
 31
0.0
  0
LINE
  5
187
330
17
100
AcDbEntity
  8
Inner
100
AcDbLine
 10
-2.5030376544370774
 20
-7.703557781990742
 30
0.0
 11
-2.370647239126855
 21
-7.754037729600281
 31
0.0
  0
LINE
  5
188
330
17
100
AcDbEntity
  8
Inner
100
AcDbLine
 10
-2.370647239126855
 20
-7.754037729600281
 30
0.0
 11
-2.237256538047983
 21
-7.802240765366021
 31
0.0
  0
LINE
  5
189
330
17
100
AcDbEntity
  8
Inner
100
AcDbLine
 10
-2.237256538047983
 20
-7.802240765366021
 30
0.0
 11
-2.1029047414579822
 21
-7.848147338598679
 31
0.0
  0
LINE
  5
18A
330
17
100
AcDbEntity
  8
Inner
100
AcDbLine
 10
-2.1029047414579822
 20
-7.848147338598679
 30
0.0
 11
-1.9676314175439595
 21
-7.8917385737114385
 31
0.0
  0
LINE
  5
18B
330
17
100
AcDbEntity
  8
Inner
100
AcDbLine
 10
-1.9676314175439595
 20
-7.8917385737114385
 30
0.0
 11
-1.8314765007829714
 21
-7.932996277459789
 31
0.0
  0
LINE
  5
18C
330
17
100
AcDbEntity
  8
Inner
100
AcDbLine
 10
-1.8314765007829714
 20
-7.932996277459789
 30
0.0
 11
-1.694480280164737
 21
-7.971902945980515
 31
0.0
  0
LINE
  5
18D
330
17
100
AcDbEntity
  8
Inner
100
AcDbLine
 10
-1.694480280164737
 20
-7.971902945980515
 30
0.0
 11
-1.5566833872803187
 21
-8.00844177162719
 31
0.0
  0
LINE
  5
18E
330
17
100
AcDbEntity
  8
Inner
100
AcDbLine
 10
-1.5566833872803187
 20
-8.00844177162719
 30
0.0
 11
-1.4181267842799332
 21
-8.0425966495997
 31
0.0
  0
LINE
  5
18F
330
17
100
AcDbEntity
  8
Inner
100
AcDbLine
 10
-1.4181267842799332
 20
-8.0425966495997
 30
0.0
 11
-1.2788517517038835
 21
-8.074352184365251
 31
0.0
  0
LINE
  5
190
330
17
100
AcDbEntity
  8
Inner
100
AcDbLine
 10
-1.2788517517038835
 20
-8.074352184365251
 30
0.0
 11
-1.1388998761898739
 21
-8.103693695868516
 31
0.0
  0
LINE
  5
191
330
17
100
AcDbEntity
  8
Inner
100
AcDbLine
 10
-1.1388998761898739
 20
-8.103693695868516
 30
0.0
 11
-0.9983130380604991
 21
-8.130607225528497
 31
0.0
  0
LINE
  5
192
330
17
100
AcDbEntity
  8
Inner
100
AcDbLine
 10
-0.9983130380604991
 20
-8.130607225528497
 30
0.0
 11
-0.8571333987947667
 21
-8.15507954201984
 31
0.0
  0
LINE
  5
193
330
17
100
AcDbEntity
  8
Inner
100
AcDbLine
 10
-0.8571333987947667
 20
-8.15507954201984
 30
0.0
 11
-0.7154033883870302
 21
-8.177098146836412
 31
0.0
  0
LINE
  5
194
330
17
100
AcDbEntity
  8
Inner
100
AcDbLine
 10
-0.7154033883870302
 20
-8.177098146836412
 30
0.0
 11
-0.5731656925975599
 21
-8.19665127963489
 31
0.0
  0
LINE
  5
195
330
17
100
AcDbEntity
  8
Inner
100
AcDbLine
 10
-0.5731656925975599
 20
-8.19665127963489
 30
0.0
 11
-0.43046324009821896
 21
-8.21372792335637
 31
0.0
  0
LINE
  5
196
330
17
100
AcDbEntity
  8
Inner
100
AcDbLine
 10
-0.43046324009821896
 20
-8.21372792335637
 30
0.0
 11
-0.2873391895172583
 21
-8.22831780912389
 31
0.0
  0
LINE
  5
197
330
17
100
AcDbEntity
  8
Inner
100
AcDbLine
 10
-0.2873391895172583
 20
-8.22831780912389
 30
0.0
 11
-0.1438369163872729
 21
-8.240411420913926
 31
0.0
  0
LINE
  5
198
330
17
100
AcDbEntity
  8
Inner
100
AcDbLine
 10
-0.1438369163872729
 20
-8.240411420913926
 30
0.0
 11
-3.536167632537982e-15
 21
-8.25
 31
0.0
  0
LINE
  5
199
330
17
100
AcDbEntity
  8
Inner
100
AcDbLine
 10
-3.536167632537982e-15
 20
-8.25
 30
0.0
 11
0.14412778982790184
 21
-8.257075549166531
 31
0.0
  0
LINE
  5
19A
330
17
100
AcDbEntity
  8
Inner
100
AcDbLine
 10
0.14412778982790184
 20
-8.257075549166531
 30
0.0
 11
0.2885025060740012
 21
-8.261630836691191
 31
0.0
  0
LINE
  5
19B
330
17
100
AcDbEntity
  8
Inner
100
AcDbLine
 10
0.2885025060740012
 20
-8.261630836691191
 30
0.0
 11
0.4330800379103591
 21
-8.263659400094099
 31
0.0
  0
LINE
  5
19C
330
17
100
AcDbEntity
  8
Inner
100
AcDbLine
 10
0.4330800379103591
 20
-8.263659400094099
 30
0.0
 11
0.5778161241805092
 21
-8.263155549652211
 31
0.0
  0
LINE
  5
19D
330
17
100
AcDbEntity
  8
Inner
100
AcDbLine
 10
0.5778161241805092
 20
-8.263155549652211
 30
0.0
 11
0.7226663669493278
 21
-8.260114371677389
 31
0.0
  0
LINE
  5
19E
330
17
100
AcDbEntity
  8
Inner
100
AcDbLine
 10
0.7226663669493278
 20
-8.260114371677389
 30
0.0
 11
0.8675862451215252
 21
-8.25453173155667
 31
0.0
  0
LINE
  5
19F
330
17
100
AcDbEntity
  8
Inner
100
AcDbLine
 10
0.8675862451215252
 20
-8.25453173155667
 30
0.0
 11
1.012531128124426
 21
-8.246404276553317
 31
0.0
  0
LINE
  5
1A0
330
17
100
AcDbEntity
  8
Inner
100
AcDbLine
 10
1.012531128124426
 20
-8.246404276553317
 30
0.0
 11
1.157456289651209
 21
-8.235729438367393
 31
0.0
  0
LINE
  5
1A1
330
17
100
AcDbEntity
  8
Inner
100
AcDbLine
 10
1.157456289651209
 20
-8.235729438367393
 30
0.0
 11
1.3023169214599255
 21
-8.22250543545452
 31
0.0
  0
LINE
  5
1A2
330
17
100
AcDbEntity
  8
Inner
100
AcDbLine
 10
1.3023169214599255
 20
-8.22250543545452
 30
0.0
 11
1.4470681472244142
 21
-8.206731275101733
 31
0.0
  0
LINE
  5
1A3
330
17
100
AcDbEntity
  8
Inner
100
AcDbLine
 10
1.4470681472244142
 20
-8.206731275101733
 30
0.0
 11
1.5916650364326783
 21
-8.188406755259264
 31
0.0
  0
LINE
  5
1A4
330
17
100
AcDbEntity
  8
Inner
100
AcDbLine
 10
1.5916650364326783
 20
-8.188406755259264
 30
0.0
 11
1.7360626183282826
 21
-8.16753246612728
 31
0.0
  0
LINE
  5
1A5
330
17
100
AcDbEntity
  8
Inner
100
AcDbLine
 10
1.7360626183282826
 20
-8.16753246612728
 30
0.0
 11
1.8802158958908024
 21
-8.144109791496593
 31
0.0
  0
LINE
  5
1A6
330
17
100
AcDbEntity
  8
Inner
100
AcDbLine
 10
1.8802158958908024
 20
-8.144109791496593
 30
0.0
 11
2.024079859850556
 21
-8.118140909842504
 31
0.0
  0
LINE
  5
1A7
330
17
100
AcDbEntity
  8
Inner
100
AcDbLine
 10
2.024079859850556
 20
-8.118140909842504
 30
0.0
 11
2.1676095027336055
 21
-8.089628795170949
 31
0.0
  0
LINE
  5
1A8
330
17
100
AcDbEntity
  8
Inner
100
AcDbLine
 10
2.1676095027336055
 20
-8.089628795170949
 30
0.0
 11
2.3107598329325096
 21
-8.05857721761624
 31
0.0
  0
LINE
  5
1A9
330
17
100
AcDbEntity
  8
Inner
100
AcDbLine
 10
2.3107598329325096
 20
-8.05857721761624
 30
0.0
 11
2.453485888798304
 21
-8.024990743789804
 31
0.0
  0
LINE
  5
1AA
330
17
100
AcDbEntity
  8
Inner
100
AcDbLine
 10
2.453485888798304
 20
-8.024990743789804
 30
0.0
 11
2.595742752749555
 21
-7.988874736879292
 31
0.0
  0
LINE
  5
1AB
330
17
100
AcDbEntity
  8
Inner
100
AcDbLine
 10
2.595742752749555
 20
-7.988874736879292
 30
0.0
 11
2.7374855653939276
 21
-7.950235356497588
 31
0.0
  0
LINE
  5
1AC
330
17
100
AcDbEntity
  8
Inner
100
AcDbLine
 10
2.7374855653939276
 20
-7.950235356497588
 30
0.0
 11
2.8786695396577056
 21
-7.909079558281399
 31
0.0
  0
LINE
  5
1AD
330
17
100
AcDbEntity
  8
Inner
100
AcDbLine
 10
2.8786695396577056
 20
-7.909079558281399
 30
0.0
 11
3.019249974919154
 21
-7.865415093238926
 31
0.0
  0
LINE
  5
1AE
330
17
100
AcDbEntity
  8
Inner
100
AcDbLine
 10
3.019249974919154
 20
-7.865415093238926
 30
0.0
 11
3.159182271140862
 21
-7.819250506846572
 31
0.0
  0
LINE
  5
1AF
330
17
100
AcDbEntity
  8
Inner
100
AcDbLine
 10
3.159182271140862
 20
-7.819250506846572
 30
0.0
 11
3.2984219429969484
 21
-7.770595137894351
 31
0.0
  0
LINE
  5
1B0
330
17
100
AcDbEntity
  8
Inner
100
AcDbLine
 10
3.2984219429969484
 20
-7.770595137894351
 30
0.0
 11
3.4369246339905124
 21
-7.7194591170799765
 31
0.0
  0
LINE
  5
1B1
330
17
100
AcDbEntity
  8
Inner
100
AcDbLine
 10
3.4369246339905124
 20
-7.7194591170799765
 30
0.0
 11
3.574646130556742
 21
-7.6658533653516665
 31
0.0
  0
LINE
  5
1B2
330
17
100
AcDbEntity
  8
Inner
100
AcDbLine
 10
3.574646130556742
 20
-7.6658533653516665
 30
0.0
 11
3.7115423761475204
 21
-7.609789591999616
 31
0.0
  0
LINE
  5
1B3
330
17
100
AcDbEntity
  8
Inner
100
AcDbLine
 10
3.7115423761475204
 20
-7.609789591999616
 30
0.0
 11
3.8475694852926625
 21
-7.551280292496416
 31
0.0
  0
LINE
  5
1B4
330
17
100
AcDbEntity
  8
Inner
100
AcDbLine
 10
3.8475694852926625
 20
-7.551280292496416
 30
0.0
 11
3.9826837576336356
 21
-7.490338746086566
 31
0.0
  0
LINE
  5
1B5
330
17
100
AcDbEntity
  8
Inner
100
AcDbLine
 10
3.9826837576336356
 20
-7.490338746086566
 30
0.0
 11
4.116841691925146
 21
-7.4269790131253695
 31
0.0
  0
LINE
  5
1B6
330
17
100
AcDbEntity
  8
Inner
100
AcDbLine
 10
4.116841691925146
 20
-7.4269790131253695
 30
0.0
 11
4.249999999999993
 21
-7.361215932167733
 31
0.0
  0
LINE
  5
1B7
330
17
100
AcDbEntity
  8
Inner
100
AcDbLine
 10
4.249999999999993
 20
-7.361215932167733
 30
0.0
 11
4.382115620693042
 21
-7.293065116807139
 31
0.0
  0
LINE
  5
1B8
330
17
100
AcDbEntity
  8
Inner
100
AcDbLine
 10
4.382115620693042
 20
-7.293065116807139
 30
0.0
 11
4.5131457337194645
 21
-7.2225429522655595
 31
0.0
  0
LINE
  5
1B9
330
17
100
AcDbEntity
  8
Inner
100
AcDbLine
 10
4.5131457337194645
 20
-7.2225429522655595
 30
0.0
 11
4.643047773503099
 21
-7.149666591734742
 31
0.0
  0
LINE
  5
1BA
330
17
100
AcDbEntity
  8
Inner
100
AcDbLine
 10
4.643047773503099
 20
-7.149666591734742
 30
0.0
 11
4.771779442950373
 21
-7.074453952469689
 31
0.0
  0
LINE
  5
1BB
330
17
100
AcDbEntity
  8
Inner
100
AcDbLine
 10
4.771779442950373
 20
-7.074453952469689
 30
0.0
 11
4.89929872716519
 21
-6.996923711635136
 31
0.0
  0
LINE
  5
1BC
330
17
100
AcDbEntity
  8
Inner
100
AcDbLine
 10
4.89929872716519
 20
-6.996923711635136
 30
0.0
 11
5.025563907100643
 21
-6.917095301905803
 31
0.0
  0
LINE
  5
1BD
330
17
100
AcDbEntity
  8
Inner
100
AcDbLine
 10
5.025563907100643
 20
-6.917095301905803
 30
0.0
 11
5.1505335731429485
 21
-6.834988906821414
 31
0.0
  0
LINE
  5
1BE
330
17
100
AcDbEntity
  8
Inner
100
AcDbLine
 10
5.1505335731429485
 20
-6.834988906821414
 30
0.0
 11
5.274166638623133
 21
-6.7506254558975884
 31
0.0
  0
LINE
  5
1BF
330
17
100
AcDbEntity
  8
Inner
100
AcDbLine
 10
5.274166638623133
 20
-6.7506254558975884
 30
0.0
 11
5.396422353252354
 21
-6.664026619493526
 31
0.0
  0
LINE
  5
1C0
330
17
100
AcDbEntity
  8
Inner
100
AcDbLine
 10
5.396422353252354
 20
-6.664026619493526
 30
0.0
 11
5.517260316476133
 21
-6.575214803437892
 31
0.0
  0
LINE
  5
1C1
330
17
100
AcDbEntity
  8
Inner
100
AcDbLine
 10
5.517260316476133
 20
-6.575214803437892
 30
0.0
 11
5.636640490743438
 21
-6.484213143413986
 31
0.0
  0
LINE
  5
1C2
330
17
100
AcDbEntity
  8
Inner
100
AcDbLine
 10
5.636640490743438
 20
-6.484213143413986
 30
0.0
 11
5.7545232146861816
 21
-6.391045499105589
 31
0.0
  0
LINE
  5
1C3
330
17
100
AcDbEntity
  8
Inner
100
AcDbLine
 10
5.7545232146861816
 20
-6.391045499105589
 30
0.0
 11
5.870869216204669
 21
-6.295736448105032
 31
0.0
  0
LINE
  5
1C4
330
17
100
AcDbEntity
  8
Inner
100
AcDbLine
 10
5.870869216204669
 20
-6.295736448105032
 30
0.0
 11
5.9856396254550255
 21
-6.198311279584712
 31
0.0
  0
LINE
  5
1C5
330
17
100
AcDbEntity
  8
Inner
100
AcDbLine
 10
5.9856396254550255
 20
-6.198311279584712
 30
0.0
 11
6.098795987733975
 21
-6.09879598773397
 31
0.0
  0
LINE
  5
1C6
330
17
100
AcDbEntity
  8
Inner
100
AcDbLine
 10
6.098795987733975
 20
-6.09879598773397
 30
0.0
 11
6.2103002762570165
 21
-5.997217264962681
 31
0.0
  0
LINE
  5
1C7
330
17
100
AcDbEntity
  8
Inner
100
AcDbLine
 10
6.2103002762570165
 20
-5.997217264962681
 30
0.0
 11
6.320114904825664
 21
-5.893602494873424
 31
0.0
  0
LINE
  5
1C8
330
17
100
AcDbEntity
  8
Inner
100
AcDbLine
 10
6.320114904825664
 20
-5.893602494873424
 30
0.0
 11
6.428202740379454
 21
-5.78797974500413
 31
0.0
  0
LINE
  5
1C9
330
17
100
AcDbEntity
  8
Inner
100
AcDbLine
 10
6.428202740379454
 20
-5.78797974500413
 30
0.0
 11
6.5345271154288325
 21
-5.680377759342812
 31
0.0
  0
LINE
  5
1CA
330
17
100
AcDbEntity
  8
Inner
100
AcDbLine
 10
6.5345271154288325
 20
-5.680377759342812
 30
0.0
 11
6.639051840364478
 21
-5.570825950616671
 31
0.0
  0
LINE
  5
1CB
330
17
100
AcDbEntity
  8
Inner
100
AcDbLine
 10
6.639051840364478
 20
-5.570825950616671
 30
0.0
 11
6.741741215639219
 21
-5.459354392357346
 31
0.0
  0
LINE
  5
1CC
330
17
100
AcDbEntity
  8
Inner
100
AcDbLine
 10
6.741741215639219
 20
-5.459354392357346
 30
0.0
 11
6.842560043818369
 21
-5.345993810744466
 31
0.0
  0
LINE
  5
1CD
330
17
100
AcDbEntity
  8
Inner
100
AcDbLine
 10
6.842560043818369
 20
-5.345993810744466
 30
0.0
 11
6.94147364149439
 21
-5.230775576229882
 31
0.0
  0
LINE
  5
1CE
330
17
100
AcDbEntity
  8
Inner
100
AcDbLine
 10
6.94147364149439
 20
-5.230775576229882
 30
0.0
 11
7.038447851062039
 21
-5.113731694944518
 31
0.0
  0
LINE
  5
1CF
330
17
100
AcDbEntity
  8
Inner
100
AcDbLine
 10
7.038447851062039
 20
-5.113731694944518
 30
0.0
 11
7.13344905234997
 21
-4.994894799890358
 31
0.0
  0
LINE
  5
1D0
330
17
100
AcDbEntity
  8
Inner
100
AcDbLine
 10
7.13344905234997
 20
-4.994894799890358
 30
0.0
 11
7.226444174104776
 21
-4.874298141920017
 31
0.0
  0
LINE
  5
1D1
330
17
100
AcDbEntity
  8
Inner
100
AcDbLine
 10
7.226444174104776
 20
-4.874298141920017
 30
0.0
 11
7.317400705323825
 21
-4.751975580506113
 31
0.0
  0
LINE
  5
1D2
330
17
100
AcDbEntity
  8
Inner
100
AcDbLine
 10
7.317400705323825
 20
-4.751975580506113
 30
0.0
 11
7.40628670643279
 21
-4.6279615743033204
 31
0.0
  0
LINE
  5
1D3
330
17
100
AcDbEntity
  8
Inner
100
AcDbLine
 10
7.40628670643279
 20
-4.6279615743033204
 30
0.0
 11
7.493070820304296
 21
-4.502291171505395
 31
0.0
  0
LINE
  5
1D4
330
17
100
AcDbEntity
  8
Inner
100
AcDbLine
 10
7.493070820304296
 20
-4.502291171505395
 30
0.0
 11
7.577722283113839
 21
-4.374999999999999
 31
0.0
  0
LINE
  5
1D5
330
17
100
AcDbEntity
  8
Inner
100
AcDbLine
 10
7.577722283113839
 20
-4.374999999999999
 30
0.0
 11
7.660210935029204
 21
-4.246124257324176
 31
0.0
  0
LINE
  5
1D6
330
17
100
AcDbEntity
  8
Inner
100
AcDbLine
 10
7.660210935029204
 20
-4.246124257324176
 30
0.0
 11
7.740507230729924
 21
-4.115700700422978
 31
0.0
  0
LINE
  5
1D7
330
17
100
AcDbEntity
  8
Inner
100
AcDbLine
 10
7.740507230729924
 20
-4.115700700422978
 30
0.0
 11
7.81858224975293
 21
-3.98376663521452
 31
0.0
  0
LINE
  5
1D8
330
17
100
AcDbEntity
  8
Inner
100
AcDbLine
 10
7.81858224975293
 20
-3.98376663521452
 30
0.0
 11
7.894407706661014
 21
-3.8503599059640683
 31
0.0
  0
LINE
  5
1D9
330
17
100
AcDbEntity
  8
Inner
100
AcDbLine
 10
7.894407706661014
 20
-3.8503599059640683
 30
0.0
 11
7.967955961030548
 21
-3.7155188844703164
 31
0.0
  0
LINE
  5
1DA
330
17
100
AcDbEntity
  8
Inner
100
AcDbLine
 10
7.967955961030548
 20
-3.7155188844703164
 30
0.0
 11
8.039200027254884
 21
-3.579282459067051
 31
0.0
  0
LINE
  5
1DB
330
17
100
AcDbEntity
  8
Inner
100
AcDbLine
 10
8.039200027254884
 20
-3.579282459067051
 30
0.0
 11
8.108113584160243
 21
-3.441690023443023
 31
0.0
  0
LINE
  5
1DC
330
17
100
AcDbEntity
  8
Inner
100
AcDbLine
 10
8.108113584160243
 20
-3.441690023443023
 30
0.0
 11
8.17467098443051
 21
-3.302781465283622
 31
0.0
  0
LINE
  5
1DD
330
17
100
AcDbEntity
  8
Inner
100
AcDbLine
 10
8.17467098443051
 20
-3.302781465283622
 30
0.0
 11
8.238847263837803
 21
-3.162597154737281
 31
0.0
  0
LINE
  5
1DE
330
17
100
AcDbEntity
  8
Inner
100
AcDbLine
 10
8.238847263837803
 20
-3.162597154737281
 30
0.0
 11
8.300618150275522
 21
-3.0211779327100743
 31
0.0
  0
LINE
  5
1DF
330
17
100
AcDbEntity
  8
Inner
100
AcDbLine
 10
8.300618150275522
 20
-3.0211779327100743
 30
0.0
 11
8.359960072590628
 21
-2.8785650989920217
 31
0.0
  0
LINE
  5
1E0
330
17
100
AcDbEntity
  8
Inner
100
AcDbLine
 10
8.359960072590628
 20
-2.8785650989920217
 30
0.0
 11
8.416850169212108
 21
-2.7348004002182886
 31
0.0
  0
LINE
  5
1E1
330
17
100
AcDbEntity
  8
Inner
100
AcDbLine
 10
8.416850169212108
 20
-2.7348004002182886
 30
0.0
 11
8.471266296572557
 21
-2.5899260176689083
 31
0.0
  0
LINE
  5
1E2
330
17
100
AcDbEntity
  8
Inner
100
AcDbLine
 10
8.471266296572557
 20
-2.5899260176689083
 30
0.0
 11
8.52318703731976
 21
-2.4439845549107337
 31
0.0
  0
LINE
  5
1E3
330
17
100
AcDbEntity
  8
Inner
100
AcDbLine
 10
8.52318703731976
 20
-2.4439845549107337
 30
0.0
 11
8.57259170831548
 21
-2.2970190252848735
 31
0.0
  0
LINE
  5
1E4
330
17
100
AcDbEntity
  8
Inner
100
AcDbLine
 10
8.57259170831548
 20
-2.2970190252848735
 30
0.0
 11
8.619460368418435
 21
-2.1490728392437104
 31
0.0
  0
LINE
  5
1E5
330
17
100
AcDbEntity
  8
Inner
100
AcDbLine
 10
8.619460368418435
 20
-2.1490728392437104
 30
0.0
 11
8.663773826048715
 21
-2.000189791540871
 31
0.0
  0
LINE
  5
1E6
330
17
100
AcDbEntity
  8
Inner
100
AcDbLine
 10
8.663773826048715
 20
-2.000189791540871
 30
0.0
 11
8.70551364653087
 21
-1.8504140482780569
 31
0.0
  0
LINE
  5
1E7
330
17
100
AcDbEntity
  8
Inner
100
AcDbLine
 10
8.70551364653087
 20
-1.8504140482780569
 30
0.0
 11
8.744662159212938
 21
-1.6997901338127286
 31
0.0
  0
LINE
  5
1E8
330
17
100
AcDbEntity
  8
Inner
100
AcDbLine
 10
8.744662159212938
 20
-1.6997901338127286
 30
0.0
 11
8.781202464358856
 21
-1.5483629175301317
 31
0.0
  0
LINE
  5
1E9
330
17
100
AcDbEntity
  8
Inner
100
AcDbLine
 10
8.781202464358856
 20
-1.5483629175301317
 30
0.0
 11
8.815118439811606
 21
-1.3961776004840571
 31
0.0
  0
LINE
  5
1EA
330
17
100
AcDbEntity
  8
Inner
100
AcDbLine
 10
8.815118439811606
 20
-1.3961776004840571
 30
0.0
 11
8.846394747424695
 21
-1.2432797019099242
 31
0.0
  0
LINE
  5
1EB
330
17
100
AcDbEntity
  8
Inner
100
AcDbLine
 10
8.846394747424695
 20
-1.2432797019099242
 30
0.0
 11
8.875016839259487
 21
-1.0897150456143603
 31
0.0
  0
LINE
  5
1EC
330
17
100
AcDbEntity
  8
Inner
100
AcDbLine
 10
8.875016839259487
 20
-1.0897150456143603
 30
0.0
 11
8.900970963546044
 21
-0.935529746245508
 31
0.0
  0
LINE
  5
1ED
330
17
100
AcDbEntity
  8
Inner
100
AcDbLine
 10
8.900970963546044
 20
-0.935529746245508
 30
0.0
 11
8.92424417040522
 21
-0.7807701954477746
 31
0.0
  0
LINE
  5
1EE
330
17
100
AcDbEntity
  8
Inner
100
AcDbLine
 10
8.92424417040522
 20
-0.7807701954477746
 30
0.0
 11
8.944824317329758
 21
-0.6254830479056541
 31
0.0
  0
LINE
  5
1EF
330
17
100
AcDbEntity
  8
Inner
100
AcDbLine
 10
8.944824317329758
 20
-0.6254830479056541
 30
0.0
 11
8.9627000744223
 21
-0.4697152072804279
 31
0.0
  0
LINE
  5
1F0
330
17
100
AcDbEntity
  8
Inner
100
AcDbLine
 10
8.9627000744223
 20
-0.4697152072804279
 30
0.0
 11
8.97786092938821
 21
-0.3135138120441346
 31
0.0
  0
LINE
  5
1F1
330
17
100
AcDbEntity
  8
Inner
100
AcDbLine
 10
8.97786092938821
 20
-0.3135138120441346
 30
0.0
 11
8.990297192281218
 21
-0.15692622121523556
 31
0.0
  0
ENDSEC
  0
SECTION
  2
OBJECTS
  0
DICTIONARY
  5
A
330
0
100
AcDbDictionary
281
1
  3
ACAD_COLOR
350
B
  3
ACAD_GROUP
350
C
  3
ACAD_LAYOUT
350
D
  3
ACAD_MATERIAL
350
E
  3
ACAD_MLEADERSTYLE
350
F
  3
ACAD_MLINESTYLE
350
10
  3
ACAD_PLOTSETTINGS
350
11
  3
ACAD_PLOTSTYLENAME
350
12
  3
ACAD_SCALELIST
350
14
  3
ACAD_TABLESTYLE
350
15
  3
ACAD_VISUALSTYLE
350
16
  0
DICTIONARY
  5
B
330
A
100
AcDbDictionary
281
1
  0
DICTIONARY
  5
C
330
A
100
AcDbDictionary
281
1
  0
DICTIONARY
  5
D
330
A
100
AcDbDictionary
281
1
  3
Model
350
1A
  3
Layout1
350
1E
  0
DICTIONARY
  5
E
330
A
100
AcDbDictionary
281
1
  3
ByBlock
350
1F
  3
ByLayer
350
20
  3
Global
350
21
  0
DICTIONARY
  5
F
330
A
100
AcDbDictionary
281
1
  3
Standard
350
2C
  0
DICTIONARY
  5
10
330
A
100
AcDbDictionary
281
1
  3
Standard
350
22
  0
DICTIONARY
  5
11
330
A
100
AcDbDictionary
281
1
  0
ACDBDICTIONARYWDFLT
  5
12
330
A
100
AcDbDictionary
281
1
  3
Normal
350
13
100
AcDbDictionaryWithDefault
340
13
  0
ACDBPLACEHOLDER
  5
13
330
12
  0
DICTIONARY
  5
14
330
A
100
AcDbDictionary
281
1
  0
DICTIONARY
  5
15
330
A
100
AcDbDictionary
281
1
  0
DICTIONARY
  5
16
330
A
100
AcDbDictionary
281
1
  3
2dWireframe
350
58
  3
Basic
350
59
  3
Brighten
350
5A
  3
ColorChange
350
5B
  3
Conceptual
350
5C
  3
Dim
350
5D
  3
EdgeColorOff
350
5E
  3
Facepattern
350
5F
  3
Flat
350
60
  3
FlatWithEdges
350
61
  3
Gouraud
350
62
  3
GouraudWithEdges
350
63
  3
Hidden
350
64
  3
JitterOff
350
65
  3
Linepattern
350
66
  3
Modeling
350
67
  3
OverhangOff
350
68
  3
Realistic
350
69
  3
Shaded
350
6A
  3
Shaded with edges
350
6B
  3
Shades of Gray
350
6C
  3
Sketchy
350
6D
  3
Thicken
350
6E
  3
Wireframe
350
6F
  3
X-Ray
350
70
  0
LAYOUT
  5
1A
330
D
100
AcDbPlotSettings
  1

  2
Adobe PDF
  4
A4
  6

 40
3.175
 41
3.175
 42
3.175
 43
3.175
 44
209.91
 45
297.03
 46
0.0
 47
0.0
 48
0.0
 49
0.0
140
0.0
141
0.0
142
1.0
143
1.0
 70
1024
 72
0
 73
1
 74
5
  7

 75
16
 76
0
 77
2
 78
300
147
1.0
148
0.0
149
0.0
100
AcDbLayout
  1
Model
 70
1
 71
0
 10
-3.175
 20
-3.175
 11
293.857
 21
206.735
 12
0.0
 22
0.0
 32
0.0
 14
29.068
 24
20.356
 34
0.0
 15
261.614
 25
183.204
 35
0.0
146
0.0
 13
0.0
 23
0.0
 33
0.0
 16
1.0
 26
0.0
 36
0.0
 17
0.0
 27
1.0
 37
0.0
 76
1
330
17
  0
LAYOUT
  5
1E
330
D
100
AcDbPlotSettings
  1

  2
Adobe PDF
  4
A4
  6

 40
3.175
 41
3.175
 42
3.175
 43
3.175
 44
209.91
 45
297.03
 46
0.0
 47
0.0
 48
0.0
 49
0.0
140
0.0
141
0.0
142
1.0
143
1.0
 70
0
 72
0
 73
1
 74
5
  7

 75
16
 76
0
 77
2
 78
300
147
1.0
148
0.0
149
0.0
100
AcDbLayout
  1
Layout1
 70
1
 71
1
 10
-3.175
 20
-3.175
 11
293.857
 21
206.735
 12
0.0
 22
0.0
 32
0.0
 14
29.068
 24
20.356
 34
0.0
 15
261.614
 25
183.204
 35
0.0
146
0.0
 13
0.0
 23
0.0
 33
0.0
 16
1.0
 26
0.0
 36
0.0
 17
0.0
 27
1.0
 37
0.0
 76
1
330
1B
  0
MATERIAL
  5
1F
102
{ACAD_REACTORS
330
E
102
}
330
E
100
AcDbMaterial
  1
ByBlock
  2

 70
0
 40
1.0
 71
1
 41
1.0
 91
-1023410177
 42
1.0
 72
1
  3

 73
1
 74
1
 75
1
 44
0.5
 73
0
 45
1.0
 46
1.0
 77
1
  4

 78
1
 79
1
170
1
 48
1.0
171
1
  6

172
1
173
1
174
1
140
1.0
141
1.0
175
1
  7

176
1
177
1
178
1
143
1.0
179
1
  8

270
1
271
1
272
1
145
1.0
146
1.0
273
1
  9

274
1
275
1
276
1
 42
1.0
 72
1
  3

 73
1
 74
1
 75
1
 94
63
  0
MATERIAL
  5
20
102
{ACAD_REACTORS
330
E
102
}
330
E
100
AcDbMaterial
  1
ByLayer
  2

 70
0
 40
1.0
 71
1
 41
1.0
 91
-1023410177
 42
1.0
 72
1
  3

 73
1
 74
1
 75
1
 44
0.5
 73
0
 45
1.0
 46
1.0
 77
1
  4

 78
1
 79
1
170
1
 48
1.0
171
1
  6

172
1
173
1
174
1
140
1.0
141
1.0
175
1
  7

176
1
177
1
178
1
143
1.0
179
1
  8

270
1
271
1
272
1
145
1.0
146
1.0
273
1
  9

274
1
275
1
276
1
 42
1.0
 72
1
  3

 73
1
 74
1
 75
1
 94
63
  0
MATERIAL
  5
21
102
{ACAD_REACTORS
330
E
102
}
330
E
100
AcDbMaterial
  1
Global
  2

 70
0
 40
1.0
 71
1
 41
1.0
 91
-1023410177
 42
1.0
 72
1
  3

 73
1
 74
1
 75
1
 44
0.5
 73
0
 45
1.0
 46
1.0
 77
1
  4

 78
1
 79
1
170
1
 48
1.0
171
1
  6

172
1
173
1
174
1
140
1.0
141
1.0
175
1
  7

176
1
177
1
178
1
143
1.0
179
1
  8

270
1
271
1
272
1
145
1.0
146
1.0
273
1
  9

274
1
275
1
276
1
 42
1.0
 72
1
  3

 73
1
 74
1
 75
1
 94
63
  0
MLINESTYLE
  5
22
102
{ACAD_REACTORS
330
10
102
}
330
10
100
AcDbMlineStyle
  2
Standard
 70
0
  3

 62
256
 51
90.0
 52
90.0
 71
2
 49
0.5
 62
256
  6
BYLAYER
 49
-0.5
 62
256
  6
BYLAYER
  0
MLEADERSTYLE
  5
2C
102
{ACAD_REACTORS
330
F
102
}
330
F
100
AcDbMLeaderStyle
179
2
170
2
171
1
172
0
 90
2
 40
0.0
 41
0.0
173
1
 91
-1056964608
 92
-2
290
1
 42
2.0
291
1
 43
8.0
  3
Standard
 44
4.0
300

342
29
174
1
175
1
176
0
178
1
 93
-1056964608
 45
4.0
292
0
297
0
 46
4.0
 94
-1056964608
 47
1.0
 49
1.0
140
1.0
294
1
141
0.0
177
0
142
1.0
295
0
296
0
143
3.75
271
0
272
9
273
9
  0
VISUALSTYLE
  5
58
102
{ACAD_REACTORS
330
16
102
}
330
16
100
AcDbVisualStyle
  2
2dWireframe
 70
4
 90
0
 40
0.6
 62
7
290
0
291
0
  0
VISUALSTYLE
  5
59
102
{ACAD_REACTORS
330
16
102
}
330
16
100
AcDbVisualStyle
  2
Basic
 70
7
 90
1
 40
0.6
 62
7
290
0
291
1
  0
VISUALSTYLE
  5
5A
102
{ACAD_REACTORS
330
16
102
}
330
16
100
AcDbVisualStyle
  2
Brighten
 70
12
 90
2
 40
0.6
 62
7
290
0
291
1
  0
VISUALSTYLE
  5
5B
102
{ACAD_REACTORS
330
16
102
}
330
16
100
AcDbVisualStyle
  2
ColorChange
 70
16
 90
2
 40
0.6
 62
8
290
0
291
1
  0
VISUALSTYLE
  5
5C
102
{ACAD_REACTORS
330
16
102
}
330
16
100
AcDbVisualStyle
  2
Conceptual
 70
9
 90
3
 40
0.6
 62
7
290
0
291
0
  0
VISUALSTYLE
  5
5D
102
{ACAD_REACTORS
330
16
102
}
330
16
100
AcDbVisualStyle
  2
Dim
 70
11
 90
2
 40
0.6
 62
7
290
0
291
1
  0
VISUALSTYLE
  5
5E
102
{ACAD_REACTORS
330
16
102
}
330
16
100
AcDbVisualStyle
  2
EdgeColorOff
 70
22
 90
2
 40
0.6
 62
7
290
0
291
1
  0
VISUALSTYLE
  5
5F
102
{ACAD_REACTORS
330
16
102
}
330
16
100
AcDbVisualStyle
  2
Facepattern
 70
15
 90
2
 40
0.6
 62
7
290
0
291
1
  0
VISUALSTYLE
  5
60
102
{ACAD_REACTORS
330
16
102
}
330
16
100
AcDbVisualStyle
  2
Flat
 70
0
 90
2
 40
0.6
 62
7
290
0
291
1
  0
VISUALSTYLE
  5
61
102
{ACAD_REACTORS
330
16
102
}
330
16
100
AcDbVisualStyle
  2
FlatWithEdges
 70
1
 90
2
 40
0.6
 62
7
290
0
291
1
  0
VISUALSTYLE
  5
62
102
{ACAD_REACTORS
330
16
102
}
330
16
100
AcDbVisualStyle
  2
Gouraud
 70
2
 90
2
 40
0.6
 62
7
290
0
291
1
  0
VISUALSTYLE
  5
63
102
{ACAD_REACTORS
330
16
102
}
330
16
100
AcDbVisualStyle
  2
GouraudWithEdges
 70
3
 90
2
 40
0.6
 62
7
290
0
291
1
  0
VISUALSTYLE
  5
64
102
{ACAD_REACTORS
330
16
102
}
330
16
100
AcDbVisualStyle
  2
Hidden
 70
6
 90
1
 40
0.6
 62
7
290
0
291
0
  0
VISUALSTYLE
  5
65
102
{ACAD_REACTORS
330
16
102
}
330
16
100
AcDbVisualStyle
  2
JitterOff
 70
20
 90
2
 40
0.6
 62
7
290
0
291
1
  0
VISUALSTYLE
  5
66
102
{ACAD_REACTORS
330
16
102
}
330
16
100
AcDbVisualStyle
  2
Linepattern
 70
14
 90
2
 40
0.6
 62
7
290
0
291
1
  0
VISUALSTYLE
  5
67
102
{ACAD_REACTORS
330
16
102
}
330
16
100
AcDbVisualStyle
  2
Modeling
 70
10
 90
2
 40
0.6
 62
7
290
0
291
0
  0
VISUALSTYLE
  5
68
102
{ACAD_REACTORS
330
16
102
}
330
16
100
AcDbVisualStyle
  2
OverhangOff
 70
21
 90
2
 40
0.6
 62
7
290
0
291
1
  0
VISUALSTYLE
  5
69
102
{ACAD_REACTORS
330
16
102
}
330
16
100
AcDbVisualStyle
  2
Realistic
 70
8
 90
2
 40
0.6
 62
7
290
0
291
0
  0
VISUALSTYLE
  5
6A
102
{ACAD_REACTORS
330
16
102
}
330
16
100
AcDbVisualStyle
  2
Shaded
 70
27
 90
2
 40
0.6
 62
7
290
0
291
0
  0
VISUALSTYLE
  5
6B
102
{ACAD_REACTORS
330
16
102
}
330
16
100
AcDbVisualStyle
  2
Shaded with edges
 70
26
 90
2
 40
0.6
 62
7
290
0
291
0
  0
VISUALSTYLE
  5
6C
102
{ACAD_REACTORS
330
16
102
}
330
16
100
AcDbVisualStyle
  2
Shades of Gray
 70
23
 90
2
 40
0.6
 62
7
290
0
291
0
  0
VISUALSTYLE
  5
6D
102
{ACAD_REACTORS
330
16
102
}
330
16
100
AcDbVisualStyle
  2
Sketchy
 70
24
 90
1
 40
0.6
 62
7
290
0
291
0
  0
VISUALSTYLE
  5
6E
102
{ACAD_REACTORS
330
16
102
}
330
16
100
AcDbVisualStyle
  2
Thicken
 70
13
 90
2
 40
0.6
 62
7
290
0
291
1
  0
VISUALSTYLE
  5
6F
102
{ACAD_REACTORS
330
16
102
}
330
16
100
AcDbVisualStyle
  2
Wireframe
 70
5
 90
0
 40
0.6
 62
7
290
0
291
0
  0
VISUALSTYLE
  5
70
102
{ACAD_REACTORS
330
16
102
}
330
16
100
AcDbVisualStyle
  2
X-Ray
 70
25
 90
2
 40
0.5
 62
7
290
0
291
0
  0
ENDSEC
  0
EOF
