  0
SECTION
  2
HEADER
  9
$ACADVER
  1
AC1027
  9
$ACADMAINTVER
 70
105
  9
$DWGCODEPAGE
  3
ANSI_1252
  9
$LASTSAVEDBY
  1
ezdxf
  9
$REQUIREDVERSIONS
160
0
  9
$INSBASE
 10
0.0
 20
0.0
 30
0.0
  9
$EXTMIN
 10
-100
 20
-100
 30
-100
  9
$EXTMAX
 10
100
 20
100
 30
100
  9
$LIMMIN
 10
0.0
 20
0.0
  9
$LIMMAX
 10
420.0
 20
297.0
  9
$ORTHOMODE
 70
0
  9
$REGENMODE
 70
1
  9
$FILLMODE
 70
1
  9
$QTEXTMODE
 70
0
  9
$MIRRTEXT
 70
1
  9
$LTSCALE
 40
1.0
  9
$ATTMODE
 70
1
  9
$TEXTSIZE
 40
2.5
  9
$TRACEWID
 40
1.0
  9
$TEXTSTYLE
  7
OpenSans
  9
$CLAYER
  8
0
  9
$CELTYPE
  6
ByLayer
  9
$CECOLOR
 62
256
  9
$CELTSCALE
 40
1.0
  9
$DISPSILH
 70
0
  9
$DIMSCALE
 40
1.0
  9
$DIMASZ
 40
0.175
  9
$DIMEXO
 40
0.125
  9
$DIMDLI
 40
3.75
  9
$DIMRND
 40
0.0
  9
$DIMDLE
 40
0.0
  9
$DIMEXE
 40
0.375
  9
$DIMTP
 40
0.0
  9
$DIMTM
 40
0.0
  9
$DIMTXT
 40
0.25
  9
$DIMCEN
 40
2.5
  9
$DIMTSZ
 40
0.0
  9
$DIMTOL
 70
0
  9
$DIMLIM
 70
0
  9
$DIMTIH
 70
0
  9
$DIMTOH
 70
0
  9
$DIMSE1
 70
0
  9
$DIMSE2
 70
0
  9
$DIMTAD
 70
1
  9
$DIMZIN
 70
8
  9
$DIMBLK
  1
ARCHTICK
  9
$DIMASO
 70
1
  9
$DIMSHO
 70
1
  9
$DIMPOST
  1

  9
$DIMAPOST
  1

  9
$DIMALT
 70
0
  9
$DIMALTD
 70
3
  9
$DIMALTF
 40
0.03937007874
  9
$DIMLFAC
 40
100.0
  9
$DIMTOFL
 70
1
  9
$DIMTVP
 40
0.0
  9
$DIMTIX
 70
0
  9
$DIMSOXD
 70
0
  9
$DIMSAH
 70
0
  9
$DIMBLK1
  1

  9
$DIMBLK2
  1

  9
$DIMSTYLE
  2
EZDXF
  9
$DIMCLRD
 70
0
  9
$DIMCLRE
 70
0
  9
$DIMCLRT
 70
0
  9
$DIMTFAC
 40
1.0
  9
$DIMGAP
 40
0.1
  9
$DIMJUST
 70
0
  9
$DIMSD1
 70
0
  9
$DIMSD2
 70
0
  9
$DIMTOLJ
 70
0
  9
$DIMTZIN
 70
8
  9
$DIMALTZ
 70
0
  9
$DIMALTTZ
 70
0
  9
$DIMUPT
 70
1
  9
$DIMDEC
 70
2
  9
$DIMTDEC
 70
2
  9
$DIMALTU
 70
2
  9
$DIMALTTD
 70
3
  9
$DIMTXSTY
  7
OpenSansCondensed-Light
  9
$DIMAUNIT
 70
0
  9
$DIMADEC
 70
0
  9
$DIMALTRND
 40
0.0
  9
$DIMAZIN
 70
0
  9
$DIMDSEP
 70
46
  9
$DIMATFIT
 70
3
  9
$DIMFRAC
 70
0
  9
$DIMLDRBLK
  1

  9
$DIMLUNIT
 70
2
  9
$DIMLWD
 70
-2
  9
$DIMLWE
 70
-2
  9
$DIMTMOVE
 70
2
  9
$DIMFXL
 40
1.0
  9
$DIMFXLON
 70
0
  9
$DIMJOGANG
 40
0.785398163397
  9
$DIMTFILL
 70
0
  9
$DIMTFILLCLR
 70
0
  9
$DIMARCSYM
 70
0
  9
$DIMLTYPE
  6

  9
$DIMLTEX1
  6

  9
$DIMLTEX2
  6

  9
$DIMTXTDIRECTION
 70
0
  9
$LUNITS
 70
2
  9
$LUPREC
 70
4
  9
$SKETCHINC
 40
1.0
  9
$FILLETRAD
 40
10.0
  9
$AUNITS
 70
0
  9
$AUPREC
 70
2
  9
$MENU
  1
.
  9
$ELEVATION
 40
0.0
  9
$PELEVATION
 40
0.0
  9
$THICKNESS
 40
0.0
  9
$LIMCHECK
 70
0
  9
$CHAMFERA
 40
0.0
  9
$CHAMFERB
 40
0.0
  9
$CHAMFERC
 40
0.0
  9
$CHAMFERD
 40
0.0
  9
$SKPOLY
 70
0
  9
$TDCREATE
 40
2459313.7053356483
  9
$TDUCREATE
 40
2458532.153996898
  9
$TDUPDATE
 40
2459313.7053356483
  9
$TDUUPDATE
 40
2458532.1544311
  9
$TDINDWG
 40
0.0
  9
$TDUSRTIMER
 40
0.0
  9
$USRTIMER
 70
1
  9
$ANGBASE
 50
0.0
  9
$ANGDIR
 70
0
  9
$PDMODE
 70
0
  9
$PDSIZE
 40
0.0
  9
$PLINEWID
 40
0.0
  9
$SPLFRAME
 70
0
  9
$SPLINETYPE
 70
6
  9
$SPLINESEGS
 70
8
  9
$HANDSEED
  5
1F3
  9
$SURFTAB1
 70
6
  9
$SURFTAB2
 70
6
  9
$SURFTYPE
 70
6
  9
$SURFU
 70
6
  9
$SURFV
 70
6
  9
$UCSBASE
  2

  9
$UCSNAME
  2

  9
$UCSORG
 10
0.0
 20
0.0
 30
0.0
  9
$UCSXDIR
 10
1.0
 20
0.0
 30
0.0
  9
$UCSYDIR
 10
0.0
 20
1.0
 30
0.0
  9
$UCSORTHOREF
  2

  9
$UCSORTHOVIEW
 70
0
  9
$UCSORGTOP
 10
0.0
 20
0.0
 30
0.0
  9
$UCSORGBOTTOM
 10
0.0
 20
0.0
 30
0.0
  9
$UCSORGLEFT
 10
0.0
 20
0.0
 30
0.0
  9
$UCSORGRIGHT
 10
0.0
 20
0.0
 30
0.0
  9
$UCSORGFRONT
 10
0.0
 20
0.0
 30
0.0
  9
$UCSORGBACK
 10
0.0
 20
0.0
 30
0.0
  9
$PUCSBASE
  2

  9
$PUCSNAME
  2

  9
$PUCSORG
 10
0.0
 20
0.0
 30
0.0
  9
$PUCSXDIR
 10
1.0
 20
0.0
 30
0.0
  9
$PUCSYDIR
 10
0.0
 20
1.0
 30
0.0
  9
$PUCSORTHOREF
  2

  9
$PUCSORTHOVIEW
 70
0
  9
$PUCSORGTOP
 10
0.0
 20
0.0
 30
0.0
  9
$PUCSORGBOTTOM
 10
0.0
 20
0.0
 30
0.0
  9
$PUCSORGLEFT
 10
0.0
 20
0.0
 30
0.0
  9
$PUCSORGRIGHT
 10
0.0
 20
0.0
 30
0.0
  9
$PUCSORGFRONT
 10
0.0
 20
0.0
 30
0.0
  9
$PUCSORGBACK
 10
0.0
 20
0.0
 30
0.0
  9
$USERI1
 70
0
  9
$USERI2
 70
0
  9
$USERI3
 70
0
  9
$USERI4
 70
0
  9
$USERI5
 70
0
  9
$USERR1
 40
0.0
  9
$USERR2
 40
0.0
  9
$USERR3
 40
0.0
  9
$USERR4
 40
0.0
  9
$USERR5
 40
0.0
  9
$WORLDVIEW
 70
1
  9
$SHADEDGE
 70
3
  9
$SHADEDIF
 70
70
  9
$TILEMODE
 70
1
  9
$MAXACTVP
 70
64
  9
$PINSBASE
 10
0.0
 20
0.0
 30
0.0
  9
$PLIMCHECK
 70
0
  9
$PEXTMIN
 10
1e+20
 20
1e+20
 30
1e+20
  9
$PEXTMAX
 10
-1e+20
 20
-1e+20
 30
-1e+20
  9
$PLIMMIN
 10
0.0
 20
0.0
  9
$PLIMMAX
 10
420.0
 20
297.0
  9
$UNITMODE
 70
0
  9
$VISRETAIN
 70
1
  9
$PLINEGEN
 70
0
  9
$PSLTSCALE
 70
1
  9
$TREEDEPTH
 70
3020
  9
$CMLSTYLE
  2
Standard
  9
$CMLJUST
 70
0
  9
$CMLSCALE
 40
20.0
  9
$PROXYGRAPHICS
 70
1
  9
$MEASUREMENT
 70
1
  9
$CELWEIGHT
370
-1
  9
$ENDCAPS
280
0
  9
$JOINSTYLE
280
0
  9
$LWDISPLAY
290
0
  9
$INSUNITS
 70
6
  9
$HYPERLINKBASE
  1

  9
$STYLESHEET
  1

  9
$XEDIT
290
1
  9
$CEPSNTYPE
380
0
  9
$PSTYLEMODE
290
1
  9
$FINGERPRINTGUID
  2
291B970C-98B5-11EB-9466-98FA9B02E1F3
  9
$VERSIONGUID
  2
29778C10-98B5-11EB-9466-98FA9B02E1F3
  9
$EXTNAMES
290
1
  9
$PSVPSCALE
 40
0.0
  9
$OLESTARTUP
290
0
  9
$SORTENTS
280
127
  9
$INDEXCTL
280
0
  9
$HIDETEXT
280
1
  9
$XCLIPFRAME
280
2
  9
$HALOGAP
280
0
  9
$OBSCOLOR
 70
257
  9
$OBSLTYPE
280
0
  9
$INTERSECTIONDISPLAY
280
0
  9
$INTERSECTIONCOLOR
 70
257
  9
$DIMASSOC
280
2
  9
$PROJECTNAME
  1

  9
$CAMERADISPLAY
290
0
  9
$LENSLENGTH
 40
50.0
  9
$CAMERAHEIGHT
 40
0.0
  9
$STEPSPERSEC
 40
24.0
  9
$STEPSIZE
 40
100.0
  9
$3DDWFPREC
 40
2.0
  9
$PSOLWIDTH
 40
0.005
  9
$PSOLHEIGHT
 40
0.08
  9
$LOFTANG1
 40
1.570796326795
  9
$LOFTANG2
 40
1.570796326795
  9
$LOFTMAG1
 40
0.0
  9
$LOFTMAG2
 40
0.0
  9
$LOFTPARAM
 70
7
  9
$LOFTNORMALS
280
1
  9
$LATITUDE
 40
37.795
  9
$LONGITUDE
 40
-122.394
  9
$NORTHDIRECTION
 40
0.0
  9
$TIMEZONE
 70
-8000
  9
$LIGHTGLYPHDISPLAY
280
1
  9
$TILEMODELIGHTSYNCH
280
1
  9
$CMATERIAL
347
20
  9
$SOLIDHIST
280
0
  9
$SHOWHIST
280
1
  9
$DWFFRAME
280
2
  9
$DGNFRAME
280
2
  9
$REALWORLDSCALE
290
1
  9
$INTERFERECOLOR
 62
256
  9
$CSHADOW
280
0
  9
$SHADOWPLANELOCATION
 40
0.0
  0
ENDSEC
  0
SECTION
  2
CLASSES
  0
CLASS
  1
ACDBDICTIONARYWDFLT
  2
AcDbDictionaryWithDefault
  3
ObjectDBX Classes
 90
0
 91
0
280
0
281
0
  0
CLASS
  1
SUN
  2
AcDbSun
  3
SCENEOE
 90
1153
 91
0
280
0
281
0
  0
CLASS
  1
VISUALSTYLE
  2
AcDbVisualStyle
  3
ObjectDBX Classes
 90
4095
 91
0
280
0
281
0
  0
CLASS
  1
MATERIAL
  2
AcDbMaterial
  3
ObjectDBX Classes
 90
1153
 91
0
280
0
281
0
  0
CLASS
  1
SCALE
  2
AcDbScale
  3
ObjectDBX Classes
 90
1153
 91
0
280
0
281
0
  0
CLASS
  1
TABLESTYLE
  2
AcDbTableStyle
  3
ObjectDBX Classes
 90
4095
 91
0
280
0
281
0
  0
CLASS
  1
MLEADERSTYLE
  2
AcDbMLeaderStyle
  3
ACDB_MLEADERSTYLE_CLASS
 90
4095
 91
0
280
0
281
0
  0
CLASS
  1
DICTIONARYVAR
  2
AcDbDictionaryVar
  3
ObjectDBX Classes
 90
0
 91
0
280
0
281
0
  0
CLASS
  1
CELLSTYLEMAP
  2
AcDbCellStyleMap
  3
ObjectDBX Classes
 90
1152
 91
0
280
0
281
0
  0
CLASS
  1
MENTALRAYRENDERSETTINGS
  2
AcDbMentalRayRenderSettings
  3
SCENEOE
 90
1024
 91
0
280
0
281
0
  0
CLASS
  1
ACDBDETAILVIEWSTYLE
  2
AcDbDetailViewStyle
  3
ObjectDBX Classes
 90
1025
 91
0
280
0
281
0
  0
CLASS
  1
ACDBSECTIONVIEWSTYLE
  2
AcDbSectionViewStyle
  3
ObjectDBX Classes
 90
1025
 91
0
280
0
281
0
  0
CLASS
  1
RASTERVARIABLES
  2
AcDbRasterVariables
  3
ISM
 90
0
 91
0
280
0
281
0
  0
CLASS
  1
ACDBPLACEHOLDER
  2
AcDbPlaceHolder
  3
ObjectDBX Classes
 90
0
 91
0
280
0
281
0
  0
CLASS
  1
LAYOUT
  2
AcDbLayout
  3
ObjectDBX Classes
 90
0
 91
0
280
0
281
0
  0
ENDSEC
  0
SECTION
  2
TABLES
  0
TABLE
  2
VPORT
  5
8
330
0
100
AcDbSymbolTable
 70
1
  0
VPORT
  5
23
330
8
100
AcDbSymbolTableRecord
100
AcDbViewportTableRecord
  2
*Active
 70
0
 10
0.0
 20
0.0
 11
1.0
 21
1.0
 12
70.0
 22
50.0
 13
0.0
 23
0.0
 14
0.5
 24
0.5
 15
0.5
 25
0.5
 16
0.0
 26
0.0
 36
1.0
 17
0.0
 27
0.0
 37
0.0
 40
1.0
 41
1.34
 42
50.0
 43
0.0
 44
0.0
 50
0.0
 51
0.0
 71
0
 72
1000
 73
1
 74
3
 75
0
 76
0
 77
0
 78
0
281
0
 65
0
146
0.0
  0
ENDTAB
  0
TABLE
  2
LTYPE
  5
2
330
0
100
AcDbSymbolTable
 70
21
  0
LTYPE
  5
24
330
2
100
AcDbSymbolTableRecord
100
AcDbLinetypeTableRecord
  2
ByBlock
 70
0
  3

 72
65
 73
0
 40
0.0
  0
LTYPE
  5
25
330
2
100
AcDbSymbolTableRecord
100
AcDbLinetypeTableRecord
  2
ByLayer
 70
0
  3

 72
65
 73
0
 40
0.0
  0
LTYPE
  5
26
330
2
100
AcDbSymbolTableRecord
100
AcDbLinetypeTableRecord
  2
Continuous
 70
0
  3

 72
65
 73
0
 40
0.0
  0
LTYPE
  5
2D
330
2
100
AcDbSymbolTableRecord
100
AcDbLinetypeTableRecord
  2
CENTER
 70
0
  3
Center ____ _ ____ _ ____ _ ____ _ ____ _ ____
 72
65
 73
4
 40
5.08
 49
3.175
 74
0
 49
-0.635
 74
0
 49
0.635
 74
0
 49
-0.635
 74
0
  0
LTYPE
  5
2E
330
2
100
AcDbSymbolTableRecord
100
AcDbLinetypeTableRecord
  2
CENTERX2
 70
0
  3
Center (2x) ________  __  ________  __  ________
 72
65
 73
4
 40
8.89
 49
6.35
 74
0
 49
-0.635
 74
0
 49
1.27
 74
0
 49
-0.635
 74
0
  0
LTYPE
  5
2F
330
2
100
AcDbSymbolTableRecord
100
AcDbLinetypeTableRecord
  2
CENTER2
 70
0
  3
Center (.5x) ____ _ ____ _ ____ _ ____ _ ____
 72
65
 73
4
 40
2.54
 49
1.587
 74
0
 49
-0.318
 74
0
 49
0.318
 74
0
 49
-0.318
 74
0
  0
LTYPE
  5
30
330
2
100
AcDbSymbolTableRecord
100
AcDbLinetypeTableRecord
  2
DASHED
 70
0
  3
Dashed __ __ __ __ __ __ __ __ __ __ __ __ __ _
 72
65
 73
2
 40
1.524
 49
1.27
 74
0
 49
-0.254
 74
0
  0
LTYPE
  5
31
330
2
100
AcDbSymbolTableRecord
100
AcDbLinetypeTableRecord
  2
DASHEDX2
 70
0
  3
Dashed (2x) ____  ____  ____  ____  ____  ____
 72
65
 73
2
 40
3.048
 49
2.54
 74
0
 49
-0.508
 74
0
  0
LTYPE
  5
32
330
2
100
AcDbSymbolTableRecord
100
AcDbLinetypeTableRecord
  2
DASHED2
 70
0
  3
Dashed (.5x) _ _ _ _ _ _ _ _ _ _ _ _ _ _
 72
65
 73
2
 40
0.762
 49
0.635
 74
0
 49
-0.127
 74
0
  0
LTYPE
  5
33
330
2
100
AcDbSymbolTableRecord
100
AcDbLinetypeTableRecord
  2
PHANTOM
 70
0
  3
Phantom ______  __  __  ______  __  __  ______
 72
65
 73
6
 40
6.35
 49
3.175
 74
0
 49
-0.635
 74
0
 49
0.635
 74
0
 49
-0.635
 74
0
 49
0.635
 74
0
 49
-0.635
 74
0
  0
LTYPE
  5
34
330
2
100
AcDbSymbolTableRecord
100
AcDbLinetypeTableRecord
  2
PHANTOMX2
 70
0
  3
Phantom (2x)____________    ____    ____    ____________
 72
65
 73
6
 40
10.795
 49
6.35
 74
0
 49
-0.635
 74
0
 49
1.27
 74
0
 49
-0.635
 74
0
 49
1.27
 74
0
 49
-0.635
 74
0
  0
LTYPE
  5
35
330
2
100
AcDbSymbolTableRecord
100
AcDbLinetypeTableRecord
  2
PHANTOM2
 70
0
  3
Phantom (.5x) ___ _ _ ___ _ _ ___ _ _ ___ _ _ ___
 72
65
 73
6
 40
3.175
 49
1.587
 74
0
 49
-0.318
 74
0
 49
0.318
 74
0
 49
-0.318
 74
0
 49
0.318
 74
0
 49
-0.318
 74
0
  0
LTYPE
  5
36
330
2
100
AcDbSymbolTableRecord
100
AcDbLinetypeTableRecord
  2
DASHDOT
 70
0
  3
Dash dot __ . __ . __ . __ . __ . __ . __ . __
 72
65
 73
4
 40
3.556
 49
2.54
 74
0
 49
-0.508
 74
0
 49
0.0
 74
0
 49
-0.508
 74
0
  0
LTYPE
  5
37
330
2
100
AcDbSymbolTableRecord
100
AcDbLinetypeTableRecord
  2
DASHDOTX2
 70
0
  3
Dash dot (2x) ____  .  ____  .  ____  .  ____
 72
65
 73
4
 40
6.096
 49
5.08
 74
0
 49
-0.508
 74
0
 49
0.0
 74
0
 49
-0.508
 74
0
  0
LTYPE
  5
38
330
2
100
AcDbSymbolTableRecord
100
AcDbLinetypeTableRecord
  2
DASHDOT2
 70
0
  3
Dash dot (.5x) _ . _ . _ . _ . _ . _ . _ . _
 72
65
 73
4
 40
1.778
 49
1.27
 74
0
 49
-0.254
 74
0
 49
0.0
 74
0
 49
-0.254
 74
0
  0
LTYPE
  5
39
330
2
100
AcDbSymbolTableRecord
100
AcDbLinetypeTableRecord
  2
DOT
 70
0
  3
Dot .  .  .  .  .  .  .  .  .  .  .  .  .  .  .  .
 72
65
 73
2
 40
0.508
 49
0.0
 74
0
 49
-0.508
 74
0
  0
LTYPE
  5
3A
330
2
100
AcDbSymbolTableRecord
100
AcDbLinetypeTableRecord
  2
DOTX2
 70
0
  3
Dot (2x) .    .    .    .    .    .    .    . 
 72
65
 73
2
 40
1.016
 49
0.0
 74
0
 49
-1.016
 74
0
  0
LTYPE
  5
3B
330
2
100
AcDbSymbolTableRecord
100
AcDbLinetypeTableRecord
  2
DOT2
 70
0
  3
Dot (.5) . . . . . . . . . . . . . . . . . . . 
 72
65
 73
2
 40
0.254
 49
0.0
 74
0
 49
-0.254
 74
0
  0
LTYPE
  5
3C
330
2
100
AcDbSymbolTableRecord
100
AcDbLinetypeTableRecord
  2
DIVIDE
 70
0
  3
Divide __ . . __ . . __ . . __ . . __ . . __
 72
65
 73
6
 40
4.064
 49
2.54
 74
0
 49
-0.508
 74
0
 49
0.0
 74
0
 49
-0.508
 74
0
 49
0.0
 74
0
 49
-0.508
 74
0
  0
LTYPE
  5
3D
330
2
100
AcDbSymbolTableRecord
100
AcDbLinetypeTableRecord
  2
DIVIDEX2
 70
0
  3
Divide (2x) ____  . .  ____  . .  ____  . .  ____
 72
65
 73
6
 40
6.604
 49
5.08
 74
0
 49
-0.508
 74
0
 49
0.0
 74
0
 49
-0.508
 74
0
 49
0.0
 74
0
 49
-0.508
 74
0
  0
LTYPE
  5
3E
330
2
100
AcDbSymbolTableRecord
100
AcDbLinetypeTableRecord
  2
DIVIDE2
 70
0
  3
Divide(.5x) _ . _ . _ . _ . _ . _ . _ . _
 72
65
 73
6
 40
2.032
 49
1.27
 74
0
 49
-0.254
 74
0
 49
0.0
 74
0
 49
-0.254
 74
0
 49
0.0
 74
0
 49
-0.254
 74
0
  0
ENDTAB
  0
TABLE
  2
LAYER
  5
1
330
0
100
AcDbSymbolTable
 70
5
  0
LAYER
  5
27
330
1
100
AcDbSymbolTableRecord
100
AcDbLayerTableRecord
  2
0
 70
0
 62
7
  6
Continuous
370
-3
390
13
347
21
  0
LAYER
  5
28
330
1
100
AcDbSymbolTableRecord
100
AcDbLayerTableRecord
  2
Defpoints
 70
0
 62
7
  6
Continuous
290
0
370
-3
390
13
347
21
  0
LAYER
  5
87
330
1
100
AcDbSymbolTableRecord
100
AcDbLayerTableRecord
  2
Inner
 70
0
 62
2
  6
CONTINUOUS
370
-3
390
13
347
21
  0
LAYER
  5
88
330
1
100
AcDbSymbolTableRecord
100
AcDbLayerTableRecord
  2
Outer
 70
0
 62
1
  6
CONTINUOUS
370
-3
390
13
347
21
  0
LAYER
  5
89
330
1
100
AcDbSymbolTableRecord
100
AcDbLayerTableRecord
  2
Fill
 70
0
 62
3
  6
CONTINUOUS
370
-3
390
13
347
21
  0
ENDTAB
  0
TABLE
  2
STYLE
  5
5
330
0
100
AcDbSymbolTable
 70
26
  0
STYLE
  5
29
330
5
100
AcDbSymbolTableRecord
100
AcDbTextStyleTableRecord
  2
Standard
 70
0
 40
0.0
 41
1.0
 50
0.0
 71
0
 42
2.5
  3
txt
  4

  0
STYLE
  5
3F
330
5
100
AcDbSymbolTableRecord
100
AcDbTextStyleTableRecord
  2
OpenSans-Light
 70
0
 40
0.0
 41
1.0
 50
0.0
 71
0
 42
2.5
  3
OpenSans-Light.ttf
  4

  0
STYLE
  5
40
330
5
100
AcDbSymbolTableRecord
100
AcDbTextStyleTableRecord
  2
OpenSans-Light-Italic
 70
0
 40
0.0
 41
1.0
 50
0.0
 71
0
 42
2.5
  3
OpenSans-LightItalic.ttf
  4

  0
STYLE
  5
41
330
5
100
AcDbSymbolTableRecord
100
AcDbTextStyleTableRecord
  2
OpenSans
 70
0
 40
0.0
 41
1.0
 50
0.0
 71
0
 42
2.5
  3
OpenSans-Regular.ttf
  4

  0
STYLE
  5
42
330
5
100
AcDbSymbolTableRecord
100
AcDbTextStyleTableRecord
  2
OpenSans-Italic
 70
0
 40
0.0
 41
1.0
 50
0.0
 71
0
 42
2.5
  3
OpenSans-Italic.ttf
  4

  0
STYLE
  5
43
330
5
100
AcDbSymbolTableRecord
100
AcDbTextStyleTableRecord
  2
OpenSans-SemiBold
 70
0
 40
0.0
 41
1.0
 50
0.0
 71
0
 42
2.5
  3
OpenSans-SemiBold.ttf
  4

  0
STYLE
  5
44
330
5
100
AcDbSymbolTableRecord
100
AcDbTextStyleTableRecord
  2
OpenSans-SemiBoldItalic
 70
0
 40
0.0
 41
1.0
 50
0.0
 71
0
 42
2.5
  3
OpenSans-SemiBoldItalic.ttf
  4

  0
STYLE
  5
45
330
5
100
AcDbSymbolTableRecord
100
AcDbTextStyleTableRecord
  2
OpenSans-Bold
 70
0
 40
0.0
 41
1.0
 50
0.0
 71
0
 42
2.5
  3
OpenSans-Bold.ttf
  4

  0
STYLE
  5
46
330
5
100
AcDbSymbolTableRecord
100
AcDbTextStyleTableRecord
  2
OpenSans-BoldItalic
 70
0
 40
0.0
 41
1.0
 50
0.0
 71
0
 42
2.5
  3
OpenSans-BoldItalic.ttf
  4

  0
STYLE
  5
47
330
5
100
AcDbSymbolTableRecord
100
AcDbTextStyleTableRecord
  2
OpenSans-ExtraBold
 70
0
 40
0.0
 41
1.0
 50
0.0
 71
0
 42
2.5
  3
OpenSans-ExtraBold.ttf
  4

  0
STYLE
  5
48
330
5
100
AcDbSymbolTableRecord
100
AcDbTextStyleTableRecord
  2
OpenSans-ExtraBoldItalic
 70
0
 40
0.0
 41
1.0
 50
0.0
 71
0
 42
2.5
  3
OpenSans-ExtraBoldItalic.ttf
  4

  0
STYLE
  5
49
330
5
100
AcDbSymbolTableRecord
100
AcDbTextStyleTableRecord
  2
OpenSansCondensed-Bold
 70
0
 40
0.0
 41
1.0
 50
0.0
 71
0
 42
2.5
  3
OpenSansCondensed-Bold.ttf
  4

  0
STYLE
  5
4A
330
5
100
AcDbSymbolTableRecord
100
AcDbTextStyleTableRecord
  2
OpenSansCondensed-Light
 70
0
 40
0.0
 41
1.0
 50
0.0
 71
0
 42
2.5
  3
OpenSansCondensed-Light.ttf
  4

  0
STYLE
  5
4B
330
5
100
AcDbSymbolTableRecord
100
AcDbTextStyleTableRecord
  2
OpenSansCondensed-Italic
 70
0
 40
0.0
 41
1.0
 50
0.0
 71
0
 42
2.5
  3
OpenSansCondensed-LightItalic.ttf
  4

  0
STYLE
  5
4C
330
5
100
AcDbSymbolTableRecord
100
AcDbTextStyleTableRecord
  2
LiberationSans
 70
0
 40
0.0
 41
1.0
 50
0.0
 71
0
 42
2.5
  3
LiberationSans-Regular.ttf
  4

  0
STYLE
  5
4D
330
5
100
AcDbSymbolTableRecord
100
AcDbTextStyleTableRecord
  2
LiberationSans-Bold
 70
0
 40
0.0
 41
1.0
 50
0.0
 71
0
 42
2.5
  3
LiberationSans-Bold.ttf
  4

  0
STYLE
  5
4E
330
5
100
AcDbSymbolTableRecord
100
AcDbTextStyleTableRecord
  2
LiberationSans-BoldItalic
 70
0
 40
0.0
 41
1.0
 50
0.0
 71
0
 42
2.5
  3
LiberationSans-BoldItalic.ttf
  4

  0
STYLE
  5
4F
330
5
100
AcDbSymbolTableRecord
100
AcDbTextStyleTableRecord
  2
LiberationSans-Italic
 70
0
 40
0.0
 41
1.0
 50
0.0
 71
0
 42
2.5
  3
LiberationSans-Italic.ttf
  4

  0
STYLE
  5
50
330
5
100
AcDbSymbolTableRecord
100
AcDbTextStyleTableRecord
  2
LiberationSerif
 70
0
 40
0.0
 41
1.0
 50
0.0
 71
0
 42
2.5
  3
LiberationSerif-Regular.ttf
  4

  0
STYLE
  5
51
330
5
100
AcDbSymbolTableRecord
100
AcDbTextStyleTableRecord
  2
LiberationSerif-Bold
 70
0
 40
0.0
 41
1.0
 50
0.0
 71
0
 42
2.5
  3
LiberationSerif-Bold.ttf
  4

  0
STYLE
  5
52
330
5
100
AcDbSymbolTableRecord
100
AcDbTextStyleTableRecord
  2
LiberationSerif-BoldItalic
 70
0
 40
0.0
 41
1.0
 50
0.0
 71
0
 42
2.5
  3
LiberationSerif-BoldItalic.ttf
  4

  0
STYLE
  5
53
330
5
100
AcDbSymbolTableRecord
100
AcDbTextStyleTableRecord
  2
LiberationSerif-Italic
 70
0
 40
0.0
 41
1.0
 50
0.0
 71
0
 42
2.5
  3
LiberationSerif-Italic.ttf
  4

  0
STYLE
  5
54
330
5
100
AcDbSymbolTableRecord
100
AcDbTextStyleTableRecord
  2
LiberationMono
 70
0
 40
0.0
 41
1.0
 50
0.0
 71
0
 42
2.5
  3
LiberationMono-Regular.ttf
  4

  0
STYLE
  5
55
330
5
100
AcDbSymbolTableRecord
100
AcDbTextStyleTableRecord
  2
LiberationMono-Bold
 70
0
 40
0.0
 41
1.0
 50
0.0
 71
0
 42
2.5
  3
LiberationMono-Bold.ttf
  4

  0
STYLE
  5
56
330
5
100
AcDbSymbolTableRecord
100
AcDbTextStyleTableRecord
  2
LiberationMono-BoldItalic
 70
0
 40
0.0
 41
1.0
 50
0.0
 71
0
 42
2.5
  3
LiberationMono-BoldItalic.ttf
  4

  0
STYLE
  5
57
330
5
100
AcDbSymbolTableRecord
100
AcDbTextStyleTableRecord
  2
LiberationMono-Italic
 70
0
 40
0.0
 41
1.0
 50
0.0
 71
0
 42
2.5
  3
LiberationMono-Italic.ttf
  4

  0
ENDTAB
  0
TABLE
  2
VIEW
  5
7
330
0
100
AcDbSymbolTable
 70
0
  0
ENDTAB
  0
TABLE
  2
UCS
  5
6
330
0
100
AcDbSymbolTable
 70
0
  0
ENDTAB
  0
TABLE
  2
APPID
  5
3
330
0
100
AcDbSymbolTable
 70
2
  0
APPID
  5
2A
330
3
100
AcDbSymbolTableRecord
100
AcDbRegAppTableRecord
  2
ACAD
 70
0
  0
APPID
  5
1F2
330
3
100
AcDbSymbolTableRecord
100
AcDbRegAppTableRecord
  2
HATCHBACKGROUNDCOLOR
 70
0
  0
ENDTAB
  0
TABLE
  2
DIMSTYLE
  5
4
330
0
100
AcDbSymbolTable
 70
11
100
AcDbDimStyleTable
  0
DIMSTYLE
105
2B
330
4
100
AcDbSymbolTableRecord
100
AcDbDimStyleTableRecord
  2
Standard
 70
0
 40
1.0
 41
2.5
 42
0.625
 43
3.75
 44
1.25
 45
0.0
 46
0.0
 47
0.0
 48
0.0
 49
2.5
140
2.5
141
2.5
142
0.0
143
0.03937007874
144
1.0
145
0.0
146
1.0
147
0.625
148
0.0
 69
0
 70
0
 71
0
 72
0
 73
0
 74
0
 75
0
 76
0
 77
1
 78
8
 79
0
170
0
171
3
172
1
173
0
174
0
175
0
176
0
177
0
178
0
179
0
271
0
272
2
273
2
274
3
275
0
276
0
277
2
278
44
279
0
280
0
281
0
282
0
283
0
284
8
285
0
286
0
288
0
289
3
290
0
371
-2
372
-2
  0
DIMSTYLE
105
71
330
4
100
AcDbSymbolTableRecord
100
AcDbDimStyleTableRecord
  2
EZDXF
 70
0
 40
1.0
 41
0.175
 42
0.125
 43
3.75
 44
0.375
 45
0.0
 46
0.0
 47
0.0
 48
0.0
 49
2.5
140
0.25
141
2.5
142
0.0
143
0.03937007874
144
100.0
145
0.0
146
1.0
147
0.1
148
0.0
 69
0
 70
0
 71
0
 72
0
 73
0
 74
0
 75
0
 76
0
 77
1
 78
8
 79
0
170
0
171
3
172
1
173
0
174
0
175
0
176
0
177
0
178
0
179
0
271
2
272
2
273
2
274
3
275
0
276
0
277
2
278
46
279
2
280
0
281
0
282
0
283
0
284
8
285
0
286
0
288
1
289
3
290
0
340
4A
342
72
371
-2
372
-2
  0
DIMSTYLE
105
7A
330
4
100
AcDbSymbolTableRecord
100
AcDbDimStyleTableRecord
  2
EZ_M_100_H25_CM
 70
0
 40
1.0
 41
0.25
 42
0.125
 43
3.75
 44
0.375
 45
0.0
 46
0.0
 47
0.0
 48
0.0
 49
2.5
140
0.25
141
2.5
142
0.125
143
0.03937007874
144
100.0
145
0.0
146
1.0
147
0.1
148
0.0
 69
0
 70
0
 71
0
 72
0
 73
0
 74
0
 75
0
 76
0
 77
1
 78
8
 79
0
170
0
171
3
172
1
173
0
174
0
175
0
176
0
177
0
178
0
179
0
271
2
272
2
273
2
274
3
275
0
276
0
277
2
278
46
279
2
280
0
281
0
282
0
283
0
284
8
285
0
286
0
288
1
289
3
290
0
340
4A
371
-2
372
-2
  0
DIMSTYLE
105
7B
330
4
100
AcDbSymbolTableRecord
100
AcDbDimStyleTableRecord
  2
EZ_M_50_H25_CM
 70
0
 40
1.0
 41
0.125
 42
0.0625
 43
3.75
 44
0.1875
 45
0.0
 46
0.0
 47
0.0
 48
0.0
 49
2.5
140
0.125
141
2.5
142
0.0625
143
0.03937007874
144
100.0
145
0.0
146
1.0
147
0.05
148
0.0
 69
0
 70
0
 71
0
 72
0
 73
0
 74
0
 75
0
 76
0
 77
1
 78
8
 79
0
170
0
171
3
172
1
173
0
174
0
175
0
176
0
177
0
178
0
179
0
271
2
272
2
273
2
274
3
275
0
276
0
277
2
278
46
279
2
280
0
281
0
282
0
283
0
284
8
285
0
286
0
288
1
289
3
290
0
340
4A
371
-2
372
-2
  0
DIMSTYLE
105
7C
330
4
100
AcDbSymbolTableRecord
100
AcDbDimStyleTableRecord
  2
EZ_M_25_H25_CM
 70
0
 40
1.0
 41
0.0625
 42
0.03125
 43
3.75
 44
0.09375
 45
0.0
 46
0.0
 47
0.0
 48
0.0
 49
2.5
140
0.0625
141
2.5
142
0.03125
143
0.03937007874
144
100.0
145
0.0
146
1.0
147
0.025
148
0.0
 69
0
 70
0
 71
0
 72
0
 73
0
 74
0
 75
0
 76
0
 77
1
 78
8
 79
0
170
0
171
3
172
1
173
0
174
0
175
0
176
0
177
0
178
0
179
0
271
2
272
2
273
2
274
3
275
0
276
0
277
2
278
46
279
2
280
0
281
0
282
0
283
0
284
8
285
0
286
0
288
1
289
3
290
0
340
4A
371
-2
372
-2
  0
DIMSTYLE
105
7D
330
4
100
AcDbSymbolTableRecord
100
AcDbDimStyleTableRecord
  2
EZ_M_20_H25_CM
 70
0
 40
1.0
 41
0.05
 42
0.025
 43
3.75
 44
0.07500000000000001
 45
0.0
 46
0.0
 47
0.0
 48
0.0
 49
2.5
140
0.05
141
2.5
142
0.025
143
0.03937007874
144
100.0
145
0.0
146
1.0
147
0.020000000000000004
148
0.0
 69
0
 70
0
 71
0
 72
0
 73
0
 74
0
 75
0
 76
0
 77
1
 78
8
 79
0
170
0
171
3
172
1
173
0
174
0
175
0
176
0
177
0
178
0
179
0
271
2
272
2
273
2
274
3
275
0
276
0
277
2
278
46
279
2
280
0
281
0
282
0
283
0
284
8
285
0
286
0
288
1
289
3
290
0
340
4A
371
-2
372
-2
  0
DIMSTYLE
105
7E
330
4
100
AcDbSymbolTableRecord
100
AcDbDimStyleTableRecord
  2
EZ_M_10_H25_CM
 70
0
 40
1.0
 41
0.025
 42
0.0125
 43
3.75
 44
0.037500000000000006
 45
0.0
 46
0.0
 47
0.0
 48
0.0
 49
2.5
140
0.025
141
2.5
142
0.0125
143
0.03937007874
144
100.0
145
0.0
146
1.0
147
0.010000000000000002
148
0.0
 69
0
 70
0
 71
0
 72
0
 73
0
 74
0
 75
0
 76
0
 77
1
 78
8
 79
0
170
0
171
3
172
1
173
0
174
0
175
0
176
0
177
0
178
0
179
0
271
2
272
2
273
2
274
3
275
0
276
0
277
2
278
46
279
2
280
0
281
0
282
0
283
0
284
8
285
0
286
0
288
1
289
3
290
0
340
4A
371
-2
372
-2
  0
DIMSTYLE
105
7F
330
4
100
AcDbSymbolTableRecord
100
AcDbDimStyleTableRecord
  2
EZ_M_5_H25_CM
 70
0
 40
1.0
 41
0.0125
 42
0.00625
 43
3.75
 44
0.018750000000000003
 45
0.0
 46
0.0
 47
0.0
 48
0.0
 49
2.5
140
0.0125
141
2.5
142
0.00625
143
0.03937007874
144
100.0
145
0.0
146
1.0
147
0.005000000000000001
148
0.0
 69
0
 70
0
 71
0
 72
0
 73
0
 74
0
 75
0
 76
0
 77
1
 78
8
 79
0
170
0
171
3
172
1
173
0
174
0
175
0
176
0
177
0
178
0
179
0
271
2
272
2
273
2
274
3
275
0
276
0
277
2
278
46
279
2
280
0
281
0
282
0
283
0
284
8
285
0
286
0
288
1
289
3
290
0
340
4A
371
-2
372
-2
  0
DIMSTYLE
105
80
330
4
100
AcDbSymbolTableRecord
100
AcDbDimStyleTableRecord
  2
EZ_M_1_H25_CM
 70
0
 40
1.0
 41
0.0025
 42
0.00125
 43
3.75
 44
0.00375
 45
0.0
 46
0.0
 47
0.0
 48
0.0
 49
2.5
140
0.0025
141
2.5
142
0.00125
143
0.03937007874
144
100.0
145
0.0
146
1.0
147
0.001
148
0.0
 69
0
 70
0
 71
0
 72
0
 73
0
 74
0
 75
0
 76
0
 77
1
 78
8
 79
0
170
0
171
3
172
1
173
0
174
0
175
0
176
0
177
0
178
0
179
0
271
2
272
2
273
2
274
3
275
0
276
0
277
2
278
46
279
2
280
0
281
0
282
0
283
0
284
8
285
0
286
0
288
1
289
3
290
0
340
4A
371
-2
372
-2
  0
DIMSTYLE
105
81
330
4
100
AcDbSymbolTableRecord
100
AcDbDimStyleTableRecord
  2
EZ_RADIUS
 70
0
 40
1.0
 41
0.25
 42
0.125
 43
3.75
 44
0.375
 45
0.0
 46
0.0
 47
0.0
 48
0.0
 49
2.5
140
0.25
141
0.0
142
0.0
143
0.03937007874
144
100.0
145
0.0
146
1.0
147
0.1
148
0.0
 69
0
 70
0
 71
0
 72
0
 73
0
 74
0
 75
0
 76
0
 77
1
 78
8
 79
0
170
0
171
3
172
0
173
0
174
0
175
0
176
0
177
0
178
0
179
0
271
2
272
2
273
2
274
3
275
0
276
0
277
2
278
46
279
1
280
0
281
0
282
0
283
0
284
8
285
0
286
0
288
1
289
3
290
0
340
4A
342
82
371
-2
372
-2
  0
DIMSTYLE
105
86
330
4
100
AcDbSymbolTableRecord
100
AcDbDimStyleTableRecord
  2
EZ_RADIUS_INSIDE
 70
0
 40
1.0
 41
0.25
 42
0.125
 43
3.75
 44
0.375
 45
0.0
 46
0.0
 47
0.0
 48
0.0
 49
2.5
140
0.25
141
0.0
142
0.0
143
0.03937007874
144
100.0
145
0.0
146
1.0
147
0.1
148
0.0
 69
0
 70
0
 71
0
 72
0
 73
0
 74
0
 75
0
 76
0
 77
0
 78
8
 79
0
170
0
171
3
172
0
173
0
174
1
175
0
176
0
177
0
178
0
179
0
271
2
272
2
273
2
274
3
275
0
276
0
277
2
278
46
279
0
280
0
281
0
282
0
283
0
284
8
285
0
286
0
288
1
289
0
290
0
340
4A
342
82
371
-2
372
-2
  0
ENDTAB
  0
TABLE
  2
BLOCK_RECORD
  5
9
330
0
100
AcDbSymbolTable
 70
5
  0
BLOCK_RECORD
  5
17
330
9
100
AcDbSymbolTableRecord
100
AcDbBlockTableRecord
  2
*Model_Space
340
1A
 70
0
280
1
281
0
  0
BLOCK_RECORD
  5
1B
330
9
100
AcDbSymbolTableRecord
100
AcDbBlockTableRecord
  2
*Paper_Space
340
1E
 70
0
280
1
281
0
  0
BLOCK_RECORD
  5
72
330
9
100
AcDbSymbolTableRecord
100
AcDbBlockTableRecord
  2
_ARCHTICK
340
0
 70
0
280
1
281
0
  0
BLOCK_RECORD
  5
76
330
9
100
AcDbSymbolTableRecord
100
AcDbBlockTableRecord
  2
_CLOSEDFILLED
340
0
 70
0
280
1
281
0
  0
BLOCK_RECORD
  5
82
330
9
100
AcDbSymbolTableRecord
100
AcDbBlockTableRecord
  2
_CLOSEDBLANK
340
0
 70
0
280
1
281
0
  0
ENDTAB
  0
ENDSEC
  0
SECTION
  2
BLOCKS
  0
BLOCK
  5
18
330
17
100
AcDbEntity
  8
0
100
AcDbBlockBegin
  2
*Model_Space
 70
0
 10
0.0
 20
0.0
 30
0.0
  3
*Model_Space
  1

  0
ENDBLK
  5
19
330
17
100
AcDbEntity
  8
0
100
AcDbBlockEnd
  0
BLOCK
  5
1C
330
1B
100
AcDbEntity
  8
0
100
AcDbBlockBegin
  2
*Paper_Space
 70
0
 10
0.0
 20
0.0
 30
0.0
  3
*Paper_Space
  1

  0
ENDBLK
  5
1D
330
1B
100
AcDbEntity
  8
0
100
AcDbBlockEnd
  0
BLOCK
  5
73
330
72
100
AcDbEntity
  8
0
100
AcDbBlockBegin
  2
_ARCHTICK
 70
0
 10
0.0
 20
0.0
 30
0.0
  3
_ARCHTICK
  1

  0
LWPOLYLINE
  5
75
330
72
100
AcDbEntity
  8
0
  6
BYBLOCK
 62
0
100
AcDbPolyline
 90
2
 70
0
 43
0.15
 10
-0.5
 20
-0.5000000000000001
 10
0.5000000000000001
 20
0.5
  0
ENDBLK
  5
74
330
72
100
AcDbEntity
  8
0
100
AcDbBlockEnd
  0
BLOCK
  5
77
330
76
100
AcDbEntity
  8
0
100
AcDbBlockBegin
  2
_CLOSEDFILLED
 70
0
 10
0.0
 20
0.0
 30
0.0
  3
_CLOSEDFILLED
  1

  0
SOLID
  5
79
330
76
100
AcDbEntity
  8
0
  6
BYBLOCK
 62
0
100
AcDbTrace
 10
-1.0
 20
0.1643989837240255
 30
0.0
 11
0.0
 21
0.0
 31
0.0
 12
-1.0
 22
-0.1643989837240255
 32
0.0
 13
-1.0
 23
-0.1643989837240255
 33
0.0
  0
ENDBLK
  5
78
330
76
100
AcDbEntity
  8
0
100
AcDbBlockEnd
  0
BLOCK
  5
83
330
82
100
AcDbEntity
  8
0
100
AcDbBlockBegin
  2
_CLOSEDBLANK
 70
0
 10
0.0
 20
0.0
 30
0.0
  3
_CLOSEDBLANK
  1

  0
LWPOLYLINE
  5
85
330
82
100
AcDbEntity
  8
0
  6
BYBLOCK
 62
0
100
AcDbPolyline
 90
3
 70
1
 10
-1.0
 20
0.1643989837240255
 10
0.0
 20
0.0
 10
-1.0
 20
-0.1643989837240255
  0
ENDBLK
  5
84
330
82
100
AcDbEntity
  8
0
100
AcDbBlockEnd
  0
ENDSEC
  0
SECTION
  2
ENTITIES
  0
LINE
  5
8A
330
17
100
AcDbEntity
  8
Inner
100
AcDbLine
 10
3.0
 20
0.0
 30
0.0
 11
15.0
 21
-1.469576158976824e-14
 31
0.0
  0
LINE
  5
8B
330
17
100
AcDbEntity
  8
Inner
100
AcDbLine
 10
15.0
 20
-1.469576158976824e-14
 30
0.0
 11
14.996712888906027
 21
1.0486723219533238
 31
0.0
  0
LINE
  5
8C
330
17
100
AcDbEntity
  8
Inner
100
AcDbLine
 10
14.996712888906027
 20
1.0486723219533238
 30
0.0
 11
14.92003890237299
 21
2.0968747211316674
 31
0.0
  0
LINE
  5
8D
330
17
100
AcDbEntity
  8
Inner
100
AcDbLine
 10
14.92003890237299
 20
2.0968747211316674
 30
0.0
 11
14.770028771080463
 21
3.139466531348169
 31
0.0
  0
LINE
  5
8E
330
17
100
AcDbEntity
  8
Inner
100
AcDbLine
 10
14.770028771080463
 20
3.139466531348169
 30
0.0
 11
14.547093665199894
 21
4.171311984697246
 31
0.0
  0
LINE
  5
8F
330
17
100
AcDbEntity
  8
Inner
100
AcDbLine
 10
14.547093665199894
 20
4.171311984697246
 30
0.0
 11
14.252004748586284
 21
5.187305507105956
 31
0.0
  0
LINE
  5
90
330
17
100
AcDbEntity
  8
Inner
100
AcDbLine
 10
14.252004748586284
 20
5.187305507105956
 30
0.0
 11
13.885890956167547
 21
6.182396974752132
 31
0.0
  0
LINE
  5
91
330
17
100
AcDbEntity
  8
Inner
100
AcDbLine
 10
13.885890956167547
 20
6.182396974752132
 30
0.0
 11
13.450234997884316
 21
7.151616806438411
 31
0.0
  0
LINE
  5
92
330
17
100
AcDbEntity
  8
Inner
100
AcDbLine
 10
13.450234997884316
 20
7.151616806438411
 30
0.0
 11
12.946867601321436
 21
8.090100767293592
 31
0.0
  0
LINE
  5
93
330
17
100
AcDbEntity
  8
Inner
100
AcDbLine
 10
12.946867601321436
 20
8.090100767293592
 30
0.0
 11
12.377960013936704
 21
8.993114360074827
 31
0.0
  0
LINE
  5
94
330
17
100
AcDbEntity
  8
Inner
100
AcDbLine
 10
12.377960013936704
 20
8.993114360074827
 30
0.0
 11
11.746014794491014
 21
9.856076681860248
 31
0.0
  0
LINE
  5
95
330
17
100
AcDbEntity
  8
Inner
100
AcDbLine
 10
11.746014794491014
 20
9.856076681860248
 30
0.0
 11
11.053854931870594
 21
10.674583626053268
 31
0.0
  0
LINE
  5
96
330
17
100
AcDbEntity
  8
Inner
100
AcDbLine
 10
11.053854931870594
 20
10.674583626053268
 30
0.0
 11
10.304611337926417
 21
11.444430312351875
 31
0.0
  0
LINE
  5
97
330
17
100
AcDbEntity
  8
Inner
100
AcDbLine
 10
10.304611337926417
 20
11.444430312351875
 30
0.0
 11
9.501708769192666
 21
12.161632630663737
 31
0.0
  0
LINE
  5
98
330
17
100
AcDbEntity
  8
Inner
100
AcDbLine
 10
9.501708769192666
 20
12.161632630663737
 30
0.0
 11
8.64885024034757
 21
12.8224477888513
 31
0.0
  0
LINE
  5
99
330
17
100
AcDbEntity
  8
Inner
100
AcDbLine
 10
8.64885024034757
 20
12.8224477888513
 30
0.0
 11
7.750000000000029
 21
13.423393758658783
 31
0.0
  0
LINE
  5
9A
330
17
100
AcDbEntity
  8
Inner
100
AcDbLine
 10
7.750000000000029
 20
13.423393758658783
 30
0.0
 11
6.809365146790329
 21
13.9612675191804
 31
0.0
  0
LINE
  5
9B
330
17
100
AcDbEntity
  8
Inner
100
AcDbLine
 10
6.809365146790329
 20
13.9612675191804
 30
0.0
 11
5.831375970841034
 21
14.433162002756323
 31
0.0
  0
LINE
  5
9C
330
17
100
AcDbEntity
  8
Inner
100
AcDbLine
 10
5.831375970841034
 20
14.433162002756323
 30
0.0
 11
4.820665112249196
 21
14.836481654204393
 31
0.0
  0
LINE
  5
9D
330
17
100
AcDbEntity
  8
Inner
100
AcDbLine
 10
4.820665112249196
 20
14.836481654204393
 30
0.0
 11
3.7820456345414994
 21
15.168956520781403
 31
0.0
  0
LINE
  5
9E
330
17
100
AcDbEntity
  8
Inner
100
AcDbLine
 10
3.7820456345414994
 20
15.168956520781403
 30
0.0
 11
2.7204881167818944
 21
15.428654797191264
 31
0.0
  0
LINE
  5
9F
330
17
100
AcDbEntity
  8
Inner
100
AcDbLine
 10
2.7204881167818944
 20
15.428654797191264
 30
0.0
 11
1.641096873302157
 21
15.613993757281891
 31
0.0
  0
LINE
  5
A0
330
17
100
AcDbEntity
  8
Inner
100
AcDbLine
 10
1.641096873302157
 20
15.613993757281891
 30
0.0
 11
0.5490854147860255
 21
15.723749011767108
 31
0.0
  0
LINE
  5
A1
330
17
100
AcDbEntity
  8
Inner
100
AcDbLine
 10
0.5490854147860255
 20
15.723749011767108
 30
0.0
 11
-0.5502487313427425
 21
15.757062039334409
 31
0.0
  0
LINE
  5
A2
330
17
100
AcDbEntity
  8
Inner
100
AcDbLine
 10
-0.5502487313427425
 20
15.757062039334409
 30
0.0
 11
-1.6515497196289457
 21
15.713445946818718
 31
0.0
  0
LINE
  5
A3
330
17
100
AcDbEntity
  8
Inner
100
AcDbLine
 10
-1.6515497196289457
 20
15.713445946818718
 30
0.0
 11
-2.749429479726405
 21
15.592789422693292
 31
0.0
  0
LINE
  5
A4
330
17
100
AcDbEntity
  8
Inner
100
AcDbLine
 10
-2.749429479726405
 20
15.592789422693292
 30
0.0
 11
-3.8384940768480575
 21
15.39535885691248
 31
0.0
  0
LINE
  5
A5
330
17
100
AcDbEntity
  8
Inner
100
AcDbLine
 10
-3.8384940768480575
 20
15.39535885691248
 30
0.0
 11
-4.913370210561648
 21
15.121798609092945
 31
0.0
  0
LINE
  5
A6
330
17
100
AcDbEntity
  8
Inner
100
AcDbLine
 10
-4.913370210561648
 20
15.121798609092945
 30
0.0
 11
-5.968731721760172
 21
14.77312941609749
 31
0.0
  0
LINE
  5
A7
330
17
100
AcDbEntity
  8
Inner
100
AcDbLine
 10
-5.968731721760172
 20
14.77312941609749
 30
0.0
 11
-6.999325977065615
 21
14.35074493924336
 31
0.0
  0
LINE
  5
A8
330
17
100
AcDbEntity
  8
Inner
100
AcDbLine
 10
-6.999325977065615
 20
14.35074493924336
 30
0.0
 11
-8.000000000000002
 21
13.856406460551018
 31
0.0
  0
LINE
  5
A9
330
17
100
AcDbEntity
  8
Inner
100
AcDbLine
 10
-8.000000000000002
 20
13.856406460551018
 30
0.0
 11
-8.965726218980963
 21
13.292235746632507
 31
0.0
  0
LINE
  5
AA
330
17
100
AcDbEntity
  8
Inner
100
AcDbLine
 10
-8.965726218980963
 20
13.292235746632507
 30
0.0
 11
-9.89162770356556
 21
12.660706107948014
 31
0.0
  0
LINE
  5
AB
330
17
100
AcDbEntity
  8
Inner
100
AcDbLine
 10
-9.89162770356556
 20
12.660706107948014
 30
0.0
 11
-10.773002762377631
 21
11.964631690186032
 31
0.0
  0
LINE
  5
AC
330
17
100
AcDbEntity
  8
Inner
100
AcDbLine
 10
-10.773002762377631
 20
11.964631690186032
 30
0.0
 11
-11.60534877879691
 21
11.20715504340515
 31
0.0
  0
LINE
  5
AD
330
17
100
AcDbEntity
  8
Inner
100
AcDbLine
 10
-11.60534877879691
 20
11.20715504340515
 30
0.0
 11
-12.38438516375681
 21
10.391733023265724
 31
0.0
  0
LINE
  5
AE
330
17
100
AcDbEntity
  8
Inner
100
AcDbLine
 10
-12.38438516375681
 20
10.391733023265724
 30
0.0
 11
-13.106075308874141
 21
9.52212108713808
 31
0.0
  0
LINE
  5
AF
330
17
100
AcDbEntity
  8
Inner
100
AcDbLine
 10
-13.106075308874141
 20
9.52212108713808
 30
0.0
 11
-13.766647427605966
 21
8.602356056052388
 31
0.0
  0
LINE
  5
B0
330
17
100
AcDbEntity
  8
Inner
100
AcDbLine
 10
-13.766647427605966
 20
8.602356056052388
 30
0.0
 11
-14.362614177171883
 21
7.636737421317143
 31
0.0
  0
LINE
  5
B1
330
17
100
AcDbEntity
  8
Inner
100
AcDbLine
 10
-14.362614177171883
 20
7.636737421317143
 30
0.0
 11
-14.890790959574396
 21
6.629807282135542
 31
0.0
  0
LINE
  5
B2
330
17
100
AcDbEntity
  8
Inner
100
AcDbLine
 10
-14.890790959574396
 20
6.629807282135542
 30
0.0
 11
-15.348312806169835
 21
5.5863290076526
 31
0.0
  0
LINE
  5
B3
330
17
100
AcDbEntity
  8
Inner
100
AcDbLine
 10
-15.348312806169835
 20
5.5863290076526
 30
0.0
 11
-15.732649756857146
 21
4.511264723538243
 31
0.0
  0
LINE
  5
B4
330
17
100
AcDbEntity
  8
Inner
100
AcDbLine
 10
-15.732649756857146
 20
4.511264723538243
 30
0.0
 11
-16.041620652034414
 21
3.4097517294112323
 31
0.0
  0
LINE
  5
B5
330
17
100
AcDbEntity
  8
Inner
100
AcDbLine
 10
-16.041620652034414
 20
3.4097517294112323
 30
0.0
 11
-16.273405262986472
 21
2.287077959110401
 31
0.0
  0
LINE
  5
B6
330
17
100
AcDbEntity
  8
Inner
100
AcDbLine
 10
-16.273405262986472
 20
2.287077959110401
 30
0.0
 11
-16.42655469427844
 21
1.1486566009866017
 31
0.0
  0
LINE
  5
B7
330
17
100
AcDbEntity
  8
Inner
100
AcDbLine
 10
-16.42655469427844
 20
1.1486566009866017
 30
0.0
 11
-16.5
 21
1.8186004967338195e-14
 31
0.0
  0
LINE
  5
B8
330
17
100
AcDbEntity
  8
Inner
100
AcDbLine
 10
-16.5
 20
1.8186004967338195e-14
 30
0.0
 11
-16.493058964295763
 21
-1.153307032569507
 31
0.0
  0
LINE
  5
B9
330
17
100
AcDbEntity
  8
Inner
100
AcDbLine
 10
-16.493058964295763
 20
-1.153307032569507
 30
0.0
 11
-16.405441005485343
 21
-2.305634372571765
 31
0.0
  0
LINE
  5
BA
330
17
100
AcDbEntity
  8
Inner
100
AcDbLine
 10
-16.405441005485343
 20
-2.305634372571765
 30
0.0
 11
-16.237250172181174
 21
-3.4513340675748063
 31
0.0
  0
LINE
  5
BB
330
17
100
AcDbEntity
  8
Inner
100
AcDbLine
 10
-16.237250172181174
 20
-3.4513340675748063
 30
0.0
 11
-15.988986209107372
 21
-4.584768018422742
 31
0.0
  0
LINE
  5
BC
330
17
100
AcDbEntity
  8
Inner
100
AcDbLine
 10
-15.988986209107372
 20
-4.584768018422742
 30
0.0
 11
-15.661543679765145
 21
-5.700335722094454
 31
0.0
  0
LINE
  5
BD
330
17
100
AcDbEntity
  8
Inner
100
AcDbLine
 10
-15.661543679765145
 20
-5.700335722094454
 30
0.0
 11
-15.256209142631427
 21
-6.7925019393658825
 31
0.0
  0
LINE
  5
BE
330
17
100
AcDbEntity
  8
Inner
100
AcDbLine
 10
-15.256209142631427
 20
-6.7925019393658825
 30
0.0
 11
-14.774656387172708
 21
-7.855824150617247
 31
0.0
  0
LINE
  5
BF
330
17
100
AcDbEntity
  8
Inner
100
AcDbLine
 10
-14.774656387172708
 20
-7.855824150617247
 30
0.0
 11
-14.218939745556078
 21
-8.884979663643398
 31
0.0
  0
LINE
  5
C0
330
17
100
AcDbEntity
  8
Inner
100
AcDbLine
 10
-14.218939745556078
 20
-8.884979663643398
 30
0.0
 11
-13.591485505499126
 21
-9.874792238513532
 31
0.0
  0
LINE
  5
C1
330
17
100
AcDbEntity
  8
Inner
100
AcDbLine
 10
-13.591485505499126
 20
-9.874792238513532
 30
0.0
 11
-12.895081459169482
 21
-10.820258096390052
 31
0.0
  0
LINE
  5
C2
330
17
100
AcDbEntity
  8
Inner
100
AcDbLine
 10
-12.895081459169482
 20
-10.820258096390052
 30
0.0
 11
-12.132864632378572
 21
-11.716571181741765
 31
0.0
  0
LINE
  5
C3
330
17
100
AcDbEntity
  8
Inner
100
AcDbLine
 10
-12.132864632378572
 20
-11.716571181741765
 30
0.0
 11
-11.308307247464704
 21
-12.559147550567964
 31
0.0
  0
LINE
  5
C4
330
17
100
AcDbEntity
  8
Inner
100
AcDbLine
 10
-11.308307247464704
 20
-12.559147550567964
 30
0.0
 11
-10.425200982181156
 21
-13.343648761073817
 31
0.0
  0
LINE
  5
C5
330
17
100
AcDbEntity
  8
Inner
100
AcDbLine
 10
-10.425200982181156
 20
-13.343648761073817
 30
0.0
 11
-9.487639595553695
 21
-14.066004147683861
 31
0.0
  0
LINE
  5
C6
330
17
100
AcDbEntity
  8
Inner
100
AcDbLine
 10
-9.487639595553695
 20
-14.066004147683861
 30
0.0
 11
-8.499999999999982
 21
-14.722431864335467
 31
0.0
  0
LINE
  5
C7
330
17
100
AcDbEntity
  8
Inner
100
AcDbLine
 10
-8.499999999999982
 20
-14.722431864335467
 30
0.0
 11
-7.466921866973946
 21
-15.309458588629148
 31
0.0
  0
LINE
  5
C8
330
17
100
AcDbEntity
  8
Inner
100
AcDbLine
 10
-7.466921866973946
 20
-15.309458588629148
 30
0.0
 11
-6.393285860964904
 21
-15.823937784606503
 31
0.0
  0
LINE
  5
C9
330
17
100
AcDbEntity
  8
Inner
100
AcDbLine
 10
-6.393285860964904
 20
-15.823937784606503
 30
0.0
 11
-5.28419060381162
 21
-16.26306642864712
 31
0.0
  0
LINE
  5
CA
330
17
100
AcDbEntity
  8
Inner
100
AcDbLine
 10
-5.28419060381162
 20
-16.26306642864712
 30
0.0
 11
-4.144928477941006
 21
-16.6244001101954
 31
0.0
  0
LINE
  5
CB
330
17
100
AcDbEntity
  8
Inner
100
AcDbLine
 10
-4.144928477941006
 20
-16.6244001101954
 30
0.0
 11
-2.980960383282291
 21
-16.905866426709576
 31
0.0
  0
LINE
  5
CC
330
17
100
AcDbEntity
  8
Inner
100
AcDbLine
 10
-2.980960383282291
 20
-16.905866426709576
 30
0.0
 11
-1.797889568203639
 21
-17.1057766003343
 31
0.0
  0
LINE
  5
CD
330
17
100
AcDbEntity
  8
Inner
100
AcDbLine
 10
-1.797889568203639
 20
-17.1057766003343
 30
0.0
 11
-0.6014346598397801
 21
-17.22283525229575
 31
0.0
  0
LINE
  5
CE
330
17
100
AcDbEntity
  8
Inner
100
AcDbLine
 10
-0.6014346598397801
 20
-17.22283525229575
 30
0.0
 11
0.6025979763964898
 21
-17.25614827986305
 31
0.0
  0
LINE
  5
CF
330
17
100
AcDbEntity
  8
Inner
100
AcDbLine
 10
0.6025979763964898
 20
-17.25614827986305
 30
0.0
 11
1.8083424145304257
 21
-17.20522878987113
 31
0.0
  0
LINE
  5
D0
330
17
100
AcDbEntity
  8
Inner
100
AcDbLine
 10
1.8083424145304257
 20
-17.20522878987113
 30
0.0
 11
3.0099017462267996
 21
-17.070001052211605
 31
0.0
  0
LINE
  5
D1
330
17
100
AcDbEntity
  8
Inner
100
AcDbLine
 10
3.0099017462267996
 20
-17.070001052211605
 30
0.0
 11
4.201376920247556
 21
-16.850802446326476
 31
0.0
  0
LINE
  5
D2
330
17
100
AcDbEntity
  8
Inner
100
AcDbLine
 10
4.201376920247556
 20
-16.850802446326476
 30
0.0
 11
5.376895702124065
 21
-16.54838338353568
 31
0.0
  0
LINE
  5
D3
330
17
100
AcDbEntity
  8
Inner
100
AcDbLine
 10
5.376895702124065
 20
-16.54838338353568
 30
0.0
 11
6.530641611884035
 21
-16.163905197947674
 31
0.0
  0
LINE
  5
D4
330
17
100
AcDbEntity
  8
Inner
100
AcDbLine
 10
6.530641611884035
 20
-16.163905197947674
 30
0.0
 11
7.65688269724923
 21
-15.698936008692108
 31
0.0
  0
LINE
  5
D5
330
17
100
AcDbEntity
  8
Inner
100
AcDbLine
 10
7.65688269724923
 20
-15.698936008692108
 30
0.0
 11
8.75
 21
-15.155444566227676
 31
0.0
  0
LINE
  5
D6
330
17
100
AcDbEntity
  8
Inner
100
AcDbLine
 10
8.75
 20
-15.155444566227676
 30
0.0
 11
9.80451557418708
 21
-14.535792105465072
 31
0.0
  0
LINE
  5
D7
330
17
100
AcDbEntity
  8
Inner
100
AcDbLine
 10
9.80451557418708
 20
-14.535792105465072
 30
0.0
 11
10.815119916554043
 21
-13.8427222383581
 31
0.0
  0
LINE
  5
D8
330
17
100
AcDbEntity
  8
Inner
100
AcDbLine
 10
10.815119916554043
 20
-13.8427222383581
 30
0.0
 11
11.77669867191592
 21
-13.079348928402123
 31
0.0
  0
LINE
  5
D9
330
17
100
AcDbEntity
  8
Inner
100
AcDbLine
 10
11.77669867191592
 20
-13.079348928402123
 30
0.0
 11
12.684358479304887
 21
-12.249142599093647
 31
0.0
  0
LINE
  5
DA
330
17
100
AcDbEntity
  8
Inner
100
AcDbLine
 10
12.684358479304887
 20
-12.249142599093647
 30
0.0
 11
13.533451828435275
 21
-11.355914437795533
 31
0.0
  0
LINE
  5
DB
330
17
100
AcDbEntity
  8
Inner
100
AcDbLine
 10
13.533451828435275
 20
-11.355914437795533
 30
0.0
 11
14.31960080043656
 21
-10.403798965576794
 31
0.0
  0
LINE
  5
DC
330
17
100
AcDbEntity
  8
Inner
100
AcDbLine
 10
14.31960080043656
 20
-10.403798965576794
 30
0.0
 11
15.038719571840604
 21
-9.397234952402199
 31
0.0
  0
LINE
  5
DD
330
17
100
AcDbEntity
  8
Inner
100
AcDbLine
 10
15.038719571840604
 20
-9.397234952402199
 30
0.0
 11
15.687035566460274
 21
-8.34094476549598
 31
0.0
  0
LINE
  5
DE
330
17
100
AcDbEntity
  8
Inner
100
AcDbLine
 10
15.687035566460274
 20
-8.34094476549598
 30
0.0
 11
16.261109146038297
 21
-7.239912246749244
 31
0.0
  0
LINE
  5
DF
330
17
100
AcDbEntity
  8
Inner
100
AcDbLine
 10
16.261109146038297
 20
-7.239912246749244
 30
0.0
 11
16.757851737348698
 21
-6.099359222641107
 31
0.0
  0
LINE
  5
E0
330
17
100
AcDbEntity
  8
Inner
100
AcDbLine
 10
16.757851737348698
 20
-6.099359222641107
 30
0.0
 11
17.174542300764625
 21
-4.924720757263747
 31
0.0
  0
LINE
  5
E1
330
17
100
AcDbEntity
  8
Inner
100
AcDbLine
 10
17.174542300764625
 20
-4.924720757263747
 30
0.0
 11
17.508842053135126
 21
-3.7216192656378717
 31
0.0
  0
LINE
  5
E2
330
17
100
AcDbEntity
  8
Inner
100
AcDbLine
 10
17.508842053135126
 20
-3.7216192656378717
 30
0.0
 11
17.75880736609883
 21
-2.4958376105505002
 31
0.0
  0
LINE
  5
E3
330
17
100
AcDbEntity
  8
Inner
100
AcDbLine
 10
17.75880736609883
 20
-2.4958376105505002
 30
0.0
 11
17.92290076966818
 21
-1.2532913116027924
 31
0.0
  0
LINE
  5
E4
330
17
100
AcDbEntity
  8
Inner
100
AcDbLine
 10
17.92290076966818
 20
-1.2532913116027924
 30
0.0
 11
18.0
 21
-2.2043642384652358e-14
 31
0.0
  0
LINE
  5
E5
330
17
100
AcDbEntity
  8
Inner
100
AcDbLine
 10
18.0
 20
-2.2043642384652358e-14
 30
0.0
 11
17.989405039685497
 21
1.2579417431856899
 31
0.0
  0
LINE
  5
E6
330
17
100
AcDbEntity
  8
Inner
100
AcDbLine
 10
17.989405039685497
 20
1.2579417431856899
 30
0.0
 11
17.890843108597704
 21
2.5143940240118625
 31
0.0
  0
LINE
  5
E7
330
17
100
AcDbEntity
  8
Inner
100
AcDbLine
 10
17.890843108597704
 20
2.5143940240118625
 30
0.0
 11
17.704471573281886
 21
3.7632016038014435
 31
0.0
  0
LINE
  5
E8
330
17
100
AcDbEntity
  8
Inner
100
AcDbLine
 10
17.704471573281886
 20
3.7632016038014435
 30
0.0
 11
17.430878753014852
 21
4.998224052148237
 31
0.0
  0
LINE
  5
E9
330
17
100
AcDbEntity
  8
Inner
100
AcDbLine
 10
17.430878753014852
 20
4.998224052148237
 30
0.0
 11
17.07108261094401
 21
6.213365937082954
 31
0.0
  0
LINE
  5
EA
330
17
100
AcDbEntity
  8
Inner
100
AcDbLine
 10
17.07108261094401
 20
6.213365937082954
 30
0.0
 11
16.626527329095328
 21
7.402606903979582
 31
0.0
  0
LINE
  5
EB
330
17
100
AcDbEntity
  8
Inner
100
AcDbLine
 10
16.626527329095328
 20
7.402606903979582
 30
0.0
 11
16.099077776461097
 21
8.560031494796082
 31
0.0
  0
LINE
  5
EC
330
17
100
AcDbEntity
  8
Inner
100
AcDbLine
 10
16.099077776461097
 20
8.560031494796082
 30
0.0
 11
15.491011889790718
 21
9.679858559993203
 31
0.0
  0
LINE
  5
ED
330
17
100
AcDbEntity
  8
Inner
100
AcDbLine
 10
15.491011889790718
 20
9.679858559993203
 30
0.0
 11
14.805010997061512
 21
10.756470116952292
 31
0.0
  0
LINE
  5
EE
330
17
100
AcDbEntity
  8
Inner
100
AcDbLine
 10
14.805010997061512
 20
10.756470116952292
 30
0.0
 11
14.044148123847954
 21
11.784439510919858
 31
0.0
  0
LINE
  5
EF
330
17
100
AcDbEntity
  8
Inner
100
AcDbLine
 10
14.044148123847954
 20
11.784439510919858
 30
0.0
 11
13.21187433288655
 21
12.75855873743026
 31
0.0
  0
LINE
  5
F0
330
17
100
AcDbEntity
  8
Inner
100
AcDbLine
 10
13.21187433288655
 20
12.75855873743026
 30
0.0
 11
12.312003157003042
 21
13.67386478878401
 31
0.0
  0
LINE
  5
F1
330
17
100
AcDbEntity
  8
Inner
100
AcDbLine
 10
12.312003157003042
 20
13.67386478878401
 30
0.0
 11
11.348693195169647
 21
14.525664891483899
 31
0.0
  0
LINE
  5
F2
330
17
100
AcDbEntity
  8
Inner
100
AcDbLine
 10
11.348693195169647
 20
14.525664891483899
 30
0.0
 11
10.326428950759762
 21
15.309560506516457
 31
0.0
  0
LINE
  5
F3
330
17
100
AcDbEntity
  8
Inner
100
AcDbLine
 10
10.326428950759762
 20
15.309560506516457
 30
0.0
 11
9.250000000000039
 21
16.02146997001209
 31
0.0
  0
LINE
  5
F4
330
17
100
AcDbEntity
  8
Inner
100
AcDbLine
 10
9.250000000000039
 20
16.02146997001209
 30
0.0
 11
8.124478587157563
 21
16.6576496580779
 31
0.0
  0
LINE
  5
F5
330
17
100
AcDbEntity
  8
Inner
100
AcDbLine
 10
8.124478587157563
 20
16.6576496580779
 30
0.0
 11
6.955195751088836
 21
17.21471356645666
 31
0.0
  0
LINE
  5
F6
330
17
100
AcDbEntity
  8
Inner
100
AcDbLine
 10
6.955195751088836
 20
17.21471356645666
 30
0.0
 11
5.747716095374045
 21
17.689651203089852
 31
0.0
  0
LINE
  5
F7
330
17
100
AcDbEntity
  8
Inner
100
AcDbLine
 10
5.747716095374045
 20
17.689651203089852
 30
0.0
 11
4.507811321340449
 21
18.079843699609405
 31
0.0
  0
LINE
  5
F8
330
17
100
AcDbEntity
  8
Inner
100
AcDbLine
 10
4.507811321340449
 20
18.079843699609405
 30
0.0
 11
3.2414326497827526
 21
18.383078056227877
 31
0.0
  0
LINE
  5
F9
330
17
100
AcDbEntity
  8
Inner
100
AcDbLine
 10
3.2414326497827526
 20
18.383078056227877
 30
0.0
 11
1.9546822631051217
 21
18.59755944338671
 31
0.0
  0
LINE
  5
FA
330
17
100
AcDbEntity
  8
Inner
100
AcDbLine
 10
1.9546822631051217
 20
18.59755944338671
 30
0.0
 11
0.6537839048934684
 21
18.721921492824396
 31
0.0
  0
LINE
  5
FB
330
17
100
AcDbEntity
  8
Inner
100
AcDbLine
 10
0.6537839048934684
 20
18.721921492824396
 30
0.0
 11
-0.6549472214502366
 21
18.755234520391696
 31
0.0
  0
LINE
  5
FC
330
17
100
AcDbEntity
  8
Inner
100
AcDbLine
 10
-0.6549472214502366
 20
18.755234520391696
 30
0.0
 11
-1.9651351094319054
 21
18.697011632923537
 31
0.0
  0
LINE
  5
FD
330
17
100
AcDbEntity
  8
Inner
100
AcDbLine
 10
-1.9651351094319054
 20
18.697011632923537
 30
0.0
 11
-3.2703740127271277
 21
18.547212681729928
 31
0.0
  0
LINE
  5
FE
330
17
100
AcDbEntity
  8
Inner
100
AcDbLine
 10
-3.2703740127271277
 20
18.547212681729928
 30
0.0
 11
-4.564259763647055
 21
18.306246035740468
 31
0.0
  0
LINE
  5
FF
330
17
100
AcDbEntity
  8
Inner
100
AcDbLine
 10
-4.564259763647055
 20
18.306246035740468
 30
0.0
 11
-5.840421193686546
 21
17.974968157978388
 31
0.0
  0
LINE
  5
100
330
17
100
AcDbEntity
  8
Inner
100
AcDbLine
 10
-5.840421193686546
 20
17.974968157978388
 30
0.0
 11
-7.092551502007898
 21
17.55468097979786
 31
0.0
  0
LINE
  5
101
330
17
100
AcDbEntity
  8
Inner
100
AcDbLine
 10
-7.092551502007898
 20
17.55468097979786
 30
0.0
 11
-8.314439417432846
 21
17.04712707814086
 31
0.0
  0
LINE
  5
102
330
17
100
AcDbEntity
  8
Inner
100
AcDbLine
 10
-8.314439417432846
 20
17.04712707814086
 30
0.0
 11
-9.49999999999994
 21
16.45448267190437
 31
0.0
  0
LINE
  5
103
330
17
100
AcDbEntity
  8
Inner
100
AcDbLine
 10
-9.49999999999994
 20
16.45448267190437
 30
0.0
 11
-10.6433049293932
 21
15.779348464297634
 31
0.0
  0
LINE
  5
104
330
17
100
AcDbEntity
  8
Inner
100
AcDbLine
 10
-10.6433049293932
 20
15.779348464297634
 30
0.0
 11
-11.73861212954258
 21
15.024738368768142
 31
0.0
  0
LINE
  5
105
330
17
100
AcDbEntity
  8
Inner
100
AcDbLine
 10
-11.73861212954258
 20
15.024738368768142
 30
0.0
 11
-12.780394581454155
 21
14.19406616661826
 31
0.0
  0
LINE
  5
106
330
17
100
AcDbEntity
  8
Inner
100
AcDbLine
 10
-12.780394581454155
 20
14.19406616661826
 30
0.0
 11
-13.763368179812861
 21
13.291130154782145
 31
0.0
  0
LINE
  5
107
330
17
100
AcDbEntity
  8
Inner
100
AcDbLine
 10
-13.763368179812861
 20
13.291130154782145
 30
0.0
 11
-14.682518493113697
 21
12.320095852325398
 31
0.0
  0
LINE
  5
108
330
17
100
AcDbEntity
  8
Inner
100
AcDbLine
 10
-14.682518493113697
 20
12.320095852325398
 30
0.0
 11
-15.533126291998979
 21
11.285476844015507
 31
0.0
  0
LINE
  5
109
330
17
100
AcDbEntity
  8
Inner
100
AcDbLine
 10
-15.533126291998979
 20
11.285476844015507
 30
0.0
 11
-16.310791716075276
 21
10.192113848751951
 31
0.0
  0
LINE
  5
10A
330
17
100
AcDbEntity
  8
Inner
100
AcDbLine
 10
-16.310791716075276
 20
10.192113848751951
 30
0.0
 11
-17.01145695574863
 21
9.045152109674879
 31
0.0
  0
LINE
  5
10B
330
17
100
AcDbEntity
  8
Inner
100
AcDbLine
 10
-17.01145695574863
 20
9.045152109674879
 30
0.0
 11
-17.6314273325022
 21
7.850017211362946
 31
0.0
  0
LINE
  5
10C
330
17
100
AcDbEntity
  8
Inner
100
AcDbLine
 10
-17.6314273325022
 20
7.850017211362946
 30
0.0
 11
-18.16739066852758
 21
6.612389437629549
 31
0.0
  0
LINE
  5
10D
330
17
100
AcDbEntity
  8
Inner
100
AcDbLine
 10
-18.16739066852758
 20
6.612389437629549
 30
0.0
 11
-18.6164348446721
 21
5.33817679098925
 31
0.0
  0
LINE
  5
10E
330
17
100
AcDbEntity
  8
Inner
100
AcDbLine
 10
-18.6164348446721
 20
5.33817679098925
 30
0.0
 11
-18.97606345423583
 21
4.033486801864512
 31
0.0
  0
LINE
  5
10F
330
17
100
AcDbEntity
  8
Inner
100
AcDbLine
 10
-18.97606345423583
 20
4.033486801864512
 30
0.0
 11
-19.244209469211174
 21
2.7045972619906693
 31
0.0
  0
LINE
  5
110
330
17
100
AcDbEntity
  8
Inner
100
AcDbLine
 10
-19.244209469211174
 20
2.7045972619906693
 30
0.0
 11
-19.419246845057913
 21
1.3579260222189835
 31
0.0
  0
LINE
  5
111
330
17
100
AcDbEntity
  8
Inner
100
AcDbLine
 10
-19.419246845057913
 20
1.3579260222189835
 30
0.0
 11
-19.5
 21
-4.300924289489904e-14
 31
0.0
  0
LINE
  5
112
330
17
100
AcDbEntity
  8
Inner
100
AcDbLine
 10
-19.5
 20
-4.300924289489904e-14
 30
0.0
 11
-19.485751115075235
 21
-1.3625764538018723
 31
0.0
  0
LINE
  5
113
330
17
100
AcDbEntity
  8
Inner
100
AcDbLine
 10
-19.485751115075235
 20
-1.3625764538018723
 30
0.0
 11
-19.376245211710057
 21
-2.723153675451959
 31
0.0
  0
LINE
  5
114
330
17
100
AcDbEntity
  8
Inner
100
AcDbLine
 10
-19.376245211710057
 20
-2.723153675451959
 30
0.0
 11
-19.17169297438261
 21
-4.075069140028012
 31
0.0
  0
LINE
  5
115
330
17
100
AcDbEntity
  8
Inner
100
AcDbLine
 10
-19.17169297438261
 20
-4.075069140028012
 30
0.0
 11
-18.87277129692233
 21
-5.411680085873733
 31
0.0
  0
LINE
  5
116
330
17
100
AcDbEntity
  8
Inner
100
AcDbLine
 10
-18.87277129692233
 20
-5.411680085873733
 30
0.0
 11
-18.48062154212285
 21
-6.726396152071517
 31
0.0
  0
LINE
  5
117
330
17
100
AcDbEntity
  8
Inner
100
AcDbLine
 10
-18.48062154212285
 20
-6.726396152071517
 30
0.0
 11
-17.996845515559258
 21
-8.012711868593218
 31
0.0
  0
LINE
  5
118
330
17
100
AcDbEntity
  8
Inner
100
AcDbLine
 10
-17.996845515559258
 20
-8.012711868593218
 30
0.0
 11
-17.42349916574949
 21
-9.264238838974915
 31
0.0
  0
LINE
  5
119
330
17
100
AcDbEntity
  8
Inner
100
AcDbLine
 10
-17.42349916574949
 20
-9.264238838974915
 30
0.0
 11
-16.763084034025397
 21
-10.474737456342949
 31
0.0
  0
LINE
  5
11A
330
17
100
AcDbEntity
  8
Inner
100
AcDbLine
 10
-16.763084034025397
 20
-10.474737456342949
 30
0.0
 11
-16.018536488623973
 21
-11.638147995390945
 31
0.0
  0
LINE
  5
11B
330
17
100
AcDbEntity
  8
Inner
100
AcDbLine
 10
-16.018536488623973
 20
-11.638147995390945
 30
0.0
 11
-15.19321478852638
 21
-12.748620925449716
 31
0.0
  0
LINE
  5
11C
330
17
100
AcDbEntity
  8
Inner
100
AcDbLine
 10
-15.19321478852638
 20
-12.748620925449716
 30
0.0
 11
-14.290884033394578
 21
-13.800546293118703
 31
0.0
  0
LINE
  5
11D
330
17
100
AcDbEntity
  8
Inner
100
AcDbLine
 10
-14.290884033394578
 20
-13.800546293118703
 30
0.0
 11
-13.315699066541283
 21
-14.788582027000144
 31
0.0
  0
LINE
  5
11E
330
17
100
AcDbEntity
  8
Inner
100
AcDbLine
 10
-13.315699066541283
 20
-14.788582027000144
 30
0.0
 11
-12.272185408158082
 21
-15.707681021894023
 31
0.0
  0
LINE
  5
11F
330
17
100
AcDbEntity
  8
Inner
100
AcDbLine
 10
-12.272185408158082
 20
-15.707681021894023
 30
0.0
 11
-11.165218305965944
 21
-16.553116865348983
 31
0.0
  0
LINE
  5
120
330
17
100
AcDbEntity
  8
Inner
100
AcDbLine
 10
-11.165218305965944
 20
-16.553116865348983
 30
0.0
 11
-9.999999999999984
 21
-17.32050807568878
 31
0.0
  0
LINE
  5
121
330
17
100
AcDbEntity
  8
Inner
100
AcDbLine
 10
-9.999999999999984
 20
-17.32050807568878
 30
0.0
 11
-8.782035307341246
 21
-18.005840727526618
 31
0.0
  0
LINE
  5
122
330
17
100
AcDbEntity
  8
Inner
100
AcDbLine
 10
-8.782035307341246
 20
-18.005840727526618
 30
0.0
 11
-7.517105641212646
 21
-18.605489348306865
 31
0.0
  0
LINE
  5
123
330
17
100
AcDbEntity
  8
Inner
100
AcDbLine
 10
-7.517105641212646
 20
-18.605489348306865
 30
0.0
 11
-6.211241586936403
 21
-19.1162359775326
 31
0.0
  0
LINE
  5
124
330
17
100
AcDbEntity
  8
Inner
100
AcDbLine
 10
-6.211241586936403
 20
-19.1162359775326
 30
0.0
 11
-4.870694164740019
 21
-19.535287289023383
 31
0.0
  0
LINE
  5
125
330
17
100
AcDbEntity
  8
Inner
100
AcDbLine
 10
-4.870694164740019
 20
-19.535287289023383
 30
0.0
 11
-3.501904916283084
 21
-19.8602896857462
 31
0.0
  0
LINE
  5
126
330
17
100
AcDbEntity
  8
Inner
100
AcDbLine
 10
-3.501904916283084
 20
-19.8602896857462
 30
0.0
 11
-2.1114749580066756
 21
-20.089342286439113
 31
0.0
  0
LINE
  5
127
330
17
100
AcDbEntity
  8
Inner
100
AcDbLine
 10
-2.1114749580066756
 20
-20.089342286439113
 30
0.0
 11
-0.7061331499472902
 21
-20.221007733353037
 31
0.0
  0
LINE
  5
128
330
17
100
AcDbEntity
  8
Inner
100
AcDbLine
 10
-0.7061331499472902
 20
-20.221007733353037
 30
0.0
 11
0.7072964665040551
 21
-20.254320760920336
 31
0.0
  0
LINE
  5
129
330
17
100
AcDbEntity
  8
Inner
100
AcDbLine
 10
0.7072964665040551
 20
-20.254320760920336
 30
0.0
 11
2.121927804333313
 21
-20.188794475975957
 31
0.0
  0
LINE
  5
12A
330
17
100
AcDbEntity
  8
Inner
100
AcDbLine
 10
2.121927804333313
 20
-20.188794475975957
 30
0.0
 11
3.5308462792275868
 21
-20.02442431124823
 31
0.0
  0
LINE
  5
12B
330
17
100
AcDbEntity
  8
Inner
100
AcDbLine
 10
3.5308462792275868
 20
-20.02442431124823
 30
0.0
 11
4.9271426070466235
 21
-19.76168962515445
 31
0.0
  0
LINE
  5
12C
330
17
100
AcDbEntity
  8
Inner
100
AcDbLine
 10
4.9271426070466235
 20
-19.76168962515445
 30
0.0
 11
6.303946685248899
 21
-19.40155293242114
 31
0.0
  0
LINE
  5
12D
330
17
100
AcDbEntity
  8
Inner
100
AcDbLine
 10
6.303946685248899
 20
-19.40155293242114
 30
0.0
 11
7.654461392131829
 21
-18.94545676164801
 31
0.0
  0
LINE
  5
12E
330
17
100
AcDbEntity
  8
Inner
100
AcDbLine
 10
7.654461392131829
 20
-18.94545676164801
 30
0.0
 11
8.971996137616395
 21
-18.39531814758964
 31
0.0
  0
LINE
  5
12F
330
17
100
AcDbEntity
  8
Inner
100
AcDbLine
 10
8.971996137616395
 20
-18.39531814758964
 30
0.0
 11
10.249999999999995
 21
-17.753520777580995
 31
0.0
  0
LINE
  5
130
330
17
100
AcDbEntity
  8
Inner
100
AcDbLine
 10
10.249999999999995
 20
-17.753520777580995
 30
0.0
 11
11.482094284599377
 21
-17.02290482313016
 31
0.0
  0
LINE
  5
131
330
17
100
AcDbEntity
  8
Inner
100
AcDbLine
 10
11.482094284599377
 20
-17.02290482313016
 30
0.0
 11
12.66210434253101
 21
-16.20675449917827
 31
0.0
  0
LINE
  5
132
330
17
100
AcDbEntity
  8
Inner
100
AcDbLine
 10
12.66210434253101
 20
-16.20675449917827
 30
0.0
 11
13.784090490992492
 21
-15.308783404834307
 31
0.0
  0
LINE
  5
133
330
17
100
AcDbEntity
  8
Inner
100
AcDbLine
 10
13.784090490992492
 20
-15.308783404834307
 30
0.0
 11
14.842377880320786
 21
-14.333117710470693
 31
0.0
  0
LINE
  5
134
330
17
100
AcDbEntity
  8
Inner
100
AcDbLine
 10
14.842377880320786
 20
-14.333117710470693
 30
0.0
 11
15.831585157792205
 21
-13.284277266855156
 31
0.0
  0
LINE
  5
135
330
17
100
AcDbEntity
  8
Inner
100
AcDbLine
 10
15.831585157792205
 20
-13.284277266855156
 30
0.0
 11
16.74665178356144
 21
-12.16715472245416
 31
0.0
  0
LINE
  5
136
330
17
100
AcDbEntity
  8
Inner
100
AcDbLine
 10
16.74665178356144
 20
-12.16715472245416
 30
0.0
 11
17.582863860309875
 21
-10.986992745101823
 31
0.0
  0
LINE
  5
137
330
17
100
AcDbEntity
  8
Inner
100
AcDbLine
 10
17.582863860309875
 20
-10.986992745101823
 30
0.0
 11
18.335878345037056
 21
-9.749359453853655
 31
0.0
  0
LINE
  5
138
330
17
100
AcDbEntity
  8
Inner
100
AcDbLine
 10
18.335878345037056
 20
-9.749359453853655
 30
0.0
 11
19.001745518966068
 21
-8.460122175976718
 31
0.0
  0
LINE
  5
139
330
17
100
AcDbEntity
  8
Inner
100
AcDbLine
 10
19.001745518966068
 20
-8.460122175976718
 30
0.0
 11
19.576929599706418
 21
-7.1254196526181195
 31
0.0
  0
LINE
  5
13A
330
17
100
AcDbEntity
  8
Inner
100
AcDbLine
 10
19.576929599706418
 20
-7.1254196526181195
 30
0.0
 11
20.0583273885796
 21
-5.751632824714682
 31
0.0
  0
LINE
  5
13B
330
17
100
AcDbEntity
  8
Inner
100
AcDbLine
 10
20.0583273885796
 20
-5.751632824714682
 30
0.0
 11
20.443284855336525
 21
-4.345354338091224
 31
0.0
  0
LINE
  5
13C
330
17
100
AcDbEntity
  8
Inner
100
AcDbLine
 10
20.443284855336525
 20
-4.345354338091224
 30
0.0
 11
20.729611572323538
 21
-2.9133569134307007
 31
0.0
  0
LINE
  5
13D
330
17
100
AcDbEntity
  8
Inner
100
AcDbLine
 10
20.729611572323538
 20
-2.9133569134307007
 30
0.0
 11
20.915592920447654
 21
-1.4625607328351005
 31
0.0
  0
LINE
  5
13E
330
17
100
AcDbEntity
  8
Inner
100
AcDbLine
 10
20.915592920447654
 20
-1.4625607328351005
 30
0.0
 11
21.0
 21
-3.08610993385133e-14
 31
0.0
  0
LINE
  5
13F
330
17
100
AcDbEntity
  8
Inner
100
AcDbLine
 10
21.0
 20
-3.08610993385133e-14
 30
0.0
 11
20.982097190464966
 21
1.4672111644181292
 31
0.0
  0
LINE
  5
140
330
17
100
AcDbEntity
  8
Inner
100
AcDbLine
 10
20.982097190464966
 20
1.4672111644181292
 30
0.0
 11
20.861647314822424
 21
2.9319133268919813
 31
0.0
  0
LINE
  5
141
330
17
100
AcDbEntity
  8
Inner
100
AcDbLine
 10
20.861647314822424
 20
2.9319133268919813
 30
0.0
 11
20.638914375483303
 21
4.386936676254716
 31
0.0
  0
LINE
  5
142
330
17
100
AcDbEntity
  8
Inner
100
AcDbLine
 10
20.638914375483303
 20
4.386936676254716
 30
0.0
 11
20.31466384082979
 21
5.825136119599299
 31
0.0
  0
LINE
  5
143
330
17
100
AcDbEntity
  8
Inner
100
AcDbLine
 10
20.31466384082979
 20
5.825136119599299
 30
0.0
 11
19.890160473301737
 21
7.23942636705995
 31
0.0
  0
LINE
  5
144
330
17
100
AcDbEntity
  8
Inner
100
AcDbLine
 10
19.890160473301737
 20
7.23942636705995
 30
0.0
 11
19.36716370202313
 21
8.622816833206981
 31
0.0
  0
LINE
  5
145
330
17
100
AcDbEntity
  8
Inner
100
AcDbLine
 10
19.36716370202313
 20
8.622816833206981
 30
0.0
 11
18.74792055503792
 21
9.968446183153683
 31
0.0
  0
LINE
  5
146
330
17
100
AcDbEntity
  8
Inner
100
AcDbLine
 10
18.74792055503792
 20
9.968446183153683
 30
0.0
 11
18.03515617826
 21
11.269616352692811
 31
0.0
  0
LINE
  5
147
330
17
100
AcDbEntity
  8
Inner
100
AcDbLine
 10
18.03515617826
 20
11.269616352692811
 30
0.0
 11
17.23206198018635
 21
12.519825873829712
 31
0.0
  0
LINE
  5
148
330
17
100
AcDbEntity
  8
Inner
100
AcDbLine
 10
17.23206198018635
 20
12.519825873829712
 30
0.0
 11
16.342281453204894
 21
13.712802339979469
 31
0.0
  0
LINE
  5
149
330
17
100
AcDbEntity
  8
Inner
100
AcDbLine
 10
16.342281453204894
 20
13.712802339979469
 30
0.0
 11
15.369893733902508
 21
14.842533848807248
 31
0.0
  0
LINE
  5
14A
330
17
100
AcDbEntity
  8
Inner
100
AcDbLine
 10
15.369893733902508
 20
14.842533848807248
 30
0.0
 11
14.319394976079629
 21
15.903299265216184
 31
0.0
  0
LINE
  5
14B
330
17
100
AcDbEntity
  8
Inner
100
AcDbLine
 10
14.319394976079629
 20
15.903299265216184
 30
0.0
 11
13.19567762114663
 21
16.88969715230406
 31
0.0
  0
LINE
  5
14C
330
17
100
AcDbEntity
  8
Inner
100
AcDbLine
 10
13.19567762114663
 20
16.88969715230406
 30
0.0
 11
12.004007661172004
 21
17.796673224181582
 31
0.0
  0
LINE
  5
14D
330
17
100
AcDbEntity
  8
Inner
100
AcDbLine
 10
12.004007661172004
 20
17.796673224181582
 30
0.0
 11
10.75000000000005
 21
18.6195461813654
 31
0.0
  0
LINE
  5
14E
330
17
100
AcDbEntity
  8
Inner
100
AcDbLine
 10
10.75000000000005
 20
18.6195461813654
 30
0.0
 11
9.4395920275248
 21
19.3540317969754
 31
0.0
  0
LINE
  5
14F
330
17
100
AcDbEntity
  8
Inner
100
AcDbLine
 10
9.4395920275248
 20
19.3540317969754
 30
0.0
 11
8.079015531336447
 21
19.99626513015707
 31
0.0
  0
LINE
  5
150
330
17
100
AcDbEntity
  8
Inner
100
AcDbLine
 10
8.079015531336447
 20
19.99626513015707
 30
0.0
 11
6.674767078498896
 21
20.54282075197531
 31
0.0
  0
LINE
  5
151
330
17
100
AcDbEntity
  8
Inner
100
AcDbLine
 10
6.674767078498896
 20
20.54282075197531
 30
0.0
 11
5.233577008139452
 21
20.990730878437397
 31
0.0
  0
LINE
  5
152
330
17
100
AcDbEntity
  8
Inner
100
AcDbLine
 10
5.233577008139452
 20
20.990730878437397
 30
0.0
 11
3.7623771827835575
 21
21.337501315264497
 31
0.0
  0
LINE
  5
153
330
17
100
AcDbEntity
  8
Inner
100
AcDbLine
 10
3.7623771827835575
 20
21.337501315264497
 30
0.0
 11
2.268267652908088
 21
21.58112512949153
 31
0.0
  0
LINE
  5
154
330
17
100
AcDbEntity
  8
Inner
100
AcDbLine
 10
2.268267652908088
 20
21.58112512949153
 30
0.0
 11
0.7584823950009686
 21
21.72009397388168
 31
0.0
  0
LINE
  5
155
330
17
100
AcDbEntity
  8
Inner
100
AcDbLine
 10
0.7584823950009686
 20
21.72009397388168
 30
0.0
 11
-0.7596457115577292
 21
21.753407001448984
 31
0.0
  0
LINE
  5
156
330
17
100
AcDbEntity
  8
Inner
100
AcDbLine
 10
-0.7596457115577292
 20
21.753407001448984
 30
0.0
 11
-2.278720499234864
 21
21.68057731902836
 31
0.0
  0
LINE
  5
157
330
17
100
AcDbEntity
  8
Inner
100
AcDbLine
 10
-2.278720499234864
 20
21.68057731902836
 30
0.0
 11
-3.7913185457279037
 21
21.501635940766555
 31
0.0
  0
LINE
  5
158
330
17
100
AcDbEntity
  8
Inner
100
AcDbLine
 10
-3.7913185457279037
 20
21.501635940766555
 30
0.0
 11
-5.290025450446051
 21
21.217133214568463
 31
0.0
  0
LINE
  5
159
330
17
100
AcDbEntity
  8
Inner
100
AcDbLine
 10
-5.290025450446051
 20
21.217133214568463
 30
0.0
 11
-6.76747217681139
 21
20.82813770686385
 31
0.0
  0
LINE
  5
15A
330
17
100
AcDbEntity
  8
Inner
100
AcDbLine
 10
-6.76747217681139
 20
20.82813770686385
 30
0.0
 11
-8.216371282255622
 21
20.336232543498223
 31
0.0
  0
LINE
  5
15B
330
17
100
AcDbEntity
  8
Inner
100
AcDbLine
 10
-8.216371282255622
 20
20.336232543498223
 30
0.0
 11
-9.629552857800075
 21
19.743509217038362
 31
0.0
  0
LINE
  5
15C
330
17
100
AcDbEntity
  8
Inner
100
AcDbLine
 10
-9.629552857800075
 20
19.743509217038362
 30
0.0
 11
-10.999999999999925
 21
19.052558883257692
 31
0.0
  0
LINE
  5
15D
330
17
100
AcDbEntity
  8
Inner
100
AcDbLine
 10
-10.999999999999925
 20
19.052558883257692
 30
0.0
 11
-12.320883639805434
 21
18.266461181962764
 31
0.0
  0
LINE
  5
15E
330
17
100
AcDbEntity
  8
Inner
100
AcDbLine
 10
-12.320883639805434
 20
18.266461181962764
 30
0.0
 11
-13.585596555519553
 21
17.38877062958831
 31
0.0
  0
LINE
  5
15F
330
17
100
AcDbEntity
  8
Inner
100
AcDbLine
 10
-13.585596555519553
 20
17.38877062958831
 30
0.0
 11
-14.787786400530718
 21
16.42350064305045
 31
0.0
  0
LINE
  5
160
330
17
100
AcDbEntity
  8
Inner
100
AcDbLine
 10
-14.787786400530718
 20
16.42350064305045
 30
0.0
 11
-15.921387580828812
 21
15.375105266159139
 31
0.0
  0
LINE
  5
161
330
17
100
AcDbEntity
  8
Inner
100
AcDbLine
 10
-15.921387580828812
 20
15.375105266159139
 30
0.0
 11
-16.98065182247072
 21
14.24845868138491
 31
0.0
  0
LINE
  5
162
330
17
100
AcDbEntity
  8
Inner
100
AcDbLine
 10
-16.98065182247072
 20
14.24845868138491
 30
0.0
 11
-17.960177275123815
 21
13.048832600892933
 31
0.0
  0
LINE
  5
163
330
17
100
AcDbEntity
  8
Inner
100
AcDbLine
 10
-17.960177275123815
 20
13.048832600892933
 30
0.0
 11
-18.85493600454455
 21
11.781871641451568
 31
0.0
  0
LINE
  5
164
330
17
100
AcDbEntity
  8
Inner
100
AcDbLine
 10
-18.85493600454455
 20
11.781871641451568
 30
0.0
 11
-19.660299734325406
 21
10.453566798032563
 31
0.0
  0
LINE
  5
165
330
17
100
AcDbEntity
  8
Inner
100
AcDbLine
 10
-19.660299734325406
 20
10.453566798032563
 30
0.0
 11
-20.372063705429998
 21
9.070227140590353
 31
0.0
  0
LINE
  5
166
330
17
100
AcDbEntity
  8
Inner
100
AcDbLine
 10
-20.372063705429998
 20
9.070227140590353
 30
0.0
 11
-20.986468530885308
 21
7.638449867606552
 31
0.0
  0
LINE
  5
167
330
17
100
AcDbEntity
  8
Inner
100
AcDbLine
 10
-20.986468530885308
 20
7.638449867606552
 30
0.0
 11
-21.500219932487052
 21
6.165088858440258
 31
0.0
  0
LINE
  5
168
330
17
100
AcDbEntity
  8
Inner
100
AcDbLine
 10
-21.500219932487052
 20
6.165088858440258
 30
0.0
 11
-21.910506256437248
 21
4.657221874317791
 31
0.0
  0
LINE
  5
169
330
17
100
AcDbEntity
  8
Inner
100
AcDbLine
 10
-21.910506256437248
 20
4.657221874317791
 30
0.0
 11
-22.215013675435884
 21
3.1221165648708804
 31
0.0
  0
LINE
  5
16A
330
17
100
AcDbEntity
  8
Inner
100
AcDbLine
 10
-22.215013675435884
 20
3.1221165648708804
 30
0.0
 11
-22.411938995837385
 21
1.5671954434513664
 31
0.0
  0
LINE
  5
16B
330
17
100
AcDbEntity
  8
Inner
100
AcDbLine
 10
-22.411938995837385
 20
1.5671954434513664
 30
0.0
 11
-22.5
 21
-4.411513889795119e-14
 31
0.0
  0
LINE
  5
16C
330
17
100
AcDbEntity
  8
Inner
100
AcDbLine
 10
-22.5
 20
-4.411513889795119e-14
 30
0.0
 11
-22.478443265854708
 21
-1.5718458750342363
 31
0.0
  0
LINE
  5
16D
330
17
100
AcDbEntity
  8
Inner
100
AcDbLine
 10
-22.478443265854708
 20
-1.5718458750342363
 30
0.0
 11
-22.34704941793477
 21
-3.140672978332152
 31
0.0
  0
LINE
  5
16E
330
17
100
AcDbEntity
  8
Inner
100
AcDbLine
 10
-22.34704941793477
 20
-3.140672978332152
 30
0.0
 11
-22.10613577658403
 21
-4.6988042124812734
 31
0.0
  0
LINE
  5
16F
330
17
100
AcDbEntity
  8
Inner
100
AcDbLine
 10
-22.10613577658403
 20
-4.6988042124812734
 30
0.0
 11
-21.75655638473729
 21
-6.2385921533247215
 31
0.0
  0
LINE
  5
170
330
17
100
AcDbEntity
  8
Inner
100
AcDbLine
 10
-21.75655638473729
 20
-6.2385921533247215
 30
0.0
 11
-21.299699404480577
 21
-7.752456582048524
 31
0.0
  0
LINE
  5
171
330
17
100
AcDbEntity
  8
Inner
100
AcDbLine
 10
-21.299699404480577
 20
-7.752456582048524
 30
0.0
 11
-20.737481888487064
 21
-9.232921797820607
 31
0.0
  0
LINE
  5
172
330
17
100
AcDbEntity
  8
Inner
100
AcDbLine
 10
-20.737481888487064
 20
-9.232921797820607
 30
0.0
 11
-20.072341944326276
 21
-10.672653527332583
 31
0.0
  0
LINE
  5
173
330
17
100
AcDbEntity
  8
Inner
100
AcDbLine
 10
-20.072341944326276
 20
-10.672653527332583
 30
0.0
 11
-19.3072283224946
 21
-12.064495249042684
 31
0.0
  0
LINE
  5
174
330
17
100
AcDbEntity
  8
Inner
100
AcDbLine
 10
-19.3072283224946
 20
-12.064495249042684
 30
0.0
 11
-18.44558747174882
 21
-13.401503752268356
 31
0.0
  0
LINE
  5
175
330
17
100
AcDbEntity
  8
Inner
100
AcDbLine
 10
-18.44558747174882
 20
-13.401503752268356
 30
0.0
 11
-17.491348117883316
 21
-14.676983754509335
 31
0.0
  0
LINE
  5
176
330
17
100
AcDbEntity
  8
Inner
100
AcDbLine
 10
-17.491348117883316
 20
-14.676983754509335
 30
0.0
 11
-16.448903434410543
 21
-15.884521404495686
 31
0.0
  0
LINE
  5
177
330
17
100
AcDbEntity
  8
Inner
100
AcDbLine
 10
-16.448903434410543
 20
-15.884521404495686
 30
0.0
 11
-15.323090885617862
 21
-17.01801650343232
 31
0.0
  0
LINE
  5
178
330
17
100
AcDbEntity
  8
Inner
100
AcDbLine
 10
-15.323090885617862
 20
-17.01801650343232
 30
0.0
 11
-14.119169834135054
 21
-18.07171328271419
 31
0.0
  0
LINE
  5
179
330
17
100
AcDbEntity
  8
Inner
100
AcDbLine
 10
-14.119169834135054
 20
-18.07171328271419
 30
0.0
 11
-12.84279701637819
 21
-19.0402295830141
 31
0.0
  0
LINE
  5
17A
330
17
100
AcDbEntity
  8
Inner
100
AcDbLine
 10
-12.84279701637819
 20
-19.0402295830141
 30
0.0
 11
-11.499999999999986
 21
-19.918584287042098
 31
0.0
  0
LINE
  5
17B
330
17
100
AcDbEntity
  8
Inner
100
AcDbLine
 10
-11.499999999999986
 20
-19.918584287042098
 30
0.0
 11
-10.097148747708493
 21
-20.702222866424112
 31
0.0
  0
LINE
  5
17C
330
17
100
AcDbEntity
  8
Inner
100
AcDbLine
 10
-10.097148747708493
 20
-20.702222866424112
 30
0.0
 11
-8.64092542146039
 21
-21.387040912007222
 31
0.0
  0
LINE
  5
17D
330
17
100
AcDbEntity
  8
Inner
100
AcDbLine
 10
-8.64092542146039
 20
-21.387040912007222
 30
0.0
 11
-7.138292570061244
 21
-21.969405526418065
 31
0.0
  0
LINE
  5
17E
330
17
100
AcDbEntity
  8
Inner
100
AcDbLine
 10
-7.138292570061244
 20
-21.969405526418065
 30
0.0
 11
-5.596459851539034
 21
-22.44617446785137
 31
0.0
  0
LINE
  5
17F
330
17
100
AcDbEntity
  8
Inner
100
AcDbLine
 10
-5.596459851539034
 20
-22.44617446785137
 30
0.0
 11
-4.022849449283879
 21
-22.814712944782823
 31
0.0
  0
LINE
  5
180
330
17
100
AcDbEntity
  8
Inner
100
AcDbLine
 10
-4.022849449283879
 20
-22.814712944782823
 30
0.0
 11
-2.4250603478096533
 21
-23.07290797254393
 31
0.0
  0
LINE
  5
181
330
17
100
AcDbEntity
  8
Inner
100
AcDbLine
 10
-2.4250603478096533
 20
-23.07290797254393
 30
0.0
 11
-0.8108316400548017
 21
-23.219180214410322
 31
0.0
  0
LINE
  5
182
330
17
100
AcDbEntity
  8
Inner
100
AcDbLine
 10
-0.8108316400548017
 20
-23.219180214410322
 30
0.0
 11
0.8119949566115575
 21
-23.252493241977625
 31
0.0
  0
LINE
  5
183
330
17
100
AcDbEntity
  8
Inner
100
AcDbLine
 10
0.8119949566115575
 20
-23.252493241977625
 30
0.0
 11
2.4355131941362598
 21
-23.172360162080775
 31
0.0
  0
LINE
  5
184
330
17
100
AcDbEntity
  8
Inner
100
AcDbLine
 10
2.4355131941362598
 20
-23.172360162080775
 30
0.0
 11
4.051790812228373
 21
-22.978847570284852
 31
0.0
  0
LINE
  5
185
330
17
100
AcDbEntity
  8
Inner
100
AcDbLine
 10
4.051790812228373
 20
-22.978847570284852
 30
0.0
 11
5.65290829384563
 21
-22.672576803982437
 31
0.0
  0
LINE
  5
186
330
17
100
AcDbEntity
  8
Inner
100
AcDbLine
 10
5.65290829384563
 20
-22.672576803982437
 30
0.0
 11
7.230997668373732
 21
-22.254722481306604
 31
0.0
  0
LINE
  5
187
330
17
100
AcDbEntity
  8
Inner
100
AcDbLine
 10
7.230997668373732
 20
-22.254722481306604
 30
0.0
 11
8.778281172379563
 21
-21.727008325348375
 31
0.0
  0
LINE
  5
188
330
17
100
AcDbEntity
  8
Inner
100
AcDbLine
 10
8.778281172379563
 20
-21.727008325348375
 30
0.0
 11
10.287109577983614
 21
-21.09170028648715
 31
0.0
  0
LINE
  5
189
330
17
100
AcDbEntity
  8
Inner
100
AcDbLine
 10
10.287109577983614
 20
-21.09170028648715
 30
0.0
 11
11.74999999999999
 21
-20.351596988934315
 31
0.0
  0
LINE
  5
18A
330
17
100
AcDbEntity
  8
Inner
100
AcDbLine
 10
11.74999999999999
 20
-20.351596988934315
 30
0.0
 11
13.159672995011618
 21
-19.510017540795282
 31
0.0
  0
LINE
  5
18B
330
17
100
AcDbEntity
  8
Inner
100
AcDbLine
 10
13.159672995011618
 20
-19.510017540795282
 30
0.0
 11
14.509088768507974
 21
-18.570786759998445
 31
0.0
  0
LINE
  5
18C
330
17
100
AcDbEntity
  8
Inner
100
AcDbLine
 10
14.509088768507974
 20
-18.570786759998445
 30
0.0
 11
15.791482310069064
 21
-17.53821788126649
 31
0.0
  0
LINE
  5
18D
330
17
100
AcDbEntity
  8
Inner
100
AcDbLine
 10
15.791482310069064
 20
-17.53821788126649
 30
0.0
 11
17.000397281336728
 21
-16.4170928218477
 31
0.0
  0
LINE
  5
18E
330
17
100
AcDbEntity
  8
Inner
100
AcDbLine
 10
17.000397281336728
 20
-16.4170928218477
 30
0.0
 11
18.129718487149134
 21
-15.212640095914782
 31
0.0
  0
LINE
  5
18F
330
17
100
AcDbEntity
  8
Inner
100
AcDbLine
 10
18.129718487149134
 20
-15.212640095914782
 30
0.0
 11
19.173702766686283
 21
-13.930510479331579
 31
0.0
  0
LINE
  5
190
330
17
100
AcDbEntity
  8
Inner
100
AcDbLine
 10
19.173702766686283
 20
-13.930510479331579
 30
0.0
 11
20.127008148779144
 21
-12.576750537801447
 31
0.0
  0
LINE
  5
191
330
17
100
AcDbEntity
  8
Inner
100
AcDbLine
 10
20.127008148779144
 20
-12.576750537801447
 30
0.0
 11
20.984721123613834
 21
-11.15777414221133
 31
0.0
  0
LINE
  5
192
330
17
100
AcDbEntity
  8
Inner
100
AcDbLine
 10
20.984721123613834
 20
-11.15777414221133
 30
0.0
 11
21.74238189189386
 21
-9.680332105204133
 31
0.0
  0
LINE
  5
193
330
17
100
AcDbEntity
  8
Inner
100
AcDbLine
 10
21.74238189189386
 20
-9.680332105204133
 30
0.0
 11
22.396007462064144
 21
-8.151480082595134
 31
0.0
  0
LINE
  5
194
330
17
100
AcDbEntity
  8
Inner
100
AcDbLine
 10
22.396007462064144
 20
-8.151480082595134
 30
0.0
 11
22.942112476394552
 21
-6.57854489216568
 31
0.0
  0
LINE
  5
195
330
17
100
AcDbEntity
  8
Inner
100
AcDbLine
 10
22.942112476394552
 20
-6.57854489216568
 30
0.0
 11
23.37772765753794
 21
-4.969089410544516
 31
0.0
  0
LINE
  5
196
330
17
100
AcDbEntity
  8
Inner
100
AcDbLine
 10
23.37772765753794
 20
-4.969089410544516
 30
0.0
 11
23.700415778548248
 21
-3.330876216310903
 31
0.0
  0
LINE
  5
197
330
17
100
AcDbEntity
  8
Inner
100
AcDbLine
 10
23.700415778548248
 20
-3.330876216310903
 30
0.0
 11
23.908285071227127
 21
-1.6718301540674736
 31
0.0
  0
LINE
  5
198
330
17
100
AcDbEntity
  8
Inner
100
AcDbLine
 10
23.908285071227127
 20
-1.6718301540674736
 30
0.0
 11
24.0
 21
-4.1148132451351067e-14
 31
0.0
  0
LINE
  5
199
330
17
100
AcDbEntity
  8
Inner
100
AcDbLine
 10
24.0
 20
-4.1148132451351067e-14
 30
0.0
 11
23.97478934124444
 21
1.676480585650503
 31
0.0
  0
LINE
  5
19A
330
17
100
AcDbEntity
  8
Inner
100
AcDbLine
 10
23.97478934124444
 20
1.676480585650503
 30
0.0
 11
23.832451521047137
 21
3.3494326297721635
 31
0.0
  0
LINE
  5
19B
330
17
100
AcDbEntity
  8
Inner
100
AcDbLine
 10
23.832451521047137
 20
3.3494326297721635
 30
0.0
 11
23.57335717768472
 21
5.0106717487079875
 31
0.0
  0
LINE
  5
19C
330
17
100
AcDbEntity
  8
Inner
100
AcDbLine
 10
23.57335717768472
 20
5.0106717487079875
 30
0.0
 11
23.198448928644748
 21
6.6520481870502985
 31
0.0
  0
LINE
  5
19D
330
17
100
AcDbEntity
  8
Inner
100
AcDbLine
 10
23.198448928644748
 20
6.6520481870502985
 30
0.0
 11
22.709238335659467
 21
8.265486797036944
 31
0.0
  0
LINE
  5
19E
330
17
100
AcDbEntity
  8
Inner
100
AcDbLine
 10
22.709238335659467
 20
8.265486797036944
 30
0.0
 11
22.107800074950934
 21
9.843026762434379
 31
0.0
  0
LINE
  5
19F
330
17
100
AcDbEntity
  8
Inner
100
AcDbLine
 10
22.107800074950934
 20
9.843026762434379
 30
0.0
 11
21.396763333614704
 21
11.37686087151134
 31
0.0
  0
LINE
  5
1A0
330
17
100
AcDbEntity
  8
Inner
100
AcDbLine
 10
21.396763333614704
 20
11.37686087151134
 30
0.0
 11
20.579300466729283
 21
12.859374145392419
 31
0.0
  0
LINE
  5
1A1
330
17
100
AcDbEntity
  8
Inner
100
AcDbLine
 10
20.579300466729283
 20
12.859374145392419
 30
0.0
 11
19.659112963311195
 21
14.28318163070713
 31
0.0
  0
LINE
  5
1A2
330
17
100
AcDbEntity
  8
Inner
100
AcDbLine
 10
19.659112963311195
 20
14.28318163070713
 30
0.0
 11
18.640414782561837
 21
15.641165169039075
 31
0.0
  0
LINE
  5
1A3
330
17
100
AcDbEntity
  8
Inner
100
AcDbLine
 10
18.640414782561837
 20
15.641165169039075
 30
0.0
 11
17.527913134918464
 21
16.92650896018424
 31
0.0
  0
LINE
  5
1A4
330
17
100
AcDbEntity
  8
Inner
100
AcDbLine
 10
17.527913134918464
 20
16.92650896018424
 30
0.0
 11
16.326786795156217
 21
18.132733741648355
 31
0.0
  0
LINE
  5
1A5
330
17
100
AcDbEntity
  8
Inner
100
AcDbLine
 10
16.326786795156217
 20
18.132733741648355
 30
0.0
 11
15.042662047123612
 21
19.25372941312422
 31
0.0
  0
LINE
  5
1A6
330
17
100
AcDbEntity
  8
Inner
100
AcDbLine
 10
15.042662047123612
 20
19.25372941312422
 30
0.0
 11
13.681586371584245
 21
20.28378594184671
 31
0.0
  0
LINE
  5
1A7
330
17
100
AcDbEntity
  8
Inner
100
AcDbLine
 10
13.681586371584245
 20
20.28378594184671
 30
0.0
 11
12.250000000000062
 21
21.21762239271871
 31
0.0
  0
LINE
  5
1A8
330
17
100
AcDbEntity
  8
Inner
100
AcDbLine
 10
12.250000000000062
 20
21.21762239271871
 30
0.0
 11
10.754705467892038
 21
22.050413935872896
 31
0.0
  0
LINE
  5
1A9
330
17
100
AcDbEntity
  8
Inner
100
AcDbLine
 10
10.754705467892038
 20
22.050413935872896
 30
0.0
 11
9.20283531158418
 21
22.77781669385743
 31
0.0
  0
LINE
  5
1AA
330
17
100
AcDbEntity
  8
Inner
100
AcDbLine
 10
9.20283531158418
 20
22.77781669385743
 30
0.0
 11
7.6018180616237485
 21
23.395990300860763
 31
0.0
  0
LINE
  5
1AB
330
17
100
AcDbEntity
  8
Inner
100
AcDbLine
 10
7.6018180616237485
 20
23.395990300860763
 30
0.0
 11
5.959342694938457
 21
23.901618057265384
 31
0.0
  0
LINE
  5
1AC
330
17
100
AcDbEntity
  8
Inner
100
AcDbLine
 10
5.959342694938457
 20
23.901618057265384
 30
0.0
 11
4.283321715784363
 21
24.29192457430112
 31
0.0
  0
LINE
  5
1AD
330
17
100
AcDbEntity
  8
Inner
100
AcDbLine
 10
4.283321715784363
 20
24.29192457430112
 30
0.0
 11
2.581853042711055
 21
24.56469081559635
 31
0.0
  0
LINE
  5
1AE
330
17
100
AcDbEntity
  8
Inner
100
AcDbLine
 10
2.581853042711055
 20
24.56469081559635
 30
0.0
 11
0.8631808851084702
 21
24.71826645493897
 31
0.0
  0
LINE
  5
1AF
330
17
100
AcDbEntity
  8
Inner
100
AcDbLine
 10
0.8631808851084702
 20
24.71826645493897
 30
0.0
 11
-0.8643442016652203
 21
24.75157948250627
 31
0.0
  0
LINE
  5
1B0
330
17
100
AcDbEntity
  8
Inner
100
AcDbLine
 10
-0.8643442016652203
 20
24.75157948250627
 30
0.0
 11
-2.5923058890378208
 21
24.664143005133177
 31
0.0
  0
LINE
  5
1B1
330
17
100
AcDbEntity
  8
Inner
100
AcDbLine
 10
-2.5923058890378208
 20
24.664143005133177
 30
0.0
 11
-4.312263078728678
 21
24.45605919980318
 31
0.0
  0
LINE
  5
1B2
330
17
100
AcDbEntity
  8
Inner
100
AcDbLine
 10
-4.312263078728678
 20
24.45605919980318
 30
0.0
 11
-6.0157911372450465
 21
24.12802039339645
 31
0.0
  0
LINE
  5
1B3
330
17
100
AcDbEntity
  8
Inner
100
AcDbLine
 10
-6.0157911372450465
 20
24.12802039339645
 30
0.0
 11
-7.6945231599362325
 21
23.681307255749307
 31
0.0
  0
LINE
  5
1B4
330
17
100
AcDbEntity
  8
Inner
100
AcDbLine
 10
-7.6945231599362325
 20
23.681307255749307
 30
0.0
 11
-9.340191062503347
 21
23.117784107198588
 31
0.0
  0
LINE
  5
1B5
330
17
100
AcDbEntity
  8
Inner
100
AcDbLine
 10
-9.340191062503347
 20
23.117784107198588
 30
0.0
 11
-10.944666298167302
 21
22.439891355935867
 31
0.0
  0
LINE
  5
1B6
330
17
100
AcDbEntity
  8
Inner
100
AcDbLine
 10
-10.944666298167302
 20
22.439891355935867
 30
0.0
 11
-12.49999999999991
 21
21.65063509461102
 31
0.0
  0
LINE
  5
1B7
330
17
100
AcDbEntity
  8
Inner
100
AcDbLine
 10
-12.49999999999991
 20
21.65063509461102
 30
0.0
 11
-13.998462350217666
 21
20.753573899627895
 31
0.0
  0
LINE
  5
1B8
330
17
100
AcDbEntity
  8
Inner
100
AcDbLine
 10
-13.998462350217666
 20
20.753573899627895
 30
0.0
 11
-15.432580981496528
 21
19.752802890408475
 31
0.0
  0
LINE
  5
1B9
330
17
100
AcDbEntity
  8
Inner
100
AcDbLine
 10
-15.432580981496528
 20
19.752802890408475
 30
0.0
 11
-16.795178219607283
 21
18.652935119482645
 31
0.0
  0
LINE
  5
1BA
330
17
100
AcDbEntity
  8
Inner
100
AcDbLine
 10
-16.795178219607283
 20
18.652935119482645
 30
0.0
 11
-18.079406981844762
 21
17.459080377536136
 31
0.0
  0
LINE
  5
1BB
330
17
100
AcDbEntity
  8
Inner
100
AcDbLine
 10
-18.079406981844762
 20
17.459080377536136
 30
0.0
 11
-19.278785151827655
 21
16.176821510444526
 31
0.0
  0
LINE
  5
1BC
330
17
100
AcDbEntity
  8
Inner
100
AcDbLine
 10
-19.278785151827655
 20
16.176821510444526
 30
0.0
 11
-20.38722825824865
 21
14.812188357770362
 31
0.0
  0
LINE
  5
1BD
330
17
100
AcDbEntity
  8
Inner
100
AcDbLine
 10
-20.38722825824865
 20
14.812188357770362
 30
0.0
 11
-21.39908029301383
 21
13.371629434151185
 31
0.0
  0
LINE
  5
1BE
330
17
100
AcDbEntity
  8
Inner
100
AcDbLine
 10
-21.39908029301383
 20
13.371629434151185
 30
0.0
 11
-22.30914251290218
 21
11.861981486390249
 31
0.0
  0
LINE
  5
1BF
330
17
100
AcDbEntity
  8
Inner
100
AcDbLine
 10
-22.30914251290218
 20
11.861981486390249
 30
0.0
 11
-23.112700078357797
 21
10.29043706981776
 31
0.0
  0
LINE
  5
1C0
330
17
100
AcDbEntity
  8
Inner
100
AcDbLine
 10
-23.112700078357797
 20
10.29043706981776
 30
0.0
 11
-23.805546393243034
 21
8.664510297583558
 31
0.0
  0
LINE
  5
1C1
330
17
100
AcDbEntity
  8
Inner
100
AcDbLine
 10
-23.805546393243034
 20
8.664510297583558
 30
0.0
 11
-24.384005020302006
 21
6.992000925891267
 31
0.0
  0
LINE
  5
1C2
330
17
100
AcDbEntity
  8
Inner
100
AcDbLine
 10
-24.384005020302006
 20
6.992000925891267
 30
0.0
 11
-24.844949058638665
 21
5.280956946771074
 31
0.0
  0
LINE
  5
1C3
330
17
100
AcDbEntity
  8
Inner
100
AcDbLine
 10
-24.844949058638665
 20
5.280956946771074
 30
0.0
 11
-25.185817881660594
 21
3.5396358677510937
 31
0.0
  0
LINE
  5
1C4
330
17
100
AcDbEntity
  8
Inner
100
AcDbLine
 10
-25.185817881660594
 20
3.5396358677510937
 30
0.0
 11
-25.404631146616858
 21
1.776464864683751
 31
0.0
  0
LINE
  5
1C5
330
17
100
AcDbEntity
  8
Inner
100
AcDbLine
 10
-25.404631146616858
 20
1.776464864683751
 30
0.0
 11
-25.5
 21
-4.3751458742026516e-14
 31
0.0
  0
LINE
  5
1C6
330
17
100
AcDbEntity
  8
Inner
100
AcDbLine
 10
-25.5
 20
-4.3751458742026516e-14
 30
0.0
 11
-25.47113541663418
 21
-1.781115296266599
 31
0.0
  0
LINE
  5
1C7
330
17
100
AcDbEntity
  8
Inner
100
AcDbLine
 10
-25.47113541663418
 20
-1.781115296266599
 30
0.0
 11
-25.31785362415948
 21
-3.558192281212343
 31
0.0
  0
LINE
  5
1C8
330
17
100
AcDbEntity
  8
Inner
100
AcDbLine
 10
-25.31785362415948
 20
-3.558192281212343
 30
0.0
 11
-25.040578578785446
 21
-5.322539284934534
 31
0.0
  0
LINE
  5
1C9
330
17
100
AcDbEntity
  8
Inner
100
AcDbLine
 10
-25.040578578785446
 20
-5.322539284934534
 30
0.0
 11
-24.640341472552247
 21
-7.0655042207757095
 31
0.0
  0
LINE
  5
1CA
330
17
100
AcDbEntity
  8
Inner
100
AcDbLine
 10
-24.640341472552247
 20
-7.0655042207757095
 30
0.0
 11
-24.118777266838304
 21
-8.778517012025528
 31
0.0
  0
LINE
  5
1CB
330
17
100
AcDbEntity
  8
Inner
100
AcDbLine
 10
-24.118777266838304
 20
-8.778517012025528
 30
0.0
 11
-23.478118261414874
 21
-10.453131727047994
 31
0.0
  0
LINE
  5
1CC
330
17
100
AcDbEntity
  8
Inner
100
AcDbLine
 10
-23.478118261414874
 20
-10.453131727047994
 30
0.0
 11
-22.721184722903057
 21
-12.08106821569025
 31
0.0
  0
LINE
  5
1CD
330
17
100
AcDbEntity
  8
Inner
100
AcDbLine
 10
-22.721184722903057
 20
-12.08106821569025
 30
0.0
 11
-21.851372610963875
 21
-13.654253041742301
 31
0.0
  0
LINE
  5
1CE
330
17
100
AcDbEntity
  8
Inner
100
AcDbLine
 10
-21.851372610963875
 20
-13.654253041742301
 30
0.0
 11
-20.87263845487367
 21
-15.164859509145765
 31
0.0
  0
LINE
  5
1CF
330
17
100
AcDbEntity
  8
Inner
100
AcDbLine
 10
-20.87263845487367
 20
-15.164859509145765
 30
0.0
 11
-19.78948144724025
 21
-16.60534658356895
 31
0.0
  0
LINE
  5
1D0
330
17
100
AcDbEntity
  8
Inner
100
AcDbLine
 10
-19.78948144724025
 20
-16.60534658356895
 30
0.0
 11
-18.606922835426506
 21
-17.968496515872665
 31
0.0
  0
LINE
  5
1D1
330
17
100
AcDbEntity
  8
Inner
100
AcDbLine
 10
-18.606922835426506
 20
-17.968496515872665
 30
0.0
 11
-17.33048270469444
 21
-19.2474509798645
 31
0.0
  0
LINE
  5
1D2
330
17
100
AcDbEntity
  8
Inner
100
AcDbLine
 10
-17.33048270469444
 20
-19.2474509798645
 30
0.0
 11
-15.96615426011203
 21
-20.435745543534356
 31
0.0
  0
LINE
  5
1D3
330
17
100
AcDbEntity
  8
Inner
100
AcDbLine
 10
-15.96615426011203
 20
-20.435745543534356
 30
0.0
 11
-14.520375726790443
 21
-21.527342300679216
 31
0.0
  0
LINE
  5
1D4
330
17
100
AcDbEntity
  8
Inner
100
AcDbLine
 10
-14.520375726790443
 20
-21.527342300679216
 30
0.0
 11
-12.99999999999999
 21
-22.516660498395414
 31
0.0
  0
LINE
  5
1D5
330
17
100
AcDbEntity
  8
Inner
100
AcDbLine
 10
-12.99999999999999
 20
-22.516660498395414
 30
0.0
 11
-11.41226218807574
 21
-23.398605005321603
 31
0.0
  0
LINE
  5
1D6
330
17
100
AcDbEntity
  8
Inner
100
AcDbLine
 10
-11.41226218807574
 20
-23.398605005321603
 30
0.0
 11
-9.764745201708134
 21
-24.16859247570758
 31
0.0
  0
LINE
  5
1D7
330
17
100
AcDbEntity
  8
Inner
100
AcDbLine
 10
-9.764745201708134
 20
-24.16859247570758
 30
0.0
 11
-8.065343553186088
 21
-24.822575075303522
 31
0.0
  0
LINE
  5
1D8
330
17
100
AcDbEntity
  8
Inner
100
AcDbLine
 10
-8.065343553186088
 20
-24.822575075303522
 30
0.0
 11
-6.322225538338051
 21
-25.357061646679355
 31
0.0
  0
LINE
  5
1D9
330
17
100
AcDbEntity
  8
Inner
100
AcDbLine
 10
-6.322225538338051
 20
-25.357061646679355
 30
0.0
 11
-4.543793982284676
 21
-25.769136203819443
 31
0.0
  0
LINE
  5
1DA
330
17
100
AcDbEntity
  8
Inner
100
AcDbLine
 10
-4.543793982284676
 20
-25.769136203819443
 30
0.0
 11
-2.7386457376126323
 21
-26.05647365864875
 31
0.0
  0
LINE
  5
1DB
330
17
100
AcDbEntity
  8
Inner
100
AcDbLine
 10
-2.7386457376126323
 20
-26.05647365864875
 30
0.0
 11
-0.915530130162315
 21
-26.21735269546761
 31
0.0
  0
LINE
  5
1DC
330
17
100
AcDbEntity
  8
Inner
100
AcDbLine
 10
-0.915530130162315
 20
-26.21735269546761
 30
0.0
 11
0.9166934467190586
 21
-26.25066572303491
 31
0.0
  0
LINE
  5
1DD
330
17
100
AcDbEntity
  8
Inner
100
AcDbLine
 10
0.9166934467190586
 20
-26.25066572303491
 30
0.0
 11
2.7490985839392055
 21
-26.155925848185596
 31
0.0
  0
LINE
  5
1DE
330
17
100
AcDbEntity
  8
Inner
100
AcDbLine
 10
2.7490985839392055
 20
-26.155925848185596
 30
0.0
 11
4.572735345229157
 21
-25.93327082932148
 31
0.0
  0
LINE
  5
1DF
330
17
100
AcDbEntity
  8
Inner
100
AcDbLine
 10
4.572735345229157
 20
-25.93327082932148
 30
0.0
 11
6.378673980644635
 21
-25.583463982810425
 31
0.0
  0
LINE
  5
1E0
330
17
100
AcDbEntity
  8
Inner
100
AcDbLine
 10
6.378673980644635
 20
-25.583463982810425
 30
0.0
 11
8.158048651498564
 21
-25.10789203019207
 31
0.0
  0
LINE
  5
1E1
330
17
100
AcDbEntity
  8
Inner
100
AcDbLine
 10
8.158048651498564
 20
-25.10789203019207
 30
0.0
 11
9.902100952627297
 21
-24.50855988904874
 31
0.0
  0
LINE
  5
1E2
330
17
100
AcDbEntity
  8
Inner
100
AcDbLine
 10
9.902100952627297
 20
-24.50855988904874
 30
0.0
 11
11.602223018350832
 21
-23.78808242538466
 31
0.0
  0
LINE
  5
1E3
330
17
100
AcDbEntity
  8
Inner
100
AcDbLine
 10
11.602223018350832
 20
-23.78808242538466
 30
0.0
 11
13.249999999999984
 21
-22.949673200287634
 31
0.0
  0
LINE
  5
1E4
330
17
100
AcDbEntity
  8
Inner
100
AcDbLine
 10
13.249999999999984
 20
-22.949673200287634
 30
0.0
 11
14.837251705423858
 21
-21.997130258460405
 31
0.0
  0
LINE
  5
1E5
330
17
100
AcDbEntity
  8
Inner
100
AcDbLine
 10
14.837251705423858
 20
-21.997130258460405
 30
0.0
 11
16.35607319448494
 21
-20.934819020818615
 31
0.0
  0
LINE
  5
1E6
330
17
100
AcDbEntity
  8
Inner
100
AcDbLine
 10
16.35607319448494
 20
-20.934819020818615
 30
0.0
 11
17.798874129145638
 21
-19.767652357698676
 31
0.0
  0
LINE
  5
1E7
330
17
100
AcDbEntity
  8
Inner
100
AcDbLine
 10
17.798874129145638
 20
-19.767652357698676
 30
0.0
 11
19.15841668235267
 21
-18.501067933224704
 31
0.0
  0
LINE
  5
1E8
330
17
100
AcDbEntity
  8
Inner
100
AcDbLine
 10
19.15841668235267
 20
-18.501067933224704
 30
0.0
 11
20.427851816506063
 21
-17.14100292497441
 31
0.0
  0
LINE
  5
1E9
330
17
100
AcDbEntity
  8
Inner
100
AcDbLine
 10
20.427851816506063
 20
-17.14100292497441
 30
0.0
 11
21.600753749811123
 21
-15.693866236208999
 31
0.0
  0
LINE
  5
1EA
330
17
100
AcDbEntity
  8
Inner
100
AcDbLine
 10
21.600753749811123
 20
-15.693866236208999
 30
0.0
 11
22.671152437248416
 21
-14.166508330501074
 31
0.0
  0
LINE
  5
1EB
330
17
100
AcDbEntity
  8
Inner
100
AcDbLine
 10
22.671152437248416
 20
-14.166508330501074
 30
0.0
 11
23.633563902190613
 21
-12.56618883056901
 31
0.0
  0
LINE
  5
1EC
330
17
100
AcDbEntity
  8
Inner
100
AcDbLine
 10
23.633563902190613
 20
-12.56618883056901
 30
0.0
 11
24.483018264821656
 21
-10.90054203443155
 31
0.0
  0
LINE
  5
1ED
330
17
100
AcDbEntity
  8
Inner
100
AcDbLine
 10
24.483018264821656
 20
-10.90054203443155
 30
0.0
 11
25.215085324421864
 21
-9.177540512572152
 31
0.0
  0
LINE
  5
1EE
330
17
100
AcDbEntity
  8
Inner
100
AcDbLine
 10
25.215085324421864
 20
-9.177540512572152
 30
0.0
 11
25.82589756420951
 21
-7.4054569596166795
 31
0.0
  0
LINE
  5
1EF
330
17
100
AcDbEntity
  8
Inner
100
AcDbLine
 10
25.82589756420951
 20
-7.4054569596166795
 30
0.0
 11
26.312170459739352
 21
-5.592824482997808
 31
0.0
  0
LINE
  5
1F0
330
17
100
AcDbEntity
  8
Inner
100
AcDbLine
 10
26.312170459739352
 20
-5.592824482997808
 30
0.0
 11
26.67121998477296
 21
-3.7483955191911065
 31
0.0
  0
LINE
  5
1F1
330
17
100
AcDbEntity
  8
Inner
100
AcDbLine
 10
26.67121998477296
 20
-3.7483955191911065
 30
0.0
 11
26.9009772220066
 21
-1.881099575299848
 31
0.0
  0
ENDSEC
  0
SECTION
  2
OBJECTS
  0
DICTIONARY
  5
A
330
0
100
AcDbDictionary
281
1
  3
ACAD_COLOR
350
B
  3
ACAD_GROUP
350
C
  3
ACAD_LAYOUT
350
D
  3
ACAD_MATERIAL
350
E
  3
ACAD_MLEADERSTYLE
350
F
  3
ACAD_MLINESTYLE
350
10
  3
ACAD_PLOTSETTINGS
350
11
  3
ACAD_PLOTSTYLENAME
350
12
  3
ACAD_SCALELIST
350
14
  3
ACAD_TABLESTYLE
350
15
  3
ACAD_VISUALSTYLE
350
16
  0
DICTIONARY
  5
B
330
A
100
AcDbDictionary
281
1
  0
DICTIONARY
  5
C
330
A
100
AcDbDictionary
281
1
  0
DICTIONARY
  5
D
330
A
100
AcDbDictionary
281
1
  3
Model
350
1A
  3
Layout1
350
1E
  0
DICTIONARY
  5
E
330
A
100
AcDbDictionary
281
1
  3
ByBlock
350
1F
  3
ByLayer
350
20
  3
Global
350
21
  0
DICTIONARY
  5
F
330
A
100
AcDbDictionary
281
1
  3
Standard
350
2C
  0
DICTIONARY
  5
10
330
A
100
AcDbDictionary
281
1
  3
Standard
350
22
  0
DICTIONARY
  5
11
330
A
100
AcDbDictionary
281
1
  0
ACDBDICTIONARYWDFLT
  5
12
330
A
100
AcDbDictionary
281
1
  3
Normal
350
13
100
AcDbDictionaryWithDefault
340
13
  0
ACDBPLACEHOLDER
  5
13
330
12
  0
DICTIONARY
  5
14
330
A
100
AcDbDictionary
281
1
  0
DICTIONARY
  5
15
330
A
100
AcDbDictionary
281
1
  0
DICTIONARY
  5
16
330
A
100
AcDbDictionary
281
1
  3
2dWireframe
350
58
  3
Basic
350
59
  3
Brighten
350
5A
  3
ColorChange
350
5B
  3
Conceptual
350
5C
  3
Dim
350
5D
  3
EdgeColorOff
350
5E
  3
Facepattern
350
5F
  3
Flat
350
60
  3
FlatWithEdges
350
61
  3
Gouraud
350
62
  3
GouraudWithEdges
350
63
  3
Hidden
350
64
  3
JitterOff
350
65
  3
Linepattern
350
66
  3
Modeling
350
67
  3
OverhangOff
350
68
  3
Realistic
350
69
  3
Shaded
350
6A
  3
Shaded with edges
350
6B
  3
Shades of Gray
350
6C
  3
Sketchy
350
6D
  3
Thicken
350
6E
  3
Wireframe
350
6F
  3
X-Ray
350
70
  0
LAYOUT
  5
1A
330
D
100
AcDbPlotSettings
  1

  2
Adobe PDF
  4
A4
  6

 40
3.175
 41
3.175
 42
3.175
 43
3.175
 44
209.91
 45
297.03
 46
0.0
 47
0.0
 48
0.0
 49
0.0
140
0.0
141
0.0
142
1.0
143
1.0
 70
1024
 72
0
 73
1
 74
5
  7

 75
16
 76
0
 77
2
 78
300
147
1.0
148
0.0
149
0.0
100
AcDbLayout
  1
Model
 70
1
 71
0
 10
-3.175
 20
-3.175
 11
293.857
 21
206.735
 12
0.0
 22
0.0
 32
0.0
 14
29.068
 24
20.356
 34
0.0
 15
261.614
 25
183.204
 35
0.0
146
0.0
 13
0.0
 23
0.0
 33
0.0
 16
1.0
 26
0.0
 36
0.0
 17
0.0
 27
1.0
 37
0.0
 76
1
330
17
  0
LAYOUT
  5
1E
330
D
100
AcDbPlotSettings
  1

  2
Adobe PDF
  4
A4
  6

 40
3.175
 41
3.175
 42
3.175
 43
3.175
 44
209.91
 45
297.03
 46
0.0
 47
0.0
 48
0.0
 49
0.0
140
0.0
141
0.0
142
1.0
143
1.0
 70
0
 72
0
 73
1
 74
5
  7

 75
16
 76
0
 77
2
 78
300
147
1.0
148
0.0
149
0.0
100
AcDbLayout
  1
Layout1
 70
1
 71
1
 10
-3.175
 20
-3.175
 11
293.857
 21
206.735
 12
0.0
 22
0.0
 32
0.0
 14
29.068
 24
20.356
 34
0.0
 15
261.614
 25
183.204
 35
0.0
146
0.0
 13
0.0
 23
0.0
 33
0.0
 16
1.0
 26
0.0
 36
0.0
 17
0.0
 27
1.0
 37
0.0
 76
1
330
1B
  0
MATERIAL
  5
1F
102
{ACAD_REACTORS
330
E
102
}
330
E
100
AcDbMaterial
  1
ByBlock
  2

 70
0
 40
1.0
 71
1
 41
1.0
 91
-1023410177
 42
1.0
 72
1
  3

 73
1
 74
1
 75
1
 44
0.5
 73
0
 45
1.0
 46
1.0
 77
1
  4

 78
1
 79
1
170
1
 48
1.0
171
1
  6

172
1
173
1
174
1
140
1.0
141
1.0
175
1
  7

176
1
177
1
178
1
143
1.0
179
1
  8

270
1
271
1
272
1
145
1.0
146
1.0
273
1
  9

274
1
275
1
276
1
 42
1.0
 72
1
  3

 73
1
 74
1
 75
1
 94
63
  0
MATERIAL
  5
20
102
{ACAD_REACTORS
330
E
102
}
330
E
100
AcDbMaterial
  1
ByLayer
  2

 70
0
 40
1.0
 71
1
 41
1.0
 91
-1023410177
 42
1.0
 72
1
  3

 73
1
 74
1
 75
1
 44
0.5
 73
0
 45
1.0
 46
1.0
 77
1
  4

 78
1
 79
1
170
1
 48
1.0
171
1
  6

172
1
173
1
174
1
140
1.0
141
1.0
175
1
  7

176
1
177
1
178
1
143
1.0
179
1
  8

270
1
271
1
272
1
145
1.0
146
1.0
273
1
  9

274
1
275
1
276
1
 42
1.0
 72
1
  3

 73
1
 74
1
 75
1
 94
63
  0
MATERIAL
  5
21
102
{ACAD_REACTORS
330
E
102
}
330
E
100
AcDbMaterial
  1
Global
  2

 70
0
 40
1.0
 71
1
 41
1.0
 91
-1023410177
 42
1.0
 72
1
  3

 73
1
 74
1
 75
1
 44
0.5
 73
0
 45
1.0
 46
1.0
 77
1
  4

 78
1
 79
1
170
1
 48
1.0
171
1
  6

172
1
173
1
174
1
140
1.0
141
1.0
175
1
  7

176
1
177
1
178
1
143
1.0
179
1
  8

270
1
271
1
272
1
145
1.0
146
1.0
273
1
  9

274
1
275
1
276
1
 42
1.0
 72
1
  3

 73
1
 74
1
 75
1
 94
63
  0
MLINESTYLE
  5
22
102
{ACAD_REACTORS
330
10
102
}
330
10
100
AcDbMlineStyle
  2
Standard
 70
0
  3

 62
256
 51
90.0
 52
90.0
 71
2
 49
0.5
 62
256
  6
BYLAYER
 49
-0.5
 62
256
  6
BYLAYER
  0
MLEADERSTYLE
  5
2C
102
{ACAD_REACTORS
330
F
102
}
330
F
100
AcDbMLeaderStyle
179
2
170
2
171
1
172
0
 90
2
 40
0.0
 41
0.0
173
1
 91
-1056964608
 92
-2
290
1
 42
2.0
291
1
 43
8.0
  3
Standard
 44
4.0
300

342
29
174
1
175
1
176
0
178
1
 93
-1056964608
 45
4.0
292
0
297
0
 46
4.0
 94
-1056964608
 47
1.0
 49
1.0
140
1.0
294
1
141
0.0
177
0
142
1.0
295
0
296
0
143
3.75
271
0
272
9
273
9
  0
VISUALSTYLE
  5
58
102
{ACAD_REACTORS
330
16
102
}
330
16
100
AcDbVisualStyle
  2
2dWireframe
 70
4
 90
0
 40
0.6
 62
7
290
0
291
0
  0
VISUALSTYLE
  5
59
102
{ACAD_REACTORS
330
16
102
}
330
16
100
AcDbVisualStyle
  2
Basic
 70
7
 90
1
 40
0.6
 62
7
290
0
291
1
  0
VISUALSTYLE
  5
5A
102
{ACAD_REACTORS
330
16
102
}
330
16
100
AcDbVisualStyle
  2
Brighten
 70
12
 90
2
 40
0.6
 62
7
290
0
291
1
  0
VISUALSTYLE
  5
5B
102
{ACAD_REACTORS
330
16
102
}
330
16
100
AcDbVisualStyle
  2
ColorChange
 70
16
 90
2
 40
0.6
 62
8
290
0
291
1
  0
VISUALSTYLE
  5
5C
102
{ACAD_REACTORS
330
16
102
}
330
16
100
AcDbVisualStyle
  2
Conceptual
 70
9
 90
3
 40
0.6
 62
7
290
0
291
0
  0
VISUALSTYLE
  5
5D
102
{ACAD_REACTORS
330
16
102
}
330
16
100
AcDbVisualStyle
  2
Dim
 70
11
 90
2
 40
0.6
 62
7
290
0
291
1
  0
VISUALSTYLE
  5
5E
102
{ACAD_REACTORS
330
16
102
}
330
16
100
AcDbVisualStyle
  2
EdgeColorOff
 70
22
 90
2
 40
0.6
 62
7
290
0
291
1
  0
VISUALSTYLE
  5
5F
102
{ACAD_REACTORS
330
16
102
}
330
16
100
AcDbVisualStyle
  2
Facepattern
 70
15
 90
2
 40
0.6
 62
7
290
0
291
1
  0
VISUALSTYLE
  5
60
102
{ACAD_REACTORS
330
16
102
}
330
16
100
AcDbVisualStyle
  2
Flat
 70
0
 90
2
 40
0.6
 62
7
290
0
291
1
  0
VISUALSTYLE
  5
61
102
{ACAD_REACTORS
330
16
102
}
330
16
100
AcDbVisualStyle
  2
FlatWithEdges
 70
1
 90
2
 40
0.6
 62
7
290
0
291
1
  0
VISUALSTYLE
  5
62
102
{ACAD_REACTORS
330
16
102
}
330
16
100
AcDbVisualStyle
  2
Gouraud
 70
2
 90
2
 40
0.6
 62
7
290
0
291
1
  0
VISUALSTYLE
  5
63
102
{ACAD_REACTORS
330
16
102
}
330
16
100
AcDbVisualStyle
  2
GouraudWithEdges
 70
3
 90
2
 40
0.6
 62
7
290
0
291
1
  0
VISUALSTYLE
  5
64
102
{ACAD_REACTORS
330
16
102
}
330
16
100
AcDbVisualStyle
  2
Hidden
 70
6
 90
1
 40
0.6
 62
7
290
0
291
0
  0
VISUALSTYLE
  5
65
102
{ACAD_REACTORS
330
16
102
}
330
16
100
AcDbVisualStyle
  2
JitterOff
 70
20
 90
2
 40
0.6
 62
7
290
0
291
1
  0
VISUALSTYLE
  5
66
102
{ACAD_REACTORS
330
16
102
}
330
16
100
AcDbVisualStyle
  2
Linepattern
 70
14
 90
2
 40
0.6
 62
7
290
0
291
1
  0
VISUALSTYLE
  5
67
102
{ACAD_REACTORS
330
16
102
}
330
16
100
AcDbVisualStyle
  2
Modeling
 70
10
 90
2
 40
0.6
 62
7
290
0
291
0
  0
VISUALSTYLE
  5
68
102
{ACAD_REACTORS
330
16
102
}
330
16
100
AcDbVisualStyle
  2
OverhangOff
 70
21
 90
2
 40
0.6
 62
7
290
0
291
1
  0
VISUALSTYLE
  5
69
102
{ACAD_REACTORS
330
16
102
}
330
16
100
AcDbVisualStyle
  2
Realistic
 70
8
 90
2
 40
0.6
 62
7
290
0
291
0
  0
VISUALSTYLE
  5
6A
102
{ACAD_REACTORS
330
16
102
}
330
16
100
AcDbVisualStyle
  2
Shaded
 70
27
 90
2
 40
0.6
 62
7
290
0
291
0
  0
VISUALSTYLE
  5
6B
102
{ACAD_REACTORS
330
16
102
}
330
16
100
AcDbVisualStyle
  2
Shaded with edges
 70
26
 90
2
 40
0.6
 62
7
290
0
291
0
  0
VISUALSTYLE
  5
6C
102
{ACAD_REACTORS
330
16
102
}
330
16
100
AcDbVisualStyle
  2
Shades of Gray
 70
23
 90
2
 40
0.6
 62
7
290
0
291
0
  0
VISUALSTYLE
  5
6D
102
{ACAD_REACTORS
330
16
102
}
330
16
100
AcDbVisualStyle
  2
Sketchy
 70
24
 90
1
 40
0.6
 62
7
290
0
291
0
  0
VISUALSTYLE
  5
6E
102
{ACAD_REACTORS
330
16
102
}
330
16
100
AcDbVisualStyle
  2
Thicken
 70
13
 90
2
 40
0.6
 62
7
290
0
291
1
  0
VISUALSTYLE
  5
6F
102
{ACAD_REACTORS
330
16
102
}
330
16
100
AcDbVisualStyle
  2
Wireframe
 70
5
 90
0
 40
0.6
 62
7
290
0
291
0
  0
VISUALSTYLE
  5
70
102
{ACAD_REACTORS
330
16
102
}
330
16
100
AcDbVisualStyle
  2
X-Ray
 70
25
 90
2
 40
0.5
 62
7
290
0
291
0
  0
ENDSEC
  0
EOF
