  0
SECTION
  2
HEADER
  9
$ACADVER
  1
AC1027
  9
$ACADMAINTVER
 70
105
  9
$DWGCODEPAGE
  3
ANSI_1252
  9
$LASTSAVEDBY
  1
ezdxf
  9
$REQUIREDVERSIONS
160
0
  9
$INSBASE
 10
0.0
 20
0.0
 30
0.0
  9
$EXTMIN
 10
-100
 20
-100
 30
-100
  9
$EXTMAX
 10
100
 20
100
 30
100
  9
$LIMMIN
 10
0.0
 20
0.0
  9
$LIMMAX
 10
420.0
 20
297.0
  9
$ORTHOMODE
 70
0
  9
$REGENMODE
 70
1
  9
$FILLMODE
 70
1
  9
$QTEXTMODE
 70
0
  9
$MIRRTEXT
 70
1
  9
$LTSCALE
 40
1.0
  9
$ATTMODE
 70
1
  9
$TEXTSIZE
 40
2.5
  9
$TRACEWID
 40
1.0
  9
$TEXTSTYLE
  7
OpenSans
  9
$CLAYER
  8
0
  9
$CELTYPE
  6
ByLayer
  9
$CECOLOR
 62
256
  9
$CELTSCALE
 40
1.0
  9
$DISPSILH
 70
0
  9
$DIMSCALE
 40
1.0
  9
$DIMASZ
 40
0.175
  9
$DIMEXO
 40
0.125
  9
$DIMDLI
 40
3.75
  9
$DIMRND
 40
0.0
  9
$DIMDLE
 40
0.0
  9
$DIMEXE
 40
0.375
  9
$DIMTP
 40
0.0
  9
$DIMTM
 40
0.0
  9
$DIMTXT
 40
0.25
  9
$DIMCEN
 40
2.5
  9
$DIMTSZ
 40
0.0
  9
$DIMTOL
 70
0
  9
$DIMLIM
 70
0
  9
$DIMTIH
 70
0
  9
$DIMTOH
 70
0
  9
$DIMSE1
 70
0
  9
$DIMSE2
 70
0
  9
$DIMTAD
 70
1
  9
$DIMZIN
 70
8
  9
$DIMBLK
  1
ARCHTICK
  9
$DIMASO
 70
1
  9
$DIMSHO
 70
1
  9
$DIMPOST
  1

  9
$DIMAPOST
  1

  9
$DIMALT
 70
0
  9
$DIMALTD
 70
3
  9
$DIMALTF
 40
0.03937007874
  9
$DIMLFAC
 40
100.0
  9
$DIMTOFL
 70
1
  9
$DIMTVP
 40
0.0
  9
$DIMTIX
 70
0
  9
$DIMSOXD
 70
0
  9
$DIMSAH
 70
0
  9
$DIMBLK1
  1

  9
$DIMBLK2
  1

  9
$DIMSTYLE
  2
EZDXF
  9
$DIMCLRD
 70
0
  9
$DIMCLRE
 70
0
  9
$DIMCLRT
 70
0
  9
$DIMTFAC
 40
1.0
  9
$DIMGAP
 40
0.1
  9
$DIMJUST
 70
0
  9
$DIMSD1
 70
0
  9
$DIMSD2
 70
0
  9
$DIMTOLJ
 70
0
  9
$DIMTZIN
 70
8
  9
$DIMALTZ
 70
0
  9
$DIMALTTZ
 70
0
  9
$DIMUPT
 70
1
  9
$DIMDEC
 70
2
  9
$DIMTDEC
 70
2
  9
$DIMALTU
 70
2
  9
$DIMALTTD
 70
3
  9
$DIMTXSTY
  7
OpenSansCondensed-Light
  9
$DIMAUNIT
 70
0
  9
$DIMADEC
 70
0
  9
$DIMALTRND
 40
0.0
  9
$DIMAZIN
 70
0
  9
$DIMDSEP
 70
46
  9
$DIMATFIT
 70
3
  9
$DIMFRAC
 70
0
  9
$DIMLDRBLK
  1

  9
$DIMLUNIT
 70
2
  9
$DIMLWD
 70
-2
  9
$DIMLWE
 70
-2
  9
$DIMTMOVE
 70
2
  9
$DIMFXL
 40
1.0
  9
$DIMFXLON
 70
0
  9
$DIMJOGANG
 40
0.785398163397
  9
$DIMTFILL
 70
0
  9
$DIMTFILLCLR
 70
0
  9
$DIMARCSYM
 70
0
  9
$DIMLTYPE
  6

  9
$DIMLTEX1
  6

  9
$DIMLTEX2
  6

  9
$DIMTXTDIRECTION
 70
0
  9
$LUNITS
 70
2
  9
$LUPREC
 70
4
  9
$SKETCHINC
 40
1.0
  9
$FILLETRAD
 40
10.0
  9
$AUNITS
 70
0
  9
$AUPREC
 70
2
  9
$MENU
  1
.
  9
$ELEVATION
 40
0.0
  9
$PELEVATION
 40
0.0
  9
$THICKNESS
 40
0.0
  9
$LIMCHECK
 70
0
  9
$CHAMFERA
 40
0.0
  9
$CHAMFERB
 40
0.0
  9
$CHAMFERC
 40
0.0
  9
$CHAMFERD
 40
0.0
  9
$SKPOLY
 70
0
  9
$TDCREATE
 40
2459313.7077199076
  9
$TDUCREATE
 40
2458532.153996898
  9
$TDUPDATE
 40
2459313.7077314816
  9
$TDUUPDATE
 40
2458532.1544311
  9
$TDINDWG
 40
0.0
  9
$TDUSRTIMER
 40
0.0
  9
$USRTIMER
 70
1
  9
$ANGBASE
 50
0.0
  9
$ANGDIR
 70
0
  9
$PDMODE
 70
0
  9
$PDSIZE
 40
0.0
  9
$PLINEWID
 40
0.0
  9
$SPLFRAME
 70
0
  9
$SPLINETYPE
 70
6
  9
$SPLINESEGS
 70
8
  9
$HANDSEED
  5
1F3
  9
$SURFTAB1
 70
6
  9
$SURFTAB2
 70
6
  9
$SURFTYPE
 70
6
  9
$SURFU
 70
6
  9
$SURFV
 70
6
  9
$UCSBASE
  2

  9
$UCSNAME
  2

  9
$UCSORG
 10
0.0
 20
0.0
 30
0.0
  9
$UCSXDIR
 10
1.0
 20
0.0
 30
0.0
  9
$UCSYDIR
 10
0.0
 20
1.0
 30
0.0
  9
$UCSORTHOREF
  2

  9
$UCSORTHOVIEW
 70
0
  9
$UCSORGTOP
 10
0.0
 20
0.0
 30
0.0
  9
$UCSORGBOTTOM
 10
0.0
 20
0.0
 30
0.0
  9
$UCSORGLEFT
 10
0.0
 20
0.0
 30
0.0
  9
$UCSORGRIGHT
 10
0.0
 20
0.0
 30
0.0
  9
$UCSORGFRONT
 10
0.0
 20
0.0
 30
0.0
  9
$UCSORGBACK
 10
0.0
 20
0.0
 30
0.0
  9
$PUCSBASE
  2

  9
$PUCSNAME
  2

  9
$PUCSORG
 10
0.0
 20
0.0
 30
0.0
  9
$PUCSXDIR
 10
1.0
 20
0.0
 30
0.0
  9
$PUCSYDIR
 10
0.0
 20
1.0
 30
0.0
  9
$PUCSORTHOREF
  2

  9
$PUCSORTHOVIEW
 70
0
  9
$PUCSORGTOP
 10
0.0
 20
0.0
 30
0.0
  9
$PUCSORGBOTTOM
 10
0.0
 20
0.0
 30
0.0
  9
$PUCSORGLEFT
 10
0.0
 20
0.0
 30
0.0
  9
$PUCSORGRIGHT
 10
0.0
 20
0.0
 30
0.0
  9
$PUCSORGFRONT
 10
0.0
 20
0.0
 30
0.0
  9
$PUCSORGBACK
 10
0.0
 20
0.0
 30
0.0
  9
$USERI1
 70
0
  9
$USERI2
 70
0
  9
$USERI3
 70
0
  9
$USERI4
 70
0
  9
$USERI5
 70
0
  9
$USERR1
 40
0.0
  9
$USERR2
 40
0.0
  9
$USERR3
 40
0.0
  9
$USERR4
 40
0.0
  9
$USERR5
 40
0.0
  9
$WORLDVIEW
 70
1
  9
$SHADEDGE
 70
3
  9
$SHADEDIF
 70
70
  9
$TILEMODE
 70
1
  9
$MAXACTVP
 70
64
  9
$PINSBASE
 10
0.0
 20
0.0
 30
0.0
  9
$PLIMCHECK
 70
0
  9
$PEXTMIN
 10
1e+20
 20
1e+20
 30
1e+20
  9
$PEXTMAX
 10
-1e+20
 20
-1e+20
 30
-1e+20
  9
$PLIMMIN
 10
0.0
 20
0.0
  9
$PLIMMAX
 10
420.0
 20
297.0
  9
$UNITMODE
 70
0
  9
$VISRETAIN
 70
1
  9
$PLINEGEN
 70
0
  9
$PSLTSCALE
 70
1
  9
$TREEDEPTH
 70
3020
  9
$CMLSTYLE
  2
Standard
  9
$CMLJUST
 70
0
  9
$CMLSCALE
 40
20.0
  9
$PROXYGRAPHICS
 70
1
  9
$MEASUREMENT
 70
1
  9
$CELWEIGHT
370
-1
  9
$ENDCAPS
280
0
  9
$JOINSTYLE
280
0
  9
$LWDISPLAY
290
0
  9
$INSUNITS
 70
6
  9
$HYPERLINKBASE
  1

  9
$STYLESHEET
  1

  9
$XEDIT
290
1
  9
$CEPSNTYPE
380
0
  9
$PSTYLEMODE
290
1
  9
$FINGERPRINTGUID
  2
A42C7A38-98B5-11EB-98FA-98FA9B02E1F3
  9
$VERSIONGUID
  2
A495E202-98B5-11EB-98FA-98FA9B02E1F3
  9
$EXTNAMES
290
1
  9
$PSVPSCALE
 40
0.0
  9
$OLESTARTUP
290
0
  9
$SORTENTS
280
127
  9
$INDEXCTL
280
0
  9
$HIDETEXT
280
1
  9
$XCLIPFRAME
280
2
  9
$HALOGAP
280
0
  9
$OBSCOLOR
 70
257
  9
$OBSLTYPE
280
0
  9
$INTERSECTIONDISPLAY
280
0
  9
$INTERSECTIONCOLOR
 70
257
  9
$DIMASSOC
280
2
  9
$PROJECTNAME
  1

  9
$CAMERADISPLAY
290
0
  9
$LENSLENGTH
 40
50.0
  9
$CAMERAHEIGHT
 40
0.0
  9
$STEPSPERSEC
 40
24.0
  9
$STEPSIZE
 40
100.0
  9
$3DDWFPREC
 40
2.0
  9
$PSOLWIDTH
 40
0.005
  9
$PSOLHEIGHT
 40
0.08
  9
$LOFTANG1
 40
1.570796326795
  9
$LOFTANG2
 40
1.570796326795
  9
$LOFTMAG1
 40
0.0
  9
$LOFTMAG2
 40
0.0
  9
$LOFTPARAM
 70
7
  9
$LOFTNORMALS
280
1
  9
$LATITUDE
 40
37.795
  9
$LONGITUDE
 40
-122.394
  9
$NORTHDIRECTION
 40
0.0
  9
$TIMEZONE
 70
-8000
  9
$LIGHTGLYPHDISPLAY
280
1
  9
$TILEMODELIGHTSYNCH
280
1
  9
$CMATERIAL
347
20
  9
$SOLIDHIST
280
0
  9
$SHOWHIST
280
1
  9
$DWFFRAME
280
2
  9
$DGNFRAME
280
2
  9
$REALWORLDSCALE
290
1
  9
$INTERFERECOLOR
 62
256
  9
$CSHADOW
280
0
  9
$SHADOWPLANELOCATION
 40
0.0
  0
ENDSEC
  0
SECTION
  2
CLASSES
  0
CLASS
  1
ACDBDICTIONARYWDFLT
  2
AcDbDictionaryWithDefault
  3
ObjectDBX Classes
 90
0
 91
0
280
0
281
0
  0
CLASS
  1
SUN
  2
AcDbSun
  3
SCENEOE
 90
1153
 91
0
280
0
281
0
  0
CLASS
  1
VISUALSTYLE
  2
AcDbVisualStyle
  3
ObjectDBX Classes
 90
4095
 91
0
280
0
281
0
  0
CLASS
  1
MATERIAL
  2
AcDbMaterial
  3
ObjectDBX Classes
 90
1153
 91
0
280
0
281
0
  0
CLASS
  1
SCALE
  2
AcDbScale
  3
ObjectDBX Classes
 90
1153
 91
0
280
0
281
0
  0
CLASS
  1
TABLESTYLE
  2
AcDbTableStyle
  3
ObjectDBX Classes
 90
4095
 91
0
280
0
281
0
  0
CLASS
  1
MLEADERSTYLE
  2
AcDbMLeaderStyle
  3
ACDB_MLEADERSTYLE_CLASS
 90
4095
 91
0
280
0
281
0
  0
CLASS
  1
DICTIONARYVAR
  2
AcDbDictionaryVar
  3
ObjectDBX Classes
 90
0
 91
0
280
0
281
0
  0
CLASS
  1
CELLSTYLEMAP
  2
AcDbCellStyleMap
  3
ObjectDBX Classes
 90
1152
 91
0
280
0
281
0
  0
CLASS
  1
MENTALRAYRENDERSETTINGS
  2
AcDbMentalRayRenderSettings
  3
SCENEOE
 90
1024
 91
0
280
0
281
0
  0
CLASS
  1
ACDBDETAILVIEWSTYLE
  2
AcDbDetailViewStyle
  3
ObjectDBX Classes
 90
1025
 91
0
280
0
281
0
  0
CLASS
  1
ACDBSECTIONVIEWSTYLE
  2
AcDbSectionViewStyle
  3
ObjectDBX Classes
 90
1025
 91
0
280
0
281
0
  0
CLASS
  1
RASTERVARIABLES
  2
AcDbRasterVariables
  3
ISM
 90
0
 91
0
280
0
281
0
  0
CLASS
  1
ACDBPLACEHOLDER
  2
AcDbPlaceHolder
  3
ObjectDBX Classes
 90
0
 91
0
280
0
281
0
  0
CLASS
  1
LAYOUT
  2
AcDbLayout
  3
ObjectDBX Classes
 90
0
 91
0
280
0
281
0
  0
ENDSEC
  0
SECTION
  2
TABLES
  0
TABLE
  2
VPORT
  5
8
330
0
100
AcDbSymbolTable
 70
1
  0
VPORT
  5
23
330
8
100
AcDbSymbolTableRecord
100
AcDbViewportTableRecord
  2
*Active
 70
0
 10
0.0
 20
0.0
 11
1.0
 21
1.0
 12
70.0
 22
50.0
 13
0.0
 23
0.0
 14
0.5
 24
0.5
 15
0.5
 25
0.5
 16
0.0
 26
0.0
 36
1.0
 17
0.0
 27
0.0
 37
0.0
 40
1.0
 41
1.34
 42
50.0
 43
0.0
 44
0.0
 50
0.0
 51
0.0
 71
0
 72
1000
 73
1
 74
3
 75
0
 76
0
 77
0
 78
0
281
0
 65
0
146
0.0
  0
ENDTAB
  0
TABLE
  2
LTYPE
  5
2
330
0
100
AcDbSymbolTable
 70
21
  0
LTYPE
  5
24
330
2
100
AcDbSymbolTableRecord
100
AcDbLinetypeTableRecord
  2
ByBlock
 70
0
  3

 72
65
 73
0
 40
0.0
  0
LTYPE
  5
25
330
2
100
AcDbSymbolTableRecord
100
AcDbLinetypeTableRecord
  2
ByLayer
 70
0
  3

 72
65
 73
0
 40
0.0
  0
LTYPE
  5
26
330
2
100
AcDbSymbolTableRecord
100
AcDbLinetypeTableRecord
  2
Continuous
 70
0
  3

 72
65
 73
0
 40
0.0
  0
LTYPE
  5
2D
330
2
100
AcDbSymbolTableRecord
100
AcDbLinetypeTableRecord
  2
CENTER
 70
0
  3
Center ____ _ ____ _ ____ _ ____ _ ____ _ ____
 72
65
 73
4
 40
5.08
 49
3.175
 74
0
 49
-0.635
 74
0
 49
0.635
 74
0
 49
-0.635
 74
0
  0
LTYPE
  5
2E
330
2
100
AcDbSymbolTableRecord
100
AcDbLinetypeTableRecord
  2
CENTERX2
 70
0
  3
Center (2x) ________  __  ________  __  ________
 72
65
 73
4
 40
8.89
 49
6.35
 74
0
 49
-0.635
 74
0
 49
1.27
 74
0
 49
-0.635
 74
0
  0
LTYPE
  5
2F
330
2
100
AcDbSymbolTableRecord
100
AcDbLinetypeTableRecord
  2
CENTER2
 70
0
  3
Center (.5x) ____ _ ____ _ ____ _ ____ _ ____
 72
65
 73
4
 40
2.54
 49
1.587
 74
0
 49
-0.318
 74
0
 49
0.318
 74
0
 49
-0.318
 74
0
  0
LTYPE
  5
30
330
2
100
AcDbSymbolTableRecord
100
AcDbLinetypeTableRecord
  2
DASHED
 70
0
  3
Dashed __ __ __ __ __ __ __ __ __ __ __ __ __ _
 72
65
 73
2
 40
1.524
 49
1.27
 74
0
 49
-0.254
 74
0
  0
LTYPE
  5
31
330
2
100
AcDbSymbolTableRecord
100
AcDbLinetypeTableRecord
  2
DASHEDX2
 70
0
  3
Dashed (2x) ____  ____  ____  ____  ____  ____
 72
65
 73
2
 40
3.048
 49
2.54
 74
0
 49
-0.508
 74
0
  0
LTYPE
  5
32
330
2
100
AcDbSymbolTableRecord
100
AcDbLinetypeTableRecord
  2
DASHED2
 70
0
  3
Dashed (.5x) _ _ _ _ _ _ _ _ _ _ _ _ _ _
 72
65
 73
2
 40
0.762
 49
0.635
 74
0
 49
-0.127
 74
0
  0
LTYPE
  5
33
330
2
100
AcDbSymbolTableRecord
100
AcDbLinetypeTableRecord
  2
PHANTOM
 70
0
  3
Phantom ______  __  __  ______  __  __  ______
 72
65
 73
6
 40
6.35
 49
3.175
 74
0
 49
-0.635
 74
0
 49
0.635
 74
0
 49
-0.635
 74
0
 49
0.635
 74
0
 49
-0.635
 74
0
  0
LTYPE
  5
34
330
2
100
AcDbSymbolTableRecord
100
AcDbLinetypeTableRecord
  2
PHANTOMX2
 70
0
  3
Phantom (2x)____________    ____    ____    ____________
 72
65
 73
6
 40
10.795
 49
6.35
 74
0
 49
-0.635
 74
0
 49
1.27
 74
0
 49
-0.635
 74
0
 49
1.27
 74
0
 49
-0.635
 74
0
  0
LTYPE
  5
35
330
2
100
AcDbSymbolTableRecord
100
AcDbLinetypeTableRecord
  2
PHANTOM2
 70
0
  3
Phantom (.5x) ___ _ _ ___ _ _ ___ _ _ ___ _ _ ___
 72
65
 73
6
 40
3.175
 49
1.587
 74
0
 49
-0.318
 74
0
 49
0.318
 74
0
 49
-0.318
 74
0
 49
0.318
 74
0
 49
-0.318
 74
0
  0
LTYPE
  5
36
330
2
100
AcDbSymbolTableRecord
100
AcDbLinetypeTableRecord
  2
DASHDOT
 70
0
  3
Dash dot __ . __ . __ . __ . __ . __ . __ . __
 72
65
 73
4
 40
3.556
 49
2.54
 74
0
 49
-0.508
 74
0
 49
0.0
 74
0
 49
-0.508
 74
0
  0
LTYPE
  5
37
330
2
100
AcDbSymbolTableRecord
100
AcDbLinetypeTableRecord
  2
DASHDOTX2
 70
0
  3
Dash dot (2x) ____  .  ____  .  ____  .  ____
 72
65
 73
4
 40
6.096
 49
5.08
 74
0
 49
-0.508
 74
0
 49
0.0
 74
0
 49
-0.508
 74
0
  0
LTYPE
  5
38
330
2
100
AcDbSymbolTableRecord
100
AcDbLinetypeTableRecord
  2
DASHDOT2
 70
0
  3
Dash dot (.5x) _ . _ . _ . _ . _ . _ . _ . _
 72
65
 73
4
 40
1.778
 49
1.27
 74
0
 49
-0.254
 74
0
 49
0.0
 74
0
 49
-0.254
 74
0
  0
LTYPE
  5
39
330
2
100
AcDbSymbolTableRecord
100
AcDbLinetypeTableRecord
  2
DOT
 70
0
  3
Dot .  .  .  .  .  .  .  .  .  .  .  .  .  .  .  .
 72
65
 73
2
 40
0.508
 49
0.0
 74
0
 49
-0.508
 74
0
  0
LTYPE
  5
3A
330
2
100
AcDbSymbolTableRecord
100
AcDbLinetypeTableRecord
  2
DOTX2
 70
0
  3
Dot (2x) .    .    .    .    .    .    .    . 
 72
65
 73
2
 40
1.016
 49
0.0
 74
0
 49
-1.016
 74
0
  0
LTYPE
  5
3B
330
2
100
AcDbSymbolTableRecord
100
AcDbLinetypeTableRecord
  2
DOT2
 70
0
  3
Dot (.5) . . . . . . . . . . . . . . . . . . . 
 72
65
 73
2
 40
0.254
 49
0.0
 74
0
 49
-0.254
 74
0
  0
LTYPE
  5
3C
330
2
100
AcDbSymbolTableRecord
100
AcDbLinetypeTableRecord
  2
DIVIDE
 70
0
  3
Divide __ . . __ . . __ . . __ . . __ . . __
 72
65
 73
6
 40
4.064
 49
2.54
 74
0
 49
-0.508
 74
0
 49
0.0
 74
0
 49
-0.508
 74
0
 49
0.0
 74
0
 49
-0.508
 74
0
  0
LTYPE
  5
3D
330
2
100
AcDbSymbolTableRecord
100
AcDbLinetypeTableRecord
  2
DIVIDEX2
 70
0
  3
Divide (2x) ____  . .  ____  . .  ____  . .  ____
 72
65
 73
6
 40
6.604
 49
5.08
 74
0
 49
-0.508
 74
0
 49
0.0
 74
0
 49
-0.508
 74
0
 49
0.0
 74
0
 49
-0.508
 74
0
  0
LTYPE
  5
3E
330
2
100
AcDbSymbolTableRecord
100
AcDbLinetypeTableRecord
  2
DIVIDE2
 70
0
  3
Divide(.5x) _ . _ . _ . _ . _ . _ . _ . _
 72
65
 73
6
 40
2.032
 49
1.27
 74
0
 49
-0.254
 74
0
 49
0.0
 74
0
 49
-0.254
 74
0
 49
0.0
 74
0
 49
-0.254
 74
0
  0
ENDTAB
  0
TABLE
  2
LAYER
  5
1
330
0
100
AcDbSymbolTable
 70
5
  0
LAYER
  5
27
330
1
100
AcDbSymbolTableRecord
100
AcDbLayerTableRecord
  2
0
 70
0
 62
7
  6
Continuous
370
-3
390
13
347
21
  0
LAYER
  5
28
330
1
100
AcDbSymbolTableRecord
100
AcDbLayerTableRecord
  2
Defpoints
 70
0
 62
7
  6
Continuous
290
0
370
-3
390
13
347
21
  0
LAYER
  5
87
330
1
100
AcDbSymbolTableRecord
100
AcDbLayerTableRecord
  2
Inner
 70
0
 62
2
  6
CONTINUOUS
370
-3
390
13
347
21
  0
LAYER
  5
88
330
1
100
AcDbSymbolTableRecord
100
AcDbLayerTableRecord
  2
Outer
 70
0
 62
1
  6
CONTINUOUS
370
-3
390
13
347
21
  0
LAYER
  5
89
330
1
100
AcDbSymbolTableRecord
100
AcDbLayerTableRecord
  2
Fill
 70
0
 62
3
  6
CONTINUOUS
370
-3
390
13
347
21
  0
ENDTAB
  0
TABLE
  2
STYLE
  5
5
330
0
100
AcDbSymbolTable
 70
26
  0
STYLE
  5
29
330
5
100
AcDbSymbolTableRecord
100
AcDbTextStyleTableRecord
  2
Standard
 70
0
 40
0.0
 41
1.0
 50
0.0
 71
0
 42
2.5
  3
txt
  4

  0
STYLE
  5
3F
330
5
100
AcDbSymbolTableRecord
100
AcDbTextStyleTableRecord
  2
OpenSans-Light
 70
0
 40
0.0
 41
1.0
 50
0.0
 71
0
 42
2.5
  3
OpenSans-Light.ttf
  4

  0
STYLE
  5
40
330
5
100
AcDbSymbolTableRecord
100
AcDbTextStyleTableRecord
  2
OpenSans-Light-Italic
 70
0
 40
0.0
 41
1.0
 50
0.0
 71
0
 42
2.5
  3
OpenSans-LightItalic.ttf
  4

  0
STYLE
  5
41
330
5
100
AcDbSymbolTableRecord
100
AcDbTextStyleTableRecord
  2
OpenSans
 70
0
 40
0.0
 41
1.0
 50
0.0
 71
0
 42
2.5
  3
OpenSans-Regular.ttf
  4

  0
STYLE
  5
42
330
5
100
AcDbSymbolTableRecord
100
AcDbTextStyleTableRecord
  2
OpenSans-Italic
 70
0
 40
0.0
 41
1.0
 50
0.0
 71
0
 42
2.5
  3
OpenSans-Italic.ttf
  4

  0
STYLE
  5
43
330
5
100
AcDbSymbolTableRecord
100
AcDbTextStyleTableRecord
  2
OpenSans-SemiBold
 70
0
 40
0.0
 41
1.0
 50
0.0
 71
0
 42
2.5
  3
OpenSans-SemiBold.ttf
  4

  0
STYLE
  5
44
330
5
100
AcDbSymbolTableRecord
100
AcDbTextStyleTableRecord
  2
OpenSans-SemiBoldItalic
 70
0
 40
0.0
 41
1.0
 50
0.0
 71
0
 42
2.5
  3
OpenSans-SemiBoldItalic.ttf
  4

  0
STYLE
  5
45
330
5
100
AcDbSymbolTableRecord
100
AcDbTextStyleTableRecord
  2
OpenSans-Bold
 70
0
 40
0.0
 41
1.0
 50
0.0
 71
0
 42
2.5
  3
OpenSans-Bold.ttf
  4

  0
STYLE
  5
46
330
5
100
AcDbSymbolTableRecord
100
AcDbTextStyleTableRecord
  2
OpenSans-BoldItalic
 70
0
 40
0.0
 41
1.0
 50
0.0
 71
0
 42
2.5
  3
OpenSans-BoldItalic.ttf
  4

  0
STYLE
  5
47
330
5
100
AcDbSymbolTableRecord
100
AcDbTextStyleTableRecord
  2
OpenSans-ExtraBold
 70
0
 40
0.0
 41
1.0
 50
0.0
 71
0
 42
2.5
  3
OpenSans-ExtraBold.ttf
  4

  0
STYLE
  5
48
330
5
100
AcDbSymbolTableRecord
100
AcDbTextStyleTableRecord
  2
OpenSans-ExtraBoldItalic
 70
0
 40
0.0
 41
1.0
 50
0.0
 71
0
 42
2.5
  3
OpenSans-ExtraBoldItalic.ttf
  4

  0
STYLE
  5
49
330
5
100
AcDbSymbolTableRecord
100
AcDbTextStyleTableRecord
  2
OpenSansCondensed-Bold
 70
0
 40
0.0
 41
1.0
 50
0.0
 71
0
 42
2.5
  3
OpenSansCondensed-Bold.ttf
  4

  0
STYLE
  5
4A
330
5
100
AcDbSymbolTableRecord
100
AcDbTextStyleTableRecord
  2
OpenSansCondensed-Light
 70
0
 40
0.0
 41
1.0
 50
0.0
 71
0
 42
2.5
  3
OpenSansCondensed-Light.ttf
  4

  0
STYLE
  5
4B
330
5
100
AcDbSymbolTableRecord
100
AcDbTextStyleTableRecord
  2
OpenSansCondensed-Italic
 70
0
 40
0.0
 41
1.0
 50
0.0
 71
0
 42
2.5
  3
OpenSansCondensed-LightItalic.ttf
  4

  0
STYLE
  5
4C
330
5
100
AcDbSymbolTableRecord
100
AcDbTextStyleTableRecord
  2
LiberationSans
 70
0
 40
0.0
 41
1.0
 50
0.0
 71
0
 42
2.5
  3
LiberationSans-Regular.ttf
  4

  0
STYLE
  5
4D
330
5
100
AcDbSymbolTableRecord
100
AcDbTextStyleTableRecord
  2
LiberationSans-Bold
 70
0
 40
0.0
 41
1.0
 50
0.0
 71
0
 42
2.5
  3
LiberationSans-Bold.ttf
  4

  0
STYLE
  5
4E
330
5
100
AcDbSymbolTableRecord
100
AcDbTextStyleTableRecord
  2
LiberationSans-BoldItalic
 70
0
 40
0.0
 41
1.0
 50
0.0
 71
0
 42
2.5
  3
LiberationSans-BoldItalic.ttf
  4

  0
STYLE
  5
4F
330
5
100
AcDbSymbolTableRecord
100
AcDbTextStyleTableRecord
  2
LiberationSans-Italic
 70
0
 40
0.0
 41
1.0
 50
0.0
 71
0
 42
2.5
  3
LiberationSans-Italic.ttf
  4

  0
STYLE
  5
50
330
5
100
AcDbSymbolTableRecord
100
AcDbTextStyleTableRecord
  2
LiberationSerif
 70
0
 40
0.0
 41
1.0
 50
0.0
 71
0
 42
2.5
  3
LiberationSerif-Regular.ttf
  4

  0
STYLE
  5
51
330
5
100
AcDbSymbolTableRecord
100
AcDbTextStyleTableRecord
  2
LiberationSerif-Bold
 70
0
 40
0.0
 41
1.0
 50
0.0
 71
0
 42
2.5
  3
LiberationSerif-Bold.ttf
  4

  0
STYLE
  5
52
330
5
100
AcDbSymbolTableRecord
100
AcDbTextStyleTableRecord
  2
LiberationSerif-BoldItalic
 70
0
 40
0.0
 41
1.0
 50
0.0
 71
0
 42
2.5
  3
LiberationSerif-BoldItalic.ttf
  4

  0
STYLE
  5
53
330
5
100
AcDbSymbolTableRecord
100
AcDbTextStyleTableRecord
  2
LiberationSerif-Italic
 70
0
 40
0.0
 41
1.0
 50
0.0
 71
0
 42
2.5
  3
LiberationSerif-Italic.ttf
  4

  0
STYLE
  5
54
330
5
100
AcDbSymbolTableRecord
100
AcDbTextStyleTableRecord
  2
LiberationMono
 70
0
 40
0.0
 41
1.0
 50
0.0
 71
0
 42
2.5
  3
LiberationMono-Regular.ttf
  4

  0
STYLE
  5
55
330
5
100
AcDbSymbolTableRecord
100
AcDbTextStyleTableRecord
  2
LiberationMono-Bold
 70
0
 40
0.0
 41
1.0
 50
0.0
 71
0
 42
2.5
  3
LiberationMono-Bold.ttf
  4

  0
STYLE
  5
56
330
5
100
AcDbSymbolTableRecord
100
AcDbTextStyleTableRecord
  2
LiberationMono-BoldItalic
 70
0
 40
0.0
 41
1.0
 50
0.0
 71
0
 42
2.5
  3
LiberationMono-BoldItalic.ttf
  4

  0
STYLE
  5
57
330
5
100
AcDbSymbolTableRecord
100
AcDbTextStyleTableRecord
  2
LiberationMono-Italic
 70
0
 40
0.0
 41
1.0
 50
0.0
 71
0
 42
2.5
  3
LiberationMono-Italic.ttf
  4

  0
ENDTAB
  0
TABLE
  2
VIEW
  5
7
330
0
100
AcDbSymbolTable
 70
0
  0
ENDTAB
  0
TABLE
  2
UCS
  5
6
330
0
100
AcDbSymbolTable
 70
0
  0
ENDTAB
  0
TABLE
  2
APPID
  5
3
330
0
100
AcDbSymbolTable
 70
2
  0
APPID
  5
2A
330
3
100
AcDbSymbolTableRecord
100
AcDbRegAppTableRecord
  2
ACAD
 70
0
  0
APPID
  5
1F2
330
3
100
AcDbSymbolTableRecord
100
AcDbRegAppTableRecord
  2
HATCHBACKGROUNDCOLOR
 70
0
  0
ENDTAB
  0
TABLE
  2
DIMSTYLE
  5
4
330
0
100
AcDbSymbolTable
 70
11
100
AcDbDimStyleTable
  0
DIMSTYLE
105
2B
330
4
100
AcDbSymbolTableRecord
100
AcDbDimStyleTableRecord
  2
Standard
 70
0
 40
1.0
 41
2.5
 42
0.625
 43
3.75
 44
1.25
 45
0.0
 46
0.0
 47
0.0
 48
0.0
 49
2.5
140
2.5
141
2.5
142
0.0
143
0.03937007874
144
1.0
145
0.0
146
1.0
147
0.625
148
0.0
 69
0
 70
0
 71
0
 72
0
 73
0
 74
0
 75
0
 76
0
 77
1
 78
8
 79
0
170
0
171
3
172
1
173
0
174
0
175
0
176
0
177
0
178
0
179
0
271
0
272
2
273
2
274
3
275
0
276
0
277
2
278
44
279
0
280
0
281
0
282
0
283
0
284
8
285
0
286
0
288
0
289
3
290
0
371
-2
372
-2
  0
DIMSTYLE
105
71
330
4
100
AcDbSymbolTableRecord
100
AcDbDimStyleTableRecord
  2
EZDXF
 70
0
 40
1.0
 41
0.175
 42
0.125
 43
3.75
 44
0.375
 45
0.0
 46
0.0
 47
0.0
 48
0.0
 49
2.5
140
0.25
141
2.5
142
0.0
143
0.03937007874
144
100.0
145
0.0
146
1.0
147
0.1
148
0.0
 69
0
 70
0
 71
0
 72
0
 73
0
 74
0
 75
0
 76
0
 77
1
 78
8
 79
0
170
0
171
3
172
1
173
0
174
0
175
0
176
0
177
0
178
0
179
0
271
2
272
2
273
2
274
3
275
0
276
0
277
2
278
46
279
2
280
0
281
0
282
0
283
0
284
8
285
0
286
0
288
1
289
3
290
0
340
4A
342
72
371
-2
372
-2
  0
DIMSTYLE
105
7A
330
4
100
AcDbSymbolTableRecord
100
AcDbDimStyleTableRecord
  2
EZ_M_100_H25_CM
 70
0
 40
1.0
 41
0.25
 42
0.125
 43
3.75
 44
0.375
 45
0.0
 46
0.0
 47
0.0
 48
0.0
 49
2.5
140
0.25
141
2.5
142
0.125
143
0.03937007874
144
100.0
145
0.0
146
1.0
147
0.1
148
0.0
 69
0
 70
0
 71
0
 72
0
 73
0
 74
0
 75
0
 76
0
 77
1
 78
8
 79
0
170
0
171
3
172
1
173
0
174
0
175
0
176
0
177
0
178
0
179
0
271
2
272
2
273
2
274
3
275
0
276
0
277
2
278
46
279
2
280
0
281
0
282
0
283
0
284
8
285
0
286
0
288
1
289
3
290
0
340
4A
371
-2
372
-2
  0
DIMSTYLE
105
7B
330
4
100
AcDbSymbolTableRecord
100
AcDbDimStyleTableRecord
  2
EZ_M_50_H25_CM
 70
0
 40
1.0
 41
0.125
 42
0.0625
 43
3.75
 44
0.1875
 45
0.0
 46
0.0
 47
0.0
 48
0.0
 49
2.5
140
0.125
141
2.5
142
0.0625
143
0.03937007874
144
100.0
145
0.0
146
1.0
147
0.05
148
0.0
 69
0
 70
0
 71
0
 72
0
 73
0
 74
0
 75
0
 76
0
 77
1
 78
8
 79
0
170
0
171
3
172
1
173
0
174
0
175
0
176
0
177
0
178
0
179
0
271
2
272
2
273
2
274
3
275
0
276
0
277
2
278
46
279
2
280
0
281
0
282
0
283
0
284
8
285
0
286
0
288
1
289
3
290
0
340
4A
371
-2
372
-2
  0
DIMSTYLE
105
7C
330
4
100
AcDbSymbolTableRecord
100
AcDbDimStyleTableRecord
  2
EZ_M_25_H25_CM
 70
0
 40
1.0
 41
0.0625
 42
0.03125
 43
3.75
 44
0.09375
 45
0.0
 46
0.0
 47
0.0
 48
0.0
 49
2.5
140
0.0625
141
2.5
142
0.03125
143
0.03937007874
144
100.0
145
0.0
146
1.0
147
0.025
148
0.0
 69
0
 70
0
 71
0
 72
0
 73
0
 74
0
 75
0
 76
0
 77
1
 78
8
 79
0
170
0
171
3
172
1
173
0
174
0
175
0
176
0
177
0
178
0
179
0
271
2
272
2
273
2
274
3
275
0
276
0
277
2
278
46
279
2
280
0
281
0
282
0
283
0
284
8
285
0
286
0
288
1
289
3
290
0
340
4A
371
-2
372
-2
  0
DIMSTYLE
105
7D
330
4
100
AcDbSymbolTableRecord
100
AcDbDimStyleTableRecord
  2
EZ_M_20_H25_CM
 70
0
 40
1.0
 41
0.05
 42
0.025
 43
3.75
 44
0.07500000000000001
 45
0.0
 46
0.0
 47
0.0
 48
0.0
 49
2.5
140
0.05
141
2.5
142
0.025
143
0.03937007874
144
100.0
145
0.0
146
1.0
147
0.020000000000000004
148
0.0
 69
0
 70
0
 71
0
 72
0
 73
0
 74
0
 75
0
 76
0
 77
1
 78
8
 79
0
170
0
171
3
172
1
173
0
174
0
175
0
176
0
177
0
178
0
179
0
271
2
272
2
273
2
274
3
275
0
276
0
277
2
278
46
279
2
280
0
281
0
282
0
283
0
284
8
285
0
286
0
288
1
289
3
290
0
340
4A
371
-2
372
-2
  0
DIMSTYLE
105
7E
330
4
100
AcDbSymbolTableRecord
100
AcDbDimStyleTableRecord
  2
EZ_M_10_H25_CM
 70
0
 40
1.0
 41
0.025
 42
0.0125
 43
3.75
 44
0.037500000000000006
 45
0.0
 46
0.0
 47
0.0
 48
0.0
 49
2.5
140
0.025
141
2.5
142
0.0125
143
0.03937007874
144
100.0
145
0.0
146
1.0
147
0.010000000000000002
148
0.0
 69
0
 70
0
 71
0
 72
0
 73
0
 74
0
 75
0
 76
0
 77
1
 78
8
 79
0
170
0
171
3
172
1
173
0
174
0
175
0
176
0
177
0
178
0
179
0
271
2
272
2
273
2
274
3
275
0
276
0
277
2
278
46
279
2
280
0
281
0
282
0
283
0
284
8
285
0
286
0
288
1
289
3
290
0
340
4A
371
-2
372
-2
  0
DIMSTYLE
105
7F
330
4
100
AcDbSymbolTableRecord
100
AcDbDimStyleTableRecord
  2
EZ_M_5_H25_CM
 70
0
 40
1.0
 41
0.0125
 42
0.00625
 43
3.75
 44
0.018750000000000003
 45
0.0
 46
0.0
 47
0.0
 48
0.0
 49
2.5
140
0.0125
141
2.5
142
0.00625
143
0.03937007874
144
100.0
145
0.0
146
1.0
147
0.005000000000000001
148
0.0
 69
0
 70
0
 71
0
 72
0
 73
0
 74
0
 75
0
 76
0
 77
1
 78
8
 79
0
170
0
171
3
172
1
173
0
174
0
175
0
176
0
177
0
178
0
179
0
271
2
272
2
273
2
274
3
275
0
276
0
277
2
278
46
279
2
280
0
281
0
282
0
283
0
284
8
285
0
286
0
288
1
289
3
290
0
340
4A
371
-2
372
-2
  0
DIMSTYLE
105
80
330
4
100
AcDbSymbolTableRecord
100
AcDbDimStyleTableRecord
  2
EZ_M_1_H25_CM
 70
0
 40
1.0
 41
0.0025
 42
0.00125
 43
3.75
 44
0.00375
 45
0.0
 46
0.0
 47
0.0
 48
0.0
 49
2.5
140
0.0025
141
2.5
142
0.00125
143
0.03937007874
144
100.0
145
0.0
146
1.0
147
0.001
148
0.0
 69
0
 70
0
 71
0
 72
0
 73
0
 74
0
 75
0
 76
0
 77
1
 78
8
 79
0
170
0
171
3
172
1
173
0
174
0
175
0
176
0
177
0
178
0
179
0
271
2
272
2
273
2
274
3
275
0
276
0
277
2
278
46
279
2
280
0
281
0
282
0
283
0
284
8
285
0
286
0
288
1
289
3
290
0
340
4A
371
-2
372
-2
  0
DIMSTYLE
105
81
330
4
100
AcDbSymbolTableRecord
100
AcDbDimStyleTableRecord
  2
EZ_RADIUS
 70
0
 40
1.0
 41
0.25
 42
0.125
 43
3.75
 44
0.375
 45
0.0
 46
0.0
 47
0.0
 48
0.0
 49
2.5
140
0.25
141
0.0
142
0.0
143
0.03937007874
144
100.0
145
0.0
146
1.0
147
0.1
148
0.0
 69
0
 70
0
 71
0
 72
0
 73
0
 74
0
 75
0
 76
0
 77
1
 78
8
 79
0
170
0
171
3
172
0
173
0
174
0
175
0
176
0
177
0
178
0
179
0
271
2
272
2
273
2
274
3
275
0
276
0
277
2
278
46
279
1
280
0
281
0
282
0
283
0
284
8
285
0
286
0
288
1
289
3
290
0
340
4A
342
82
371
-2
372
-2
  0
DIMSTYLE
105
86
330
4
100
AcDbSymbolTableRecord
100
AcDbDimStyleTableRecord
  2
EZ_RADIUS_INSIDE
 70
0
 40
1.0
 41
0.25
 42
0.125
 43
3.75
 44
0.375
 45
0.0
 46
0.0
 47
0.0
 48
0.0
 49
2.5
140
0.25
141
0.0
142
0.0
143
0.03937007874
144
100.0
145
0.0
146
1.0
147
0.1
148
0.0
 69
0
 70
0
 71
0
 72
0
 73
0
 74
0
 75
0
 76
0
 77
0
 78
8
 79
0
170
0
171
3
172
0
173
0
174
1
175
0
176
0
177
0
178
0
179
0
271
2
272
2
273
2
274
3
275
0
276
0
277
2
278
46
279
0
280
0
281
0
282
0
283
0
284
8
285
0
286
0
288
1
289
0
290
0
340
4A
342
82
371
-2
372
-2
  0
ENDTAB
  0
TABLE
  2
BLOCK_RECORD
  5
9
330
0
100
AcDbSymbolTable
 70
5
  0
BLOCK_RECORD
  5
17
330
9
100
AcDbSymbolTableRecord
100
AcDbBlockTableRecord
  2
*Model_Space
340
1A
 70
0
280
1
281
0
  0
BLOCK_RECORD
  5
1B
330
9
100
AcDbSymbolTableRecord
100
AcDbBlockTableRecord
  2
*Paper_Space
340
1E
 70
0
280
1
281
0
  0
BLOCK_RECORD
  5
72
330
9
100
AcDbSymbolTableRecord
100
AcDbBlockTableRecord
  2
_ARCHTICK
340
0
 70
0
280
1
281
0
  0
BLOCK_RECORD
  5
76
330
9
100
AcDbSymbolTableRecord
100
AcDbBlockTableRecord
  2
_CLOSEDFILLED
340
0
 70
0
280
1
281
0
  0
BLOCK_RECORD
  5
82
330
9
100
AcDbSymbolTableRecord
100
AcDbBlockTableRecord
  2
_CLOSEDBLANK
340
0
 70
0
280
1
281
0
  0
ENDTAB
  0
ENDSEC
  0
SECTION
  2
BLOCKS
  0
BLOCK
  5
18
330
17
100
AcDbEntity
  8
0
100
AcDbBlockBegin
  2
*Model_Space
 70
0
 10
0.0
 20
0.0
 30
0.0
  3
*Model_Space
  1

  0
ENDBLK
  5
19
330
17
100
AcDbEntity
  8
0
100
AcDbBlockEnd
  0
BLOCK
  5
1C
330
1B
100
AcDbEntity
  8
0
100
AcDbBlockBegin
  2
*Paper_Space
 70
0
 10
0.0
 20
0.0
 30
0.0
  3
*Paper_Space
  1

  0
ENDBLK
  5
1D
330
1B
100
AcDbEntity
  8
0
100
AcDbBlockEnd
  0
BLOCK
  5
73
330
72
100
AcDbEntity
  8
0
100
AcDbBlockBegin
  2
_ARCHTICK
 70
0
 10
0.0
 20
0.0
 30
0.0
  3
_ARCHTICK
  1

  0
LWPOLYLINE
  5
75
330
72
100
AcDbEntity
  8
0
  6
BYBLOCK
 62
0
100
AcDbPolyline
 90
2
 70
0
 43
0.15
 10
-0.5
 20
-0.5000000000000001
 10
0.5000000000000001
 20
0.5
  0
ENDBLK
  5
74
330
72
100
AcDbEntity
  8
0
100
AcDbBlockEnd
  0
BLOCK
  5
77
330
76
100
AcDbEntity
  8
0
100
AcDbBlockBegin
  2
_CLOSEDFILLED
 70
0
 10
0.0
 20
0.0
 30
0.0
  3
_CLOSEDFILLED
  1

  0
SOLID
  5
79
330
76
100
AcDbEntity
  8
0
  6
BYBLOCK
 62
0
100
AcDbTrace
 10
-1.0
 20
0.1643989837240255
 30
0.0
 11
0.0
 21
0.0
 31
0.0
 12
-1.0
 22
-0.1643989837240255
 32
0.0
 13
-1.0
 23
-0.1643989837240255
 33
0.0
  0
ENDBLK
  5
78
330
76
100
AcDbEntity
  8
0
100
AcDbBlockEnd
  0
BLOCK
  5
83
330
82
100
AcDbEntity
  8
0
100
AcDbBlockBegin
  2
_CLOSEDBLANK
 70
0
 10
0.0
 20
0.0
 30
0.0
  3
_CLOSEDBLANK
  1

  0
LWPOLYLINE
  5
85
330
82
100
AcDbEntity
  8
0
  6
BYBLOCK
 62
0
100
AcDbPolyline
 90
3
 70
1
 10
-1.0
 20
0.1643989837240255
 10
0.0
 20
0.0
 10
-1.0
 20
-0.1643989837240255
  0
ENDBLK
  5
84
330
82
100
AcDbEntity
  8
0
100
AcDbBlockEnd
  0
ENDSEC
  0
SECTION
  2
ENTITIES
  0
LINE
  5
8A
330
17
100
AcDbEntity
  8
Inner
100
AcDbLine
 10
3.0
 20
0.0
 30
0.0
 11
600.0
 21
-5.878304635907295e-13
 31
0.0
  0
LINE
  5
8B
330
17
100
AcDbEntity
  8
Inner
100
AcDbLine
 10
600.0
 20
-5.878304635907295e-13
 30
0.0
 11
601.5348169883418
 21
42.06341202501666
 31
0.0
  0
LINE
  5
8C
330
17
100
AcDbEntity
  8
Inner
100
AcDbLine
 10
601.5348169883418
 20
42.06341202501666
 30
0.0
 11
600.117120295447
 21
84.34096100551817
 31
0.0
  0
LINE
  5
8D
330
17
100
AcDbEntity
  8
Inner
100
AcDbLine
 10
600.117120295447
 20
84.34096100551817
 30
0.0
 11
595.724493766912
 21
126.62515009770948
 31
0.0
  0
LINE
  5
8E
330
17
100
AcDbEntity
  8
Inner
100
AcDbLine
 10
595.724493766912
 20
126.62515009770948
 30
0.0
 11
588.3491215703068
 21
168.70639582553304
 31
0.0
  0
LINE
  5
8F
330
17
100
AcDbEntity
  8
Inner
100
AcDbLine
 10
588.3491215703068
 20
168.70639582553304
 30
0.0
 11
577.9979703593326
 21
210.3740566770749
 31
0.0
  0
LINE
  5
90
330
17
100
AcDbEntity
  8
Inner
100
AcDbLine
 10
577.9979703593326
 20
210.3740566770749
 30
0.0
 11
564.6928988841468
 21
251.41747697325334
 31
0.0
  0
LINE
  5
91
330
17
100
AcDbEntity
  8
Inner
100
AcDbLine
 10
564.6928988841468
 20
251.41747697325334
 30
0.0
 11
548.470693802616
 21
291.6270408847663
 31
0.0
  0
LINE
  5
92
330
17
100
AcDbEntity
  8
Inner
100
AcDbLine
 10
548.470693802616
 20
291.6270408847663
 30
0.0
 11
529.3830308095877
 21
330.7952313737824
 31
0.0
  0
LINE
  5
93
330
17
100
AcDbEntity
  8
Inner
100
AcDbLine
 10
529.3830308095877
 20
330.7952313737824
 30
0.0
 11
507.49636057140486
 21
368.7176887630679
 31
0.0
  0
LINE
  5
94
330
17
100
AcDbEntity
  8
Inner
100
AcDbLine
 10
507.49636057140486
 20
368.7176887630679
 30
0.0
 11
482.89171932907504
 21
405.19426358758795
 31
0.0
  0
LINE
  5
95
330
17
100
AcDbEntity
  8
Inner
100
AcDbLine
 10
482.89171932907504
 20
405.19426358758795
 30
0.0
 11
455.6644644137767
 21
440.0300583628625
 31
0.0
  0
LINE
  5
96
330
17
100
AcDbEntity
  8
Inner
100
AcDbLine
 10
455.6644644137767
 20
440.0300583628625
 30
0.0
 11
425.92393530095853
 21
473.03645291054414
 31
0.0
  0
LINE
  5
97
330
17
100
AcDbEntity
  8
Inner
100
AcDbLine
 10
425.92393530095853
 20
473.03645291054414
 30
0.0
 11
393.79304121209606
 21
504.03210791528596
 31
0.0
  0
LINE
  5
98
330
17
100
AcDbEntity
  8
Inner
100
AcDbLine
 10
393.79304121209606
 20
504.03210791528596
 30
0.0
 11
359.4077766544435
 21
532.8439414478207
 31
0.0
  0
LINE
  5
99
330
17
100
AcDbEntity
  8
Inner
100
AcDbLine
 10
359.4077766544435
 20
532.8439414478207
 30
0.0
 11
322.9166666666678
 21
559.3080732774492
 31
0.0
  0
LINE
  5
9A
330
17
100
AcDbEntity
  8
Inner
100
AcDbLine
 10
322.9166666666678
 20
559.3080732774492
 30
0.0
 11
284.4801439103515
 21
583.2707319124256
 31
0.0
  0
LINE
  5
9B
330
17
100
AcDbEntity
  8
Inner
100
AcDbLine
 10
284.4801439103515
 20
583.2707319124256
 30
0.0
 11
244.2698601118966
 21
604.5891194487925
 31
0.0
  0
LINE
  5
9C
330
17
100
AcDbEntity
  8
Inner
100
AcDbLine
 10
244.2698601118966
 20
604.5891194487925
 30
0.0
 11
202.4679347144662
 21
623.1322294765845
 31
0.0
  0
LINE
  5
9D
330
17
100
AcDbEntity
  8
Inner
100
AcDbLine
 10
202.4679347144662
 20
623.1322294765845
 30
0.0
 11
159.2661439434698
 21
638.7816134862392
 31
0.0
  0
LINE
  5
9E
330
17
100
AcDbEntity
  8
Inner
100
AcDbLine
 10
159.2661439434698
 20
638.7816134862392
 30
0.0
 11
114.86505381967999
 21
651.4320914369645
 31
0.0
  0
LINE
  5
9F
330
17
100
AcDbEntity
  8
Inner
100
AcDbLine
 10
114.86505381967999
 20
651.4320914369645
 30
0.0
 11
69.47310096979132
 21
660.9924023916001
 31
0.0
  0
LINE
  5
A0
330
17
100
AcDbEntity
  8
Inner
100
AcDbLine
 10
69.47310096979132
 20
660.9924023916001
 30
0.0
 11
23.305625383140192
 21
667.3857913883372
 31
0.0
  0
LINE
  5
A1
330
17
100
AcDbEntity
  8
Inner
100
AcDbLine
 10
23.305625383140192
 20
667.3857913883372
 30
0.0
 11
-23.41614045603005
 21
670.550529007231
 31
0.0
  0
LINE
  5
A2
330
17
100
AcDbEntity
  8
Inner
100
AcDbLine
 10
-23.41614045603005
 20
670.550529007231
 30
0.0
 11
-70.46612137083501
 21
670.4403603975985
 31
0.0
  0
LINE
  5
A3
330
17
100
AcDbEntity
  8
Inner
100
AcDbLine
 10
-70.46612137083501
 20
670.4403603975985
 30
0.0
 11
-117.61448329940733
 21
667.0248808596575
 31
0.0
  0
LINE
  5
A4
330
17
100
AcDbEntity
  8
Inner
100
AcDbLine
 10
-117.61448329940733
 20
667.0248808596575
 30
0.0
 11
-164.62874596259445
 21
660.2898354186907
 31
0.0
  0
LINE
  5
A5
330
17
100
AcDbEntity
  8
Inner
100
AcDbLine
 10
-164.62874596259445
 20
660.2898354186907
 30
0.0
 11
-211.27491905415084
 21
650.2373401909966
 31
0.0
  0
LINE
  5
A6
330
17
100
AcDbEntity
  8
Inner
100
AcDbLine
 10
-211.27491905415084
 20
650.2373401909966
 30
0.0
 11
-257.3186564492163
 21
636.886023716203
 31
0.0
  0
LINE
  5
A7
330
17
100
AcDbEntity
  8
Inner
100
AcDbLine
 10
-257.3186564492163
 20
636.886023716203
 30
0.0
 11
-302.5264227865027
 21
620.2710868184074
 31
0.0
  0
LINE
  5
A8
330
17
100
AcDbEntity
  8
Inner
100
AcDbLine
 10
-302.5264227865027
 20
620.2710868184074
 30
0.0
 11
-346.66666666666674
 21
600.4442799572108
 31
0.0
  0
LINE
  5
A9
330
17
100
AcDbEntity
  8
Inner
100
AcDbLine
 10
-346.66666666666674
 20
600.4442799572108
 30
0.0
 11
-389.5109946246174
 21
577.4737974370345
 31
0.0
  0
LINE
  5
AA
330
17
100
AcDbEntity
  8
Inner
100
AcDbLine
 10
-389.5109946246174
 20
577.4737974370345
 30
0.0
 11
-430.83533997752215
 21
551.4440882572914
 31
0.0
  0
LINE
  5
AB
330
17
100
AcDbEntity
  8
Inner
100
AcDbLine
 10
-430.83533997752215
 20
551.4440882572914
 30
0.0
 11
-470.4211206238232
 21
522.45558380479
 31
0.0
  0
LINE
  5
AC
330
17
100
AcDbEntity
  8
Inner
100
AcDbLine
 10
-470.4211206238232
 20
522.45558380479
 30
0.0
 11
-508.0563798717759
 21
490.6243430112921
 31
0.0
  0
LINE
  5
AD
330
17
100
AcDbEntity
  8
Inner
100
AcDbLine
 10
-508.0563798717759
 20
490.6243430112921
 30
0.0
 11
-543.5369044093267
 21
456.08161602110675
 31
0.0
  0
LINE
  5
AE
330
17
100
AcDbEntity
  8
Inner
100
AcDbLine
 10
-543.5369044093267
 20
456.08161602110675
 30
0.0
 11
-576.6673135904622
 21
418.9733278340756
 31
0.0
  0
LINE
  5
AF
330
17
100
AcDbEntity
  8
Inner
100
AcDbLine
 10
-576.6673135904622
 20
418.9733278340756
 30
0.0
 11
-607.2621143066187
 21
379.45948380586645
 31
0.0
  0
LINE
  5
B0
330
17
100
AcDbEntity
  8
Inner
100
AcDbLine
 10
-607.2621143066187
 20
379.45948380586645
 30
0.0
 11
-635.1467158349344
 21
337.713499298247
 31
0.0
  0
LINE
  5
B1
330
17
100
AcDbEntity
  8
Inner
100
AcDbLine
 10
-635.1467158349344
 20
337.713499298247
 30
0.0
 11
-660.1583992077983
 21
293.9214561746757
 31
0.0
  0
LINE
  5
B2
330
17
100
AcDbEntity
  8
Inner
100
AcDbLine
 10
-660.1583992077983
 20
293.9214561746757
 30
0.0
 11
-682.1472358297704
 21
248.28128922900444
 31
0.0
  0
LINE
  5
B3
330
17
100
AcDbEntity
  8
Inner
100
AcDbLine
 10
-682.1472358297704
 20
248.28128922900444
 30
0.0
 11
-700.9769502777461
 21
201.0019060154262
 31
0.0
  0
LINE
  5
B4
330
17
100
AcDbEntity
  8
Inner
100
AcDbLine
 10
-700.9769502777461
 20
201.0019060154262
 30
0.0
 11
-716.5257224575372
 21
152.3022439137017
 31
0.0
  0
LINE
  5
B5
330
17
100
AcDbEntity
  8
Inner
100
AcDbLine
 10
-716.5257224575372
 20
152.3022439137017
 30
0.0
 11
-728.6869245537276
 21
102.41026861349907
 31
0.0
  0
LINE
  5
B6
330
17
100
AcDbEntity
  8
Inner
100
AcDbLine
 10
-728.6869245537276
 20
102.41026861349907
 30
0.0
 11
-737.369788498721
 21
51.561918533176346
 31
0.0
  0
LINE
  5
B7
330
17
100
AcDbEntity
  8
Inner
100
AcDbLine
 10
-737.369788498721
 20
51.561918533176346
 30
0.0
 11
-742.5
 21
8.183702235302188e-13
 31
0.0
  0
LINE
  5
B8
330
17
100
AcDbEntity
  8
Inner
100
AcDbLine
 10
-742.5
 20
8.183702235302188e-13
 30
0.0
 11
-744.0202155004533
 21
-52.02696169146888
 31
0.0
  0
LINE
  5
B9
330
17
100
AcDbEntity
  8
Inner
100
AcDbLine
 10
-744.0202155004533
 20
-52.02696169146888
 30
0.0
 11
-741.8904988036151
 21
-104.26590995963426
 31
0.0
  0
LINE
  5
BA
330
17
100
AcDbEntity
  8
Inner
100
AcDbLine
 10
-741.8904988036151
 20
-104.26590995963426
 30
0.0
 11
-736.0886744722133
 21
-156.4604777300579
 31
0.0
  0
LINE
  5
BB
330
17
100
AcDbEntity
  8
Inner
100
AcDbLine
 10
-736.0886744722133
 20
-156.4604777300579
 30
0.0
 11
-726.6105955027683
 21
-208.35223550387792
 31
0.0
  0
LINE
  5
BC
330
17
100
AcDbEntity
  8
Inner
100
AcDbLine
 10
-726.6105955027683
 20
-208.35223550387792
 30
0.0
 11
-713.4703231893011
 21
-259.68196067319184
 31
0.0
  0
LINE
  5
BD
330
17
100
AcDbEntity
  8
Inner
100
AcDbLine
 10
-713.4703231893011
 20
-259.68196067319184
 30
0.0
 11
-696.7002175135017
 21
-310.1909218977086
 31
0.0
  0
LINE
  5
BE
330
17
100
AcDbEntity
  8
Inner
100
AcDbLine
 10
-696.7002175135017
 20
-310.1909218977086
 30
0.0
 11
-676.3509368350173
 21
-359.62217222825615
 31
0.0
  0
LINE
  5
BF
330
17
100
AcDbEntity
  8
Inner
100
AcDbLine
 10
-676.3509368350173
 20
-359.62217222825615
 30
0.0
 11
-652.4913461016289
 21
-407.7218445649692
 31
0.0
  0
LINE
  5
C0
330
17
100
AcDbEntity
  8
Inner
100
AcDbLine
 10
-652.4913461016289
 20
-407.7218445649692
 30
0.0
 11
-625.2083332529597
 21
-454.2404429716225
 31
0.0
  0
LINE
  5
C1
330
17
100
AcDbEntity
  8
Inner
100
AcDbLine
 10
-625.2083332529597
 20
-454.2404429716225
 30
0.0
 11
-594.6065339505928
 21
-498.9341233335413
 31
0.0
  0
LINE
  5
C2
330
17
100
AcDbEntity
  8
Inner
100
AcDbLine
 10
-594.6065339505928
 20
-498.9341233335413
 30
0.0
 11
-560.807965229943
 21
-541.5659568449527
 31
0.0
  0
LINE
  5
C3
330
17
100
AcDbEntity
  8
Inner
100
AcDbLine
 10
-560.807965229943
 20
-541.5659568449527
 30
0.0
 11
-523.9515691325313
 21
-581.9071698429823
 31
0.0
  0
LINE
  5
C4
330
17
100
AcDbEntity
  8
Inner
100
AcDbLine
 10
-523.9515691325313
 20
-581.9071698429823
 30
0.0
 11
-484.1926678390804
 21
-619.7383535698729
 31
0.0
  0
LINE
  5
C5
330
17
100
AcDbEntity
  8
Inner
100
AcDbLine
 10
-484.1926678390804
 20
-619.7383535698729
 30
0.0
 11
-441.70233228188863
 21
-654.8506375421708
 31
0.0
  0
LINE
  5
C6
330
17
100
AcDbEntity
  8
Inner
100
AcDbLine
 10
-441.70233228188863
 20
-654.8506375421708
 30
0.0
 11
-396.6666666666658
 21
-687.0468203356551
 31
0.0
  0
LINE
  5
C7
330
17
100
AcDbEntity
  8
Inner
100
AcDbLine
 10
-396.6666666666658
 20
-687.0468203356551
 30
0.0
 11
-349.2860117773368
 21
-716.1424517569858
 31
0.0
  0
LINE
  5
C8
330
17
100
AcDbEntity
  8
Inner
100
AcDbLine
 10
-349.2860117773368
 20
-716.1424517569858
 30
0.0
 11
-299.7740703696877
 21
-741.966860567105
 31
0.0
  0
LINE
  5
C9
330
17
100
AcDbEntity
  8
Inner
100
AcDbLine
 10
-299.7740703696877
 20
-741.966860567105
 30
0.0
 11
-248.35695837914614
 21
-764.3641221464146
 31
0.0
  0
LINE
  5
CA
330
17
100
AcDbEntity
  8
Inner
100
AcDbLine
 10
-248.35695837914614
 20
-764.3641221464146
 30
0.0
 11
-195.2721860718874
 21
-783.1939607469833
 31
0.0
  0
LINE
  5
CB
330
17
100
AcDbEntity
  8
Inner
100
AcDbLine
 10
-195.2721860718874
 20
-783.1939607469833
 30
0.0
 11
-140.76757365499705
 21
-798.3325812612854
 31
0.0
  0
LINE
  5
CC
330
17
100
AcDbEntity
  8
Inner
100
AcDbLine
 10
-140.76757365499705
 20
-798.3325812612854
 30
0.0
 11
-85.10010622830559
 21
-809.6734257491569
 31
0.0
  0
LINE
  5
CD
330
17
100
AcDbEntity
  8
Inner
100
AcDbLine
 10
-85.10010622830559
 20
-809.6734257491569
 30
0.0
 11
-28.534733305731784
 21
-817.127850303365
 31
0.0
  0
LINE
  5
CE
330
17
100
AcDbEntity
  8
Inner
100
AcDbLine
 10
-28.534733305731784
 20
-817.127850303365
 30
0.0
 11
28.65688154418863
 21
-820.6257181979319
 31
0.0
  0
LINE
  5
CF
330
17
100
AcDbEntity
  8
Inner
100
AcDbLine
 10
28.65688154418863
 20
-820.6257181979319
 30
0.0
 11
86.19765509261696
 21
-820.1159056505237
 31
0.0
  0
LINE
  5
D0
330
17
100
AcDbEntity
  8
Inner
100
AcDbLine
 10
86.19765509261696
 20
-820.1159056505237
 30
0.0
 11
143.8064167641693
 21
-815.566716938999
 31
0.0
  0
LINE
  5
D1
330
17
100
AcDbEntity
  8
Inner
100
AcDbLine
 10
143.8064167641693
 20
-815.566716938999
 30
0.0
 11
201.19927251407742
 21
-806.9662060407456
 31
0.0
  0
LINE
  5
D2
330
17
100
AcDbEntity
  8
Inner
100
AcDbLine
 10
201.19927251407742
 20
-806.9662060407456
 30
0.0
 11
258.09099370195514
 21
-794.3224024097125
 31
0.0
  0
LINE
  5
D3
330
17
100
AcDbEntity
  8
Inner
100
AcDbLine
 10
258.09099370195514
 20
-794.3224024097125
 30
0.0
 11
314.19642421619864
 21
-777.6634389679269
 31
0.0
  0
LINE
  5
D4
330
17
100
AcDbEntity
  8
Inner
100
AcDbLine
 10
314.19642421619864
 20
-777.6634389679269
 30
0.0
 11
369.2318989562407
 21
-757.0375808635972
 31
0.0
  0
LINE
  5
D5
330
17
100
AcDbEntity
  8
Inner
100
AcDbLine
 10
369.2318989562407
 20
-757.0375808635972
 30
0.0
 11
422.9166666666667
 21
-732.5131540343377
 31
0.0
  0
LINE
  5
D6
330
17
100
AcDbEntity
  8
Inner
100
AcDbLine
 10
422.9166666666667
 20
-732.5131540343377
 30
0.0
 11
474.97431003839637
 21
-704.1783731091967
 31
0.0
  0
LINE
  5
D7
330
17
100
AcDbEntity
  8
Inner
100
AcDbLine
 10
474.97431003839637
 20
-704.1783731091967
 30
0.0
 11
525.1341559482352
 21
-672.1410686847211
 31
0.0
  0
LINE
  5
D8
330
17
100
AcDbEntity
  8
Inner
100
AcDbLine
 10
525.1341559482352
 20
-672.1410686847211
 30
0.0
 11
573.1326686999081
 21
-636.52831451557
 31
0.0
  0
LINE
  5
D9
330
17
100
AcDbEntity
  8
Inner
100
AcDbLine
 10
573.1326686999081
 20
-636.52831451557
 30
0.0
 11
618.714819157205
 21
-597.4859556669013
 31
0.0
  0
LINE
  5
DA
330
17
100
AcDbEntity
  8
Inner
100
AcDbLine
 10
618.714819157205
 20
-597.4859556669013
 30
0.0
 11
661.6354227235023
 21
-555.178039181115
 31
0.0
  0
LINE
  5
DB
330
17
100
AcDbEntity
  8
Inner
100
AcDbLine
 10
661.6354227235023
 20
-555.178039181115
 30
0.0
 11
701.6604392213914
 21
-509.7861493132629
 31
0.0
  0
LINE
  5
DC
330
17
100
AcDbEntity
  8
Inner
100
AcDbLine
 10
701.6604392213914
 20
-509.7861493132629
 30
0.0
 11
738.5682278615053
 21
-461.5086498846414
 31
0.0
  0
LINE
  5
DD
330
17
100
AcDbEntity
  8
Inner
100
AcDbLine
 10
738.5682278615053
 20
-461.5086498846414
 30
0.0
 11
772.1507506602112
 21
-410.55983679052434
 31
0.0
  0
LINE
  5
DE
330
17
100
AcDbEntity
  8
Inner
100
AcDbLine
 10
772.1507506602112
 20
-410.55983679052434
 30
0.0
 11
802.2147178712227
 21
-357.16900417296273
 31
0.0
  0
LINE
  5
DF
330
17
100
AcDbEntity
  8
Inner
100
AcDbLine
 10
802.2147178712227
 20
-357.16900417296273
 30
0.0
 11
828.5826692355744
 21
-301.57942823058806
 31
0.0
  0
LINE
  5
E0
330
17
100
AcDbEntity
  8
Inner
100
AcDbLine
 10
828.5826692355744
 20
-301.57942823058806
 30
0.0
 11
851.0939851267802
 21
-244.04727308218122
 31
0.0
  0
LINE
  5
E1
330
17
100
AcDbEntity
  8
Inner
100
AcDbLine
 10
851.0939851267802
 20
-244.04727308218122
 30
0.0
 11
869.6058219723777
 21
-184.84042352668095
 31
0.0
  0
LINE
  5
E2
330
17
100
AcDbEntity
  8
Inner
100
AcDbLine
 10
869.6058219723777
 20
-184.84042352668095
 30
0.0
 11
883.9939666680306
 21
-124.23724994740269
 31
0.0
  0
LINE
  5
E3
330
17
100
AcDbEntity
  8
Inner
100
AcDbLine
 10
883.9939666680306
 20
-124.23724994740269
 30
0.0
 11
894.1536050645567
 21
-62.525310989961525
 31
0.0
  0
LINE
  5
E4
330
17
100
AcDbEntity
  8
Inner
100
AcDbLine
 10
894.1536050645567
 20
-62.525310989961525
 30
0.0
 11
900.0
 21
-1.102182119232618e-12
 31
0.0
  0
LINE
  5
E5
330
17
100
AcDbEntity
  8
Inner
100
AcDbLine
 10
900.0
 20
-1.102182119232618e-12
 30
0.0
 11
901.4690747664622
 21
63.036858464082904
 31
0.0
  0
LINE
  5
E6
330
17
100
AcDbEntity
  8
Inner
100
AcDbLine
 10
901.4690747664622
 20
63.036858464082904
 30
0.0
 11
898.5178983429067
 21
126.2784554281513
 31
0.0
  0
LINE
  5
E7
330
17
100
AcDbEntity
  8
Inner
100
AcDbLine
 10
898.5178983429067
 20
126.2784554281513
 30
0.0
 11
891.1250691885215
 21
189.41448072467264
 31
0.0
  0
LINE
  5
E8
330
17
100
AcDbEntity
  8
Inner
100
AcDbLine
 10
891.1250691885215
 20
189.41448072467264
 30
0.0
 11
879.2909948743047
 21
252.13263551947773
 31
0.0
  0
LINE
  5
E9
330
17
100
AcDbEntity
  8
Inner
100
AcDbLine
 10
879.2909948743047
 20
252.13263551947773
 30
0.0
 11
863.0380653310584
 21
314.1201668191938
 31
0.0
  0
LINE
  5
EA
330
17
100
AcDbEntity
  8
Inner
100
AcDbLine
 10
863.0380653310584
 20
314.1201668191938
 30
0.0
 11
842.4107180074965
 21
375.06541646829885
 31
0.0
  0
LINE
  5
EB
330
17
100
AcDbEntity
  8
Inner
100
AcDbLine
 10
842.4107180074965
 20
375.06541646829885
 30
0.0
 11
817.4753937603025
 21
434.65937701353437
 31
0.0
  0
LINE
  5
EC
330
17
100
AcDbEntity
  8
Inner
100
AcDbLine
 10
817.4753937603025
 20
434.65937701353437
 30
0.0
 11
788.3203828360165
 21
492.5972467196541
 31
0.0
  0
LINE
  5
ED
330
17
100
AcDbEntity
  8
Inner
100
AcDbLine
 10
788.3203828360165
 20
492.5972467196541
 30
0.0
 11
755.0555608501371
 21
548.5799759645669
 31
0.0
  0
LINE
  5
EE
330
17
100
AcDbEntity
  8
Inner
100
AcDbLine
 10
755.0555608501371
 20
548.5799759645669
 30
0.0
 11
717.8120152188955
 21
602.3157972247928
 31
0.0
  0
LINE
  5
EF
330
17
100
AcDbEntity
  8
Inner
100
AcDbLine
 10
717.8120152188955
 20
602.3157972247928
 30
0.0
 11
676.7415630511888
 21
653.5217308839277
 31
0.0
  0
LINE
  5
F0
330
17
100
AcDbEntity
  8
Inner
100
AcDbLine
 10
676.7415630511888
 20
653.5217308839277
 30
0.0
 11
632.0161620594896
 21
701.9250591575793
 31
0.0
  0
LINE
  5
F1
330
17
100
AcDbEntity
  8
Inner
100
AcDbLine
 10
632.0161620594896
 20
701.9250591575793
 30
0.0
 11
583.8272165959496
 21
747.2647605285605
 31
0.0
  0
LINE
  5
F2
330
17
100
AcDbEntity
  8
Inner
100
AcDbLine
 10
583.8272165959496
 20
747.2647605285605
 30
0.0
 11
532.3847814613923
 21
789.2928972248485
 31
0.0
  0
LINE
  5
F3
330
17
100
AcDbEntity
  8
Inner
100
AcDbLine
 10
532.3847814613923
 20
789.2928972248485
 30
0.0
 11
477.9166666666686
 21
827.7759484506247
 31
0.0
  0
LINE
  5
F4
330
17
100
AcDbEntity
  8
Inner
100
AcDbLine
 10
477.9166666666686
 20
827.7759484506247
 30
0.0
 11
420.6674468461583
 21
862.4960822960335
 31
0.0
  0
LINE
  5
F5
330
17
100
AcDbEntity
  8
Inner
100
AcDbLine
 10
420.6674468461583
 20
862.4960822960335
 30
0.0
 11
360.8973795287207
 21
893.2523595039177
 31
0.0
  0
LINE
  5
F6
330
17
100
AcDbEntity
  8
Inner
100
AcDbLine
 10
360.8973795287207
 20
893.2523595039177
 30
0.0
 11
298.8812369594503
 21
919.8618625606722
 31
0.0
  0
LINE
  5
F7
330
17
100
AcDbEntity
  8
Inner
100
AcDbLine
 10
298.8812369594503
 20
919.8618625606722
 30
0.0
 11
234.9070566342967
 21
942.160743901868
 31
0.0
  0
LINE
  5
F8
330
17
100
AcDbEntity
  8
Inner
100
AcDbLine
 10
234.9070566342967
 20
942.160743901868
 30
0.0
 11
169.27481615532153
 21
960.005187380789
 31
0.0
  0
LINE
  5
F9
330
17
100
AcDbEntity
  8
Inner
100
AcDbLine
 10
169.27481615532153
 20
960.005187380789
 30
0.0
 11
102.2950384358347
 21
973.2722775372379
 31
0.0
  0
LINE
  5
FA
330
17
100
AcDbEntity
  8
Inner
100
AcDbLine
 10
102.2950384358347
 20
973.2722775372379
 30
0.0
 11
34.28733367885745
 21
981.8607716236795
 31
0.0
  0
LINE
  5
FB
330
17
100
AcDbEntity
  8
Inner
100
AcDbLine
 10
34.28733367885745
 20
981.8607716236795
 30
0.0
 11
-34.42111508288466
 21
985.6917697939191
 31
0.0
  0
LINE
  5
FC
330
17
100
AcDbEntity
  8
Inner
100
AcDbLine
 10
-34.42111508288466
 20
985.6917697939191
 30
0.0
 11
-103.49711576341367
 21
984.7092793339729
 31
0.0
  0
LINE
  5
FD
330
17
100
AcDbEntity
  8
Inner
100
AcDbLine
 10
-103.49711576341367
 20
984.7092793339729
 30
0.0
 11
-172.60307289393174
 21
978.8806693135239
 31
0.0
  0
LINE
  5
FE
330
17
100
AcDbEntity
  8
Inner
100
AcDbLine
 10
-172.60307289393174
 20
978.8806693135239
 30
0.0
 11
-241.39862749955535
 21
968.1970125569403
 31
0.0
  0
LINE
  5
FF
330
17
100
AcDbEntity
  8
Inner
100
AcDbLine
 10
-241.39862749955535
 20
968.1970125569403
 30
0.0
 11
-309.5423232653869
 21
952.6733123728545
 31
0.0
  0
LINE
  5
100
330
17
100
AcDbEntity
  8
Inner
100
AcDbLine
 10
-309.5423232653869
 20
952.6733123728545
 30
0.0
 11
-376.69329088441947
 21
932.348612038153
 31
0.0
  0
LINE
  5
101
330
17
100
AcDbEntity
  8
Inner
100
AcDbLine
 10
-376.69329088441947
 20
932.348612038153
 30
0.0
 11
-442.51294232781476
 21
907.2859856032746
 31
0.0
  0
LINE
  5
102
330
17
100
AcDbEntity
  8
Inner
100
AcDbLine
 10
-442.51294232781476
 20
907.2859856032746
 30
0.0
 11
-506.6666666666635
 21
877.5724091682331
 31
0.0
  0
LINE
  5
103
330
17
100
AcDbEntity
  8
Inner
100
AcDbLine
 10
-506.6666666666635
 20
877.5724091682331
 30
0.0
 11
-568.8255190042366
 21
843.3185123696846
 31
0.0
  0
LINE
  5
104
330
17
100
AcDbEntity
  8
Inner
100
AcDbLine
 10
-568.8255190042366
 20
843.3185123696846
 30
0.0
 11
-628.6678940488359
 21
804.6582104162494
 31
0.0
  0
LINE
  5
105
330
17
100
AcDbEntity
  8
Inner
100
AcDbLine
 10
-628.6678940488359
 20
804.6582104162494
 30
0.0
 11
-685.8811758713729
 21
761.7482176085132
 31
0.0
  0
LINE
  5
106
330
17
100
AcDbEntity
  8
Inner
100
AcDbLine
 10
-685.8811758713729
 20
761.7482176085132
 30
0.0
 11
-740.1633554477139
 21
714.7674438793954
 31
0.0
  0
LINE
  5
107
330
17
100
AcDbEntity
  8
Inner
100
AcDbLine
 10
-740.1633554477139
 20
714.7674438793954
 30
0.0
 11
-791.2246076844604
 21
663.9162764864242
 31
0.0
  0
LINE
  5
108
330
17
100
AcDbEntity
  8
Inner
100
AcDbLine
 10
-791.2246076844604
 20
663.9162764864242
 30
0.0
 11
-838.7888197679449
 21
609.4157495768374
 31
0.0
  0
LINE
  5
109
330
17
100
AcDbEntity
  8
Inner
100
AcDbLine
 10
-838.7888197679449
 20
609.4157495768374
 30
0.0
 11
-882.59506285874
 21
551.5066049269112
 31
0.0
  0
LINE
  5
10A
330
17
100
AcDbEntity
  8
Inner
100
AcDbLine
 10
-882.59506285874
 20
551.5066049269112
 30
0.0
 11
-922.3989993783701
 21
490.4482477245934
 31
0.0
  0
LINE
  5
10B
330
17
100
AcDbEntity
  8
Inner
100
AcDbLine
 10
-922.3989993783701
 20
490.4482477245934
 30
0.0
 11
-957.9742183992861
 21
426.5176018173868
 31
0.0
  0
LINE
  5
10C
330
17
100
AcDbEntity
  8
Inner
100
AcDbLine
 10
-957.9742183992861
 20
426.5176018173868
 30
0.0
 11
-989.1134919531682
 21
360.0078693820532
 31
0.0
  0
LINE
  5
10D
330
17
100
AcDbEntity
  8
Inner
100
AcDbLine
 10
-989.1134919531682
 20
360.0078693820532
 30
0.0
 11
-1015.629945414889
 21
291.2272004861913
 31
0.0
  0
LINE
  5
10E
330
17
100
AcDbEntity
  8
Inner
100
AcDbLine
 10
-1015.629945414889
 20
291.2272004861913
 30
0.0
 11
-1037.3581354982255
 21
220.49727850192664
 31
0.0
  0
LINE
  5
10F
330
17
100
AcDbEntity
  8
Inner
100
AcDbLine
 10
-1037.3581354982255
 20
220.49727850192664
 30
0.0
 11
-1054.1550298134564
 21
148.1518277957111
 31
0.0
  0
LINE
  5
110
330
17
100
AcDbEntity
  8
Inner
100
AcDbLine
 10
-1054.1550298134564
 20
148.1518277957111
 30
0.0
 11
-1065.9008823842898
 21
74.53505055290864
 31
0.0
  0
LINE
  5
111
330
17
100
AcDbEntity
  8
Inner
100
AcDbLine
 10
-1065.9008823842898
 20
74.53505055290864
 30
0.0
 11
-1072.5
 21
-2.3655083592194473e-12
 31
0.0
  0
LINE
  5
112
330
17
100
AcDbEntity
  8
Inner
100
AcDbLine
 10
-1072.5
 20
-2.3655083592194473e-12
 30
0.0
 11
-1073.8813947863687
 21
-75.09310234285874
 31
0.0
  0
LINE
  5
113
330
17
100
AcDbEntity
  8
Inner
100
AcDbLine
 10
-1073.8813947863687
 20
-75.09310234285874
 30
0.0
 11
-1069.999318913322
 21
-150.3785974110693
 31
0.0
  0
LINE
  5
114
330
17
100
AcDbEntity
  8
Inner
100
AcDbLine
 10
-1069.999318913322
 20
-150.3785974110693
 30
0.0
 11
-1060.8336779158378
 21
-225.48715908155003
 31
0.0
  0
LINE
  5
115
330
17
100
AcDbEntity
  8
Inner
100
AcDbLine
 10
-1060.8336779158378
 20
-225.48715908155003
 30
0.0
 11
-1046.390319684916
 21
-300.0475958723325
 31
0.0
  0
LINE
  5
116
330
17
100
AcDbEntity
  8
Inner
100
AcDbLine
 10
-1046.390319684916
 20
-300.0475958723325
 30
0.0
 11
-1026.7011967846026
 21
-373.68867511508427
 31
0.0
  0
LINE
  5
117
330
17
100
AcDbEntity
  8
Inner
100
AcDbLine
 10
-1026.7011967846026
 20
-373.68867511508427
 30
0.0
 11
-1001.824400366132
 21
-446.0409606850224
 31
0.0
  0
LINE
  5
118
330
17
100
AcDbEntity
  8
Inner
100
AcDbLine
 10
-1001.824400366132
 20
-446.0409606850224
 30
0.0
 11
-971.8440645784716
 21
-516.7386552406009
 31
0.0
  0
LINE
  5
119
330
17
100
AcDbEntity
  8
Inner
100
AcDbLine
 10
-971.8440645784716
 20
-516.7386552406009
 30
0.0
 11
-936.8701410127527
 21
-585.4214378378337
 31
0.0
  0
LINE
  5
11A
330
17
100
AcDbEntity
  8
Inner
100
AcDbLine
 10
-936.8701410127527
 20
-585.4214378378337
 30
0.0
 11
-897.0380433629424
 21
-651.7362877418929
 31
0.0
  0
LINE
  5
11B
330
17
100
AcDbEntity
  8
Inner
100
AcDbLine
 10
-897.0380433629424
 20
-651.7362877418929
 30
0.0
 11
-852.5081631339802
 21
-715.3392852613453
 31
0.0
  0
LINE
  5
11C
330
17
100
AcDbEntity
  8
Inner
100
AcDbLine
 10
-852.5081631339802
 20
-715.3392852613453
 30
0.0
 11
-803.4652578775174
 21
-775.8973804797849
 31
0.0
  0
LINE
  5
11D
330
17
100
AcDbEntity
  8
Inner
100
AcDbLine
 10
-803.4652578775174
 20
-775.8973804797849
 30
0.0
 11
-750.1177140818256
 21
-833.0901208543415
 31
0.0
  0
LINE
  5
11E
330
17
100
AcDbEntity
  8
Inner
100
AcDbLine
 10
-750.1177140818256
 20
-833.0901208543415
 30
0.0
 11
-692.6966874827007
 21
-886.6113287913515
 31
0.0
  0
LINE
  5
11F
330
17
100
AcDbEntity
  8
Inner
100
AcDbLine
 10
-692.6966874827007
 20
-886.6113287913515
 30
0.0
 11
-631.4551241929628
 21
-936.170720495848
 31
0.0
  0
LINE
  5
120
330
17
100
AcDbEntity
  8
Inner
100
AcDbLine
 10
-631.4551241929628
 20
-936.170720495848
 30
0.0
 11
-566.6666666666657
 21
-981.4954576223643
 31
0.0
  0
LINE
  5
121
330
17
100
AcDbEntity
  8
Inner
100
AcDbLine
 10
-566.6666666666657
 20
-981.4954576223643
 30
0.0
 11
-498.6244491168196
 21
-1022.3316235295667
 31
0.0
  0
LINE
  5
122
330
17
100
AcDbEntity
  8
Inner
100
AcDbLine
 10
-498.6244491168196
 20
-1022.3316235295667
 30
0.0
 11
-427.639787588986
 21
-1058.4456162592348
 31
0.0
  0
LINE
  5
123
330
17
100
AcDbEntity
  8
Inner
100
AcDbLine
 10
-427.639787588986
 20
-1058.4456162592348
 30
0.0
 11
-354.04077045537497
 21
-1089.6254507193582
 31
0.0
  0
LINE
  5
124
330
17
100
AcDbEntity
  8
Inner
100
AcDbLine
 10
-354.04077045537497
 20
-1089.6254507193582
 30
0.0
 11
-278.1707556307078
 21
-1115.6819629508911
 31
0.0
  0
LINE
  5
125
330
17
100
AcDbEntity
  8
Inner
100
AcDbLine
 10
-278.1707556307078
 20
-1115.6819629508911
 30
0.0
 11
-200.38678132064314
 21
-1136.449909795477
 31
0.0
  0
LINE
  5
126
330
17
100
AcDbEntity
  8
Inner
100
AcDbLine
 10
-200.38678132064314
 20
-1136.449909795477
 30
0.0
 11
-121.05789759238276
 21
-1151.7889577558426
 31
0.0
  0
LINE
  5
127
330
17
100
AcDbEntity
  8
Inner
100
AcDbLine
 10
-121.05789759238276
 20
-1151.7889577558426
 30
0.0
 11
-40.56342650252767
 21
-1161.58455534928
 31
0.0
  0
LINE
  5
128
330
17
100
AcDbEntity
  8
Inner
100
AcDbLine
 10
-40.56342650252767
 20
-1161.58455534928
 30
0.0
 11
40.708841072122276
 21
-1165.7486837951926
 31
0.0
  0
LINE
  5
129
330
17
100
AcDbEntity
  8
Inner
100
AcDbLine
 10
40.708841072122276
 20
-1165.7486837951926
 30
0.0
 11
122.36450338322106
 21
-1164.220481447947
 31
0.0
  0
LINE
  5
12A
330
17
100
AcDbEntity
  8
Inner
100
AcDbLine
 10
122.36450338322106
 20
-1164.220481447947
 30
0.0
 11
204.00445168870502
 21
-1156.966737983231
 31
0.0
  0
LINE
  5
12B
330
17
100
AcDbEntity
  8
Inner
100
AcDbLine
 10
204.00445168870502
 20
-1156.966737983231
 30
0.0
 11
285.22681091903235
 21
-1143.982254967274
 31
0.0
  0
LINE
  5
12C
330
17
100
AcDbEntity
  8
Inner
100
AcDbLine
 10
285.22681091903235
 20
-1143.982254967274
 30
0.0
 11
365.6289077444361
 21
-1125.290070080426
 31
0.0
  0
LINE
  5
12D
330
17
100
AcDbEntity
  8
Inner
100
AcDbLine
 10
365.6289077444361
 20
-1125.290070080426
 30
0.0
 11
444.80925645388294
 21
-1100.941542926879
 31
0.0
  0
LINE
  5
12E
330
17
100
AcDbEntity
  8
Inner
100
AcDbLine
 10
444.80925645388294
 20
-1100.941542926879
 30
0.0
 11
522.3695529012213
 21
-1071.0163010374415
 31
0.0
  0
LINE
  5
12F
330
17
100
AcDbEntity
  8
Inner
100
AcDbLine
 10
522.3695529012213
 20
-1071.0163010374415
 30
0.0
 11
597.9166666666665
 21
-1035.6220453588915
 31
0.0
  0
LINE
  5
130
330
17
100
AcDbEntity
  8
Inner
100
AcDbLine
 10
597.9166666666665
 20
-1035.6220453588915
 30
0.0
 11
671.0646215221412
 21
-994.8942152184959
 31
0.0
  0
LINE
  5
131
330
17
100
AcDbEntity
  8
Inner
100
AcDbLine
 10
671.0646215221412
 20
-994.8942152184959
 30
0.0
 11
741.4365542793158
 21
-948.9955134518833
 31
0.0
  0
LINE
  5
132
330
17
100
AcDbEntity
  8
Inner
100
AcDbLine
 10
741.4365542793158
 20
-948.9955134518833
 30
0.0
 11
808.666642138226
 21
-898.1152930836125
 31
0.0
  0
LINE
  5
133
330
17
100
AcDbEntity
  8
Inner
100
AcDbLine
 10
808.666642138226
 20
-898.1152930836125
 30
0.0
 11
872.4019887432995
 21
-842.4688076487774
 31
0.0
  0
LINE
  5
134
330
17
100
AcDbEntity
  8
Inner
100
AcDbLine
 10
872.4019887432995
 20
-842.4688076487774
 30
0.0
 11
932.3044592922074
 21
-782.2963279370258
 31
0.0
  0
LINE
  5
135
330
17
100
AcDbEntity
  8
Inner
100
AcDbLine
 10
932.3044592922074
 20
-782.2963279370258
 30
0.0
 11
988.0524552301249
 21
-717.8621286247956
 31
0.0
  0
LINE
  5
136
330
17
100
AcDbEntity
  8
Inner
100
AcDbLine
 10
988.0524552301249
 20
-717.8621286247956
 30
0.0
 11
1039.342619298317
 21
-649.4533489326856
 31
0.0
  0
LINE
  5
137
330
17
100
AcDbEntity
  8
Inner
100
AcDbLine
 10
1039.342619298317
 20
-649.4533489326856
 30
0.0
 11
1085.8914619894167
 21
-577.3787321004443
 31
0.0
  0
LINE
  5
138
330
17
100
AcDbEntity
  8
Inner
100
AcDbLine
 10
1085.8914619894167
 20
-577.3787321004443
 30
0.0
 11
1127.4369007919868
 21
-501.96724910795194
 31
0.0
  0
LINE
  5
139
330
17
100
AcDbEntity
  8
Inner
100
AcDbLine
 10
1127.4369007919868
 20
-501.96724910795194
 30
0.0
 11
1163.7397039825482
 21
-423.5666126834105
 31
0.0
  0
LINE
  5
13A
330
17
100
AcDbEntity
  8
Inner
100
AcDbLine
 10
1163.7397039825482
 20
-423.5666126834105
 30
0.0
 11
1194.5848311420739
 21
-342.5416882274522
 31
0.0
  0
LINE
  5
13B
330
17
100
AcDbEntity
  8
Inner
100
AcDbLine
 10
1194.5848311420739
 20
-342.5416882274522
 30
0.0
 11
1219.7826630350794
 21
-259.27280883944303
 31
0.0
  0
LINE
  5
13C
330
17
100
AcDbEntity
  8
Inner
100
AcDbLine
 10
1219.7826630350794
 20
-259.27280883944303
 30
0.0
 11
1239.1701139900072
 21
-174.154002158413
 31
0.0
  0
LINE
  5
13D
330
17
100
AcDbEntity
  8
Inner
100
AcDbLine
 10
1239.1701139900072
 20
-174.154002158413
 30
0.0
 11
1252.6116204579205
 21
-87.59113722201323
 31
0.0
  0
LINE
  5
13E
330
17
100
AcDbEntity
  8
Inner
100
AcDbLine
 10
1252.6116204579205
 20
-87.59113722201323
 30
0.0
 11
1260.0
 21
-1.851665960310798e-12
 31
0.0
  0
LINE
  5
13F
330
17
100
AcDbEntity
  8
Inner
100
AcDbLine
 10
1260.0
 20
-1.851665960310798e-12
 30
0.0
 11
1261.2571755601718
 21
88.19569332780088
 31
0.0
  0
LINE
  5
140
330
17
100
AcDbEntity
  8
Inner
100
AcDbLine
 10
1261.2571755601718
 20
88.19569332780088
 30
0.0
 11
1256.3347605148613
 21
176.56633590838376
 31
0.0
  0
LINE
  5
141
330
17
100
AcDbEntity
  8
Inner
100
AcDbLine
 10
1256.3347605148613
 20
176.56633590838376
 30
0.0
 11
1245.2145006541593
 21
264.67851280070124
 31
0.0
  0
LINE
  5
142
330
17
100
AcDbEntity
  8
Inner
100
AcDbLine
 10
1245.2145006541593
 20
264.67851280070124
 30
0.0
 11
1227.9085699346008
 21
352.09711656244656
 31
0.0
  0
LINE
  5
143
330
17
100
AcDbEntity
  8
Inner
100
AcDbLine
 10
1227.9085699346008
 20
352.09711656244656
 30
0.0
 11
1204.4597175499387
 21
438.38748556085255
 31
0.0
  0
LINE
  5
144
330
17
100
AcDbEntity
  8
Inner
100
AcDbLine
 10
1204.4597175499387
 20
438.38748556085255
 30
0.0
 11
1174.941264589403
 21
523.1175545478902
 31
0.0
  0
LINE
  5
145
330
17
100
AcDbEntity
  8
Inner
100
AcDbLine
 10
1174.941264589403
 20
523.1175545478902
 30
0.0
 11
1139.4569492895266
 21
605.8600069094516
 31
0.0
  0
LINE
  5
146
330
17
100
AcDbEntity
  8
Inner
100
AcDbLine
 10
1139.4569492895266
 20
605.8600069094516
 30
0.0
 11
1098.1406206318309
 21
686.1944179195178
 31
0.0
  0
LINE
  5
147
330
17
100
AcDbEntity
  8
Inner
100
AcDbLine
 10
1098.1406206318309
 20
686.1944179195178
 30
0.0
 11
1051.1557807913673
 21
763.7093783036123
 31
0.0
  0
LINE
  5
148
330
17
100
AcDbEntity
  8
Inner
100
AcDbLine
 10
1051.1557807913673
 20
763.7093783036123
 30
0.0
 11
998.6949776958547
 21
838.0045874431897
 31
0.0
  0
LINE
  5
149
330
17
100
AcDbEntity
  8
Inner
100
AcDbLine
 10
998.6949776958547
 20
838.0045874431897
 30
0.0
 11
940.9790497089201
 21
908.6929056325326
 31
0.0
  0
LINE
  5
14A
330
17
100
AcDbEntity
  8
Inner
100
AcDbLine
 10
940.9790497089201
 20
908.6929056325326
 30
0.0
 11
878.2562251995506
 21
975.4023549332593
 31
0.0
  0
LINE
  5
14B
330
17
100
AcDbEntity
  8
Inner
100
AcDbLine
 10
878.2562251995506
 20
975.4023549332593
 30
0.0
 11
810.8010804993428
 21
1037.7780583582382
 31
0.0
  0
LINE
  5
14C
330
17
100
AcDbEntity
  8
Inner
100
AcDbLine
 10
810.8010804993428
 20
1037.7780583582382
 30
0.0
 11
738.9133604765879
 21
1095.4841073551775
 31
0.0
  0
LINE
  5
14D
330
17
100
AcDbEntity
  8
Inner
100
AcDbLine
 10
738.9133604765879
 20
1095.4841073551775
 30
0.0
 11
662.9166666666697
 21
1148.2053478508662
 31
0.0
  0
LINE
  5
14E
330
17
100
AcDbEntity
  8
Inner
100
AcDbLine
 10
662.9166666666697
 20
1148.2053478508662
 30
0.0
 11
583.1570185893099
 21
1195.6490754575914
 31
0.0
  0
LINE
  5
14F
330
17
100
AcDbEntity
  8
Inner
100
AcDbLine
 10
583.1570185893099
 20
1195.6490754575914
 30
0.0
 11
500.0012945504889
 21
1237.5466308330542
 31
0.0
  0
LINE
  5
150
330
17
100
AcDbEntity
  8
Inner
100
AcDbLine
 10
500.0012945504889
 20
1237.5466308330542
 30
0.0
 11
413.8355588669316
 21
1273.6548866224691
 31
0.0
  0
LINE
  5
151
330
17
100
AcDbEntity
  8
Inner
100
AcDbLine
 10
413.8355588669316
 20
1273.6548866224691
 30
0.0
 11
325.06328306110595
 21
1303.7576178940562
 31
0.0
  0
LINE
  5
152
330
17
100
AcDbEntity
  8
Inner
100
AcDbLine
 10
325.06328306110595
 20
1303.7576178940562
 30
0.0
 11
234.1034691509769
 21
1327.6667485053465
 31
0.0
  0
LINE
  5
153
330
17
100
AcDbEntity
  8
Inner
100
AcDbLine
 10
234.1034691509769
 20
1327.6667485053465
 30
0.0
 11
141.3886836979375
 21
1345.2234664049722
 31
0.0
  0
LINE
  5
154
330
17
100
AcDbEntity
  8
Inner
100
AcDbLine
 10
141.3886836979375
 20
1345.2234664049722
 30
0.0
 11
47.36301177672715
 21
1356.299201480167
 31
0.0
  0
LINE
  5
155
330
17
100
AcDbEntity
  8
Inner
100
AcDbLine
 10
47.36301177672715
 20
1356.299201480167
 30
0.0
 11
-47.520059511889066
 21
1360.7964602017532
 31
0.0
  0
LINE
  5
156
330
17
100
AcDbEntity
  8
Inner
100
AcDbLine
 10
-47.520059511889066
 20
1360.7964602017532
 30
0.0
 11
-142.79981795205148
 21
1358.6495119924439
 31
0.0
  0
LINE
  5
157
330
17
100
AcDbEntity
  8
Inner
100
AcDbLine
 10
-142.79981795205148
 20
1358.6495119924439
 30
0.0
 11
-238.01055314847395
 21
1349.8249229481225
 31
0.0
  0
LINE
  5
158
330
17
100
AcDbEntity
  8
Inner
100
AcDbLine
 10
-238.01055314847395
 20
1349.8249229481225
 30
0.0
 11
-332.6838227724961
 21
1334.32193327175
 31
0.0
  0
LINE
  5
159
330
17
100
AcDbEntity
  8
Inner
100
AcDbLine
 10
-332.6838227724961
 20
1334.32193327175
 30
0.0
 11
-426.3507471391176
 21
1312.1726755324223
 31
0.0
  0
LINE
  5
15A
330
17
100
AcDbEntity
  8
Inner
100
AcDbLine
 10
-426.3507471391176
 20
1312.1726755324223
 30
0.0
 11
-518.5443209245772
 21
1283.4422316341104
 31
0.0
  0
LINE
  5
15B
330
17
100
AcDbEntity
  8
Inner
100
AcDbLine
 10
-518.5443209245772
 20
1283.4422316341104
 30
0.0
 11
-608.8017306764714
 21
1248.228527166092
 31
0.0
  0
LINE
  5
15C
330
17
100
AcDbEntity
  8
Inner
100
AcDbLine
 10
-608.8017306764714
 20
1248.228527166092
 30
0.0
 11
-696.666666666662
 21
1206.6620626063207
 31
0.0
  0
LINE
  5
15D
330
17
100
AcDbEntity
  8
Inner
100
AcDbLine
 10
-696.666666666662
 20
1206.6620626063207
 30
0.0
 11
-781.6916175921002
 21
1158.9054816556375
 31
0.0
  0
LINE
  5
15E
330
17
100
AcDbEntity
  8
Inner
100
AcDbLine
 10
-781.6916175921002
 20
1158.9054816556375
 30
0.0
 11
-863.4401366396871
 21
1105.1529777916126
 31
0.0
  0
LINE
  5
15F
330
17
100
AcDbEntity
  8
Inner
100
AcDbLine
 10
-863.4401366396871
 20
1105.1529777916126
 30
0.0
 11
-941.4890675004557
 21
1045.6295409408785
 31
0.0
  0
LINE
  5
160
330
17
100
AcDbEntity
  8
Inner
100
AcDbLine
 10
-941.4890675004557
 20
1045.6295409408785
 30
0.0
 11
-1015.430719043971
 21
980.5900469750384
 31
0.0
  0
LINE
  5
161
330
17
100
AcDbEntity
  8
Inner
100
AcDbLine
 10
-1015.430719043971
 20
980.5900469750384
 30
0.0
 11
-1084.8749775467404
 21
910.3181935329247
 31
0.0
  0
LINE
  5
162
330
17
100
AcDbEntity
  8
Inner
100
AcDbLine
 10
-1084.8749775467404
 20
910.3181935329247
 30
0.0
 11
-1149.4513456079242
 21
835.1252864571477
 31
0.0
  0
LINE
  5
163
330
17
100
AcDbEntity
  8
Inner
100
AcDbLine
 10
-1149.4513456079242
 20
835.1252864571477
 30
0.0
 11
-1208.810897180245
 21
755.3488819019504
 31
0.0
  0
LINE
  5
164
330
17
100
AcDbEntity
  8
Inner
100
AcDbLine
 10
-1208.810897180245
 20
755.3488819019504
 30
0.0
 11
-1262.6281384933427
 21
671.3512899180913
 31
0.0
  0
LINE
  5
165
330
17
100
AcDbEntity
  8
Inner
100
AcDbLine
 10
-1262.6281384933427
 20
671.3512899180913
 30
0.0
 11
-1310.6027650493297
 21
583.5179460446459
 31
0.0
  0
LINE
  5
166
330
17
100
AcDbEntity
  8
Inner
100
AcDbLine
 10
-1310.6027650493297
 20
583.5179460446459
 30
0.0
 11
-1352.4613053237197
 21
492.2556581346445
 31
0.0
  0
LINE
  5
167
330
17
100
AcDbEntity
  8
Inner
100
AcDbLine
 10
-1352.4613053237197
 20
492.2556581346445
 30
0.0
 11
-1387.9586423083308
 21
397.99073630597667
 31
0.0
  0
LINE
  5
168
330
17
100
AcDbEntity
  8
Inner
100
AcDbLine
 10
-1387.9586423083308
 20
397.99073630597667
 30
0.0
 11
-1416.8794045829422
 21
301.1670145392172
 31
0.0
  0
LINE
  5
169
330
17
100
AcDbEntity
  8
Inner
100
AcDbLine
 10
-1416.8794045829422
 20
301.1670145392172
 30
0.0
 11
-1439.0392191976798
 21
202.24377303552478
 31
0.0
  0
LINE
  5
16A
330
17
100
AcDbEntity
  8
Inner
100
AcDbLine
 10
-1439.0392191976798
 20
202.24377303552478
 30
0.0
 11
-1454.285819285448
 21
101.69357099728866
 31
0.0
  0
LINE
  5
16B
330
17
100
AcDbEntity
  8
Inner
100
AcDbLine
 10
-1454.285819285448
 20
101.69357099728866
 30
0.0
 11
-1462.5
 21
-2.867484028366827e-12
 31
0.0
  0
LINE
  5
16C
330
17
100
AcDbEntity
  8
Inner
100
AcDbLine
 10
-1462.5
 20
-2.867484028366827e-12
 30
0.0
 11
-1463.5964170878733
 21
-102.34463141889583
 31
0.0
  0
LINE
  5
16D
330
17
100
AcDbEntity
  8
Inner
100
AcDbLine
 10
-1463.5964170878733
 20
-102.34463141889583
 30
0.0
 11
-1457.5242231475233
 21
-204.84167092010816
 31
0.0
  0
LINE
  5
16E
330
17
100
AcDbEntity
  8
Inner
100
AcDbLine
 10
-1457.5242231475233
 20
-204.84167092010816
 30
0.0
 11
-1444.2675374034898
 21
-306.98854188210987
 31
0.0
  0
LINE
  5
16F
330
17
100
AcDbEntity
  8
Inner
100
AcDbLine
 10
-1444.2675374034898
 20
-306.98854188210987
 30
0.0
 11
-1423.8457456233627
 21
-408.2811975898067
 31
0.0
  0
LINE
  5
170
330
17
100
AcDbEntity
  8
Inner
100
AcDbLine
 10
-1423.8457456233627
 20
-408.2811975898067
 30
0.0
 11
-1396.31362762706
 21
-508.2165981565144
 31
0.0
  0
LINE
  5
171
330
17
100
AcDbEntity
  8
Inner
100
AcDbLine
 10
-1396.31362762706
 20
-508.2165981565144
 30
0.0
 11
-1361.7613106773174
 21
-606.2951980568865
 31
0.0
  0
LINE
  5
172
330
17
100
AcDbEntity
  8
Inner
100
AcDbLine
 10
-1361.7613106773174
 20
-606.2951980568865
 30
0.0
 11
-1320.3140478934615
 21
-702.0234320200988
 31
0.0
  0
LINE
  5
173
330
17
100
AcDbEntity
  8
Inner
100
AcDbLine
 10
-1320.3140478934615
 20
-702.0234320200988
 30
0.0
 11
-1272.131821693255
 21
-794.9161869647013
 31
0.0
  0
LINE
  5
174
330
17
100
AcDbEntity
  8
Inner
100
AcDbLine
 10
-1272.131821693255
 20
-794.9161869647013
 30
0.0
 11
-1217.408773135422
 21
-884.4992476497114
 31
0.0
  0
LINE
  5
175
330
17
100
AcDbEntity
  8
Inner
100
AcDbLine
 10
-1217.408773135422
 20
-884.4992476497114
 30
0.0
 11
-1156.372458904508
 21
-970.3117037703394
 31
0.0
  0
LINE
  5
176
330
17
100
AcDbEntity
  8
Inner
100
AcDbLine
 10
-1156.372458904508
 20
-970.3117037703394
 30
0.0
 11
-1089.2829385454093
 21
-1051.908306342159
 31
0.0
  0
LINE
  5
177
330
17
100
AcDbEntity
  8
Inner
100
AcDbLine
 10
-1089.2829385454093
 20
-1051.908306342159
 30
0.0
 11
-1016.4316954126515
 21
-1128.8617613943438
 31
0.0
  0
LINE
  5
178
330
17
100
AcDbEntity
  8
Inner
100
AcDbLine
 10
-1016.4316954126515
 20
-1128.8617613943438
 30
0.0
 11
-938.1403956458624
 21
-1200.7649492292317
 31
0.0
  0
LINE
  5
179
330
17
100
AcDbEntity
  8
Inner
100
AcDbLine
 10
-938.1403956458624
 20
-1200.7649492292317
 30
0.0
 11
-854.7594903122819
 21
-1267.2330578028273
 31
0.0
  0
LINE
  5
17A
330
17
100
AcDbEntity
  8
Inner
100
AcDbLine
 10
-854.7594903122819
 20
-1267.2330578028273
 30
0.0
 11
-766.6666666666658
 21
-1327.90561913614
 31
0.0
  0
LINE
  5
17B
330
17
100
AcDbEntity
  8
Inner
100
AcDbLine
 10
-766.6666666666658
 20
-1327.90561913614
 30
0.0
 11
-674.2651552636448
 21
-1382.4484380800989
 31
0.0
  0
LINE
  5
17C
330
17
100
AcDbEntity
  8
Inner
100
AcDbLine
 10
-674.2651552636448
 20
-1382.4484380800989
 30
0.0
 11
-577.9819004132394
 21
-1430.5554032253717
 31
0.0
  0
LINE
  5
17D
330
17
100
AcDbEntity
  8
Inner
100
AcDbLine
 10
-577.9819004132394
 20
-1430.5554032253717
 30
0.0
 11
-478.26560219410334
 21
-1471.9501702700102
 31
0.0
  0
LINE
  5
17E
330
17
100
AcDbEntity
  8
Inner
100
AcDbLine
 10
-478.26560219410334
 20
-1471.9501702700102
 30
0.0
 11
-375.58463892550856
 21
-1506.3877087313588
 31
0.0
  0
LINE
  5
17F
330
17
100
AcDbEntity
  8
Inner
100
AcDbLine
 10
-375.58463892550856
 20
-1506.3877087313588
 30
0.0
 11
-270.4248796463052
 21
-1533.655703510401
 31
0.0
  0
LINE
  5
180
330
17
100
AcDbEntity
  8
Inner
100
AcDbLine
 10
-270.4248796463052
 20
-1533.655703510401
 30
0.0
 11
-163.28739675251663
 21
-1553.5758034846247
 31
0.0
  0
LINE
  5
181
330
17
100
AcDbEntity
  8
Inner
100
AcDbLine
 10
-163.28739675251663
 20
-1553.5758034846247
 30
0.0
 11
-54.68608950147385
 21
-1566.0047100163408
 31
0.0
  0
LINE
  5
182
330
17
100
AcDbEntity
  8
Inner
100
AcDbLine
 10
-54.68608950147385
 20
-1566.0047100163408
 30
0.0
 11
54.854770402203
 21
-1570.8350990135996
 31
0.0
  0
LINE
  5
183
330
17
100
AcDbEntity
  8
Inner
100
AcDbLine
 10
54.854770402203
 20
-1570.8350990135996
 30
0.0
 11
164.80305946988693
 21
-1567.996370967466
 31
0.0
  0
LINE
  5
184
330
17
100
AcDbEntity
  8
Inner
100
AcDbLine
 10
164.80305946988693
 20
-1567.996370967466
 30
0.0
 11
274.62137727325637
 21
-1557.4552242081954
 31
0.0
  0
LINE
  5
185
330
17
100
AcDbEntity
  8
Inner
100
AcDbLine
 10
274.62137727325637
 20
-1557.4552242081954
 30
0.0
 11
383.7696630599644
 21
-1539.216047470363
 31
0.0
  0
LINE
  5
186
330
17
100
AcDbEntity
  8
Inner
100
AcDbLine
 10
383.7696630599644
 20
-1539.216047470363
 30
0.0
 11
491.70784144941376
 21
-1513.321128728849
 31
0.0
  0
LINE
  5
187
330
17
100
AcDbEntity
  8
Inner
100
AcDbLine
 10
491.70784144941376
 20
-1513.321128728849
 30
0.0
 11
597.8984842965192
 21
-1479.8506781598394
 31
0.0
  0
LINE
  5
188
330
17
100
AcDbEntity
  8
Inner
100
AcDbLine
 10
597.8984842965192
 20
-1479.8506781598394
 30
0.0
 11
701.8094756535489
 21
-1438.9226639892347
 31
0.0
  0
LINE
  5
189
330
17
100
AcDbEntity
  8
Inner
100
AcDbLine
 10
701.8094756535489
 20
-1438.9226639892347
 30
0.0
 11
802.916666666666
 21
-1390.6924609105115
 31
0.0
  0
LINE
  5
18A
330
17
100
AcDbEntity
  8
Inner
100
AcDbLine
 10
802.916666666666
 20
-1390.6924609105115
 30
0.0
 11
900.7065072141286
 21
-1335.3523116810993
 31
0.0
  0
LINE
  5
18B
330
17
100
AcDbEntity
  8
Inner
100
AcDbLine
 10
900.7065072141286
 20
-1335.3523116810993
 30
0.0
 11
994.6786411299356
 21
-1273.1306034354488
 31
0.0
  0
LINE
  5
18C
330
17
100
AcDbEntity
  8
Inner
100
AcDbLine
 10
994.6786411299356
 20
-1273.1306034354488
 30
0.0
 11
1084.3484519580757
 21
-1204.2909611802993
 31
0.0
  0
LINE
  5
18D
330
17
100
AcDbEntity
  8
Inner
100
AcDbLine
 10
1084.3484519580757
 20
-1204.2909611802993
 30
0.0
 11
1169.249546349715
 21
-1129.1311618581915
 31
0.0
  0
LINE
  5
18E
330
17
100
AcDbEntity
  8
Inner
100
AcDbLine
 10
1169.249546349715
 20
-1129.1311618581915
 30
0.0
 11
1248.9361624480514
 21
-1047.9818732741294
 31
0.0
  0
LINE
  5
18F
330
17
100
AcDbEntity
  8
Inner
100
AcDbLine
 10
1248.9361624480514
 20
-1047.9818732741294
 30
0.0
 11
1322.9854909013536
 21
-961.2052230738789
 31
0.0
  0
LINE
  5
190
330
17
100
AcDbEntity
  8
Inner
100
AcDbLine
 10
1322.9854909013536
 20
-961.2052230738789
 30
0.0
 11
1390.9998965045143
 21
-869.1932038347222
 31
0.0
  0
LINE
  5
191
330
17
100
AcDbEntity
  8
Inner
100
AcDbLine
 10
1390.9998965045143
 20
-869.1932038347222
 30
0.0
 11
1452.6090288901578
 21
-772.3659211775177
 31
0.0
  0
LINE
  5
192
330
17
100
AcDbEntity
  8
Inner
100
AcDbLine
 10
1452.6090288901578
 20
-772.3659211775177
 30
0.0
 11
1507.4718111713075
 21
-671.1696926274865
 31
0.0
  0
LINE
  5
193
330
17
100
AcDbEntity
  8
Inner
100
AcDbLine
 10
1507.4718111713075
 20
-671.1696926274865
 30
0.0
 11
1555.2782959766764
 21
-566.0750057357732
 31
0.0
  0
LINE
  5
194
330
17
100
AcDbEntity
  8
Inner
100
AcDbLine
 10
1555.2782959766764
 20
-566.0750057357732
 30
0.0
 11
1595.7513789136656
 21
-457.57434472174623
 31
0.0
  0
LINE
  5
195
330
17
100
AcDbEntity
  8
Inner
100
AcDbLine
 10
1595.7513789136656
 20
-457.57434472174623
 30
0.0
 11
1628.6483601418097
 21
-346.17989560126796
 31
0.0
  0
LINE
  5
196
330
17
100
AcDbEntity
  8
Inner
100
AcDbLine
 10
1628.6483601418097
 20
-346.17989560126796
 30
0.0
 11
1653.7623454364775
 21
-232.4211404270274
 31
0.0
  0
LINE
  5
197
330
17
100
AcDbEntity
  8
Inner
100
AcDbLine
 10
1653.7623454364775
 20
-232.4211404270274
 30
0.0
 11
1670.9234788668734
 21
-116.84235187871565
 31
0.0
  0
LINE
  5
198
330
17
100
AcDbEntity
  8
Inner
100
AcDbLine
 10
1670.9234788668734
 20
-116.84235187871565
 30
0.0
 11
1680.0
 21
-2.8803692715945747e-12
 31
0.0
  0
LINE
  5
199
330
17
100
AcDbEntity
  8
Inner
100
AcDbLine
 10
1680.0
 20
-2.8803692715945747e-12
 30
0.0
 11
1680.8991193694712
 21
117.53991661616305
 31
0.0
  0
LINE
  5
19A
330
17
100
AcDbEntity
  8
Inner
100
AcDbLine
 10
1680.8991193694712
 20
117.53991661616305
 30
0.0
 11
1673.5677068113102
 21
235.20460244622305
 31
0.0
  0
LINE
  5
19B
330
17
100
AcDbEntity
  8
Inner
100
AcDbLine
 10
1673.5677068113102
 20
235.20460244622305
 30
0.0
 11
1657.9927881638253
 21
352.41724632579513
 31
0.0
  0
LINE
  5
19C
330
17
100
AcDbEntity
  8
Inner
100
AcDbLine
 10
1657.9927881638253
 20
352.41724632579513
 30
0.0
 11
1634.2018467511964
 21
468.59983895443213
 31
0.0
  0
LINE
  5
19D
330
17
100
AcDbEntity
  8
Inner
100
AcDbLine
 10
1634.2018467511964
 20
468.59983895443213
 30
0.0
 11
1602.2629270159734
 21
583.1760129020511
 31
0.0
  0
LINE
  5
19E
330
17
100
AcDbEntity
  8
Inner
100
AcDbLine
 10
1602.2629270159734
 20
583.1760129020511
 30
0.0
 11
1562.2845386298661
 21
695.5738912120295
 31
0.0
  0
LINE
  5
19F
330
17
100
AcDbEntity
  8
Inner
100
AcDbLine
 10
1562.2845386298661
 20
695.5738912120295
 30
0.0
 11
1514.415360390285
 21
805.2289305725247
 31
0.0
  0
LINE
  5
1A0
330
17
100
AcDbEntity
  8
Inner
100
AcDbLine
 10
1514.415360390285
 20
805.2289305725247
 30
0.0
 11
1458.8437441970314
 21
911.5867449733738
 31
0.0
  0
LINE
  5
1A1
330
17
100
AcDbEntity
  8
Inner
100
AcDbLine
 10
1458.8437441970314
 20
911.5867449733738
 30
0.0
 11
1395.7970203950947
 21
1014.1058957802062
 31
0.0
  0
LINE
  5
1A2
330
17
100
AcDbEntity
  8
Inner
100
AcDbLine
 10
1395.7970203950947
 20
1014.1058957802062
 30
0.0
 11
1325.540606759953
 21
1112.2606342427787
 31
0.0
  0
LINE
  5
1A3
330
17
100
AcDbEntity
  8
Inner
100
AcDbLine
 10
1325.540606759953
 20
1112.2606342427787
 30
0.0
 11
1248.3769243869706
 21
1205.5435826086778
 31
0.0
  0
LINE
  5
1A4
330
17
100
AcDbEntity
  8
Inner
100
AcDbLine
 10
1248.3769243869706
 20
1205.5435826086778
 30
0.0
 11
1164.6441247211433
 21
1293.4683402375824
 31
0.0
  0
LINE
  5
1A5
330
17
100
AcDbEntity
  8
Inner
100
AcDbLine
 10
1164.6441247211433
 20
1293.4683402375824
 30
0.0
 11
1074.7146329222758
 21
1375.5720014043193
 31
0.0
  0
LINE
  5
1A6
330
17
100
AcDbEntity
  8
Inner
100
AcDbLine
 10
1074.7146329222758
 20
1375.5720014043193
 30
0.0
 11
978.9935137000282
 21
1451.417571838809
 31
0.0
  0
LINE
  5
1A7
330
17
100
AcDbEntity
  8
Inner
100
AcDbLine
 10
978.9935137000282
 20
1451.417571838809
 30
0.0
 11
877.9166666666712
 21
1520.5962714781745
 31
0.0
  0
LINE
  5
1A8
330
17
100
AcDbEntity
  8
Inner
100
AcDbLine
 10
877.9166666666712
 20
1520.5962714781745
 30
0.0
 11
771.9488591398062
 21
1582.729711397099
 31
0.0
  0
LINE
  5
1A9
330
17
100
AcDbEntity
  8
Inner
100
AcDbLine
 10
771.9488591398062
 20
1582.729711397099
 30
0.0
 11
661.5816051772182
 21
1637.4719334361953
 31
0.0
  0
LINE
  5
1AA
330
17
100
AcDbEntity
  8
Inner
100
AcDbLine
 10
661.5816051772182
 20
1637.4719334361953
 30
0.0
 11
547.3309004369099
 21
1684.511301661975
 31
0.0
  0
LINE
  5
1AB
330
17
100
AcDbEntity
  8
Inner
100
AcDbLine
 10
547.3309004369099
 20
1684.511301661975
 30
0.0
 11
429.7348232238955
 21
1723.572235462804
 31
0.0
  0
LINE
  5
1AC
330
17
100
AcDbEntity
  8
Inner
100
AcDbLine
 10
429.7348232238955
 20
1723.572235462804
 30
0.0
 11
309.3510128066485
 21
1754.4167748106365
 31
0.0
  0
LINE
  5
1AD
330
17
100
AcDbEntity
  8
Inner
100
AcDbLine
 10
309.3510128066485
 20
1754.4167748106365
 30
0.0
 11
186.75403675609965
 21
1776.8459689948027
 31
0.0
  0
LINE
  5
1AE
330
17
100
AcDbEntity
  8
Inner
100
AcDbLine
 10
186.75403675609965
 20
1776.8459689948027
 30
0.0
 11
62.53265967674696
 21
1790.701080957801
 31
0.0
  0
LINE
  5
1AF
330
17
100
AcDbEntity
  8
Inner
100
AcDbLine
 10
62.53265967674696
 20
1790.701080957801
 30
0.0
 11
-62.71297374304321
 21
1795.8646002307328
 31
0.0
  0
LINE
  5
1B0
330
17
100
AcDbEntity
  8
Inner
100
AcDbLine
 10
-62.71297374304321
 20
1795.8646002307328
 30
0.0
 11
-188.3742279367483
 21
1792.261058373011
 31
0.0
  0
LINE
  5
1B1
330
17
100
AcDbEntity
  8
Inner
100
AcDbLine
 10
-188.3742279367483
 20
1792.261058373011
 30
0.0
 11
-313.8369240630315
 21
1779.8576417634536
 31
0.0
  0
LINE
  5
1B2
330
17
100
AcDbEntity
  8
Inner
100
AcDbLine
 10
-313.8369240630315
 20
1779.8576417634536
 30
0.0
 11
-438.4843317814167
 21
1758.664597563119
 31
0.0
  0
LINE
  5
1B3
330
17
100
AcDbEntity
  8
Inner
100
AcDbLine
 10
-438.4843317814167
 20
1758.664597563119
 30
0.0
 11
-561.700190675345
 21
1728.7354296696994
 31
0.0
  0
LINE
  5
1B4
330
17
100
AcDbEntity
  8
Inner
100
AcDbLine
 10
-561.700190675345
 20
1728.7354296696994
 30
0.0
 11
-682.8717465696891
 21
1690.1668825040747
 31
0.0
  0
LINE
  5
1B5
330
17
100
AcDbEntity
  8
Inner
100
AcDbLine
 10
-682.8717465696891
 20
1690.1668825040747
 30
0.0
 11
-801.3927878324727
 21
1643.0987115068597
 31
0.0
  0
LINE
  5
1B6
330
17
100
AcDbEntity
  8
Inner
100
AcDbLine
 10
-801.3927878324727
 20
1643.0987115068597
 30
0.0
 11
-916.66666666666
 21
1587.7132402714747
 31
0.0
  0
LINE
  5
1B7
330
17
100
AcDbEntity
  8
Inner
100
AcDbLine
 10
-916.66666666666
 20
1587.7132402714747
 30
0.0
 11
-1028.1092903882086
 21
1524.2347052948933
 31
0.0
  0
LINE
  5
1B8
330
17
100
AcDbEntity
  8
Inner
100
AcDbLine
 10
-1028.1092903882086
 20
1524.2347052948933
 30
0.0
 11
-1135.152067750078
 21
1452.928390383379
 31
0.0
  0
LINE
  5
1B9
330
17
100
AcDbEntity
  8
Inner
100
AcDbLine
 10
-1135.152067750078
 20
1452.928390383379
 30
0.0
 11
-1237.2447955110702
 21
1374.0995538018883
 31
0.0
  0
LINE
  5
1BA
330
17
100
AcDbEntity
  8
Inner
100
AcDbLine
 10
-1237.2447955110702
 20
1374.0995538018883
 30
0.0
 11
-1333.8584706605466
 21
1288.0921522982214
 31
0.0
  0
LINE
  5
1BB
330
17
100
AcDbEntity
  8
Inner
100
AcDbLine
 10
-1333.8584706605466
 20
1288.0921522982214
 30
0.0
 11
-1424.4880139961545
 21
1195.287367160623
 31
0.0
  0
LINE
  5
1BC
330
17
100
AcDbEntity
  8
Inner
100
AcDbLine
 10
-1424.4880139961545
 20
1195.287367160623
 30
0.0
 11
-1508.6548911104
 21
1096.1019384750066
 31
0.0
  0
LINE
  5
1BD
330
17
100
AcDbEntity
  8
Inner
100
AcDbLine
 10
-1508.6548911104
 20
1096.1019384750066
 30
0.0
 11
-1585.909617271136
 21
990.9863147309823
 31
0.0
  0
LINE
  5
1BE
330
17
100
AcDbEntity
  8
Inner
100
AcDbLine
 10
-1585.909617271136
 20
990.9863147309823
 30
0.0
 11
-1655.8341331798508
 21
880.422625878743
 31
0.0
  0
LINE
  5
1BF
330
17
100
AcDbEntity
  8
Inner
100
AcDbLine
 10
-1655.8341331798508
 20
880.422625878743
 30
0.0
 11
-1718.0440391579293
 21
764.9224888564534
 31
0.0
  0
LINE
  5
1C0
330
17
100
AcDbEntity
  8
Inner
100
AcDbLine
 10
-1718.0440391579293
 20
764.9224888564534
 30
0.0
 11
-1772.1906759414258
 21
645.0246554867759
 31
0.0
  0
LINE
  5
1C1
330
17
100
AcDbEntity
  8
Inner
100
AcDbLine
 10
-1772.1906759414258
 20
645.0246554867759
 30
0.0
 11
-1817.9630409580718
 21
521.2925134747823
 31
0.0
  0
LINE
  5
1C2
330
17
100
AcDbEntity
  8
Inner
100
AcDbLine
 10
-1817.9630409580718
 20
521.2925134747823
 30
0.0
 11
-1855.0895297116872
 21
394.3114520255735
 31
0.0
  0
LINE
  5
1C3
330
17
100
AcDbEntity
  8
Inner
100
AcDbLine
 10
-1855.0895297116872
 20
394.3114520255735
 30
0.0
 11
-1883.3394927063976
 21
264.6861043329429
 31
0.0
  0
LINE
  5
1C4
330
17
100
AcDbEntity
  8
Inner
100
AcDbLine
 10
-1883.3394927063976
 20
264.6861043329429
 30
0.0
 11
-1902.5245992021958
 21
133.03747986631646
 31
0.0
  0
LINE
  5
1C5
330
17
100
AcDbEntity
  8
Inner
100
AcDbLine
 10
-1902.5245992021958
 20
133.03747986631646
 30
0.0
 11
-1912.5
 21
-3.2813594056519887e-12
 31
0.0
  0
LINE
  5
1C6
330
17
100
AcDbEntity
  8
Inner
100
AcDbLine
 10
-1912.5
 20
-3.2813594056519887e-12
 30
0.0
 11
-1913.1652824049675
 21
-133.7815489195801
 31
0.0
  0
LINE
  5
1C7
330
17
100
AcDbEntity
  8
Inner
100
AcDbLine
 10
-1913.1652824049675
 20
-133.7815489195801
 30
0.0
 11
-1904.4652115062188
 21
-267.6551304867507
 31
0.0
  0
LINE
  5
1C8
330
17
100
AcDbEntity
  8
Inner
100
AcDbLine
 10
-1904.4652115062188
 20
-267.6551304867507
 30
0.0
 11
-1886.39025293517
 21
-400.96462613173486
 31
0.0
  0
LINE
  5
1C9
330
17
100
AcDbEntity
  8
Inner
100
AcDbLine
 10
-1886.39025293517
 20
-400.96462613173486
 30
0.0
 11
-1858.9768733181086
 21
-533.0530406563007
 31
0.0
  0
LINE
  5
1CA
330
17
100
AcDbEntity
  8
Inner
100
AcDbLine
 10
-1858.9768733181086
 20
-533.0530406563007
 30
0.0
 11
-1822.3076157166718
 21
-663.2657297974844
 31
0.0
  0
LINE
  5
1CB
330
17
100
AcDbEntity
  8
Inner
100
AcDbLine
 10
-1822.3076157166718
 20
-663.2657297974844
 30
0.0
 11
-1776.5109484470588
 21
-790.9536340132983
 31
0.0
  0
LINE
  5
1CC
330
17
100
AcDbEntity
  8
Inner
100
AcDbLine
 10
-1776.5109484470588
 20
-790.9536340132983
 30
0.0
 11
-1721.7608867799872
 21
-915.47650256675
 31
0.0
  0
LINE
  5
1CD
330
17
100
AcDbEntity
  8
Inner
100
AcDbLine
 10
-1721.7608867799872
 20
-915.47650256675
 30
0.0
 11
-1658.2763881431472
 21
-1036.2060919455546
 31
0.0
  0
LINE
  5
1CE
330
17
100
AcDbEntity
  8
Inner
100
AcDbLine
 10
-1658.2763881431472
 20
-1036.2060919455546
 30
0.0
 11
-1586.320522570399
 21
-1152.529322695078
 31
0.0
  0
LINE
  5
1CF
330
17
100
AcDbEntity
  8
Inner
100
AcDbLine
 10
-1586.320522570399
 20
-1152.529322695078
 30
0.0
 11
-1506.1994212621746
 21
-1263.8513788605258
 31
0.0
  0
LINE
  5
1D0
330
17
100
AcDbEntity
  8
Inner
100
AcDbLine
 10
-1506.1994212621746
 20
-1263.8513788605258
 30
0.0
 11
-1418.2610072336204
 21
-1369.5987344320722
 31
0.0
  0
LINE
  5
1D1
330
17
100
AcDbEntity
  8
Inner
100
AcDbLine
 10
-1418.2610072336204
 20
-1369.5987344320722
 30
0.0
 11
-1322.893513125009
 21
-1469.2220914629902
 31
0.0
  0
LINE
  5
1D2
330
17
100
AcDbEntity
  8
Inner
100
AcDbLine
 10
-1322.893513125009
 20
-1469.2220914629902
 30
0.0
 11
-1220.523792328564
 21
-1562.1992148835152
 31
0.0
  0
LINE
  5
1D3
330
17
100
AcDbEntity
  8
Inner
100
AcDbLine
 10
-1220.523792328564
 20
-1562.1992148835152
 30
0.0
 11
-1111.6154306398462
 21
-1648.0376494631091
 31
0.0
  0
LINE
  5
1D4
330
17
100
AcDbEntity
  8
Inner
100
AcDbLine
 10
-1111.6154306398462
 20
-1648.0376494631091
 30
0.0
 11
-996.6666666666658
 21
-1726.2773048769818
 31
0.0
  0
LINE
  5
1D5
330
17
100
AcDbEntity
  8
Inner
100
AcDbLine
 10
-996.6666666666658
 20
-1726.2773048769818
 30
0.0
 11
-876.2081302178151
 21
-1796.4928954085808
 31
0.0
  0
LINE
  5
1D6
330
17
100
AcDbEntity
  8
Inner
100
AcDbLine
 10
-876.2081302178151
 20
-1796.4928954085808
 30
0.0
 11
-750.8004088424476
 21
-1858.296221465516
 31
0.0
  0
LINE
  5
1D7
330
17
100
AcDbEntity
  8
Inner
100
AcDbLine
 10
-750.8004088424476
 20
-1858.296221465516
 30
0.0
 11
-621.0314535953287
 21
-1911.3382807983712
 31
0.0
  0
LINE
  5
1D8
330
17
100
AcDbEntity
  8
Inner
100
AcDbLine
 10
-621.0314535953287
 20
-1911.3382807983712
 30
0.0
 11
-487.5138359562897
 21
-1955.311198088386
 31
0.0
  0
LINE
  5
1D9
330
17
100
AcDbEntity
  8
Inner
100
AcDbLine
 10
-487.5138359562897
 20
-1955.311198088386
 30
0.0
 11
-350.88186863198337
 21
-1989.9499624060572
 31
0.0
  0
LINE
  5
1DA
330
17
100
AcDbEntity
  8
Inner
100
AcDbLine
 10
-350.88186863198337
 20
-1989.9499624060572
 30
0.0
 11
-211.7886037087102
 21
-2015.033962935503
 31
0.0
  0
LINE
  5
1DB
330
17
100
AcDbEntity
  8
Inner
100
AcDbLine
 10
-211.7886037087102
 20
-2015.033962935503
 30
0.0
 11
-70.90272230257038
 21
-2030.388314304547
 31
0.0
  0
LINE
  5
1DC
330
17
100
AcDbEntity
  8
Inner
100
AcDbLine
 10
-70.90272230257038
 20
-2030.388314304547
 30
0.0
 11
71.09466953443366
 21
-2035.8849638531522
 31
0.0
  0
LINE
  5
1DD
330
17
100
AcDbEntity
  8
Inner
100
AcDbLine
 10
71.09466953443366
 20
-2035.8849638531522
 30
0.0
 11
213.51332335261165
 21
-2031.4435742090814
 31
0.0
  0
LINE
  5
1DE
330
17
100
AcDbEntity
  8
Inner
100
AcDbLine
 10
213.51332335261165
 20
-2031.4435742090814
 30
0.0
 11
355.6571935178233
 21
-2017.0321756138926
 31
0.0
  0
LINE
  5
1DF
330
17
100
AcDbEntity
  8
Inner
100
AcDbLine
 10
355.6571935178233
 20
-2017.0321756138926
 30
0.0
 11
496.8278289368765
 21
-1992.6675835500118
 31
0.0
  0
LINE
  5
1E0
330
17
100
AcDbEntity
  8
Inner
100
AcDbLine
 10
496.8278289368765
 20
-1992.6675835500118
 30
0.0
 11
636.327794816888
 21
-1958.4155783549813
 31
0.0
  0
LINE
  5
1E1
330
17
100
AcDbEntity
  8
Inner
100
AcDbLine
 10
636.327794816888
 20
-1958.4155783549813
 30
0.0
 11
773.46410774411
 21
-1914.3908446668072
 31
0.0
  0
LINE
  5
1E2
330
17
100
AcDbEntity
  8
Inner
100
AcDbLine
 10
773.46410774411
 20
-1914.3908446668072
 30
0.0
 11
907.5516672132208
 21
-1860.7566697189777
 31
0.0
  0
LINE
  5
1E3
330
17
100
AcDbEntity
  8
Inner
100
AcDbLine
 10
907.5516672132208
 20
-1860.7566697189777
 30
0.0
 11
1037.9166666666652
 21
-1797.7244006891979
 31
0.0
  0
LINE
  5
1E4
330
17
100
AcDbEntity
  8
Inner
100
AcDbLine
 10
1037.9166666666652
 20
-1797.7244006891979
 30
0.0
 11
1163.8999671143604
 21
-1725.5526624970053
 31
0.0
  0
LINE
  5
1E5
330
17
100
AcDbEntity
  8
Inner
100
AcDbLine
 10
1163.8999671143604
 20
-1725.5526624970053
 30
0.0
 11
1284.8604165000947
 21
-1644.5463386354181
 31
0.0
  0
LINE
  5
1E6
330
17
100
AcDbEntity
  8
Inner
100
AcDbLine
 10
1284.8604165000947
 20
-1644.5463386354181
 30
0.0
 11
1400.1780981594568
 21
-1555.0553188056292
 31
0.0
  0
LINE
  5
1E7
330
17
100
AcDbEntity
  8
Inner
100
AcDbLine
 10
1400.1780981594568
 20
-1555.0553188056292
 30
0.0
 11
1509.257491976449
 21
-1457.473018295146
 31
0.0
  0
LINE
  5
1E8
330
17
100
AcDbEntity
  8
Inner
100
AcDbLine
 10
1509.257491976449
 20
-1457.473018295146
 30
0.0
 11
1611.530532191034
 21
-1352.2346751924256
 31
0.0
  0
LINE
  5
1E9
330
17
100
AcDbEntity
  8
Inner
100
AcDbLine
 10
1611.530532191034
 20
-1352.2346751924256
 30
0.0
 11
1706.4595462350787
 21
-1239.8154326605109
 31
0.0
  0
LINE
  5
1EA
330
17
100
AcDbEntity
  8
Inner
100
AcDbLine
 10
1706.4595462350787
 20
-1239.8154326605109
 30
0.0
 11
1793.540059480097
 21
-1120.7282145907516
 31
0.0
  0
LINE
  5
1EB
330
17
100
AcDbEntity
  8
Inner
100
AcDbLine
 10
1793.540059480097
 20
-1120.7282145907516
 30
0.0
 11
1872.3034513624343
 21
-995.521404021745
 31
0.0
  0
LINE
  5
1EC
330
17
100
AcDbEntity
  8
Inner
100
AcDbLine
 10
1872.3034513624343
 20
-995.521404021745
 30
0.0
 11
1942.3194490091846
 21
-864.7763347315697
 31
0.0
  0
LINE
  5
1ED
330
17
100
AcDbEntity
  8
Inner
100
AcDbLine
 10
1942.3194490091846
 20
-864.7763347315697
 30
0.0
 11
2003.1984452179593
 21
-729.1046073876765
 31
0.0
  0
LINE
  5
1EE
330
17
100
AcDbEntity
  8
Inner
100
AcDbLine
 10
2003.1984452179593
 20
-729.1046073876765
 30
0.0
 11
2054.5936284415566
 21
-589.1452425650604
 31
0.0
  0
LINE
  5
1EF
330
17
100
AcDbEntity
  8
Inner
100
AcDbLine
 10
2054.5936284415566
 20
-589.1452425650604
 30
0.0
 11
2096.2029132925686
 21
-445.5616838121587
 31
0.0
  0
LINE
  5
1F0
330
17
100
AcDbEntity
  8
Inner
100
AcDbLine
 10
2096.2029132925686
 20
-445.5616838121587
 30
0.0
 11
2127.7706610074424
 21
-299.038664753246
 31
0.0
  0
LINE
  5
1F1
330
17
100
AcDbEntity
  8
Inner
100
AcDbLine
 10
2127.7706610074424
 20
-299.038664753246
 30
0.0
 11
2149.089180291416
 21
-150.27895496006565
 31
0.0
  0
ENDSEC
  0
SECTION
  2
OBJECTS
  0
DICTIONARY
  5
A
330
0
100
AcDbDictionary
281
1
  3
ACAD_COLOR
350
B
  3
ACAD_GROUP
350
C
  3
ACAD_LAYOUT
350
D
  3
ACAD_MATERIAL
350
E
  3
ACAD_MLEADERSTYLE
350
F
  3
ACAD_MLINESTYLE
350
10
  3
ACAD_PLOTSETTINGS
350
11
  3
ACAD_PLOTSTYLENAME
350
12
  3
ACAD_SCALELIST
350
14
  3
ACAD_TABLESTYLE
350
15
  3
ACAD_VISUALSTYLE
350
16
  0
DICTIONARY
  5
B
330
A
100
AcDbDictionary
281
1
  0
DICTIONARY
  5
C
330
A
100
AcDbDictionary
281
1
  0
DICTIONARY
  5
D
330
A
100
AcDbDictionary
281
1
  3
Model
350
1A
  3
Layout1
350
1E
  0
DICTIONARY
  5
E
330
A
100
AcDbDictionary
281
1
  3
ByBlock
350
1F
  3
ByLayer
350
20
  3
Global
350
21
  0
DICTIONARY
  5
F
330
A
100
AcDbDictionary
281
1
  3
Standard
350
2C
  0
DICTIONARY
  5
10
330
A
100
AcDbDictionary
281
1
  3
Standard
350
22
  0
DICTIONARY
  5
11
330
A
100
AcDbDictionary
281
1
  0
ACDBDICTIONARYWDFLT
  5
12
330
A
100
AcDbDictionary
281
1
  3
Normal
350
13
100
AcDbDictionaryWithDefault
340
13
  0
ACDBPLACEHOLDER
  5
13
330
12
  0
DICTIONARY
  5
14
330
A
100
AcDbDictionary
281
1
  0
DICTIONARY
  5
15
330
A
100
AcDbDictionary
281
1
  0
DICTIONARY
  5
16
330
A
100
AcDbDictionary
281
1
  3
2dWireframe
350
58
  3
Basic
350
59
  3
Brighten
350
5A
  3
ColorChange
350
5B
  3
Conceptual
350
5C
  3
Dim
350
5D
  3
EdgeColorOff
350
5E
  3
Facepattern
350
5F
  3
Flat
350
60
  3
FlatWithEdges
350
61
  3
Gouraud
350
62
  3
GouraudWithEdges
350
63
  3
Hidden
350
64
  3
JitterOff
350
65
  3
Linepattern
350
66
  3
Modeling
350
67
  3
OverhangOff
350
68
  3
Realistic
350
69
  3
Shaded
350
6A
  3
Shaded with edges
350
6B
  3
Shades of Gray
350
6C
  3
Sketchy
350
6D
  3
Thicken
350
6E
  3
Wireframe
350
6F
  3
X-Ray
350
70
  0
LAYOUT
  5
1A
330
D
100
AcDbPlotSettings
  1

  2
Adobe PDF
  4
A4
  6

 40
3.175
 41
3.175
 42
3.175
 43
3.175
 44
209.91
 45
297.03
 46
0.0
 47
0.0
 48
0.0
 49
0.0
140
0.0
141
0.0
142
1.0
143
1.0
 70
1024
 72
0
 73
1
 74
5
  7

 75
16
 76
0
 77
2
 78
300
147
1.0
148
0.0
149
0.0
100
AcDbLayout
  1
Model
 70
1
 71
0
 10
-3.175
 20
-3.175
 11
293.857
 21
206.735
 12
0.0
 22
0.0
 32
0.0
 14
29.068
 24
20.356
 34
0.0
 15
261.614
 25
183.204
 35
0.0
146
0.0
 13
0.0
 23
0.0
 33
0.0
 16
1.0
 26
0.0
 36
0.0
 17
0.0
 27
1.0
 37
0.0
 76
1
330
17
  0
LAYOUT
  5
1E
330
D
100
AcDbPlotSettings
  1

  2
Adobe PDF
  4
A4
  6

 40
3.175
 41
3.175
 42
3.175
 43
3.175
 44
209.91
 45
297.03
 46
0.0
 47
0.0
 48
0.0
 49
0.0
140
0.0
141
0.0
142
1.0
143
1.0
 70
0
 72
0
 73
1
 74
5
  7

 75
16
 76
0
 77
2
 78
300
147
1.0
148
0.0
149
0.0
100
AcDbLayout
  1
Layout1
 70
1
 71
1
 10
-3.175
 20
-3.175
 11
293.857
 21
206.735
 12
0.0
 22
0.0
 32
0.0
 14
29.068
 24
20.356
 34
0.0
 15
261.614
 25
183.204
 35
0.0
146
0.0
 13
0.0
 23
0.0
 33
0.0
 16
1.0
 26
0.0
 36
0.0
 17
0.0
 27
1.0
 37
0.0
 76
1
330
1B
  0
MATERIAL
  5
1F
102
{ACAD_REACTORS
330
E
102
}
330
E
100
AcDbMaterial
  1
ByBlock
  2

 70
0
 40
1.0
 71
1
 41
1.0
 91
-1023410177
 42
1.0
 72
1
  3

 73
1
 74
1
 75
1
 44
0.5
 73
0
 45
1.0
 46
1.0
 77
1
  4

 78
1
 79
1
170
1
 48
1.0
171
1
  6

172
1
173
1
174
1
140
1.0
141
1.0
175
1
  7

176
1
177
1
178
1
143
1.0
179
1
  8

270
1
271
1
272
1
145
1.0
146
1.0
273
1
  9

274
1
275
1
276
1
 42
1.0
 72
1
  3

 73
1
 74
1
 75
1
 94
63
  0
MATERIAL
  5
20
102
{ACAD_REACTORS
330
E
102
}
330
E
100
AcDbMaterial
  1
ByLayer
  2

 70
0
 40
1.0
 71
1
 41
1.0
 91
-1023410177
 42
1.0
 72
1
  3

 73
1
 74
1
 75
1
 44
0.5
 73
0
 45
1.0
 46
1.0
 77
1
  4

 78
1
 79
1
170
1
 48
1.0
171
1
  6

172
1
173
1
174
1
140
1.0
141
1.0
175
1
  7

176
1
177
1
178
1
143
1.0
179
1
  8

270
1
271
1
272
1
145
1.0
146
1.0
273
1
  9

274
1
275
1
276
1
 42
1.0
 72
1
  3

 73
1
 74
1
 75
1
 94
63
  0
MATERIAL
  5
21
102
{ACAD_REACTORS
330
E
102
}
330
E
100
AcDbMaterial
  1
Global
  2

 70
0
 40
1.0
 71
1
 41
1.0
 91
-1023410177
 42
1.0
 72
1
  3

 73
1
 74
1
 75
1
 44
0.5
 73
0
 45
1.0
 46
1.0
 77
1
  4

 78
1
 79
1
170
1
 48
1.0
171
1
  6

172
1
173
1
174
1
140
1.0
141
1.0
175
1
  7

176
1
177
1
178
1
143
1.0
179
1
  8

270
1
271
1
272
1
145
1.0
146
1.0
273
1
  9

274
1
275
1
276
1
 42
1.0
 72
1
  3

 73
1
 74
1
 75
1
 94
63
  0
MLINESTYLE
  5
22
102
{ACAD_REACTORS
330
10
102
}
330
10
100
AcDbMlineStyle
  2
Standard
 70
0
  3

 62
256
 51
90.0
 52
90.0
 71
2
 49
0.5
 62
256
  6
BYLAYER
 49
-0.5
 62
256
  6
BYLAYER
  0
MLEADERSTYLE
  5
2C
102
{ACAD_REACTORS
330
F
102
}
330
F
100
AcDbMLeaderStyle
179
2
170
2
171
1
172
0
 90
2
 40
0.0
 41
0.0
173
1
 91
-1056964608
 92
-2
290
1
 42
2.0
291
1
 43
8.0
  3
Standard
 44
4.0
300

342
29
174
1
175
1
176
0
178
1
 93
-1056964608
 45
4.0
292
0
297
0
 46
4.0
 94
-1056964608
 47
1.0
 49
1.0
140
1.0
294
1
141
0.0
177
0
142
1.0
295
0
296
0
143
3.75
271
0
272
9
273
9
  0
VISUALSTYLE
  5
58
102
{ACAD_REACTORS
330
16
102
}
330
16
100
AcDbVisualStyle
  2
2dWireframe
 70
4
 90
0
 40
0.6
 62
7
290
0
291
0
  0
VISUALSTYLE
  5
59
102
{ACAD_REACTORS
330
16
102
}
330
16
100
AcDbVisualStyle
  2
Basic
 70
7
 90
1
 40
0.6
 62
7
290
0
291
1
  0
VISUALSTYLE
  5
5A
102
{ACAD_REACTORS
330
16
102
}
330
16
100
AcDbVisualStyle
  2
Brighten
 70
12
 90
2
 40
0.6
 62
7
290
0
291
1
  0
VISUALSTYLE
  5
5B
102
{ACAD_REACTORS
330
16
102
}
330
16
100
AcDbVisualStyle
  2
ColorChange
 70
16
 90
2
 40
0.6
 62
8
290
0
291
1
  0
VISUALSTYLE
  5
5C
102
{ACAD_REACTORS
330
16
102
}
330
16
100
AcDbVisualStyle
  2
Conceptual
 70
9
 90
3
 40
0.6
 62
7
290
0
291
0
  0
VISUALSTYLE
  5
5D
102
{ACAD_REACTORS
330
16
102
}
330
16
100
AcDbVisualStyle
  2
Dim
 70
11
 90
2
 40
0.6
 62
7
290
0
291
1
  0
VISUALSTYLE
  5
5E
102
{ACAD_REACTORS
330
16
102
}
330
16
100
AcDbVisualStyle
  2
EdgeColorOff
 70
22
 90
2
 40
0.6
 62
7
290
0
291
1
  0
VISUALSTYLE
  5
5F
102
{ACAD_REACTORS
330
16
102
}
330
16
100
AcDbVisualStyle
  2
Facepattern
 70
15
 90
2
 40
0.6
 62
7
290
0
291
1
  0
VISUALSTYLE
  5
60
102
{ACAD_REACTORS
330
16
102
}
330
16
100
AcDbVisualStyle
  2
Flat
 70
0
 90
2
 40
0.6
 62
7
290
0
291
1
  0
VISUALSTYLE
  5
61
102
{ACAD_REACTORS
330
16
102
}
330
16
100
AcDbVisualStyle
  2
FlatWithEdges
 70
1
 90
2
 40
0.6
 62
7
290
0
291
1
  0
VISUALSTYLE
  5
62
102
{ACAD_REACTORS
330
16
102
}
330
16
100
AcDbVisualStyle
  2
Gouraud
 70
2
 90
2
 40
0.6
 62
7
290
0
291
1
  0
VISUALSTYLE
  5
63
102
{ACAD_REACTORS
330
16
102
}
330
16
100
AcDbVisualStyle
  2
GouraudWithEdges
 70
3
 90
2
 40
0.6
 62
7
290
0
291
1
  0
VISUALSTYLE
  5
64
102
{ACAD_REACTORS
330
16
102
}
330
16
100
AcDbVisualStyle
  2
Hidden
 70
6
 90
1
 40
0.6
 62
7
290
0
291
0
  0
VISUALSTYLE
  5
65
102
{ACAD_REACTORS
330
16
102
}
330
16
100
AcDbVisualStyle
  2
JitterOff
 70
20
 90
2
 40
0.6
 62
7
290
0
291
1
  0
VISUALSTYLE
  5
66
102
{ACAD_REACTORS
330
16
102
}
330
16
100
AcDbVisualStyle
  2
Linepattern
 70
14
 90
2
 40
0.6
 62
7
290
0
291
1
  0
VISUALSTYLE
  5
67
102
{ACAD_REACTORS
330
16
102
}
330
16
100
AcDbVisualStyle
  2
Modeling
 70
10
 90
2
 40
0.6
 62
7
290
0
291
0
  0
VISUALSTYLE
  5
68
102
{ACAD_REACTORS
330
16
102
}
330
16
100
AcDbVisualStyle
  2
OverhangOff
 70
21
 90
2
 40
0.6
 62
7
290
0
291
1
  0
VISUALSTYLE
  5
69
102
{ACAD_REACTORS
330
16
102
}
330
16
100
AcDbVisualStyle
  2
Realistic
 70
8
 90
2
 40
0.6
 62
7
290
0
291
0
  0
VISUALSTYLE
  5
6A
102
{ACAD_REACTORS
330
16
102
}
330
16
100
AcDbVisualStyle
  2
Shaded
 70
27
 90
2
 40
0.6
 62
7
290
0
291
0
  0
VISUALSTYLE
  5
6B
102
{ACAD_REACTORS
330
16
102
}
330
16
100
AcDbVisualStyle
  2
Shaded with edges
 70
26
 90
2
 40
0.6
 62
7
290
0
291
0
  0
VISUALSTYLE
  5
6C
102
{ACAD_REACTORS
330
16
102
}
330
16
100
AcDbVisualStyle
  2
Shades of Gray
 70
23
 90
2
 40
0.6
 62
7
290
0
291
0
  0
VISUALSTYLE
  5
6D
102
{ACAD_REACTORS
330
16
102
}
330
16
100
AcDbVisualStyle
  2
Sketchy
 70
24
 90
1
 40
0.6
 62
7
290
0
291
0
  0
VISUALSTYLE
  5
6E
102
{ACAD_REACTORS
330
16
102
}
330
16
100
AcDbVisualStyle
  2
Thicken
 70
13
 90
2
 40
0.6
 62
7
290
0
291
1
  0
VISUALSTYLE
  5
6F
102
{ACAD_REACTORS
330
16
102
}
330
16
100
AcDbVisualStyle
  2
Wireframe
 70
5
 90
0
 40
0.6
 62
7
290
0
291
0
  0
VISUALSTYLE
  5
70
102
{ACAD_REACTORS
330
16
102
}
330
16
100
AcDbVisualStyle
  2
X-Ray
 70
25
 90
2
 40
0.5
 62
7
290
0
291
0
  0
ENDSEC
  0
EOF
