  0
SECTION
  2
HEADER
  9
$ACADVER
  1
AC1027
  9
$ACADMAINTVER
 70
105
  9
$DWGCODEPAGE
  3
ANSI_1252
  9
$LASTSAVEDBY
  1
ezdxf
  9
$REQUIREDVERSIONS
160
0
  9
$INSBASE
 10
0.0
 20
0.0
 30
0.0
  9
$EXTMIN
 10
-100
 20
-100
 30
-100
  9
$EXTMAX
 10
100
 20
100
 30
100
  9
$LIMMIN
 10
0.0
 20
0.0
  9
$LIMMAX
 10
420.0
 20
297.0
  9
$ORTHOMODE
 70
0
  9
$REGENMODE
 70
1
  9
$FILLMODE
 70
1
  9
$QTEXTMODE
 70
0
  9
$MIRRTEXT
 70
1
  9
$LTSCALE
 40
1.0
  9
$ATTMODE
 70
1
  9
$TEXTSIZE
 40
2.5
  9
$TRACEWID
 40
1.0
  9
$TEXTSTYLE
  7
OpenSans
  9
$CLAYER
  8
0
  9
$CELTYPE
  6
ByLayer
  9
$CECOLOR
 62
256
  9
$CELTSCALE
 40
1.0
  9
$DISPSILH
 70
0
  9
$DIMSCALE
 40
1.0
  9
$DIMASZ
 40
0.175
  9
$DIMEXO
 40
0.125
  9
$DIMDLI
 40
3.75
  9
$DIMRND
 40
0.0
  9
$DIMDLE
 40
0.0
  9
$DIMEXE
 40
0.375
  9
$DIMTP
 40
0.0
  9
$DIMTM
 40
0.0
  9
$DIMTXT
 40
0.25
  9
$DIMCEN
 40
2.5
  9
$DIMTSZ
 40
0.0
  9
$DIMTOL
 70
0
  9
$DIMLIM
 70
0
  9
$DIMTIH
 70
0
  9
$DIMTOH
 70
0
  9
$DIMSE1
 70
0
  9
$DIMSE2
 70
0
  9
$DIMTAD
 70
1
  9
$DIMZIN
 70
8
  9
$DIMBLK
  1
ARCHTICK
  9
$DIMASO
 70
1
  9
$DIMSHO
 70
1
  9
$DIMPOST
  1

  9
$DIMAPOST
  1

  9
$DIMALT
 70
0
  9
$DIMALTD
 70
3
  9
$DIMALTF
 40
0.03937007874
  9
$DIMLFAC
 40
100.0
  9
$DIMTOFL
 70
1
  9
$DIMTVP
 40
0.0
  9
$DIMTIX
 70
0
  9
$DIMSOXD
 70
0
  9
$DIMSAH
 70
0
  9
$DIMBLK1
  1

  9
$DIMBLK2
  1

  9
$DIMSTYLE
  2
EZDXF
  9
$DIMCLRD
 70
0
  9
$DIMCLRE
 70
0
  9
$DIMCLRT
 70
0
  9
$DIMTFAC
 40
1.0
  9
$DIMGAP
 40
0.1
  9
$DIMJUST
 70
0
  9
$DIMSD1
 70
0
  9
$DIMSD2
 70
0
  9
$DIMTOLJ
 70
0
  9
$DIMTZIN
 70
8
  9
$DIMALTZ
 70
0
  9
$DIMALTTZ
 70
0
  9
$DIMUPT
 70
1
  9
$DIMDEC
 70
2
  9
$DIMTDEC
 70
2
  9
$DIMALTU
 70
2
  9
$DIMALTTD
 70
3
  9
$DIMTXSTY
  7
OpenSansCondensed-Light
  9
$DIMAUNIT
 70
0
  9
$DIMADEC
 70
0
  9
$DIMALTRND
 40
0.0
  9
$DIMAZIN
 70
0
  9
$DIMDSEP
 70
46
  9
$DIMATFIT
 70
3
  9
$DIMFRAC
 70
0
  9
$DIMLDRBLK
  1

  9
$DIMLUNIT
 70
2
  9
$DIMLWD
 70
-2
  9
$DIMLWE
 70
-2
  9
$DIMTMOVE
 70
2
  9
$DIMFXL
 40
1.0
  9
$DIMFXLON
 70
0
  9
$DIMJOGANG
 40
0.785398163397
  9
$DIMTFILL
 70
0
  9
$DIMTFILLCLR
 70
0
  9
$DIMARCSYM
 70
0
  9
$DIMLTYPE
  6

  9
$DIMLTEX1
  6

  9
$DIMLTEX2
  6

  9
$DIMTXTDIRECTION
 70
0
  9
$LUNITS
 70
2
  9
$LUPREC
 70
4
  9
$SKETCHINC
 40
1.0
  9
$FILLETRAD
 40
10.0
  9
$AUNITS
 70
0
  9
$AUPREC
 70
2
  9
$MENU
  1
.
  9
$ELEVATION
 40
0.0
  9
$PELEVATION
 40
0.0
  9
$THICKNESS
 40
0.0
  9
$LIMCHECK
 70
0
  9
$CHAMFERA
 40
0.0
  9
$CHAMFERB
 40
0.0
  9
$CHAMFERC
 40
0.0
  9
$CHAMFERD
 40
0.0
  9
$SKPOLY
 70
0
  9
$TDCREATE
 40
2459313.7037847224
  9
$TDUCREATE
 40
2458532.153996898
  9
$TDUPDATE
 40
2459313.7037962964
  9
$TDUUPDATE
 40
2458532.1544311
  9
$TDINDWG
 40
0.0
  9
$TDUSRTIMER
 40
0.0
  9
$USRTIMER
 70
1
  9
$ANGBASE
 50
0.0
  9
$ANGDIR
 70
0
  9
$PDMODE
 70
0
  9
$PDSIZE
 40
0.0
  9
$PLINEWID
 40
0.0
  9
$SPLFRAME
 70
0
  9
$SPLINETYPE
 70
6
  9
$SPLINESEGS
 70
8
  9
$HANDSEED
  5
1F3
  9
$SURFTAB1
 70
6
  9
$SURFTAB2
 70
6
  9
$SURFTYPE
 70
6
  9
$SURFU
 70
6
  9
$SURFV
 70
6
  9
$UCSBASE
  2

  9
$UCSNAME
  2

  9
$UCSORG
 10
0.0
 20
0.0
 30
0.0
  9
$UCSXDIR
 10
1.0
 20
0.0
 30
0.0
  9
$UCSYDIR
 10
0.0
 20
1.0
 30
0.0
  9
$UCSORTHOREF
  2

  9
$UCSORTHOVIEW
 70
0
  9
$UCSORGTOP
 10
0.0
 20
0.0
 30
0.0
  9
$UCSORGBOTTOM
 10
0.0
 20
0.0
 30
0.0
  9
$UCSORGLEFT
 10
0.0
 20
0.0
 30
0.0
  9
$UCSORGRIGHT
 10
0.0
 20
0.0
 30
0.0
  9
$UCSORGFRONT
 10
0.0
 20
0.0
 30
0.0
  9
$UCSORGBACK
 10
0.0
 20
0.0
 30
0.0
  9
$PUCSBASE
  2

  9
$PUCSNAME
  2

  9
$PUCSORG
 10
0.0
 20
0.0
 30
0.0
  9
$PUCSXDIR
 10
1.0
 20
0.0
 30
0.0
  9
$PUCSYDIR
 10
0.0
 20
1.0
 30
0.0
  9
$PUCSORTHOREF
  2

  9
$PUCSORTHOVIEW
 70
0
  9
$PUCSORGTOP
 10
0.0
 20
0.0
 30
0.0
  9
$PUCSORGBOTTOM
 10
0.0
 20
0.0
 30
0.0
  9
$PUCSORGLEFT
 10
0.0
 20
0.0
 30
0.0
  9
$PUCSORGRIGHT
 10
0.0
 20
0.0
 30
0.0
  9
$PUCSORGFRONT
 10
0.0
 20
0.0
 30
0.0
  9
$PUCSORGBACK
 10
0.0
 20
0.0
 30
0.0
  9
$USERI1
 70
0
  9
$USERI2
 70
0
  9
$USERI3
 70
0
  9
$USERI4
 70
0
  9
$USERI5
 70
0
  9
$USERR1
 40
0.0
  9
$USERR2
 40
0.0
  9
$USERR3
 40
0.0
  9
$USERR4
 40
0.0
  9
$USERR5
 40
0.0
  9
$WORLDVIEW
 70
1
  9
$SHADEDGE
 70
3
  9
$SHADEDIF
 70
70
  9
$TILEMODE
 70
1
  9
$MAXACTVP
 70
64
  9
$PINSBASE
 10
0.0
 20
0.0
 30
0.0
  9
$PLIMCHECK
 70
0
  9
$PEXTMIN
 10
1e+20
 20
1e+20
 30
1e+20
  9
$PEXTMAX
 10
-1e+20
 20
-1e+20
 30
-1e+20
  9
$PLIMMIN
 10
0.0
 20
0.0
  9
$PLIMMAX
 10
420.0
 20
297.0
  9
$UNITMODE
 70
0
  9
$VISRETAIN
 70
1
  9
$PLINEGEN
 70
0
  9
$PSLTSCALE
 70
1
  9
$TREEDEPTH
 70
3020
  9
$CMLSTYLE
  2
Standard
  9
$CMLJUST
 70
0
  9
$CMLSCALE
 40
20.0
  9
$PROXYGRAPHICS
 70
1
  9
$MEASUREMENT
 70
1
  9
$CELWEIGHT
370
-1
  9
$ENDCAPS
280
0
  9
$JOINSTYLE
280
0
  9
$LWDISPLAY
290
0
  9
$INSUNITS
 70
6
  9
$HYPERLINKBASE
  1

  9
$STYLESHEET
  1

  9
$XEDIT
290
1
  9
$CEPSNTYPE
380
0
  9
$PSTYLEMODE
290
1
  9
$FINGERPRINTGUID
  2
D9A7D2C6-98B4-11EB-B71C-98FA9B02E1F3
  9
$VERSIONGUID
  2
DA1E4D7A-98B4-11EB-B71C-98FA9B02E1F3
  9
$EXTNAMES
290
1
  9
$PSVPSCALE
 40
0.0
  9
$OLESTARTUP
290
0
  9
$SORTENTS
280
127
  9
$INDEXCTL
280
0
  9
$HIDETEXT
280
1
  9
$XCLIPFRAME
280
2
  9
$HALOGAP
280
0
  9
$OBSCOLOR
 70
257
  9
$OBSLTYPE
280
0
  9
$INTERSECTIONDISPLAY
280
0
  9
$INTERSECTIONCOLOR
 70
257
  9
$DIMASSOC
280
2
  9
$PROJECTNAME
  1

  9
$CAMERADISPLAY
290
0
  9
$LENSLENGTH
 40
50.0
  9
$CAMERAHEIGHT
 40
0.0
  9
$STEPSPERSEC
 40
24.0
  9
$STEPSIZE
 40
100.0
  9
$3DDWFPREC
 40
2.0
  9
$PSOLWIDTH
 40
0.005
  9
$PSOLHEIGHT
 40
0.08
  9
$LOFTANG1
 40
1.570796326795
  9
$LOFTANG2
 40
1.570796326795
  9
$LOFTMAG1
 40
0.0
  9
$LOFTMAG2
 40
0.0
  9
$LOFTPARAM
 70
7
  9
$LOFTNORMALS
280
1
  9
$LATITUDE
 40
37.795
  9
$LONGITUDE
 40
-122.394
  9
$NORTHDIRECTION
 40
0.0
  9
$TIMEZONE
 70
-8000
  9
$LIGHTGLYPHDISPLAY
280
1
  9
$TILEMODELIGHTSYNCH
280
1
  9
$CMATERIAL
347
20
  9
$SOLIDHIST
280
0
  9
$SHOWHIST
280
1
  9
$DWFFRAME
280
2
  9
$DGNFRAME
280
2
  9
$REALWORLDSCALE
290
1
  9
$INTERFERECOLOR
 62
256
  9
$CSHADOW
280
0
  9
$SHADOWPLANELOCATION
 40
0.0
  0
ENDSEC
  0
SECTION
  2
CLASSES
  0
CLASS
  1
ACDBDICTIONARYWDFLT
  2
AcDbDictionaryWithDefault
  3
ObjectDBX Classes
 90
0
 91
0
280
0
281
0
  0
CLASS
  1
SUN
  2
AcDbSun
  3
SCENEOE
 90
1153
 91
0
280
0
281
0
  0
CLASS
  1
VISUALSTYLE
  2
AcDbVisualStyle
  3
ObjectDBX Classes
 90
4095
 91
0
280
0
281
0
  0
CLASS
  1
MATERIAL
  2
AcDbMaterial
  3
ObjectDBX Classes
 90
1153
 91
0
280
0
281
0
  0
CLASS
  1
SCALE
  2
AcDbScale
  3
ObjectDBX Classes
 90
1153
 91
0
280
0
281
0
  0
CLASS
  1
TABLESTYLE
  2
AcDbTableStyle
  3
ObjectDBX Classes
 90
4095
 91
0
280
0
281
0
  0
CLASS
  1
MLEADERSTYLE
  2
AcDbMLeaderStyle
  3
ACDB_MLEADERSTYLE_CLASS
 90
4095
 91
0
280
0
281
0
  0
CLASS
  1
DICTIONARYVAR
  2
AcDbDictionaryVar
  3
ObjectDBX Classes
 90
0
 91
0
280
0
281
0
  0
CLASS
  1
CELLSTYLEMAP
  2
AcDbCellStyleMap
  3
ObjectDBX Classes
 90
1152
 91
0
280
0
281
0
  0
CLASS
  1
MENTALRAYRENDERSETTINGS
  2
AcDbMentalRayRenderSettings
  3
SCENEOE
 90
1024
 91
0
280
0
281
0
  0
CLASS
  1
ACDBDETAILVIEWSTYLE
  2
AcDbDetailViewStyle
  3
ObjectDBX Classes
 90
1025
 91
0
280
0
281
0
  0
CLASS
  1
ACDBSECTIONVIEWSTYLE
  2
AcDbSectionViewStyle
  3
ObjectDBX Classes
 90
1025
 91
0
280
0
281
0
  0
CLASS
  1
RASTERVARIABLES
  2
AcDbRasterVariables
  3
ISM
 90
0
 91
0
280
0
281
0
  0
CLASS
  1
ACDBPLACEHOLDER
  2
AcDbPlaceHolder
  3
ObjectDBX Classes
 90
0
 91
0
280
0
281
0
  0
CLASS
  1
LAYOUT
  2
AcDbLayout
  3
ObjectDBX Classes
 90
0
 91
0
280
0
281
0
  0
ENDSEC
  0
SECTION
  2
TABLES
  0
TABLE
  2
VPORT
  5
8
330
0
100
AcDbSymbolTable
 70
1
  0
VPORT
  5
23
330
8
100
AcDbSymbolTableRecord
100
AcDbViewportTableRecord
  2
*Active
 70
0
 10
0.0
 20
0.0
 11
1.0
 21
1.0
 12
70.0
 22
50.0
 13
0.0
 23
0.0
 14
0.5
 24
0.5
 15
0.5
 25
0.5
 16
0.0
 26
0.0
 36
1.0
 17
0.0
 27
0.0
 37
0.0
 40
1.0
 41
1.34
 42
50.0
 43
0.0
 44
0.0
 50
0.0
 51
0.0
 71
0
 72
1000
 73
1
 74
3
 75
0
 76
0
 77
0
 78
0
281
0
 65
0
146
0.0
  0
ENDTAB
  0
TABLE
  2
LTYPE
  5
2
330
0
100
AcDbSymbolTable
 70
21
  0
LTYPE
  5
24
330
2
100
AcDbSymbolTableRecord
100
AcDbLinetypeTableRecord
  2
ByBlock
 70
0
  3

 72
65
 73
0
 40
0.0
  0
LTYPE
  5
25
330
2
100
AcDbSymbolTableRecord
100
AcDbLinetypeTableRecord
  2
ByLayer
 70
0
  3

 72
65
 73
0
 40
0.0
  0
LTYPE
  5
26
330
2
100
AcDbSymbolTableRecord
100
AcDbLinetypeTableRecord
  2
Continuous
 70
0
  3

 72
65
 73
0
 40
0.0
  0
LTYPE
  5
2D
330
2
100
AcDbSymbolTableRecord
100
AcDbLinetypeTableRecord
  2
CENTER
 70
0
  3
Center ____ _ ____ _ ____ _ ____ _ ____ _ ____
 72
65
 73
4
 40
5.08
 49
3.175
 74
0
 49
-0.635
 74
0
 49
0.635
 74
0
 49
-0.635
 74
0
  0
LTYPE
  5
2E
330
2
100
AcDbSymbolTableRecord
100
AcDbLinetypeTableRecord
  2
CENTERX2
 70
0
  3
Center (2x) ________  __  ________  __  ________
 72
65
 73
4
 40
8.89
 49
6.35
 74
0
 49
-0.635
 74
0
 49
1.27
 74
0
 49
-0.635
 74
0
  0
LTYPE
  5
2F
330
2
100
AcDbSymbolTableRecord
100
AcDbLinetypeTableRecord
  2
CENTER2
 70
0
  3
Center (.5x) ____ _ ____ _ ____ _ ____ _ ____
 72
65
 73
4
 40
2.54
 49
1.587
 74
0
 49
-0.318
 74
0
 49
0.318
 74
0
 49
-0.318
 74
0
  0
LTYPE
  5
30
330
2
100
AcDbSymbolTableRecord
100
AcDbLinetypeTableRecord
  2
DASHED
 70
0
  3
Dashed __ __ __ __ __ __ __ __ __ __ __ __ __ _
 72
65
 73
2
 40
1.524
 49
1.27
 74
0
 49
-0.254
 74
0
  0
LTYPE
  5
31
330
2
100
AcDbSymbolTableRecord
100
AcDbLinetypeTableRecord
  2
DASHEDX2
 70
0
  3
Dashed (2x) ____  ____  ____  ____  ____  ____
 72
65
 73
2
 40
3.048
 49
2.54
 74
0
 49
-0.508
 74
0
  0
LTYPE
  5
32
330
2
100
AcDbSymbolTableRecord
100
AcDbLinetypeTableRecord
  2
DASHED2
 70
0
  3
Dashed (.5x) _ _ _ _ _ _ _ _ _ _ _ _ _ _
 72
65
 73
2
 40
0.762
 49
0.635
 74
0
 49
-0.127
 74
0
  0
LTYPE
  5
33
330
2
100
AcDbSymbolTableRecord
100
AcDbLinetypeTableRecord
  2
PHANTOM
 70
0
  3
Phantom ______  __  __  ______  __  __  ______
 72
65
 73
6
 40
6.35
 49
3.175
 74
0
 49
-0.635
 74
0
 49
0.635
 74
0
 49
-0.635
 74
0
 49
0.635
 74
0
 49
-0.635
 74
0
  0
LTYPE
  5
34
330
2
100
AcDbSymbolTableRecord
100
AcDbLinetypeTableRecord
  2
PHANTOMX2
 70
0
  3
Phantom (2x)____________    ____    ____    ____________
 72
65
 73
6
 40
10.795
 49
6.35
 74
0
 49
-0.635
 74
0
 49
1.27
 74
0
 49
-0.635
 74
0
 49
1.27
 74
0
 49
-0.635
 74
0
  0
LTYPE
  5
35
330
2
100
AcDbSymbolTableRecord
100
AcDbLinetypeTableRecord
  2
PHANTOM2
 70
0
  3
Phantom (.5x) ___ _ _ ___ _ _ ___ _ _ ___ _ _ ___
 72
65
 73
6
 40
3.175
 49
1.587
 74
0
 49
-0.318
 74
0
 49
0.318
 74
0
 49
-0.318
 74
0
 49
0.318
 74
0
 49
-0.318
 74
0
  0
LTYPE
  5
36
330
2
100
AcDbSymbolTableRecord
100
AcDbLinetypeTableRecord
  2
DASHDOT
 70
0
  3
Dash dot __ . __ . __ . __ . __ . __ . __ . __
 72
65
 73
4
 40
3.556
 49
2.54
 74
0
 49
-0.508
 74
0
 49
0.0
 74
0
 49
-0.508
 74
0
  0
LTYPE
  5
37
330
2
100
AcDbSymbolTableRecord
100
AcDbLinetypeTableRecord
  2
DASHDOTX2
 70
0
  3
Dash dot (2x) ____  .  ____  .  ____  .  ____
 72
65
 73
4
 40
6.096
 49
5.08
 74
0
 49
-0.508
 74
0
 49
0.0
 74
0
 49
-0.508
 74
0
  0
LTYPE
  5
38
330
2
100
AcDbSymbolTableRecord
100
AcDbLinetypeTableRecord
  2
DASHDOT2
 70
0
  3
Dash dot (.5x) _ . _ . _ . _ . _ . _ . _ . _
 72
65
 73
4
 40
1.778
 49
1.27
 74
0
 49
-0.254
 74
0
 49
0.0
 74
0
 49
-0.254
 74
0
  0
LTYPE
  5
39
330
2
100
AcDbSymbolTableRecord
100
AcDbLinetypeTableRecord
  2
DOT
 70
0
  3
Dot .  .  .  .  .  .  .  .  .  .  .  .  .  .  .  .
 72
65
 73
2
 40
0.508
 49
0.0
 74
0
 49
-0.508
 74
0
  0
LTYPE
  5
3A
330
2
100
AcDbSymbolTableRecord
100
AcDbLinetypeTableRecord
  2
DOTX2
 70
0
  3
Dot (2x) .    .    .    .    .    .    .    . 
 72
65
 73
2
 40
1.016
 49
0.0
 74
0
 49
-1.016
 74
0
  0
LTYPE
  5
3B
330
2
100
AcDbSymbolTableRecord
100
AcDbLinetypeTableRecord
  2
DOT2
 70
0
  3
Dot (.5) . . . . . . . . . . . . . . . . . . . 
 72
65
 73
2
 40
0.254
 49
0.0
 74
0
 49
-0.254
 74
0
  0
LTYPE
  5
3C
330
2
100
AcDbSymbolTableRecord
100
AcDbLinetypeTableRecord
  2
DIVIDE
 70
0
  3
Divide __ . . __ . . __ . . __ . . __ . . __
 72
65
 73
6
 40
4.064
 49
2.54
 74
0
 49
-0.508
 74
0
 49
0.0
 74
0
 49
-0.508
 74
0
 49
0.0
 74
0
 49
-0.508
 74
0
  0
LTYPE
  5
3D
330
2
100
AcDbSymbolTableRecord
100
AcDbLinetypeTableRecord
  2
DIVIDEX2
 70
0
  3
Divide (2x) ____  . .  ____  . .  ____  . .  ____
 72
65
 73
6
 40
6.604
 49
5.08
 74
0
 49
-0.508
 74
0
 49
0.0
 74
0
 49
-0.508
 74
0
 49
0.0
 74
0
 49
-0.508
 74
0
  0
LTYPE
  5
3E
330
2
100
AcDbSymbolTableRecord
100
AcDbLinetypeTableRecord
  2
DIVIDE2
 70
0
  3
Divide(.5x) _ . _ . _ . _ . _ . _ . _ . _
 72
65
 73
6
 40
2.032
 49
1.27
 74
0
 49
-0.254
 74
0
 49
0.0
 74
0
 49
-0.254
 74
0
 49
0.0
 74
0
 49
-0.254
 74
0
  0
ENDTAB
  0
TABLE
  2
LAYER
  5
1
330
0
100
AcDbSymbolTable
 70
5
  0
LAYER
  5
27
330
1
100
AcDbSymbolTableRecord
100
AcDbLayerTableRecord
  2
0
 70
0
 62
7
  6
Continuous
370
-3
390
13
347
21
  0
LAYER
  5
28
330
1
100
AcDbSymbolTableRecord
100
AcDbLayerTableRecord
  2
Defpoints
 70
0
 62
7
  6
Continuous
290
0
370
-3
390
13
347
21
  0
LAYER
  5
87
330
1
100
AcDbSymbolTableRecord
100
AcDbLayerTableRecord
  2
Inner
 70
0
 62
2
  6
CONTINUOUS
370
-3
390
13
347
21
  0
LAYER
  5
88
330
1
100
AcDbSymbolTableRecord
100
AcDbLayerTableRecord
  2
Outer
 70
0
 62
1
  6
CONTINUOUS
370
-3
390
13
347
21
  0
LAYER
  5
89
330
1
100
AcDbSymbolTableRecord
100
AcDbLayerTableRecord
  2
Fill
 70
0
 62
3
  6
CONTINUOUS
370
-3
390
13
347
21
  0
ENDTAB
  0
TABLE
  2
STYLE
  5
5
330
0
100
AcDbSymbolTable
 70
26
  0
STYLE
  5
29
330
5
100
AcDbSymbolTableRecord
100
AcDbTextStyleTableRecord
  2
Standard
 70
0
 40
0.0
 41
1.0
 50
0.0
 71
0
 42
2.5
  3
txt
  4

  0
STYLE
  5
3F
330
5
100
AcDbSymbolTableRecord
100
AcDbTextStyleTableRecord
  2
OpenSans-Light
 70
0
 40
0.0
 41
1.0
 50
0.0
 71
0
 42
2.5
  3
OpenSans-Light.ttf
  4

  0
STYLE
  5
40
330
5
100
AcDbSymbolTableRecord
100
AcDbTextStyleTableRecord
  2
OpenSans-Light-Italic
 70
0
 40
0.0
 41
1.0
 50
0.0
 71
0
 42
2.5
  3
OpenSans-LightItalic.ttf
  4

  0
STYLE
  5
41
330
5
100
AcDbSymbolTableRecord
100
AcDbTextStyleTableRecord
  2
OpenSans
 70
0
 40
0.0
 41
1.0
 50
0.0
 71
0
 42
2.5
  3
OpenSans-Regular.ttf
  4

  0
STYLE
  5
42
330
5
100
AcDbSymbolTableRecord
100
AcDbTextStyleTableRecord
  2
OpenSans-Italic
 70
0
 40
0.0
 41
1.0
 50
0.0
 71
0
 42
2.5
  3
OpenSans-Italic.ttf
  4

  0
STYLE
  5
43
330
5
100
AcDbSymbolTableRecord
100
AcDbTextStyleTableRecord
  2
OpenSans-SemiBold
 70
0
 40
0.0
 41
1.0
 50
0.0
 71
0
 42
2.5
  3
OpenSans-SemiBold.ttf
  4

  0
STYLE
  5
44
330
5
100
AcDbSymbolTableRecord
100
AcDbTextStyleTableRecord
  2
OpenSans-SemiBoldItalic
 70
0
 40
0.0
 41
1.0
 50
0.0
 71
0
 42
2.5
  3
OpenSans-SemiBoldItalic.ttf
  4

  0
STYLE
  5
45
330
5
100
AcDbSymbolTableRecord
100
AcDbTextStyleTableRecord
  2
OpenSans-Bold
 70
0
 40
0.0
 41
1.0
 50
0.0
 71
0
 42
2.5
  3
OpenSans-Bold.ttf
  4

  0
STYLE
  5
46
330
5
100
AcDbSymbolTableRecord
100
AcDbTextStyleTableRecord
  2
OpenSans-BoldItalic
 70
0
 40
0.0
 41
1.0
 50
0.0
 71
0
 42
2.5
  3
OpenSans-BoldItalic.ttf
  4

  0
STYLE
  5
47
330
5
100
AcDbSymbolTableRecord
100
AcDbTextStyleTableRecord
  2
OpenSans-ExtraBold
 70
0
 40
0.0
 41
1.0
 50
0.0
 71
0
 42
2.5
  3
OpenSans-ExtraBold.ttf
  4

  0
STYLE
  5
48
330
5
100
AcDbSymbolTableRecord
100
AcDbTextStyleTableRecord
  2
OpenSans-ExtraBoldItalic
 70
0
 40
0.0
 41
1.0
 50
0.0
 71
0
 42
2.5
  3
OpenSans-ExtraBoldItalic.ttf
  4

  0
STYLE
  5
49
330
5
100
AcDbSymbolTableRecord
100
AcDbTextStyleTableRecord
  2
OpenSansCondensed-Bold
 70
0
 40
0.0
 41
1.0
 50
0.0
 71
0
 42
2.5
  3
OpenSansCondensed-Bold.ttf
  4

  0
STYLE
  5
4A
330
5
100
AcDbSymbolTableRecord
100
AcDbTextStyleTableRecord
  2
OpenSansCondensed-Light
 70
0
 40
0.0
 41
1.0
 50
0.0
 71
0
 42
2.5
  3
OpenSansCondensed-Light.ttf
  4

  0
STYLE
  5
4B
330
5
100
AcDbSymbolTableRecord
100
AcDbTextStyleTableRecord
  2
OpenSansCondensed-Italic
 70
0
 40
0.0
 41
1.0
 50
0.0
 71
0
 42
2.5
  3
OpenSansCondensed-LightItalic.ttf
  4

  0
STYLE
  5
4C
330
5
100
AcDbSymbolTableRecord
100
AcDbTextStyleTableRecord
  2
LiberationSans
 70
0
 40
0.0
 41
1.0
 50
0.0
 71
0
 42
2.5
  3
LiberationSans-Regular.ttf
  4

  0
STYLE
  5
4D
330
5
100
AcDbSymbolTableRecord
100
AcDbTextStyleTableRecord
  2
LiberationSans-Bold
 70
0
 40
0.0
 41
1.0
 50
0.0
 71
0
 42
2.5
  3
LiberationSans-Bold.ttf
  4

  0
STYLE
  5
4E
330
5
100
AcDbSymbolTableRecord
100
AcDbTextStyleTableRecord
  2
LiberationSans-BoldItalic
 70
0
 40
0.0
 41
1.0
 50
0.0
 71
0
 42
2.5
  3
LiberationSans-BoldItalic.ttf
  4

  0
STYLE
  5
4F
330
5
100
AcDbSymbolTableRecord
100
AcDbTextStyleTableRecord
  2
LiberationSans-Italic
 70
0
 40
0.0
 41
1.0
 50
0.0
 71
0
 42
2.5
  3
LiberationSans-Italic.ttf
  4

  0
STYLE
  5
50
330
5
100
AcDbSymbolTableRecord
100
AcDbTextStyleTableRecord
  2
LiberationSerif
 70
0
 40
0.0
 41
1.0
 50
0.0
 71
0
 42
2.5
  3
LiberationSerif-Regular.ttf
  4

  0
STYLE
  5
51
330
5
100
AcDbSymbolTableRecord
100
AcDbTextStyleTableRecord
  2
LiberationSerif-Bold
 70
0
 40
0.0
 41
1.0
 50
0.0
 71
0
 42
2.5
  3
LiberationSerif-Bold.ttf
  4

  0
STYLE
  5
52
330
5
100
AcDbSymbolTableRecord
100
AcDbTextStyleTableRecord
  2
LiberationSerif-BoldItalic
 70
0
 40
0.0
 41
1.0
 50
0.0
 71
0
 42
2.5
  3
LiberationSerif-BoldItalic.ttf
  4

  0
STYLE
  5
53
330
5
100
AcDbSymbolTableRecord
100
AcDbTextStyleTableRecord
  2
LiberationSerif-Italic
 70
0
 40
0.0
 41
1.0
 50
0.0
 71
0
 42
2.5
  3
LiberationSerif-Italic.ttf
  4

  0
STYLE
  5
54
330
5
100
AcDbSymbolTableRecord
100
AcDbTextStyleTableRecord
  2
LiberationMono
 70
0
 40
0.0
 41
1.0
 50
0.0
 71
0
 42
2.5
  3
LiberationMono-Regular.ttf
  4

  0
STYLE
  5
55
330
5
100
AcDbSymbolTableRecord
100
AcDbTextStyleTableRecord
  2
LiberationMono-Bold
 70
0
 40
0.0
 41
1.0
 50
0.0
 71
0
 42
2.5
  3
LiberationMono-Bold.ttf
  4

  0
STYLE
  5
56
330
5
100
AcDbSymbolTableRecord
100
AcDbTextStyleTableRecord
  2
LiberationMono-BoldItalic
 70
0
 40
0.0
 41
1.0
 50
0.0
 71
0
 42
2.5
  3
LiberationMono-BoldItalic.ttf
  4

  0
STYLE
  5
57
330
5
100
AcDbSymbolTableRecord
100
AcDbTextStyleTableRecord
  2
LiberationMono-Italic
 70
0
 40
0.0
 41
1.0
 50
0.0
 71
0
 42
2.5
  3
LiberationMono-Italic.ttf
  4

  0
ENDTAB
  0
TABLE
  2
VIEW
  5
7
330
0
100
AcDbSymbolTable
 70
0
  0
ENDTAB
  0
TABLE
  2
UCS
  5
6
330
0
100
AcDbSymbolTable
 70
0
  0
ENDTAB
  0
TABLE
  2
APPID
  5
3
330
0
100
AcDbSymbolTable
 70
2
  0
APPID
  5
2A
330
3
100
AcDbSymbolTableRecord
100
AcDbRegAppTableRecord
  2
ACAD
 70
0
  0
APPID
  5
1F2
330
3
100
AcDbSymbolTableRecord
100
AcDbRegAppTableRecord
  2
HATCHBACKGROUNDCOLOR
 70
0
  0
ENDTAB
  0
TABLE
  2
DIMSTYLE
  5
4
330
0
100
AcDbSymbolTable
 70
11
100
AcDbDimStyleTable
  0
DIMSTYLE
105
2B
330
4
100
AcDbSymbolTableRecord
100
AcDbDimStyleTableRecord
  2
Standard
 70
0
 40
1.0
 41
2.5
 42
0.625
 43
3.75
 44
1.25
 45
0.0
 46
0.0
 47
0.0
 48
0.0
 49
2.5
140
2.5
141
2.5
142
0.0
143
0.03937007874
144
1.0
145
0.0
146
1.0
147
0.625
148
0.0
 69
0
 70
0
 71
0
 72
0
 73
0
 74
0
 75
0
 76
0
 77
1
 78
8
 79
0
170
0
171
3
172
1
173
0
174
0
175
0
176
0
177
0
178
0
179
0
271
0
272
2
273
2
274
3
275
0
276
0
277
2
278
44
279
0
280
0
281
0
282
0
283
0
284
8
285
0
286
0
288
0
289
3
290
0
371
-2
372
-2
  0
DIMSTYLE
105
71
330
4
100
AcDbSymbolTableRecord
100
AcDbDimStyleTableRecord
  2
EZDXF
 70
0
 40
1.0
 41
0.175
 42
0.125
 43
3.75
 44
0.375
 45
0.0
 46
0.0
 47
0.0
 48
0.0
 49
2.5
140
0.25
141
2.5
142
0.0
143
0.03937007874
144
100.0
145
0.0
146
1.0
147
0.1
148
0.0
 69
0
 70
0
 71
0
 72
0
 73
0
 74
0
 75
0
 76
0
 77
1
 78
8
 79
0
170
0
171
3
172
1
173
0
174
0
175
0
176
0
177
0
178
0
179
0
271
2
272
2
273
2
274
3
275
0
276
0
277
2
278
46
279
2
280
0
281
0
282
0
283
0
284
8
285
0
286
0
288
1
289
3
290
0
340
4A
342
72
371
-2
372
-2
  0
DIMSTYLE
105
7A
330
4
100
AcDbSymbolTableRecord
100
AcDbDimStyleTableRecord
  2
EZ_M_100_H25_CM
 70
0
 40
1.0
 41
0.25
 42
0.125
 43
3.75
 44
0.375
 45
0.0
 46
0.0
 47
0.0
 48
0.0
 49
2.5
140
0.25
141
2.5
142
0.125
143
0.03937007874
144
100.0
145
0.0
146
1.0
147
0.1
148
0.0
 69
0
 70
0
 71
0
 72
0
 73
0
 74
0
 75
0
 76
0
 77
1
 78
8
 79
0
170
0
171
3
172
1
173
0
174
0
175
0
176
0
177
0
178
0
179
0
271
2
272
2
273
2
274
3
275
0
276
0
277
2
278
46
279
2
280
0
281
0
282
0
283
0
284
8
285
0
286
0
288
1
289
3
290
0
340
4A
371
-2
372
-2
  0
DIMSTYLE
105
7B
330
4
100
AcDbSymbolTableRecord
100
AcDbDimStyleTableRecord
  2
EZ_M_50_H25_CM
 70
0
 40
1.0
 41
0.125
 42
0.0625
 43
3.75
 44
0.1875
 45
0.0
 46
0.0
 47
0.0
 48
0.0
 49
2.5
140
0.125
141
2.5
142
0.0625
143
0.03937007874
144
100.0
145
0.0
146
1.0
147
0.05
148
0.0
 69
0
 70
0
 71
0
 72
0
 73
0
 74
0
 75
0
 76
0
 77
1
 78
8
 79
0
170
0
171
3
172
1
173
0
174
0
175
0
176
0
177
0
178
0
179
0
271
2
272
2
273
2
274
3
275
0
276
0
277
2
278
46
279
2
280
0
281
0
282
0
283
0
284
8
285
0
286
0
288
1
289
3
290
0
340
4A
371
-2
372
-2
  0
DIMSTYLE
105
7C
330
4
100
AcDbSymbolTableRecord
100
AcDbDimStyleTableRecord
  2
EZ_M_25_H25_CM
 70
0
 40
1.0
 41
0.0625
 42
0.03125
 43
3.75
 44
0.09375
 45
0.0
 46
0.0
 47
0.0
 48
0.0
 49
2.5
140
0.0625
141
2.5
142
0.03125
143
0.03937007874
144
100.0
145
0.0
146
1.0
147
0.025
148
0.0
 69
0
 70
0
 71
0
 72
0
 73
0
 74
0
 75
0
 76
0
 77
1
 78
8
 79
0
170
0
171
3
172
1
173
0
174
0
175
0
176
0
177
0
178
0
179
0
271
2
272
2
273
2
274
3
275
0
276
0
277
2
278
46
279
2
280
0
281
0
282
0
283
0
284
8
285
0
286
0
288
1
289
3
290
0
340
4A
371
-2
372
-2
  0
DIMSTYLE
105
7D
330
4
100
AcDbSymbolTableRecord
100
AcDbDimStyleTableRecord
  2
EZ_M_20_H25_CM
 70
0
 40
1.0
 41
0.05
 42
0.025
 43
3.75
 44
0.07500000000000001
 45
0.0
 46
0.0
 47
0.0
 48
0.0
 49
2.5
140
0.05
141
2.5
142
0.025
143
0.03937007874
144
100.0
145
0.0
146
1.0
147
0.020000000000000004
148
0.0
 69
0
 70
0
 71
0
 72
0
 73
0
 74
0
 75
0
 76
0
 77
1
 78
8
 79
0
170
0
171
3
172
1
173
0
174
0
175
0
176
0
177
0
178
0
179
0
271
2
272
2
273
2
274
3
275
0
276
0
277
2
278
46
279
2
280
0
281
0
282
0
283
0
284
8
285
0
286
0
288
1
289
3
290
0
340
4A
371
-2
372
-2
  0
DIMSTYLE
105
7E
330
4
100
AcDbSymbolTableRecord
100
AcDbDimStyleTableRecord
  2
EZ_M_10_H25_CM
 70
0
 40
1.0
 41
0.025
 42
0.0125
 43
3.75
 44
0.037500000000000006
 45
0.0
 46
0.0
 47
0.0
 48
0.0
 49
2.5
140
0.025
141
2.5
142
0.0125
143
0.03937007874
144
100.0
145
0.0
146
1.0
147
0.010000000000000002
148
0.0
 69
0
 70
0
 71
0
 72
0
 73
0
 74
0
 75
0
 76
0
 77
1
 78
8
 79
0
170
0
171
3
172
1
173
0
174
0
175
0
176
0
177
0
178
0
179
0
271
2
272
2
273
2
274
3
275
0
276
0
277
2
278
46
279
2
280
0
281
0
282
0
283
0
284
8
285
0
286
0
288
1
289
3
290
0
340
4A
371
-2
372
-2
  0
DIMSTYLE
105
7F
330
4
100
AcDbSymbolTableRecord
100
AcDbDimStyleTableRecord
  2
EZ_M_5_H25_CM
 70
0
 40
1.0
 41
0.0125
 42
0.00625
 43
3.75
 44
0.018750000000000003
 45
0.0
 46
0.0
 47
0.0
 48
0.0
 49
2.5
140
0.0125
141
2.5
142
0.00625
143
0.03937007874
144
100.0
145
0.0
146
1.0
147
0.005000000000000001
148
0.0
 69
0
 70
0
 71
0
 72
0
 73
0
 74
0
 75
0
 76
0
 77
1
 78
8
 79
0
170
0
171
3
172
1
173
0
174
0
175
0
176
0
177
0
178
0
179
0
271
2
272
2
273
2
274
3
275
0
276
0
277
2
278
46
279
2
280
0
281
0
282
0
283
0
284
8
285
0
286
0
288
1
289
3
290
0
340
4A
371
-2
372
-2
  0
DIMSTYLE
105
80
330
4
100
AcDbSymbolTableRecord
100
AcDbDimStyleTableRecord
  2
EZ_M_1_H25_CM
 70
0
 40
1.0
 41
0.0025
 42
0.00125
 43
3.75
 44
0.00375
 45
0.0
 46
0.0
 47
0.0
 48
0.0
 49
2.5
140
0.0025
141
2.5
142
0.00125
143
0.03937007874
144
100.0
145
0.0
146
1.0
147
0.001
148
0.0
 69
0
 70
0
 71
0
 72
0
 73
0
 74
0
 75
0
 76
0
 77
1
 78
8
 79
0
170
0
171
3
172
1
173
0
174
0
175
0
176
0
177
0
178
0
179
0
271
2
272
2
273
2
274
3
275
0
276
0
277
2
278
46
279
2
280
0
281
0
282
0
283
0
284
8
285
0
286
0
288
1
289
3
290
0
340
4A
371
-2
372
-2
  0
DIMSTYLE
105
81
330
4
100
AcDbSymbolTableRecord
100
AcDbDimStyleTableRecord
  2
EZ_RADIUS
 70
0
 40
1.0
 41
0.25
 42
0.125
 43
3.75
 44
0.375
 45
0.0
 46
0.0
 47
0.0
 48
0.0
 49
2.5
140
0.25
141
0.0
142
0.0
143
0.03937007874
144
100.0
145
0.0
146
1.0
147
0.1
148
0.0
 69
0
 70
0
 71
0
 72
0
 73
0
 74
0
 75
0
 76
0
 77
1
 78
8
 79
0
170
0
171
3
172
0
173
0
174
0
175
0
176
0
177
0
178
0
179
0
271
2
272
2
273
2
274
3
275
0
276
0
277
2
278
46
279
1
280
0
281
0
282
0
283
0
284
8
285
0
286
0
288
1
289
3
290
0
340
4A
342
82
371
-2
372
-2
  0
DIMSTYLE
105
86
330
4
100
AcDbSymbolTableRecord
100
AcDbDimStyleTableRecord
  2
EZ_RADIUS_INSIDE
 70
0
 40
1.0
 41
0.25
 42
0.125
 43
3.75
 44
0.375
 45
0.0
 46
0.0
 47
0.0
 48
0.0
 49
2.5
140
0.25
141
0.0
142
0.0
143
0.03937007874
144
100.0
145
0.0
146
1.0
147
0.1
148
0.0
 69
0
 70
0
 71
0
 72
0
 73
0
 74
0
 75
0
 76
0
 77
0
 78
8
 79
0
170
0
171
3
172
0
173
0
174
1
175
0
176
0
177
0
178
0
179
0
271
2
272
2
273
2
274
3
275
0
276
0
277
2
278
46
279
0
280
0
281
0
282
0
283
0
284
8
285
0
286
0
288
1
289
0
290
0
340
4A
342
82
371
-2
372
-2
  0
ENDTAB
  0
TABLE
  2
BLOCK_RECORD
  5
9
330
0
100
AcDbSymbolTable
 70
5
  0
BLOCK_RECORD
  5
17
330
9
100
AcDbSymbolTableRecord
100
AcDbBlockTableRecord
  2
*Model_Space
340
1A
 70
0
280
1
281
0
  0
BLOCK_RECORD
  5
1B
330
9
100
AcDbSymbolTableRecord
100
AcDbBlockTableRecord
  2
*Paper_Space
340
1E
 70
0
280
1
281
0
  0
BLOCK_RECORD
  5
72
330
9
100
AcDbSymbolTableRecord
100
AcDbBlockTableRecord
  2
_ARCHTICK
340
0
 70
0
280
1
281
0
  0
BLOCK_RECORD
  5
76
330
9
100
AcDbSymbolTableRecord
100
AcDbBlockTableRecord
  2
_CLOSEDFILLED
340
0
 70
0
280
1
281
0
  0
BLOCK_RECORD
  5
82
330
9
100
AcDbSymbolTableRecord
100
AcDbBlockTableRecord
  2
_CLOSEDBLANK
340
0
 70
0
280
1
281
0
  0
ENDTAB
  0
ENDSEC
  0
SECTION
  2
BLOCKS
  0
BLOCK
  5
18
330
17
100
AcDbEntity
  8
0
100
AcDbBlockBegin
  2
*Model_Space
 70
0
 10
0.0
 20
0.0
 30
0.0
  3
*Model_Space
  1

  0
ENDBLK
  5
19
330
17
100
AcDbEntity
  8
0
100
AcDbBlockEnd
  0
BLOCK
  5
1C
330
1B
100
AcDbEntity
  8
0
100
AcDbBlockBegin
  2
*Paper_Space
 70
0
 10
0.0
 20
0.0
 30
0.0
  3
*Paper_Space
  1

  0
ENDBLK
  5
1D
330
1B
100
AcDbEntity
  8
0
100
AcDbBlockEnd
  0
BLOCK
  5
73
330
72
100
AcDbEntity
  8
0
100
AcDbBlockBegin
  2
_ARCHTICK
 70
0
 10
0.0
 20
0.0
 30
0.0
  3
_ARCHTICK
  1

  0
LWPOLYLINE
  5
75
330
72
100
AcDbEntity
  8
0
  6
BYBLOCK
 62
0
100
AcDbPolyline
 90
2
 70
0
 43
0.15
 10
-0.5
 20
-0.5000000000000001
 10
0.5000000000000001
 20
0.5
  0
ENDBLK
  5
74
330
72
100
AcDbEntity
  8
0
100
AcDbBlockEnd
  0
BLOCK
  5
77
330
76
100
AcDbEntity
  8
0
100
AcDbBlockBegin
  2
_CLOSEDFILLED
 70
0
 10
0.0
 20
0.0
 30
0.0
  3
_CLOSEDFILLED
  1

  0
SOLID
  5
79
330
76
100
AcDbEntity
  8
0
  6
BYBLOCK
 62
0
100
AcDbTrace
 10
-1.0
 20
0.1643989837240255
 30
0.0
 11
0.0
 21
0.0
 31
0.0
 12
-1.0
 22
-0.1643989837240255
 32
0.0
 13
-1.0
 23
-0.1643989837240255
 33
0.0
  0
ENDBLK
  5
78
330
76
100
AcDbEntity
  8
0
100
AcDbBlockEnd
  0
BLOCK
  5
83
330
82
100
AcDbEntity
  8
0
100
AcDbBlockBegin
  2
_CLOSEDBLANK
 70
0
 10
0.0
 20
0.0
 30
0.0
  3
_CLOSEDBLANK
  1

  0
LWPOLYLINE
  5
85
330
82
100
AcDbEntity
  8
0
  6
BYBLOCK
 62
0
100
AcDbPolyline
 90
3
 70
1
 10
-1.0
 20
0.1643989837240255
 10
0.0
 20
0.0
 10
-1.0
 20
-0.1643989837240255
  0
ENDBLK
  5
84
330
82
100
AcDbEntity
  8
0
100
AcDbBlockEnd
  0
ENDSEC
  0
SECTION
  2
ENTITIES
  0
LINE
  5
8A
330
17
100
AcDbEntity
  8
Inner
100
AcDbLine
 10
0.0
 20
0.0
 30
0.0
 11
5.0
 21
-1.2246467991473533e-15
 31
0.0
  0
LINE
  5
8B
330
17
100
AcDbEntity
  8
Inner
100
AcDbLine
 10
5.0
 20
-1.2246467991473533e-15
 30
0.0
 11
4.999238475781956
 21
0.08726203218641536
 31
0.0
  0
LINE
  5
8C
330
17
100
AcDbEntity
  8
Inner
100
AcDbLine
 10
4.999238475781956
 20
0.08726203218641536
 30
0.0
 11
4.9969541350954785
 21
0.1744974835125061
 31
0.0
  0
LINE
  5
8D
330
17
100
AcDbEntity
  8
Inner
100
AcDbLine
 10
4.9969541350954785
 20
0.1744974835125061
 30
0.0
 11
4.993147673772869
 21
0.2616797812147194
 31
0.0
  0
LINE
  5
8E
330
17
100
AcDbEntity
  8
Inner
100
AcDbLine
 10
4.993147673772869
 20
0.2616797812147194
 30
0.0
 11
4.987820251299121
 21
0.34878236872062574
 31
0.0
  0
LINE
  5
8F
330
17
100
AcDbEntity
  8
Inner
100
AcDbLine
 10
4.987820251299121
 20
0.34878236872062574
 30
0.0
 11
4.9809734904587275
 21
0.43577871373828914
 31
0.0
  0
LINE
  5
90
330
17
100
AcDbEntity
  8
Inner
100
AcDbLine
 10
4.9809734904587275
 20
0.43577871373828914
 30
0.0
 11
4.972609476841367
 21
0.5226423163382646
 31
0.0
  0
LINE
  5
91
330
17
100
AcDbEntity
  8
Inner
100
AcDbLine
 10
4.972609476841367
 20
0.5226423163382646
 30
0.0
 11
4.96273075820661
 21
0.6093467170257382
 31
0.0
  0
LINE
  5
92
330
17
100
AcDbEntity
  8
Inner
100
AcDbLine
 10
4.96273075820661
 20
0.6093467170257382
 30
0.0
 11
4.951340343707852
 21
0.6958655048003269
 31
0.0
  0
LINE
  5
93
330
17
100
AcDbEntity
  8
Inner
100
AcDbLine
 10
4.951340343707852
 20
0.6958655048003269
 30
0.0
 11
4.938441702975689
 21
0.7821723252011531
 31
0.0
  0
LINE
  5
94
330
17
100
AcDbEntity
  8
Inner
100
AcDbLine
 10
4.938441702975689
 20
0.7821723252011531
 30
0.0
 11
4.924038765061041
 21
0.8682408883346495
 31
0.0
  0
LINE
  5
95
330
17
100
AcDbEntity
  8
Inner
100
AcDbLine
 10
4.924038765061041
 20
0.8682408883346495
 30
0.0
 11
4.90813591723832
 21
0.9540449768827253
 31
0.0
  0
LINE
  5
96
330
17
100
AcDbEntity
  8
Inner
100
AcDbLine
 10
4.90813591723832
 20
0.9540449768827253
 30
0.0
 11
4.890738003669028
 21
1.0395584540887968
 31
0.0
  0
LINE
  5
97
330
17
100
AcDbEntity
  8
Inner
100
AcDbLine
 10
4.890738003669028
 20
1.0395584540887968
 30
0.0
 11
4.871850323926176
 21
1.124755271719324
 31
0.0
  0
LINE
  5
98
330
17
100
AcDbEntity
  8
Inner
100
AcDbLine
 10
4.871850323926176
 20
1.124755271719324
 30
0.0
 11
4.851478631379983
 21
1.2096094779983368
 31
0.0
  0
LINE
  5
99
330
17
100
AcDbEntity
  8
Inner
100
AcDbLine
 10
4.851478631379983
 20
1.2096094779983368
 30
0.0
 11
4.829629131445342
 21
1.2940952255126013
 31
0.0
  0
LINE
  5
9A
330
17
100
AcDbEntity
  8
Inner
100
AcDbLine
 10
4.829629131445342
 20
1.2940952255126013
 30
0.0
 11
4.806308479691594
 21
1.3781867790849966
 31
0.0
  0
LINE
  5
9B
330
17
100
AcDbEntity
  8
Inner
100
AcDbLine
 10
4.806308479691594
 20
1.3781867790849966
 30
0.0
 11
4.781523779815178
 21
1.4618585236136834
 31
0.0
  0
LINE
  5
9C
330
17
100
AcDbEntity
  8
Inner
100
AcDbLine
 10
4.781523779815178
 20
1.4618585236136834
 30
0.0
 11
4.755282581475768
 21
1.545084971874736
 31
0.0
  0
LINE
  5
9D
330
17
100
AcDbEntity
  8
Inner
100
AcDbLine
 10
4.755282581475768
 20
1.545084971874736
 30
0.0
 11
4.727592877996585
 21
1.6278407722857813
 31
0.0
  0
LINE
  5
9E
330
17
100
AcDbEntity
  8
Inner
100
AcDbLine
 10
4.727592877996585
 20
1.6278407722857813
 30
0.0
 11
4.698463103929542
 21
1.7101007166283446
 31
0.0
  0
LINE
  5
9F
330
17
100
AcDbEntity
  8
Inner
100
AcDbLine
 10
4.698463103929542
 20
1.7101007166283446
 30
0.0
 11
4.667902132486009
 21
1.7918397477265016
 31
0.0
  0
LINE
  5
A0
330
17
100
AcDbEntity
  8
Inner
100
AcDbLine
 10
4.667902132486009
 20
1.7918397477265016
 30
0.0
 11
4.635919272833937
 21
1.8730329670795596
 31
0.0
  0
LINE
  5
A1
330
17
100
AcDbEntity
  8
Inner
100
AcDbLine
 10
4.635919272833937
 20
1.8730329670795596
 30
0.0
 11
4.602524267262202
 21
1.9536556424463671
 31
0.0
  0
LINE
  5
A2
330
17
100
AcDbEntity
  8
Inner
100
AcDbLine
 10
4.602524267262202
 20
1.9536556424463671
 30
0.0
 11
4.567727288213003
 21
2.0336832153790025
 31
0.0
  0
LINE
  5
A3
330
17
100
AcDbEntity
  8
Inner
100
AcDbLine
 10
4.567727288213003
 20
2.0336832153790025
 30
0.0
 11
4.531538935183249
 21
2.1130913087034977
 31
0.0
  0
LINE
  5
A4
330
17
100
AcDbEntity
  8
Inner
100
AcDbLine
 10
4.531538935183249
 20
2.1130913087034977
 30
0.0
 11
4.493970231495835
 21
2.1918557339453866
 31
0.0
  0
LINE
  5
A5
330
17
100
AcDbEntity
  8
Inner
100
AcDbLine
 10
4.493970231495835
 20
2.1918557339453866
 30
0.0
 11
4.45503262094184
 21
2.269952498697733
 31
0.0
  0
LINE
  5
A6
330
17
100
AcDbEntity
  8
Inner
100
AcDbLine
 10
4.45503262094184
 20
2.269952498697733
 30
0.0
 11
4.414737964294636
 21
2.347357813929452
 31
0.0
  0
LINE
  5
A7
330
17
100
AcDbEntity
  8
Inner
100
AcDbLine
 10
4.414737964294636
 20
2.347357813929452
 30
0.0
 11
4.373098535696979
 21
2.424048101231686
 31
0.0
  0
LINE
  5
A8
330
17
100
AcDbEntity
  8
Inner
100
AcDbLine
 10
4.373098535696979
 20
2.424048101231686
 30
0.0
 11
4.330127018922193
 21
2.5
 31
0.0
  0
LINE
  5
A9
330
17
100
AcDbEntity
  8
Inner
100
AcDbLine
 10
4.330127018922193
 20
2.5
 30
0.0
 11
4.285836503510562
 21
2.57519037455027
 31
0.0
  0
LINE
  5
AA
330
17
100
AcDbEntity
  8
Inner
100
AcDbLine
 10
4.285836503510562
 20
2.57519037455027
 30
0.0
 11
4.240240480782131
 21
2.6495963211660234
 31
0.0
  0
LINE
  5
AB
330
17
100
AcDbEntity
  8
Inner
100
AcDbLine
 10
4.240240480782131
 20
2.6495963211660234
 30
0.0
 11
4.193352839727119
 21
2.7231951750751366
 31
0.0
  0
LINE
  5
AC
330
17
100
AcDbEntity
  8
Inner
100
AcDbLine
 10
4.193352839727119
 20
2.7231951750751366
 30
0.0
 11
4.145187862775208
 21
2.7959645173537346
 31
0.0
  0
LINE
  5
AD
330
17
100
AcDbEntity
  8
Inner
100
AcDbLine
 10
4.145187862775208
 20
2.7959645173537346
 30
0.0
 11
4.095760221444959
 21
2.8678821817552302
 31
0.0
  0
LINE
  5
AE
330
17
100
AcDbEntity
  8
Inner
100
AcDbLine
 10
4.095760221444959
 20
2.8678821817552302
 30
0.0
 11
4.045084971874738
 21
2.9389262614623646
 31
0.0
  0
LINE
  5
AF
330
17
100
AcDbEntity
  8
Inner
100
AcDbLine
 10
4.045084971874738
 20
2.9389262614623646
 30
0.0
 11
3.993177550236466
 21
3.00907511576024
 31
0.0
  0
LINE
  5
B0
330
17
100
AcDbEntity
  8
Inner
100
AcDbLine
 10
3.993177550236466
 20
3.00907511576024
 30
0.0
 11
3.940053768033609
 21
3.078307376628292
 31
0.0
  0
LINE
  5
B1
330
17
100
AcDbEntity
  8
Inner
100
AcDbLine
 10
3.940053768033609
 20
3.078307376628292
 30
0.0
 11
3.8857298072848545
 21
3.1466019552491877
 31
0.0
  0
LINE
  5
B2
330
17
100
AcDbEntity
  8
Inner
100
AcDbLine
 10
3.8857298072848545
 20
3.1466019552491877
 30
0.0
 11
3.8302222155948904
 21
3.213938048432696
 31
0.0
  0
LINE
  5
B3
330
17
100
AcDbEntity
  8
Inner
100
AcDbLine
 10
3.8302222155948904
 20
3.213938048432696
 30
0.0
 11
3.773547901113861
 21
3.280295144952535
 31
0.0
  0
LINE
  5
B4
330
17
100
AcDbEntity
  8
Inner
100
AcDbLine
 10
3.773547901113861
 20
3.280295144952535
 30
0.0
 11
3.71572412738697
 21
3.345653031794292
 31
0.0
  0
LINE
  5
B5
330
17
100
AcDbEntity
  8
Inner
100
AcDbLine
 10
3.71572412738697
 20
3.345653031794292
 30
0.0
 11
3.6567685080958516
 21
3.409991800312493
 31
0.0
  0
LINE
  5
B6
330
17
100
AcDbEntity
  8
Inner
100
AcDbLine
 10
3.6567685080958516
 20
3.409991800312493
 30
0.0
 11
3.596699001693256
 21
3.4732918522949863
 31
0.0
  0
LINE
  5
B7
330
17
100
AcDbEntity
  8
Inner
100
AcDbLine
 10
3.596699001693256
 20
3.4732918522949863
 30
0.0
 11
3.5355339059327386
 21
3.535533905932737
 31
0.0
  0
LINE
  5
B8
330
17
100
AcDbEntity
  8
Inner
100
AcDbLine
 10
3.5355339059327386
 20
3.535533905932737
 30
0.0
 11
3.473291852294988
 21
3.5966990016932545
 31
0.0
  0
LINE
  5
B9
330
17
100
AcDbEntity
  8
Inner
100
AcDbLine
 10
3.473291852294988
 20
3.5966990016932545
 30
0.0
 11
3.4099918003124916
 21
3.6567685080958534
 31
0.0
  0
LINE
  5
BA
330
17
100
AcDbEntity
  8
Inner
100
AcDbLine
 10
3.4099918003124916
 20
3.6567685080958534
 30
0.0
 11
3.345653031794291
 21
3.715724127386971
 31
0.0
  0
LINE
  5
BB
330
17
100
AcDbEntity
  8
Inner
100
AcDbLine
 10
3.345653031794291
 20
3.715724127386971
 30
0.0
 11
3.280295144952537
 21
3.7735479011138597
 31
0.0
  0
LINE
  5
BC
330
17
100
AcDbEntity
  8
Inner
100
AcDbLine
 10
3.280295144952537
 20
3.7735479011138597
 30
0.0
 11
3.213938048432698
 21
3.830222215594889
 31
0.0
  0
LINE
  5
BD
330
17
100
AcDbEntity
  8
Inner
100
AcDbLine
 10
3.213938048432698
 20
3.830222215594889
 30
0.0
 11
3.146601955249186
 21
3.8857298072848554
 31
0.0
  0
LINE
  5
BE
330
17
100
AcDbEntity
  8
Inner
100
AcDbLine
 10
3.146601955249186
 20
3.8857298072848554
 30
0.0
 11
3.078307376628291
 21
3.94005376803361
 31
0.0
  0
LINE
  5
BF
330
17
100
AcDbEntity
  8
Inner
100
AcDbLine
 10
3.078307376628291
 20
3.94005376803361
 30
0.0
 11
3.009075115760242
 21
3.993177550236464
 31
0.0
  0
LINE
  5
C0
330
17
100
AcDbEntity
  8
Inner
100
AcDbLine
 10
3.009075115760242
 20
3.993177550236464
 30
0.0
 11
2.938926261462367
 21
4.045084971874736
 31
0.0
  0
LINE
  5
C1
330
17
100
AcDbEntity
  8
Inner
100
AcDbLine
 10
2.938926261462367
 20
4.045084971874736
 30
0.0
 11
2.8678821817552325
 21
4.095760221444957
 31
0.0
  0
LINE
  5
C2
330
17
100
AcDbEntity
  8
Inner
100
AcDbLine
 10
2.8678821817552325
 20
4.095760221444957
 30
0.0
 11
2.7959645173537333
 21
4.1451878627752095
 31
0.0
  0
LINE
  5
C3
330
17
100
AcDbEntity
  8
Inner
100
AcDbLine
 10
2.7959645173537333
 20
4.1451878627752095
 30
0.0
 11
2.7231951750751353
 21
4.193352839727121
 31
0.0
  0
LINE
  5
C4
330
17
100
AcDbEntity
  8
Inner
100
AcDbLine
 10
2.7231951750751353
 20
4.193352839727121
 30
0.0
 11
2.6495963211660256
 21
4.240240480782129
 31
0.0
  0
LINE
  5
C5
330
17
100
AcDbEntity
  8
Inner
100
AcDbLine
 10
2.6495963211660256
 20
4.240240480782129
 30
0.0
 11
2.5751903745502727
 21
4.285836503510561
 31
0.0
  0
LINE
  5
C6
330
17
100
AcDbEntity
  8
Inner
100
AcDbLine
 10
2.5751903745502727
 20
4.285836503510561
 30
0.0
 11
2.4999999999999987
 21
4.3301270189221945
 31
0.0
  0
LINE
  5
C7
330
17
100
AcDbEntity
  8
Inner
100
AcDbLine
 10
2.4999999999999987
 20
4.3301270189221945
 30
0.0
 11
2.424048101231685
 21
4.373098535696979
 31
0.0
  0
LINE
  5
C8
330
17
100
AcDbEntity
  8
Inner
100
AcDbLine
 10
2.424048101231685
 20
4.373098535696979
 30
0.0
 11
2.347357813929454
 21
4.414737964294634
 31
0.0
  0
LINE
  5
C9
330
17
100
AcDbEntity
  8
Inner
100
AcDbLine
 10
2.347357813929454
 20
4.414737964294634
 30
0.0
 11
2.269952498697735
 21
4.4550326209418385
 31
0.0
  0
LINE
  5
CA
330
17
100
AcDbEntity
  8
Inner
100
AcDbLine
 10
2.269952498697735
 20
4.4550326209418385
 30
0.0
 11
2.1918557339453892
 21
4.493970231495834
 31
0.0
  0
LINE
  5
CB
330
17
100
AcDbEntity
  8
Inner
100
AcDbLine
 10
2.1918557339453892
 20
4.493970231495834
 30
0.0
 11
2.1130913087034964
 21
4.53153893518325
 31
0.0
  0
LINE
  5
CC
330
17
100
AcDbEntity
  8
Inner
100
AcDbLine
 10
2.1130913087034964
 20
4.53153893518325
 30
0.0
 11
2.033683215379001
 21
4.567727288213004
 31
0.0
  0
LINE
  5
CD
330
17
100
AcDbEntity
  8
Inner
100
AcDbLine
 10
2.033683215379001
 20
4.567727288213004
 30
0.0
 11
1.9536556424463698
 21
4.6025242672622015
 31
0.0
  0
LINE
  5
CE
330
17
100
AcDbEntity
  8
Inner
100
AcDbLine
 10
1.9536556424463698
 20
4.6025242672622015
 30
0.0
 11
1.873032967079562
 21
4.635919272833936
 31
0.0
  0
LINE
  5
CF
330
17
100
AcDbEntity
  8
Inner
100
AcDbLine
 10
1.873032967079562
 20
4.635919272833936
 30
0.0
 11
1.7918397477265
 21
4.6679021324860095
 31
0.0
  0
LINE
  5
D0
330
17
100
AcDbEntity
  8
Inner
100
AcDbLine
 10
1.7918397477265
 20
4.6679021324860095
 30
0.0
 11
1.7101007166283433
 21
4.698463103929543
 31
0.0
  0
LINE
  5
D1
330
17
100
AcDbEntity
  8
Inner
100
AcDbLine
 10
1.7101007166283433
 20
4.698463103929543
 30
0.0
 11
1.6278407722857837
 21
4.7275928779965835
 31
0.0
  0
LINE
  5
D2
330
17
100
AcDbEntity
  8
Inner
100
AcDbLine
 10
1.6278407722857837
 20
4.7275928779965835
 30
0.0
 11
1.5450849718747386
 21
4.755282581475767
 31
0.0
  0
LINE
  5
D3
330
17
100
AcDbEntity
  8
Inner
100
AcDbLine
 10
1.5450849718747386
 20
4.755282581475767
 30
0.0
 11
1.461858523613686
 21
4.781523779815177
 31
0.0
  0
LINE
  5
D4
330
17
100
AcDbEntity
  8
Inner
100
AcDbLine
 10
1.461858523613686
 20
4.781523779815177
 30
0.0
 11
1.378186779084995
 21
4.8063084796915945
 31
0.0
  0
LINE
  5
D5
330
17
100
AcDbEntity
  8
Inner
100
AcDbLine
 10
1.378186779084995
 20
4.8063084796915945
 30
0.0
 11
1.2940952255126037
 21
4.8296291314453415
 31
0.0
  0
LINE
  5
D6
330
17
100
AcDbEntity
  8
Inner
100
AcDbLine
 10
1.2940952255126037
 20
4.8296291314453415
 30
0.0
 11
1.2096094779983395
 21
4.851478631379982
 31
0.0
  0
LINE
  5
D7
330
17
100
AcDbEntity
  8
Inner
100
AcDbLine
 10
1.2096094779983395
 20
4.851478631379982
 30
0.0
 11
1.124755271719327
 21
4.871850323926176
 31
0.0
  0
LINE
  5
D8
330
17
100
AcDbEntity
  8
Inner
100
AcDbLine
 10
1.124755271719327
 20
4.871850323926176
 30
0.0
 11
1.0395584540887952
 21
4.8907380036690284
 31
0.0
  0
LINE
  5
D9
330
17
100
AcDbEntity
  8
Inner
100
AcDbLine
 10
1.0395584540887952
 20
4.8907380036690284
 30
0.0
 11
0.9540449768827236
 21
4.90813591723832
 31
0.0
  0
LINE
  5
DA
330
17
100
AcDbEntity
  8
Inner
100
AcDbLine
 10
0.9540449768827236
 20
4.90813591723832
 30
0.0
 11
0.8682408883346522
 21
4.92403876506104
 31
0.0
  0
LINE
  5
DB
330
17
100
AcDbEntity
  8
Inner
100
AcDbLine
 10
0.8682408883346522
 20
4.92403876506104
 30
0.0
 11
0.7821723252011559
 21
4.938441702975688
 31
0.0
  0
LINE
  5
DC
330
17
100
AcDbEntity
  8
Inner
100
AcDbLine
 10
0.7821723252011559
 20
4.938441702975688
 30
0.0
 11
0.6958655048003297
 21
4.951340343707852
 31
0.0
  0
LINE
  5
DD
330
17
100
AcDbEntity
  8
Inner
100
AcDbLine
 10
0.6958655048003297
 20
4.951340343707852
 30
0.0
 11
0.6093467170257365
 21
4.962730758206611
 31
0.0
  0
LINE
  5
DE
330
17
100
AcDbEntity
  8
Inner
100
AcDbLine
 10
0.6093467170257365
 20
4.962730758206611
 30
0.0
 11
0.5226423163382674
 21
4.972609476841367
 31
0.0
  0
LINE
  5
DF
330
17
100
AcDbEntity
  8
Inner
100
AcDbLine
 10
0.5226423163382674
 20
4.972609476841367
 30
0.0
 11
0.43577871373829186
 21
4.9809734904587275
 31
0.0
  0
LINE
  5
E0
330
17
100
AcDbEntity
  8
Inner
100
AcDbLine
 10
0.43577871373829186
 20
4.9809734904587275
 30
0.0
 11
0.3487823687206285
 21
4.987820251299121
 31
0.0
  0
LINE
  5
E1
330
17
100
AcDbEntity
  8
Inner
100
AcDbLine
 10
0.3487823687206285
 20
4.987820251299121
 30
0.0
 11
0.2616797812147177
 21
4.99314767377287
 31
0.0
  0
LINE
  5
E2
330
17
100
AcDbEntity
  8
Inner
100
AcDbLine
 10
0.2616797812147177
 20
4.99314767377287
 30
0.0
 11
0.17449748351250438
 21
4.9969541350954785
 31
0.0
  0
LINE
  5
E3
330
17
100
AcDbEntity
  8
Inner
100
AcDbLine
 10
0.17449748351250438
 20
4.9969541350954785
 30
0.0
 11
0.08726203218641809
 21
4.999238475781956
 31
0.0
  0
LINE
  5
E4
330
17
100
AcDbEntity
  8
Inner
100
AcDbLine
 10
0.08726203218641809
 20
4.999238475781956
 30
0.0
 11
1.5308084989341915e-15
 21
5.0
 31
0.0
  0
LINE
  5
E5
330
17
100
AcDbEntity
  8
Inner
100
AcDbLine
 10
1.5308084989341915e-15
 20
5.0
 30
0.0
 11
-0.08726203218641504
 21
4.999238475781956
 31
0.0
  0
LINE
  5
E6
330
17
100
AcDbEntity
  8
Inner
100
AcDbLine
 10
-0.08726203218641504
 20
4.999238475781956
 30
0.0
 11
-0.17449748351250577
 21
4.9969541350954785
 31
0.0
  0
LINE
  5
E7
330
17
100
AcDbEntity
  8
Inner
100
AcDbLine
 10
-0.17449748351250577
 20
4.9969541350954785
 30
0.0
 11
-0.26167978121471913
 21
4.993147673772869
 31
0.0
  0
LINE
  5
E8
330
17
100
AcDbEntity
  8
Inner
100
AcDbLine
 10
-0.26167978121471913
 20
4.993147673772869
 30
0.0
 11
-0.34878236872062546
 21
4.987820251299121
 31
0.0
  0
LINE
  5
E9
330
17
100
AcDbEntity
  8
Inner
100
AcDbLine
 10
-0.34878236872062546
 20
4.987820251299121
 30
0.0
 11
-0.4357787137382888
 21
4.9809734904587275
 31
0.0
  0
LINE
  5
EA
330
17
100
AcDbEntity
  8
Inner
100
AcDbLine
 10
-0.4357787137382888
 20
4.9809734904587275
 30
0.0
 11
-0.5226423163382687
 21
4.972609476841367
 31
0.0
  0
LINE
  5
EB
330
17
100
AcDbEntity
  8
Inner
100
AcDbLine
 10
-0.5226423163382687
 20
4.972609476841367
 30
0.0
 11
-0.6093467170257378
 21
4.96273075820661
 31
0.0
  0
LINE
  5
EC
330
17
100
AcDbEntity
  8
Inner
100
AcDbLine
 10
-0.6093467170257378
 20
4.96273075820661
 30
0.0
 11
-0.6958655048003266
 21
4.951340343707852
 31
0.0
  0
LINE
  5
ED
330
17
100
AcDbEntity
  8
Inner
100
AcDbLine
 10
-0.6958655048003266
 20
4.951340343707852
 30
0.0
 11
-0.7821723252011571
 21
4.938441702975688
 31
0.0
  0
LINE
  5
EE
330
17
100
AcDbEntity
  8
Inner
100
AcDbLine
 10
-0.7821723252011571
 20
4.938441702975688
 30
0.0
 11
-0.8682408883346493
 21
4.924038765061041
 31
0.0
  0
LINE
  5
EF
330
17
100
AcDbEntity
  8
Inner
100
AcDbLine
 10
-0.8682408883346493
 20
4.924038765061041
 30
0.0
 11
-0.954044976882725
 21
4.90813591723832
 31
0.0
  0
LINE
  5
F0
330
17
100
AcDbEntity
  8
Inner
100
AcDbLine
 10
-0.954044976882725
 20
4.90813591723832
 30
0.0
 11
-1.0395584540887923
 21
4.890738003669029
 31
0.0
  0
LINE
  5
F1
330
17
100
AcDbEntity
  8
Inner
100
AcDbLine
 10
-1.0395584540887923
 20
4.890738003669029
 30
0.0
 11
-1.1247552717193239
 21
4.871850323926176
 31
0.0
  0
LINE
  5
F2
330
17
100
AcDbEntity
  8
Inner
100
AcDbLine
 10
-1.1247552717193239
 20
4.871850323926176
 30
0.0
 11
-1.2096094779983408
 21
4.851478631379981
 31
0.0
  0
LINE
  5
F3
330
17
100
AcDbEntity
  8
Inner
100
AcDbLine
 10
-1.2096094779983408
 20
4.851478631379981
 30
0.0
 11
-1.294095225512601
 21
4.829629131445342
 31
0.0
  0
LINE
  5
F4
330
17
100
AcDbEntity
  8
Inner
100
AcDbLine
 10
-1.294095225512601
 20
4.829629131445342
 30
0.0
 11
-1.3781867790849964
 21
4.8063084796915945
 31
0.0
  0
LINE
  5
F5
330
17
100
AcDbEntity
  8
Inner
100
AcDbLine
 10
-1.3781867790849964
 20
4.8063084796915945
 30
0.0
 11
-1.461858523613679
 21
4.781523779815179
 31
0.0
  0
LINE
  5
F6
330
17
100
AcDbEntity
  8
Inner
100
AcDbLine
 10
-1.461858523613679
 20
4.781523779815179
 30
0.0
 11
-1.5450849718747355
 21
4.755282581475768
 31
0.0
  0
LINE
  5
F7
330
17
100
AcDbEntity
  8
Inner
100
AcDbLine
 10
-1.5450849718747355
 20
4.755282581475768
 30
0.0
 11
-1.627840772285785
 21
4.7275928779965835
 31
0.0
  0
LINE
  5
F8
330
17
100
AcDbEntity
  8
Inner
100
AcDbLine
 10
-1.627840772285785
 20
4.7275928779965835
 30
0.0
 11
-1.7101007166283402
 21
4.6984631039295435
 31
0.0
  0
LINE
  5
F9
330
17
100
AcDbEntity
  8
Inner
100
AcDbLine
 10
-1.7101007166283402
 20
4.6984631039295435
 30
0.0
 11
-1.7918397477265013
 21
4.667902132486009
 31
0.0
  0
LINE
  5
FA
330
17
100
AcDbEntity
  8
Inner
100
AcDbLine
 10
-1.7918397477265013
 20
4.667902132486009
 30
0.0
 11
-1.8730329670795631
 21
4.635919272833936
 31
0.0
  0
LINE
  5
FB
330
17
100
AcDbEntity
  8
Inner
100
AcDbLine
 10
-1.8730329670795631
 20
4.635919272833936
 30
0.0
 11
-1.953655642446367
 21
4.602524267262202
 31
0.0
  0
LINE
  5
FC
330
17
100
AcDbEntity
  8
Inner
100
AcDbLine
 10
-1.953655642446367
 20
4.602524267262202
 30
0.0
 11
-2.033683215379002
 21
4.567727288213003
 31
0.0
  0
LINE
  5
FD
330
17
100
AcDbEntity
  8
Inner
100
AcDbLine
 10
-2.033683215379002
 20
4.567727288213003
 30
0.0
 11
-2.1130913087034937
 21
4.531538935183251
 31
0.0
  0
LINE
  5
FE
330
17
100
AcDbEntity
  8
Inner
100
AcDbLine
 10
-2.1130913087034937
 20
4.531538935183251
 30
0.0
 11
-2.1918557339453866
 21
4.493970231495835
 31
0.0
  0
LINE
  5
FF
330
17
100
AcDbEntity
  8
Inner
100
AcDbLine
 10
-2.1918557339453866
 20
4.493970231495835
 30
0.0
 11
-2.2699524986977364
 21
4.455032620941838
 31
0.0
  0
LINE
  5
100
330
17
100
AcDbEntity
  8
Inner
100
AcDbLine
 10
-2.2699524986977364
 20
4.455032620941838
 30
0.0
 11
-2.3473578139294515
 21
4.414737964294636
 31
0.0
  0
LINE
  5
101
330
17
100
AcDbEntity
  8
Inner
100
AcDbLine
 10
-2.3473578139294515
 20
4.414737964294636
 30
0.0
 11
-2.4240481012316857
 21
4.373098535696979
 31
0.0
  0
LINE
  5
102
330
17
100
AcDbEntity
  8
Inner
100
AcDbLine
 10
-2.4240481012316857
 20
4.373098535696979
 30
0.0
 11
-2.499999999999996
 21
4.330127018922195
 31
0.0
  0
LINE
  5
103
330
17
100
AcDbEntity
  8
Inner
100
AcDbLine
 10
-2.499999999999996
 20
4.330127018922195
 30
0.0
 11
-2.57519037455027
 21
4.285836503510562
 31
0.0
  0
LINE
  5
104
330
17
100
AcDbEntity
  8
Inner
100
AcDbLine
 10
-2.57519037455027
 20
4.285836503510562
 30
0.0
 11
-2.649596321166027
 21
4.240240480782129
 31
0.0
  0
LINE
  5
105
330
17
100
AcDbEntity
  8
Inner
100
AcDbLine
 10
-2.649596321166027
 20
4.240240480782129
 30
0.0
 11
-2.7231951750751326
 21
4.193352839727122
 31
0.0
  0
LINE
  5
106
330
17
100
AcDbEntity
  8
Inner
100
AcDbLine
 10
-2.7231951750751326
 20
4.193352839727122
 30
0.0
 11
-2.7959645173537346
 21
4.145187862775208
 31
0.0
  0
LINE
  5
107
330
17
100
AcDbEntity
  8
Inner
100
AcDbLine
 10
-2.7959645173537346
 20
4.145187862775208
 30
0.0
 11
-2.8678821817552262
 21
4.095760221444962
 31
0.0
  0
LINE
  5
108
330
17
100
AcDbEntity
  8
Inner
100
AcDbLine
 10
-2.8678821817552262
 20
4.095760221444962
 30
0.0
 11
-2.9389262614623646
 21
4.045084971874738
 31
0.0
  0
LINE
  5
109
330
17
100
AcDbEntity
  8
Inner
100
AcDbLine
 10
-2.9389262614623646
 20
4.045084971874738
 30
0.0
 11
-3.009075115760243
 21
3.993177550236463
 31
0.0
  0
LINE
  5
10A
330
17
100
AcDbEntity
  8
Inner
100
AcDbLine
 10
-3.009075115760243
 20
3.993177550236463
 30
0.0
 11
-3.0783073766282887
 21
3.9400537680336125
 31
0.0
  0
LINE
  5
10B
330
17
100
AcDbEntity
  8
Inner
100
AcDbLine
 10
-3.0783073766282887
 20
3.9400537680336125
 30
0.0
 11
-3.146601955249187
 21
3.8857298072848545
 31
0.0
  0
LINE
  5
10C
330
17
100
AcDbEntity
  8
Inner
100
AcDbLine
 10
-3.146601955249187
 20
3.8857298072848545
 30
0.0
 11
-3.213938048432699
 21
3.8302222155948877
 31
0.0
  0
LINE
  5
10D
330
17
100
AcDbEntity
  8
Inner
100
AcDbLine
 10
-3.213938048432699
 20
3.8302222155948877
 30
0.0
 11
-3.2802951449525346
 21
3.773547901113861
 31
0.0
  0
LINE
  5
10E
330
17
100
AcDbEntity
  8
Inner
100
AcDbLine
 10
-3.2802951449525346
 20
3.773547901113861
 30
0.0
 11
-3.345653031794292
 21
3.71572412738697
 31
0.0
  0
LINE
  5
10F
330
17
100
AcDbEntity
  8
Inner
100
AcDbLine
 10
-3.345653031794292
 20
3.71572412738697
 30
0.0
 11
-3.40999180031249
 21
3.656768508095855
 31
0.0
  0
LINE
  5
110
330
17
100
AcDbEntity
  8
Inner
100
AcDbLine
 10
-3.40999180031249
 20
3.656768508095855
 30
0.0
 11
-3.473291852294986
 21
3.596699001693256
 31
0.0
  0
LINE
  5
111
330
17
100
AcDbEntity
  8
Inner
100
AcDbLine
 10
-3.473291852294986
 20
3.596699001693256
 30
0.0
 11
-3.5355339059327395
 21
3.5355339059327355
 31
0.0
  0
LINE
  5
112
330
17
100
AcDbEntity
  8
Inner
100
AcDbLine
 10
-3.5355339059327395
 20
3.5355339059327355
 30
0.0
 11
-3.5966990016932536
 21
3.4732918522949885
 31
0.0
  0
LINE
  5
113
330
17
100
AcDbEntity
  8
Inner
100
AcDbLine
 10
-3.5966990016932536
 20
3.4732918522949885
 30
0.0
 11
-3.656768508095853
 21
3.4099918003124916
 31
0.0
  0
LINE
  5
114
330
17
100
AcDbEntity
  8
Inner
100
AcDbLine
 10
-3.656768508095853
 20
3.4099918003124916
 30
0.0
 11
-3.715724127386968
 21
3.3456530317942947
 31
0.0
  0
LINE
  5
115
330
17
100
AcDbEntity
  8
Inner
100
AcDbLine
 10
-3.715724127386968
 20
3.3456530317942947
 30
0.0
 11
-3.773547901113859
 21
3.2802951449525377
 31
0.0
  0
LINE
  5
116
330
17
100
AcDbEntity
  8
Inner
100
AcDbLine
 10
-3.773547901113859
 20
3.2802951449525377
 30
0.0
 11
-3.8302222155948917
 21
3.213938048432695
 31
0.0
  0
LINE
  5
117
330
17
100
AcDbEntity
  8
Inner
100
AcDbLine
 10
-3.8302222155948917
 20
3.213938048432695
 30
0.0
 11
-3.8857298072848523
 21
3.1466019552491895
 31
0.0
  0
LINE
  5
118
330
17
100
AcDbEntity
  8
Inner
100
AcDbLine
 10
-3.8857298072848523
 20
3.1466019552491895
 30
0.0
 11
-3.94005376803361
 21
3.0783073766282913
 31
0.0
  0
LINE
  5
119
330
17
100
AcDbEntity
  8
Inner
100
AcDbLine
 10
-3.94005376803361
 20
3.0783073766282913
 30
0.0
 11
-3.9931775502364615
 21
3.009075115760246
 31
0.0
  0
LINE
  5
11A
330
17
100
AcDbEntity
  8
Inner
100
AcDbLine
 10
-3.9931775502364615
 20
3.009075115760246
 30
0.0
 11
-4.045084971874736
 21
2.938926261462367
 31
0.0
  0
LINE
  5
11B
330
17
100
AcDbEntity
  8
Inner
100
AcDbLine
 10
-4.045084971874736
 20
2.938926261462367
 30
0.0
 11
-4.09576022144496
 21
2.8678821817552294
 31
0.0
  0
LINE
  5
11C
330
17
100
AcDbEntity
  8
Inner
100
AcDbLine
 10
-4.09576022144496
 20
2.8678821817552294
 30
0.0
 11
-4.145187862775207
 21
2.7959645173537373
 31
0.0
  0
LINE
  5
11D
330
17
100
AcDbEntity
  8
Inner
100
AcDbLine
 10
-4.145187862775207
 20
2.7959645173537373
 30
0.0
 11
-4.193352839727121
 21
2.7231951750751353
 31
0.0
  0
LINE
  5
11E
330
17
100
AcDbEntity
  8
Inner
100
AcDbLine
 10
-4.193352839727121
 20
2.7231951750751353
 30
0.0
 11
-4.2402404807821314
 21
2.6495963211660225
 31
0.0
  0
LINE
  5
11F
330
17
100
AcDbEntity
  8
Inner
100
AcDbLine
 10
-4.2402404807821314
 20
2.6495963211660225
 30
0.0
 11
-4.285836503510561
 21
2.575190374550273
 31
0.0
  0
LINE
  5
120
330
17
100
AcDbEntity
  8
Inner
100
AcDbLine
 10
-4.285836503510561
 20
2.575190374550273
 30
0.0
 11
-4.3301270189221945
 21
2.499999999999999
 31
0.0
  0
LINE
  5
121
330
17
100
AcDbEntity
  8
Inner
100
AcDbLine
 10
-4.3301270189221945
 20
2.499999999999999
 30
0.0
 11
-4.373098535696977
 21
2.424048101231689
 31
0.0
  0
LINE
  5
122
330
17
100
AcDbEntity
  8
Inner
100
AcDbLine
 10
-4.373098535696977
 20
2.424048101231689
 30
0.0
 11
-4.414737964294634
 21
2.3473578139294546
 31
0.0
  0
LINE
  5
123
330
17
100
AcDbEntity
  8
Inner
100
AcDbLine
 10
-4.414737964294634
 20
2.3473578139294546
 30
0.0
 11
-4.45503262094184
 21
2.2699524986977315
 31
0.0
  0
LINE
  5
124
330
17
100
AcDbEntity
  8
Inner
100
AcDbLine
 10
-4.45503262094184
 20
2.2699524986977315
 30
0.0
 11
-4.493970231495833
 21
2.1918557339453897
 31
0.0
  0
LINE
  5
125
330
17
100
AcDbEntity
  8
Inner
100
AcDbLine
 10
-4.493970231495833
 20
2.1918557339453897
 30
0.0
 11
-4.53153893518325
 21
2.113091308703497
 31
0.0
  0
LINE
  5
126
330
17
100
AcDbEntity
  8
Inner
100
AcDbLine
 10
-4.53153893518325
 20
2.113091308703497
 30
0.0
 11
-4.5677272882130024
 21
2.0336832153790056
 31
0.0
  0
LINE
  5
127
330
17
100
AcDbEntity
  8
Inner
100
AcDbLine
 10
-4.5677272882130024
 20
2.0336832153790056
 30
0.0
 11
-4.6025242672622015
 21
1.95365564244637
 31
0.0
  0
LINE
  5
128
330
17
100
AcDbEntity
  8
Inner
100
AcDbLine
 10
-4.6025242672622015
 20
1.95365564244637
 30
0.0
 11
-4.635919272833938
 21
1.873032967079558
 31
0.0
  0
LINE
  5
129
330
17
100
AcDbEntity
  8
Inner
100
AcDbLine
 10
-4.635919272833938
 20
1.873032967079558
 30
0.0
 11
-4.667902132486008
 21
1.7918397477265045
 31
0.0
  0
LINE
  5
12A
330
17
100
AcDbEntity
  8
Inner
100
AcDbLine
 10
-4.667902132486008
 20
1.7918397477265045
 30
0.0
 11
-4.698463103929543
 21
1.7101007166283435
 31
0.0
  0
LINE
  5
12B
330
17
100
AcDbEntity
  8
Inner
100
AcDbLine
 10
-4.698463103929543
 20
1.7101007166283435
 30
0.0
 11
-4.727592877996585
 21
1.62784077228578
 31
0.0
  0
LINE
  5
12C
330
17
100
AcDbEntity
  8
Inner
100
AcDbLine
 10
-4.727592877996585
 20
1.62784077228578
 30
0.0
 11
-4.755282581475767
 21
1.545084971874739
 31
0.0
  0
LINE
  5
12D
330
17
100
AcDbEntity
  8
Inner
100
AcDbLine
 10
-4.755282581475767
 20
1.545084971874739
 30
0.0
 11
-4.781523779815178
 21
1.4618585236136818
 31
0.0
  0
LINE
  5
12E
330
17
100
AcDbEntity
  8
Inner
100
AcDbLine
 10
-4.781523779815178
 20
1.4618585236136818
 30
0.0
 11
-4.806308479691594
 21
1.3781867790849995
 31
0.0
  0
LINE
  5
12F
330
17
100
AcDbEntity
  8
Inner
100
AcDbLine
 10
-4.806308479691594
 20
1.3781867790849995
 30
0.0
 11
-4.8296291314453415
 21
1.294095225512604
 31
0.0
  0
LINE
  5
130
330
17
100
AcDbEntity
  8
Inner
100
AcDbLine
 10
-4.8296291314453415
 20
1.294095225512604
 30
0.0
 11
-4.851478631379983
 21
1.2096094779983355
 31
0.0
  0
LINE
  5
131
330
17
100
AcDbEntity
  8
Inner
100
AcDbLine
 10
-4.851478631379983
 20
1.2096094779983355
 30
0.0
 11
-4.871850323926176
 21
1.1247552717193272
 31
0.0
  0
LINE
  5
132
330
17
100
AcDbEntity
  8
Inner
100
AcDbLine
 10
-4.871850323926176
 20
1.1247552717193272
 30
0.0
 11
-4.8907380036690284
 21
1.0395584540887957
 31
0.0
  0
LINE
  5
133
330
17
100
AcDbEntity
  8
Inner
100
AcDbLine
 10
-4.8907380036690284
 20
1.0395584540887957
 30
0.0
 11
-4.908135917238319
 21
0.9540449768827282
 31
0.0
  0
LINE
  5
134
330
17
100
AcDbEntity
  8
Inner
100
AcDbLine
 10
-4.908135917238319
 20
0.9540449768827282
 30
0.0
 11
-4.92403876506104
 21
0.8682408883346525
 31
0.0
  0
LINE
  5
135
330
17
100
AcDbEntity
  8
Inner
100
AcDbLine
 10
-4.92403876506104
 20
0.8682408883346525
 30
0.0
 11
-4.938441702975689
 21
0.7821723252011517
 31
0.0
  0
LINE
  5
136
330
17
100
AcDbEntity
  8
Inner
100
AcDbLine
 10
-4.938441702975689
 20
0.7821723252011517
 30
0.0
 11
-4.951340343707852
 21
0.6958655048003299
 31
0.0
  0
LINE
  5
137
330
17
100
AcDbEntity
  8
Inner
100
AcDbLine
 10
-4.951340343707852
 20
0.6958655048003299
 30
0.0
 11
-4.962730758206611
 21
0.6093467170257367
 31
0.0
  0
LINE
  5
138
330
17
100
AcDbEntity
  8
Inner
100
AcDbLine
 10
-4.962730758206611
 20
0.6093467170257367
 30
0.0
 11
-4.972609476841367
 21
0.5226423163382722
 31
0.0
  0
LINE
  5
139
330
17
100
AcDbEntity
  8
Inner
100
AcDbLine
 10
-4.972609476841367
 20
0.5226423163382722
 30
0.0
 11
-4.9809734904587275
 21
0.43577871373829224
 31
0.0
  0
LINE
  5
13A
330
17
100
AcDbEntity
  8
Inner
100
AcDbLine
 10
-4.9809734904587275
 20
0.43577871373829224
 30
0.0
 11
-4.987820251299121
 21
0.34878236872062435
 31
0.0
  0
LINE
  5
13B
330
17
100
AcDbEntity
  8
Inner
100
AcDbLine
 10
-4.987820251299121
 20
0.34878236872062435
 30
0.0
 11
-4.993147673772869
 21
0.26167978121472246
 31
0.0
  0
LINE
  5
13C
330
17
100
AcDbEntity
  8
Inner
100
AcDbLine
 10
-4.993147673772869
 20
0.26167978121472246
 30
0.0
 11
-4.9969541350954785
 21
0.17449748351250471
 31
0.0
  0
LINE
  5
13D
330
17
100
AcDbEntity
  8
Inner
100
AcDbLine
 10
-4.9969541350954785
 20
0.17449748351250471
 30
0.0
 11
-4.999238475781956
 21
0.08726203218641397
 31
0.0
  0
LINE
  5
13E
330
17
100
AcDbEntity
  8
Inner
100
AcDbLine
 10
-4.999238475781956
 20
0.08726203218641397
 30
0.0
 11
-5.0
 21
1.8369701987210296e-15
 31
0.0
  0
LINE
  5
13F
330
17
100
AcDbEntity
  8
Inner
100
AcDbLine
 10
-5.0
 20
1.8369701987210296e-15
 30
0.0
 11
-4.999238475781956
 21
-0.08726203218641918
 31
0.0
  0
LINE
  5
140
330
17
100
AcDbEntity
  8
Inner
100
AcDbLine
 10
-4.999238475781956
 20
-0.08726203218641918
 30
0.0
 11
-4.9969541350954785
 21
-0.17449748351250102
 31
0.0
  0
LINE
  5
141
330
17
100
AcDbEntity
  8
Inner
100
AcDbLine
 10
-4.9969541350954785
 20
-0.17449748351250102
 30
0.0
 11
-4.993147673772869
 21
-0.2616797812147188
 31
0.0
  0
LINE
  5
142
330
17
100
AcDbEntity
  8
Inner
100
AcDbLine
 10
-4.993147673772869
 20
-0.2616797812147188
 30
0.0
 11
-4.987820251299121
 21
-0.34878236872062957
 31
0.0
  0
LINE
  5
143
330
17
100
AcDbEntity
  8
Inner
100
AcDbLine
 10
-4.987820251299121
 20
-0.34878236872062957
 30
0.0
 11
-4.9809734904587275
 21
-0.4357787137382885
 31
0.0
  0
LINE
  5
144
330
17
100
AcDbEntity
  8
Inner
100
AcDbLine
 10
-4.9809734904587275
 20
-0.4357787137382885
 30
0.0
 11
-4.972609476841367
 21
-0.5226423163382685
 31
0.0
  0
LINE
  5
145
330
17
100
AcDbEntity
  8
Inner
100
AcDbLine
 10
-4.972609476841367
 20
-0.5226423163382685
 30
0.0
 11
-4.962730758206611
 21
-0.6093467170257331
 31
0.0
  0
LINE
  5
146
330
17
100
AcDbEntity
  8
Inner
100
AcDbLine
 10
-4.962730758206611
 20
-0.6093467170257331
 30
0.0
 11
-4.951340343707852
 21
-0.6958655048003264
 31
0.0
  0
LINE
  5
147
330
17
100
AcDbEntity
  8
Inner
100
AcDbLine
 10
-4.951340343707852
 20
-0.6958655048003264
 30
0.0
 11
-4.938441702975688
 21
-0.7821723252011569
 31
0.0
  0
LINE
  5
148
330
17
100
AcDbEntity
  8
Inner
100
AcDbLine
 10
-4.938441702975688
 20
-0.7821723252011569
 30
0.0
 11
-4.924038765061041
 21
-0.8682408883346489
 31
0.0
  0
LINE
  5
149
330
17
100
AcDbEntity
  8
Inner
100
AcDbLine
 10
-4.924038765061041
 20
-0.8682408883346489
 30
0.0
 11
-4.90813591723832
 21
-0.9540449768827246
 31
0.0
  0
LINE
  5
14A
330
17
100
AcDbEntity
  8
Inner
100
AcDbLine
 10
-4.90813591723832
 20
-0.9540449768827246
 30
0.0
 11
-4.890738003669029
 21
-1.0395584540887919
 31
0.0
  0
LINE
  5
14B
330
17
100
AcDbEntity
  8
Inner
100
AcDbLine
 10
-4.890738003669029
 20
-1.0395584540887919
 30
0.0
 11
-4.871850323926176
 21
-1.1247552717193237
 31
0.0
  0
LINE
  5
14C
330
17
100
AcDbEntity
  8
Inner
100
AcDbLine
 10
-4.871850323926176
 20
-1.1247552717193237
 30
0.0
 11
-4.851478631379981
 21
-1.2096094779983406
 31
0.0
  0
LINE
  5
14D
330
17
100
AcDbEntity
  8
Inner
100
AcDbLine
 10
-4.851478631379981
 20
-1.2096094779983406
 30
0.0
 11
-4.829629131445342
 21
-1.2940952255126006
 31
0.0
  0
LINE
  5
14E
330
17
100
AcDbEntity
  8
Inner
100
AcDbLine
 10
-4.829629131445342
 20
-1.2940952255126006
 30
0.0
 11
-4.8063084796915945
 21
-1.378186779084996
 31
0.0
  0
LINE
  5
14F
330
17
100
AcDbEntity
  8
Inner
100
AcDbLine
 10
-4.8063084796915945
 20
-1.378186779084996
 30
0.0
 11
-4.781523779815177
 21
-1.461858523613687
 31
0.0
  0
LINE
  5
150
330
17
100
AcDbEntity
  8
Inner
100
AcDbLine
 10
-4.781523779815177
 20
-1.461858523613687
 30
0.0
 11
-4.755282581475768
 21
-1.5450849718747353
 31
0.0
  0
LINE
  5
151
330
17
100
AcDbEntity
  8
Inner
100
AcDbLine
 10
-4.755282581475768
 20
-1.5450849718747353
 30
0.0
 11
-4.7275928779965835
 21
-1.6278407722857848
 31
0.0
  0
LINE
  5
152
330
17
100
AcDbEntity
  8
Inner
100
AcDbLine
 10
-4.7275928779965835
 20
-1.6278407722857848
 30
0.0
 11
-4.6984631039295435
 21
-1.71010071662834
 31
0.0
  0
LINE
  5
153
330
17
100
AcDbEntity
  8
Inner
100
AcDbLine
 10
-4.6984631039295435
 20
-1.71010071662834
 30
0.0
 11
-4.667902132486009
 21
-1.7918397477265011
 31
0.0
  0
LINE
  5
154
330
17
100
AcDbEntity
  8
Inner
100
AcDbLine
 10
-4.667902132486009
 20
-1.7918397477265011
 30
0.0
 11
-4.635919272833936
 21
-1.873032967079563
 31
0.0
  0
LINE
  5
155
330
17
100
AcDbEntity
  8
Inner
100
AcDbLine
 10
-4.635919272833936
 20
-1.873032967079563
 30
0.0
 11
-4.602524267262202
 21
-1.9536556424463667
 31
0.0
  0
LINE
  5
156
330
17
100
AcDbEntity
  8
Inner
100
AcDbLine
 10
-4.602524267262202
 20
-1.9536556424463667
 30
0.0
 11
-4.567727288213003
 21
-2.0336832153790017
 31
0.0
  0
LINE
  5
157
330
17
100
AcDbEntity
  8
Inner
100
AcDbLine
 10
-4.567727288213003
 20
-2.0336832153790017
 30
0.0
 11
-4.531538935183252
 21
-2.1130913087034933
 31
0.0
  0
LINE
  5
158
330
17
100
AcDbEntity
  8
Inner
100
AcDbLine
 10
-4.531538935183252
 20
-2.1130913087034933
 30
0.0
 11
-4.493970231495835
 21
-2.191855733945386
 31
0.0
  0
LINE
  5
159
330
17
100
AcDbEntity
  8
Inner
100
AcDbLine
 10
-4.493970231495835
 20
-2.191855733945386
 30
0.0
 11
-4.4550326209418385
 21
-2.2699524986977364
 31
0.0
  0
LINE
  5
15A
330
17
100
AcDbEntity
  8
Inner
100
AcDbLine
 10
-4.4550326209418385
 20
-2.2699524986977364
 30
0.0
 11
-4.414737964294636
 21
-2.347357813929451
 31
0.0
  0
LINE
  5
15B
330
17
100
AcDbEntity
  8
Inner
100
AcDbLine
 10
-4.414737964294636
 20
-2.347357813929451
 30
0.0
 11
-4.373098535696979
 21
-2.4240481012316857
 31
0.0
  0
LINE
  5
15C
330
17
100
AcDbEntity
  8
Inner
100
AcDbLine
 10
-4.373098535696979
 20
-2.4240481012316857
 30
0.0
 11
-4.330127018922195
 21
-2.499999999999996
 31
0.0
  0
LINE
  5
15D
330
17
100
AcDbEntity
  8
Inner
100
AcDbLine
 10
-4.330127018922195
 20
-2.499999999999996
 30
0.0
 11
-4.285836503510562
 21
-2.5751903745502696
 31
0.0
  0
LINE
  5
15E
330
17
100
AcDbEntity
  8
Inner
100
AcDbLine
 10
-4.285836503510562
 20
-2.5751903745502696
 30
0.0
 11
-4.240240480782129
 21
-2.649596321166027
 31
0.0
  0
LINE
  5
15F
330
17
100
AcDbEntity
  8
Inner
100
AcDbLine
 10
-4.240240480782129
 20
-2.649596321166027
 30
0.0
 11
-4.193352839727122
 21
-2.7231951750751326
 31
0.0
  0
LINE
  5
160
330
17
100
AcDbEntity
  8
Inner
100
AcDbLine
 10
-4.193352839727122
 20
-2.7231951750751326
 30
0.0
 11
-4.145187862775209
 21
-2.7959645173537337
 31
0.0
  0
LINE
  5
161
330
17
100
AcDbEntity
  8
Inner
100
AcDbLine
 10
-4.145187862775209
 20
-2.7959645173537337
 30
0.0
 11
-4.095760221444957
 21
-2.867882181755234
 31
0.0
  0
LINE
  5
162
330
17
100
AcDbEntity
  8
Inner
100
AcDbLine
 10
-4.095760221444957
 20
-2.867882181755234
 30
0.0
 11
-4.045084971874738
 21
-2.938926261462364
 31
0.0
  0
LINE
  5
163
330
17
100
AcDbEntity
  8
Inner
100
AcDbLine
 10
-4.045084971874738
 20
-2.938926261462364
 30
0.0
 11
-3.9931775502364637
 21
-3.0090751157602424
 31
0.0
  0
LINE
  5
164
330
17
100
AcDbEntity
  8
Inner
100
AcDbLine
 10
-3.9931775502364637
 20
-3.0090751157602424
 30
0.0
 11
-3.9400537680336125
 21
-3.0783073766282882
 31
0.0
  0
LINE
  5
165
330
17
100
AcDbEntity
  8
Inner
100
AcDbLine
 10
-3.9400537680336125
 20
-3.0783073766282882
 30
0.0
 11
-3.8857298072848545
 21
-3.146601955249187
 31
0.0
  0
LINE
  5
166
330
17
100
AcDbEntity
  8
Inner
100
AcDbLine
 10
-3.8857298072848545
 20
-3.146601955249187
 30
0.0
 11
-3.8302222155948886
 21
-3.213938048432699
 31
0.0
  0
LINE
  5
167
330
17
100
AcDbEntity
  8
Inner
100
AcDbLine
 10
-3.8302222155948886
 20
-3.213938048432699
 30
0.0
 11
-3.7735479011138615
 21
-3.2802951449525346
 31
0.0
  0
LINE
  5
168
330
17
100
AcDbEntity
  8
Inner
100
AcDbLine
 10
-3.7735479011138615
 20
-3.2802951449525346
 30
0.0
 11
-3.7157241273869706
 21
-3.3456530317942916
 31
0.0
  0
LINE
  5
169
330
17
100
AcDbEntity
  8
Inner
100
AcDbLine
 10
-3.7157241273869706
 20
-3.3456530317942916
 30
0.0
 11
-3.6567685080958556
 21
-3.409991800312489
 31
0.0
  0
LINE
  5
16A
330
17
100
AcDbEntity
  8
Inner
100
AcDbLine
 10
-3.6567685080958556
 20
-3.409991800312489
 30
0.0
 11
-3.5966990016932563
 21
-3.473291852294986
 31
0.0
  0
LINE
  5
16B
330
17
100
AcDbEntity
  8
Inner
100
AcDbLine
 10
-3.5966990016932563
 20
-3.473291852294986
 30
0.0
 11
-3.5355339059327355
 21
-3.5355339059327395
 31
0.0
  0
LINE
  5
16C
330
17
100
AcDbEntity
  8
Inner
100
AcDbLine
 10
-3.5355339059327355
 20
-3.5355339059327395
 30
0.0
 11
-3.4732918522949885
 21
-3.5966990016932536
 31
0.0
  0
LINE
  5
16D
330
17
100
AcDbEntity
  8
Inner
100
AcDbLine
 10
-3.4732918522949885
 20
-3.5966990016932536
 30
0.0
 11
-3.4099918003124925
 21
-3.656768508095853
 31
0.0
  0
LINE
  5
16E
330
17
100
AcDbEntity
  8
Inner
100
AcDbLine
 10
-3.4099918003124925
 20
-3.656768508095853
 30
0.0
 11
-3.3456530317942947
 21
-3.715724127386968
 31
0.0
  0
LINE
  5
16F
330
17
100
AcDbEntity
  8
Inner
100
AcDbLine
 10
-3.3456530317942947
 20
-3.715724127386968
 30
0.0
 11
-3.2802951449525377
 21
-3.773547901113859
 31
0.0
  0
LINE
  5
170
330
17
100
AcDbEntity
  8
Inner
100
AcDbLine
 10
-3.2802951449525377
 20
-3.773547901113859
 30
0.0
 11
-3.213938048432695
 21
-3.8302222155948913
 31
0.0
  0
LINE
  5
171
330
17
100
AcDbEntity
  8
Inner
100
AcDbLine
 10
-3.213938048432695
 20
-3.8302222155948913
 30
0.0
 11
-3.1466019552491895
 21
-3.8857298072848523
 31
0.0
  0
LINE
  5
172
330
17
100
AcDbEntity
  8
Inner
100
AcDbLine
 10
-3.1466019552491895
 20
-3.8857298072848523
 30
0.0
 11
-3.0783073766282913
 21
-3.9400537680336094
 31
0.0
  0
LINE
  5
173
330
17
100
AcDbEntity
  8
Inner
100
AcDbLine
 10
-3.0783073766282913
 20
-3.9400537680336094
 30
0.0
 11
-3.0090751157602385
 21
-3.9931775502364664
 31
0.0
  0
LINE
  5
174
330
17
100
AcDbEntity
  8
Inner
100
AcDbLine
 10
-3.0090751157602385
 20
-3.9931775502364664
 30
0.0
 11
-2.9389262614623672
 21
-4.045084971874736
 31
0.0
  0
LINE
  5
175
330
17
100
AcDbEntity
  8
Inner
100
AcDbLine
 10
-2.9389262614623672
 20
-4.045084971874736
 30
0.0
 11
-2.8678821817552294
 21
-4.0957602214449595
 31
0.0
  0
LINE
  5
176
330
17
100
AcDbEntity
  8
Inner
100
AcDbLine
 10
-2.8678821817552294
 20
-4.0957602214449595
 30
0.0
 11
-2.7959645173537373
 21
-4.145187862775207
 31
0.0
  0
LINE
  5
177
330
17
100
AcDbEntity
  8
Inner
100
AcDbLine
 10
-2.7959645173537373
 20
-4.145187862775207
 30
0.0
 11
-2.723195175075136
 21
-4.19335283972712
 31
0.0
  0
LINE
  5
178
330
17
100
AcDbEntity
  8
Inner
100
AcDbLine
 10
-2.723195175075136
 20
-4.19335283972712
 30
0.0
 11
-2.6495963211660225
 21
-4.2402404807821314
 31
0.0
  0
LINE
  5
179
330
17
100
AcDbEntity
  8
Inner
100
AcDbLine
 10
-2.6495963211660225
 20
-4.2402404807821314
 30
0.0
 11
-2.575190374550273
 21
-4.28583650351056
 31
0.0
  0
LINE
  5
17A
330
17
100
AcDbEntity
  8
Inner
100
AcDbLine
 10
-2.575190374550273
 20
-4.28583650351056
 30
0.0
 11
-2.499999999999999
 21
-4.330127018922194
 31
0.0
  0
LINE
  5
17B
330
17
100
AcDbEntity
  8
Inner
100
AcDbLine
 10
-2.499999999999999
 20
-4.330127018922194
 30
0.0
 11
-2.4240481012316892
 21
-4.373098535696977
 31
0.0
  0
LINE
  5
17C
330
17
100
AcDbEntity
  8
Inner
100
AcDbLine
 10
-2.4240481012316892
 20
-4.373098535696977
 30
0.0
 11
-2.347357813929455
 21
-4.414737964294634
 31
0.0
  0
LINE
  5
17D
330
17
100
AcDbEntity
  8
Inner
100
AcDbLine
 10
-2.347357813929455
 20
-4.414737964294634
 30
0.0
 11
-2.269952498697732
 21
-4.45503262094184
 31
0.0
  0
LINE
  5
17E
330
17
100
AcDbEntity
  8
Inner
100
AcDbLine
 10
-2.269952498697732
 20
-4.45503262094184
 30
0.0
 11
-2.1918557339453897
 21
-4.493970231495833
 31
0.0
  0
LINE
  5
17F
330
17
100
AcDbEntity
  8
Inner
100
AcDbLine
 10
-2.1918557339453897
 20
-4.493970231495833
 30
0.0
 11
-2.113091308703497
 21
-4.53153893518325
 31
0.0
  0
LINE
  5
180
330
17
100
AcDbEntity
  8
Inner
100
AcDbLine
 10
-2.113091308703497
 20
-4.53153893518325
 30
0.0
 11
-2.0336832153790056
 21
-4.5677272882130024
 31
0.0
  0
LINE
  5
181
330
17
100
AcDbEntity
  8
Inner
100
AcDbLine
 10
-2.0336832153790056
 20
-4.5677272882130024
 30
0.0
 11
-1.9536556424463702
 21
-4.602524267262201
 31
0.0
  0
LINE
  5
182
330
17
100
AcDbEntity
  8
Inner
100
AcDbLine
 10
-1.9536556424463702
 20
-4.602524267262201
 30
0.0
 11
-1.8730329670795585
 21
-4.635919272833938
 31
0.0
  0
LINE
  5
183
330
17
100
AcDbEntity
  8
Inner
100
AcDbLine
 10
-1.8730329670795585
 20
-4.635919272833938
 30
0.0
 11
-1.7918397477265047
 21
-4.667902132486008
 31
0.0
  0
LINE
  5
184
330
17
100
AcDbEntity
  8
Inner
100
AcDbLine
 10
-1.7918397477265047
 20
-4.667902132486008
 30
0.0
 11
-1.710100716628344
 21
-4.698463103929543
 31
0.0
  0
LINE
  5
185
330
17
100
AcDbEntity
  8
Inner
100
AcDbLine
 10
-1.710100716628344
 20
-4.698463103929543
 30
0.0
 11
-1.6278407722857802
 21
-4.727592877996585
 31
0.0
  0
LINE
  5
186
330
17
100
AcDbEntity
  8
Inner
100
AcDbLine
 10
-1.6278407722857802
 20
-4.727592877996585
 30
0.0
 11
-1.5450849718747393
 21
-4.755282581475767
 31
0.0
  0
LINE
  5
187
330
17
100
AcDbEntity
  8
Inner
100
AcDbLine
 10
-1.5450849718747393
 20
-4.755282581475767
 30
0.0
 11
-1.4618585236136825
 21
-4.781523779815178
 31
0.0
  0
LINE
  5
188
330
17
100
AcDbEntity
  8
Inner
100
AcDbLine
 10
-1.4618585236136825
 20
-4.781523779815178
 30
0.0
 11
-1.3781867790849998
 21
-4.806308479691594
 31
0.0
  0
LINE
  5
189
330
17
100
AcDbEntity
  8
Inner
100
AcDbLine
 10
-1.3781867790849998
 20
-4.806308479691594
 30
0.0
 11
-1.2940952255126046
 21
-4.829629131445341
 31
0.0
  0
LINE
  5
18A
330
17
100
AcDbEntity
  8
Inner
100
AcDbLine
 10
-1.2940952255126046
 20
-4.829629131445341
 30
0.0
 11
-1.209609477998336
 21
-4.851478631379983
 31
0.0
  0
LINE
  5
18B
330
17
100
AcDbEntity
  8
Inner
100
AcDbLine
 10
-1.209609477998336
 20
-4.851478631379983
 30
0.0
 11
-1.1247552717193274
 21
-4.871850323926176
 31
0.0
  0
LINE
  5
18C
330
17
100
AcDbEntity
  8
Inner
100
AcDbLine
 10
-1.1247552717193274
 20
-4.871850323926176
 30
0.0
 11
-1.0395584540887959
 21
-4.8907380036690284
 31
0.0
  0
LINE
  5
18D
330
17
100
AcDbEntity
  8
Inner
100
AcDbLine
 10
-1.0395584540887959
 20
-4.8907380036690284
 30
0.0
 11
-0.9540449768827286
 21
-4.908135917238319
 31
0.0
  0
LINE
  5
18E
330
17
100
AcDbEntity
  8
Inner
100
AcDbLine
 10
-0.9540449768827286
 20
-4.908135917238319
 30
0.0
 11
-0.8682408883346528
 21
-4.92403876506104
 31
0.0
  0
LINE
  5
18F
330
17
100
AcDbEntity
  8
Inner
100
AcDbLine
 10
-0.8682408883346528
 20
-4.92403876506104
 30
0.0
 11
-0.782172325201152
 21
-4.938441702975689
 31
0.0
  0
LINE
  5
190
330
17
100
AcDbEntity
  8
Inner
100
AcDbLine
 10
-0.782172325201152
 20
-4.938441702975689
 30
0.0
 11
-0.6958655048003303
 21
-4.951340343707852
 31
0.0
  0
LINE
  5
191
330
17
100
AcDbEntity
  8
Inner
100
AcDbLine
 10
-0.6958655048003303
 20
-4.951340343707852
 30
0.0
 11
-0.6093467170257371
 21
-4.962730758206611
 31
0.0
  0
LINE
  5
192
330
17
100
AcDbEntity
  8
Inner
100
AcDbLine
 10
-0.6093467170257371
 20
-4.962730758206611
 30
0.0
 11
-0.5226423163382724
 21
-4.972609476841366
 31
0.0
  0
LINE
  5
193
330
17
100
AcDbEntity
  8
Inner
100
AcDbLine
 10
-0.5226423163382724
 20
-4.972609476841366
 30
0.0
 11
-0.43577871373829247
 21
-4.9809734904587275
 31
0.0
  0
LINE
  5
194
330
17
100
AcDbEntity
  8
Inner
100
AcDbLine
 10
-0.43577871373829247
 20
-4.9809734904587275
 30
0.0
 11
-0.34878236872062474
 21
-4.987820251299121
 31
0.0
  0
LINE
  5
195
330
17
100
AcDbEntity
  8
Inner
100
AcDbLine
 10
-0.34878236872062474
 20
-4.987820251299121
 30
0.0
 11
-0.2616797812147228
 21
-4.993147673772869
 31
0.0
  0
LINE
  5
196
330
17
100
AcDbEntity
  8
Inner
100
AcDbLine
 10
-0.2616797812147228
 20
-4.993147673772869
 30
0.0
 11
-0.17449748351250502
 21
-4.9969541350954785
 31
0.0
  0
LINE
  5
197
330
17
100
AcDbEntity
  8
Inner
100
AcDbLine
 10
-0.17449748351250502
 20
-4.9969541350954785
 30
0.0
 11
-0.08726203218641428
 21
-4.999238475781956
 31
0.0
  0
LINE
  5
198
330
17
100
AcDbEntity
  8
Inner
100
AcDbLine
 10
-0.08726203218641428
 20
-4.999238475781956
 30
0.0
 11
-2.1431318985078682e-15
 21
-5.0
 31
0.0
  0
LINE
  5
199
330
17
100
AcDbEntity
  8
Inner
100
AcDbLine
 10
-2.1431318985078682e-15
 20
-5.0
 30
0.0
 11
0.08726203218641887
 21
-4.999238475781956
 31
0.0
  0
LINE
  5
19A
330
17
100
AcDbEntity
  8
Inner
100
AcDbLine
 10
0.08726203218641887
 20
-4.999238475781956
 30
0.0
 11
0.17449748351250075
 21
-4.9969541350954785
 31
0.0
  0
LINE
  5
19B
330
17
100
AcDbEntity
  8
Inner
100
AcDbLine
 10
0.17449748351250075
 20
-4.9969541350954785
 30
0.0
 11
0.26167978121471847
 21
-4.993147673772869
 31
0.0
  0
LINE
  5
19C
330
17
100
AcDbEntity
  8
Inner
100
AcDbLine
 10
0.26167978121471847
 20
-4.993147673772869
 30
0.0
 11
0.3487823687206293
 21
-4.987820251299121
 31
0.0
  0
LINE
  5
19D
330
17
100
AcDbEntity
  8
Inner
100
AcDbLine
 10
0.3487823687206293
 20
-4.987820251299121
 30
0.0
 11
0.4357787137382882
 21
-4.9809734904587275
 31
0.0
  0
LINE
  5
19E
330
17
100
AcDbEntity
  8
Inner
100
AcDbLine
 10
0.4357787137382882
 20
-4.9809734904587275
 30
0.0
 11
0.5226423163382681
 21
-4.972609476841367
 31
0.0
  0
LINE
  5
19F
330
17
100
AcDbEntity
  8
Inner
100
AcDbLine
 10
0.5226423163382681
 20
-4.972609476841367
 30
0.0
 11
0.6093467170257328
 21
-4.962730758206611
 31
0.0
  0
LINE
  5
1A0
330
17
100
AcDbEntity
  8
Inner
100
AcDbLine
 10
0.6093467170257328
 20
-4.962730758206611
 30
0.0
 11
0.695865504800326
 21
-4.951340343707852
 31
0.0
  0
LINE
  5
1A1
330
17
100
AcDbEntity
  8
Inner
100
AcDbLine
 10
0.695865504800326
 20
-4.951340343707852
 30
0.0
 11
0.7821723252011565
 21
-4.938441702975688
 31
0.0
  0
LINE
  5
1A2
330
17
100
AcDbEntity
  8
Inner
100
AcDbLine
 10
0.7821723252011565
 20
-4.938441702975688
 30
0.0
 11
0.8682408883346486
 21
-4.924038765061041
 31
0.0
  0
LINE
  5
1A3
330
17
100
AcDbEntity
  8
Inner
100
AcDbLine
 10
0.8682408883346486
 20
-4.924038765061041
 30
0.0
 11
0.9540449768827243
 21
-4.90813591723832
 31
0.0
  0
LINE
  5
1A4
330
17
100
AcDbEntity
  8
Inner
100
AcDbLine
 10
0.9540449768827243
 20
-4.90813591723832
 30
0.0
 11
1.0395584540887917
 21
-4.890738003669029
 31
0.0
  0
LINE
  5
1A5
330
17
100
AcDbEntity
  8
Inner
100
AcDbLine
 10
1.0395584540887917
 20
-4.890738003669029
 30
0.0
 11
1.1247552717193234
 21
-4.871850323926177
 31
0.0
  0
LINE
  5
1A6
330
17
100
AcDbEntity
  8
Inner
100
AcDbLine
 10
1.1247552717193234
 20
-4.871850323926177
 30
0.0
 11
1.2096094779983404
 21
-4.851478631379981
 31
0.0
  0
LINE
  5
1A7
330
17
100
AcDbEntity
  8
Inner
100
AcDbLine
 10
1.2096094779983404
 20
-4.851478631379981
 30
0.0
 11
1.2940952255126004
 21
-4.829629131445342
 31
0.0
  0
LINE
  5
1A8
330
17
100
AcDbEntity
  8
Inner
100
AcDbLine
 10
1.2940952255126004
 20
-4.829629131445342
 30
0.0
 11
1.3781867790849958
 21
-4.8063084796915945
 31
0.0
  0
LINE
  5
1A9
330
17
100
AcDbEntity
  8
Inner
100
AcDbLine
 10
1.3781867790849958
 20
-4.8063084796915945
 30
0.0
 11
1.4618585236136865
 21
-4.781523779815177
 31
0.0
  0
LINE
  5
1AA
330
17
100
AcDbEntity
  8
Inner
100
AcDbLine
 10
1.4618585236136865
 20
-4.781523779815177
 30
0.0
 11
1.545084971874735
 21
-4.755282581475769
 31
0.0
  0
LINE
  5
1AB
330
17
100
AcDbEntity
  8
Inner
100
AcDbLine
 10
1.545084971874735
 20
-4.755282581475769
 30
0.0
 11
1.6278407722857846
 21
-4.7275928779965835
 31
0.0
  0
LINE
  5
1AC
330
17
100
AcDbEntity
  8
Inner
100
AcDbLine
 10
1.6278407722857846
 20
-4.7275928779965835
 30
0.0
 11
1.7101007166283397
 21
-4.6984631039295435
 31
0.0
  0
LINE
  5
1AD
330
17
100
AcDbEntity
  8
Inner
100
AcDbLine
 10
1.7101007166283397
 20
-4.6984631039295435
 30
0.0
 11
1.7918397477265007
 21
-4.6679021324860095
 31
0.0
  0
LINE
  5
1AE
330
17
100
AcDbEntity
  8
Inner
100
AcDbLine
 10
1.7918397477265007
 20
-4.6679021324860095
 30
0.0
 11
1.8730329670795625
 21
-4.635919272833936
 31
0.0
  0
LINE
  5
1AF
330
17
100
AcDbEntity
  8
Inner
100
AcDbLine
 10
1.8730329670795625
 20
-4.635919272833936
 30
0.0
 11
1.9536556424463662
 21
-4.602524267262202
 31
0.0
  0
LINE
  5
1B0
330
17
100
AcDbEntity
  8
Inner
100
AcDbLine
 10
1.9536556424463662
 20
-4.602524267262202
 30
0.0
 11
2.0336832153790017
 21
-4.567727288213004
 31
0.0
  0
LINE
  5
1B1
330
17
100
AcDbEntity
  8
Inner
100
AcDbLine
 10
2.0336832153790017
 20
-4.567727288213004
 30
0.0
 11
2.113091308703493
 21
-4.531538935183252
 31
0.0
  0
LINE
  5
1B2
330
17
100
AcDbEntity
  8
Inner
100
AcDbLine
 10
2.113091308703493
 20
-4.531538935183252
 30
0.0
 11
2.1918557339453857
 21
-4.493970231495836
 31
0.0
  0
LINE
  5
1B3
330
17
100
AcDbEntity
  8
Inner
100
AcDbLine
 10
2.1918557339453857
 20
-4.493970231495836
 30
0.0
 11
2.269952498697736
 21
-4.4550326209418385
 31
0.0
  0
LINE
  5
1B4
330
17
100
AcDbEntity
  8
Inner
100
AcDbLine
 10
2.269952498697736
 20
-4.4550326209418385
 30
0.0
 11
2.347357813929451
 21
-4.414737964294636
 31
0.0
  0
LINE
  5
1B5
330
17
100
AcDbEntity
  8
Inner
100
AcDbLine
 10
2.347357813929451
 20
-4.414737964294636
 30
0.0
 11
2.4240481012316852
 21
-4.373098535696979
 31
0.0
  0
LINE
  5
1B6
330
17
100
AcDbEntity
  8
Inner
100
AcDbLine
 10
2.4240481012316852
 20
-4.373098535696979
 30
0.0
 11
2.4999999999999956
 21
-4.330127018922195
 31
0.0
  0
LINE
  5
1B7
330
17
100
AcDbEntity
  8
Inner
100
AcDbLine
 10
2.4999999999999956
 20
-4.330127018922195
 30
0.0
 11
2.5751903745502696
 21
-4.285836503510562
 31
0.0
  0
LINE
  5
1B8
330
17
100
AcDbEntity
  8
Inner
100
AcDbLine
 10
2.5751903745502696
 20
-4.285836503510562
 30
0.0
 11
2.649596321166026
 21
-4.240240480782129
 31
0.0
  0
LINE
  5
1B9
330
17
100
AcDbEntity
  8
Inner
100
AcDbLine
 10
2.649596321166026
 20
-4.240240480782129
 30
0.0
 11
2.723195175075132
 21
-4.193352839727122
 31
0.0
  0
LINE
  5
1BA
330
17
100
AcDbEntity
  8
Inner
100
AcDbLine
 10
2.723195175075132
 20
-4.193352839727122
 30
0.0
 11
2.7959645173537337
 21
-4.145187862775209
 31
0.0
  0
LINE
  5
1BB
330
17
100
AcDbEntity
  8
Inner
100
AcDbLine
 10
2.7959645173537337
 20
-4.145187862775209
 30
0.0
 11
2.867882181755233
 21
-4.095760221444957
 31
0.0
  0
LINE
  5
1BC
330
17
100
AcDbEntity
  8
Inner
100
AcDbLine
 10
2.867882181755233
 20
-4.095760221444957
 30
0.0
 11
2.938926261462364
 21
-4.045084971874738
 31
0.0
  0
LINE
  5
1BD
330
17
100
AcDbEntity
  8
Inner
100
AcDbLine
 10
2.938926261462364
 20
-4.045084971874738
 30
0.0
 11
3.0090751157602424
 21
-3.9931775502364637
 31
0.0
  0
LINE
  5
1BE
330
17
100
AcDbEntity
  8
Inner
100
AcDbLine
 10
3.0090751157602424
 20
-3.9931775502364637
 30
0.0
 11
3.0783073766282882
 21
-3.9400537680336125
 31
0.0
  0
LINE
  5
1BF
330
17
100
AcDbEntity
  8
Inner
100
AcDbLine
 10
3.0783073766282882
 20
-3.9400537680336125
 30
0.0
 11
3.1466019552491864
 21
-3.885729807284855
 31
0.0
  0
LINE
  5
1C0
330
17
100
AcDbEntity
  8
Inner
100
AcDbLine
 10
3.1466019552491864
 20
-3.885729807284855
 30
0.0
 11
3.2139380484326985
 21
-3.8302222155948886
 31
0.0
  0
LINE
  5
1C1
330
17
100
AcDbEntity
  8
Inner
100
AcDbLine
 10
3.2139380484326985
 20
-3.8302222155948886
 30
0.0
 11
3.280295144952534
 21
-3.7735479011138615
 31
0.0
  0
LINE
  5
1C2
330
17
100
AcDbEntity
  8
Inner
100
AcDbLine
 10
3.280295144952534
 20
-3.7735479011138615
 30
0.0
 11
3.3456530317942916
 21
-3.7157241273869706
 31
0.0
  0
LINE
  5
1C3
330
17
100
AcDbEntity
  8
Inner
100
AcDbLine
 10
3.3456530317942916
 20
-3.7157241273869706
 30
0.0
 11
3.409991800312489
 21
-3.6567685080958556
 31
0.0
  0
LINE
  5
1C4
330
17
100
AcDbEntity
  8
Inner
100
AcDbLine
 10
3.409991800312489
 20
-3.6567685080958556
 30
0.0
 11
3.473291852294986
 21
-3.5966990016932563
 31
0.0
  0
LINE
  5
1C5
330
17
100
AcDbEntity
  8
Inner
100
AcDbLine
 10
3.473291852294986
 20
-3.5966990016932563
 30
0.0
 11
3.535533905932739
 21
-3.535533905932736
 31
0.0
  0
LINE
  5
1C6
330
17
100
AcDbEntity
  8
Inner
100
AcDbLine
 10
3.535533905932739
 20
-3.535533905932736
 30
0.0
 11
3.596699001693253
 21
-3.473291852294989
 31
0.0
  0
LINE
  5
1C7
330
17
100
AcDbEntity
  8
Inner
100
AcDbLine
 10
3.596699001693253
 20
-3.473291852294989
 30
0.0
 11
3.656768508095852
 21
-3.4099918003124925
 31
0.0
  0
LINE
  5
1C8
330
17
100
AcDbEntity
  8
Inner
100
AcDbLine
 10
3.656768508095852
 20
-3.4099918003124925
 30
0.0
 11
3.715724127386968
 21
-3.345653031794295
 31
0.0
  0
LINE
  5
1C9
330
17
100
AcDbEntity
  8
Inner
100
AcDbLine
 10
3.715724127386968
 20
-3.345653031794295
 30
0.0
 11
3.773547901113859
 21
-3.280295144952538
 31
0.0
  0
LINE
  5
1CA
330
17
100
AcDbEntity
  8
Inner
100
AcDbLine
 10
3.773547901113859
 20
-3.280295144952538
 30
0.0
 11
3.8302222155948913
 21
-3.213938048432695
 31
0.0
  0
LINE
  5
1CB
330
17
100
AcDbEntity
  8
Inner
100
AcDbLine
 10
3.8302222155948913
 20
-3.213938048432695
 30
0.0
 11
3.885729807284852
 21
-3.1466019552491904
 31
0.0
  0
LINE
  5
1CC
330
17
100
AcDbEntity
  8
Inner
100
AcDbLine
 10
3.885729807284852
 20
-3.1466019552491904
 30
0.0
 11
3.9400537680336094
 21
-3.0783073766282913
 31
0.0
  0
LINE
  5
1CD
330
17
100
AcDbEntity
  8
Inner
100
AcDbLine
 10
3.9400537680336094
 20
-3.0783073766282913
 30
0.0
 11
3.9931775502364664
 21
-3.009075115760239
 31
0.0
  0
LINE
  5
1CE
330
17
100
AcDbEntity
  8
Inner
100
AcDbLine
 10
3.9931775502364664
 20
-3.009075115760239
 30
0.0
 11
4.0450849718747355
 21
-2.9389262614623672
 31
0.0
  0
LINE
  5
1CF
330
17
100
AcDbEntity
  8
Inner
100
AcDbLine
 10
4.0450849718747355
 20
-2.9389262614623672
 30
0.0
 11
4.0957602214449595
 21
-2.86788218175523
 31
0.0
  0
LINE
  5
1D0
330
17
100
AcDbEntity
  8
Inner
100
AcDbLine
 10
4.0957602214449595
 20
-2.86788218175523
 30
0.0
 11
4.145187862775206
 21
-2.7959645173537377
 31
0.0
  0
LINE
  5
1D1
330
17
100
AcDbEntity
  8
Inner
100
AcDbLine
 10
4.145187862775206
 20
-2.7959645173537377
 30
0.0
 11
4.19335283972712
 21
-2.723195175075136
 31
0.0
  0
LINE
  5
1D2
330
17
100
AcDbEntity
  8
Inner
100
AcDbLine
 10
4.19335283972712
 20
-2.723195175075136
 30
0.0
 11
4.2402404807821314
 21
-2.649596321166023
 31
0.0
  0
LINE
  5
1D3
330
17
100
AcDbEntity
  8
Inner
100
AcDbLine
 10
4.2402404807821314
 20
-2.649596321166023
 30
0.0
 11
4.28583650351056
 21
-2.5751903745502736
 31
0.0
  0
LINE
  5
1D4
330
17
100
AcDbEntity
  8
Inner
100
AcDbLine
 10
4.28583650351056
 20
-2.5751903745502736
 30
0.0
 11
4.330127018922194
 21
-2.4999999999999996
 31
0.0
  0
LINE
  5
1D5
330
17
100
AcDbEntity
  8
Inner
100
AcDbLine
 10
4.330127018922194
 20
-2.4999999999999996
 30
0.0
 11
4.373098535696976
 21
-2.4240481012316897
 31
0.0
  0
LINE
  5
1D6
330
17
100
AcDbEntity
  8
Inner
100
AcDbLine
 10
4.373098535696976
 20
-2.4240481012316897
 30
0.0
 11
4.414737964294634
 21
-2.347357813929455
 31
0.0
  0
LINE
  5
1D7
330
17
100
AcDbEntity
  8
Inner
100
AcDbLine
 10
4.414737964294634
 20
-2.347357813929455
 30
0.0
 11
4.45503262094184
 21
-2.269952498697732
 31
0.0
  0
LINE
  5
1D8
330
17
100
AcDbEntity
  8
Inner
100
AcDbLine
 10
4.45503262094184
 20
-2.269952498697732
 30
0.0
 11
4.493970231495833
 21
-2.19185573394539
 31
0.0
  0
LINE
  5
1D9
330
17
100
AcDbEntity
  8
Inner
100
AcDbLine
 10
4.493970231495833
 20
-2.19185573394539
 30
0.0
 11
4.531538935183249
 21
-2.1130913087034973
 31
0.0
  0
LINE
  5
1DA
330
17
100
AcDbEntity
  8
Inner
100
AcDbLine
 10
4.531538935183249
 20
-2.1130913087034973
 30
0.0
 11
4.5677272882130024
 21
-2.033683215379006
 31
0.0
  0
LINE
  5
1DB
330
17
100
AcDbEntity
  8
Inner
100
AcDbLine
 10
4.5677272882130024
 20
-2.033683215379006
 30
0.0
 11
4.602524267262201
 21
-1.9536556424463705
 31
0.0
  0
LINE
  5
1DC
330
17
100
AcDbEntity
  8
Inner
100
AcDbLine
 10
4.602524267262201
 20
-1.9536556424463705
 30
0.0
 11
4.635919272833938
 21
-1.8730329670795587
 31
0.0
  0
LINE
  5
1DD
330
17
100
AcDbEntity
  8
Inner
100
AcDbLine
 10
4.635919272833938
 20
-1.8730329670795587
 30
0.0
 11
4.667902132486008
 21
-1.791839747726505
 31
0.0
  0
LINE
  5
1DE
330
17
100
AcDbEntity
  8
Inner
100
AcDbLine
 10
4.667902132486008
 20
-1.791839747726505
 30
0.0
 11
4.698463103929542
 21
-1.7101007166283442
 31
0.0
  0
LINE
  5
1DF
330
17
100
AcDbEntity
  8
Inner
100
AcDbLine
 10
4.698463103929542
 20
-1.7101007166283442
 30
0.0
 11
4.727592877996585
 21
-1.6278407722857804
 31
0.0
  0
LINE
  5
1E0
330
17
100
AcDbEntity
  8
Inner
100
AcDbLine
 10
4.727592877996585
 20
-1.6278407722857804
 30
0.0
 11
4.755282581475767
 21
-1.5450849718747395
 31
0.0
  0
LINE
  5
1E1
330
17
100
AcDbEntity
  8
Inner
100
AcDbLine
 10
4.755282581475767
 20
-1.5450849718747395
 30
0.0
 11
4.781523779815178
 21
-1.4618585236136827
 31
0.0
  0
LINE
  5
1E2
330
17
100
AcDbEntity
  8
Inner
100
AcDbLine
 10
4.781523779815178
 20
-1.4618585236136827
 30
0.0
 11
4.806308479691594
 21
-1.3781867790850002
 31
0.0
  0
LINE
  5
1E3
330
17
100
AcDbEntity
  8
Inner
100
AcDbLine
 10
4.806308479691594
 20
-1.3781867790850002
 30
0.0
 11
4.829629131445341
 21
-1.2940952255126048
 31
0.0
  0
LINE
  5
1E4
330
17
100
AcDbEntity
  8
Inner
100
AcDbLine
 10
4.829629131445341
 20
-1.2940952255126048
 30
0.0
 11
4.851478631379983
 21
-1.2096094779983362
 31
0.0
  0
LINE
  5
1E5
330
17
100
AcDbEntity
  8
Inner
100
AcDbLine
 10
4.851478631379983
 20
-1.2096094779983362
 30
0.0
 11
4.871850323926176
 21
-1.1247552717193279
 31
0.0
  0
LINE
  5
1E6
330
17
100
AcDbEntity
  8
Inner
100
AcDbLine
 10
4.871850323926176
 20
-1.1247552717193279
 30
0.0
 11
4.8907380036690284
 21
-1.039558454088796
 31
0.0
  0
LINE
  5
1E7
330
17
100
AcDbEntity
  8
Inner
100
AcDbLine
 10
4.8907380036690284
 20
-1.039558454088796
 30
0.0
 11
4.908135917238319
 21
-0.9540449768827288
 31
0.0
  0
LINE
  5
1E8
330
17
100
AcDbEntity
  8
Inner
100
AcDbLine
 10
4.908135917238319
 20
-0.9540449768827288
 30
0.0
 11
4.92403876506104
 21
-0.8682408883346532
 31
0.0
  0
LINE
  5
1E9
330
17
100
AcDbEntity
  8
Inner
100
AcDbLine
 10
4.92403876506104
 20
-0.8682408883346532
 30
0.0
 11
4.938441702975689
 21
-0.7821723252011524
 31
0.0
  0
LINE
  5
1EA
330
17
100
AcDbEntity
  8
Inner
100
AcDbLine
 10
4.938441702975689
 20
-0.7821723252011524
 30
0.0
 11
4.951340343707852
 21
-0.6958655048003306
 31
0.0
  0
LINE
  5
1EB
330
17
100
AcDbEntity
  8
Inner
100
AcDbLine
 10
4.951340343707852
 20
-0.6958655048003306
 30
0.0
 11
4.96273075820661
 21
-0.6093467170257374
 31
0.0
  0
LINE
  5
1EC
330
17
100
AcDbEntity
  8
Inner
100
AcDbLine
 10
4.96273075820661
 20
-0.6093467170257374
 30
0.0
 11
4.972609476841366
 21
-0.5226423163382727
 31
0.0
  0
LINE
  5
1ED
330
17
100
AcDbEntity
  8
Inner
100
AcDbLine
 10
4.972609476841366
 20
-0.5226423163382727
 30
0.0
 11
4.9809734904587275
 21
-0.4357787137382928
 31
0.0
  0
LINE
  5
1EE
330
17
100
AcDbEntity
  8
Inner
100
AcDbLine
 10
4.9809734904587275
 20
-0.4357787137382928
 30
0.0
 11
4.987820251299121
 21
-0.34878236872062496
 31
0.0
  0
LINE
  5
1EF
330
17
100
AcDbEntity
  8
Inner
100
AcDbLine
 10
4.987820251299121
 20
-0.34878236872062496
 30
0.0
 11
4.993147673772869
 21
-0.2616797812147231
 31
0.0
  0
LINE
  5
1F0
330
17
100
AcDbEntity
  8
Inner
100
AcDbLine
 10
4.993147673772869
 20
-0.2616797812147231
 30
0.0
 11
4.9969541350954785
 21
-0.17449748351250532
 31
0.0
  0
LINE
  5
1F1
330
17
100
AcDbEntity
  8
Inner
100
AcDbLine
 10
4.9969541350954785
 20
-0.17449748351250532
 30
0.0
 11
4.999238475781956
 21
-0.08726203218641457
 31
0.0
  0
ENDSEC
  0
SECTION
  2
OBJECTS
  0
DICTIONARY
  5
A
330
0
100
AcDbDictionary
281
1
  3
ACAD_COLOR
350
B
  3
ACAD_GROUP
350
C
  3
ACAD_LAYOUT
350
D
  3
ACAD_MATERIAL
350
E
  3
ACAD_MLEADERSTYLE
350
F
  3
ACAD_MLINESTYLE
350
10
  3
ACAD_PLOTSETTINGS
350
11
  3
ACAD_PLOTSTYLENAME
350
12
  3
ACAD_SCALELIST
350
14
  3
ACAD_TABLESTYLE
350
15
  3
ACAD_VISUALSTYLE
350
16
  0
DICTIONARY
  5
B
330
A
100
AcDbDictionary
281
1
  0
DICTIONARY
  5
C
330
A
100
AcDbDictionary
281
1
  0
DICTIONARY
  5
D
330
A
100
AcDbDictionary
281
1
  3
Model
350
1A
  3
Layout1
350
1E
  0
DICTIONARY
  5
E
330
A
100
AcDbDictionary
281
1
  3
ByBlock
350
1F
  3
ByLayer
350
20
  3
Global
350
21
  0
DICTIONARY
  5
F
330
A
100
AcDbDictionary
281
1
  3
Standard
350
2C
  0
DICTIONARY
  5
10
330
A
100
AcDbDictionary
281
1
  3
Standard
350
22
  0
DICTIONARY
  5
11
330
A
100
AcDbDictionary
281
1
  0
ACDBDICTIONARYWDFLT
  5
12
330
A
100
AcDbDictionary
281
1
  3
Normal
350
13
100
AcDbDictionaryWithDefault
340
13
  0
ACDBPLACEHOLDER
  5
13
330
12
  0
DICTIONARY
  5
14
330
A
100
AcDbDictionary
281
1
  0
DICTIONARY
  5
15
330
A
100
AcDbDictionary
281
1
  0
DICTIONARY
  5
16
330
A
100
AcDbDictionary
281
1
  3
2dWireframe
350
58
  3
Basic
350
59
  3
Brighten
350
5A
  3
ColorChange
350
5B
  3
Conceptual
350
5C
  3
Dim
350
5D
  3
EdgeColorOff
350
5E
  3
Facepattern
350
5F
  3
Flat
350
60
  3
FlatWithEdges
350
61
  3
Gouraud
350
62
  3
GouraudWithEdges
350
63
  3
Hidden
350
64
  3
JitterOff
350
65
  3
Linepattern
350
66
  3
Modeling
350
67
  3
OverhangOff
350
68
  3
Realistic
350
69
  3
Shaded
350
6A
  3
Shaded with edges
350
6B
  3
Shades of Gray
350
6C
  3
Sketchy
350
6D
  3
Thicken
350
6E
  3
Wireframe
350
6F
  3
X-Ray
350
70
  0
LAYOUT
  5
1A
330
D
100
AcDbPlotSettings
  1

  2
Adobe PDF
  4
A4
  6

 40
3.175
 41
3.175
 42
3.175
 43
3.175
 44
209.91
 45
297.03
 46
0.0
 47
0.0
 48
0.0
 49
0.0
140
0.0
141
0.0
142
1.0
143
1.0
 70
1024
 72
0
 73
1
 74
5
  7

 75
16
 76
0
 77
2
 78
300
147
1.0
148
0.0
149
0.0
100
AcDbLayout
  1
Model
 70
1
 71
0
 10
-3.175
 20
-3.175
 11
293.857
 21
206.735
 12
0.0
 22
0.0
 32
0.0
 14
29.068
 24
20.356
 34
0.0
 15
261.614
 25
183.204
 35
0.0
146
0.0
 13
0.0
 23
0.0
 33
0.0
 16
1.0
 26
0.0
 36
0.0
 17
0.0
 27
1.0
 37
0.0
 76
1
330
17
  0
LAYOUT
  5
1E
330
D
100
AcDbPlotSettings
  1

  2
Adobe PDF
  4
A4
  6

 40
3.175
 41
3.175
 42
3.175
 43
3.175
 44
209.91
 45
297.03
 46
0.0
 47
0.0
 48
0.0
 49
0.0
140
0.0
141
0.0
142
1.0
143
1.0
 70
0
 72
0
 73
1
 74
5
  7

 75
16
 76
0
 77
2
 78
300
147
1.0
148
0.0
149
0.0
100
AcDbLayout
  1
Layout1
 70
1
 71
1
 10
-3.175
 20
-3.175
 11
293.857
 21
206.735
 12
0.0
 22
0.0
 32
0.0
 14
29.068
 24
20.356
 34
0.0
 15
261.614
 25
183.204
 35
0.0
146
0.0
 13
0.0
 23
0.0
 33
0.0
 16
1.0
 26
0.0
 36
0.0
 17
0.0
 27
1.0
 37
0.0
 76
1
330
1B
  0
MATERIAL
  5
1F
102
{ACAD_REACTORS
330
E
102
}
330
E
100
AcDbMaterial
  1
ByBlock
  2

 70
0
 40
1.0
 71
1
 41
1.0
 91
-1023410177
 42
1.0
 72
1
  3

 73
1
 74
1
 75
1
 44
0.5
 73
0
 45
1.0
 46
1.0
 77
1
  4

 78
1
 79
1
170
1
 48
1.0
171
1
  6

172
1
173
1
174
1
140
1.0
141
1.0
175
1
  7

176
1
177
1
178
1
143
1.0
179
1
  8

270
1
271
1
272
1
145
1.0
146
1.0
273
1
  9

274
1
275
1
276
1
 42
1.0
 72
1
  3

 73
1
 74
1
 75
1
 94
63
  0
MATERIAL
  5
20
102
{ACAD_REACTORS
330
E
102
}
330
E
100
AcDbMaterial
  1
ByLayer
  2

 70
0
 40
1.0
 71
1
 41
1.0
 91
-1023410177
 42
1.0
 72
1
  3

 73
1
 74
1
 75
1
 44
0.5
 73
0
 45
1.0
 46
1.0
 77
1
  4

 78
1
 79
1
170
1
 48
1.0
171
1
  6

172
1
173
1
174
1
140
1.0
141
1.0
175
1
  7

176
1
177
1
178
1
143
1.0
179
1
  8

270
1
271
1
272
1
145
1.0
146
1.0
273
1
  9

274
1
275
1
276
1
 42
1.0
 72
1
  3

 73
1
 74
1
 75
1
 94
63
  0
MATERIAL
  5
21
102
{ACAD_REACTORS
330
E
102
}
330
E
100
AcDbMaterial
  1
Global
  2

 70
0
 40
1.0
 71
1
 41
1.0
 91
-1023410177
 42
1.0
 72
1
  3

 73
1
 74
1
 75
1
 44
0.5
 73
0
 45
1.0
 46
1.0
 77
1
  4

 78
1
 79
1
170
1
 48
1.0
171
1
  6

172
1
173
1
174
1
140
1.0
141
1.0
175
1
  7

176
1
177
1
178
1
143
1.0
179
1
  8

270
1
271
1
272
1
145
1.0
146
1.0
273
1
  9

274
1
275
1
276
1
 42
1.0
 72
1
  3

 73
1
 74
1
 75
1
 94
63
  0
MLINESTYLE
  5
22
102
{ACAD_REACTORS
330
10
102
}
330
10
100
AcDbMlineStyle
  2
Standard
 70
0
  3

 62
256
 51
90.0
 52
90.0
 71
2
 49
0.5
 62
256
  6
BYLAYER
 49
-0.5
 62
256
  6
BYLAYER
  0
MLEADERSTYLE
  5
2C
102
{ACAD_REACTORS
330
F
102
}
330
F
100
AcDbMLeaderStyle
179
2
170
2
171
1
172
0
 90
2
 40
0.0
 41
0.0
173
1
 91
-1056964608
 92
-2
290
1
 42
2.0
291
1
 43
8.0
  3
Standard
 44
4.0
300

342
29
174
1
175
1
176
0
178
1
 93
-1056964608
 45
4.0
292
0
297
0
 46
4.0
 94
-1056964608
 47
1.0
 49
1.0
140
1.0
294
1
141
0.0
177
0
142
1.0
295
0
296
0
143
3.75
271
0
272
9
273
9
  0
VISUALSTYLE
  5
58
102
{ACAD_REACTORS
330
16
102
}
330
16
100
AcDbVisualStyle
  2
2dWireframe
 70
4
 90
0
 40
0.6
 62
7
290
0
291
0
  0
VISUALSTYLE
  5
59
102
{ACAD_REACTORS
330
16
102
}
330
16
100
AcDbVisualStyle
  2
Basic
 70
7
 90
1
 40
0.6
 62
7
290
0
291
1
  0
VISUALSTYLE
  5
5A
102
{ACAD_REACTORS
330
16
102
}
330
16
100
AcDbVisualStyle
  2
Brighten
 70
12
 90
2
 40
0.6
 62
7
290
0
291
1
  0
VISUALSTYLE
  5
5B
102
{ACAD_REACTORS
330
16
102
}
330
16
100
AcDbVisualStyle
  2
ColorChange
 70
16
 90
2
 40
0.6
 62
8
290
0
291
1
  0
VISUALSTYLE
  5
5C
102
{ACAD_REACTORS
330
16
102
}
330
16
100
AcDbVisualStyle
  2
Conceptual
 70
9
 90
3
 40
0.6
 62
7
290
0
291
0
  0
VISUALSTYLE
  5
5D
102
{ACAD_REACTORS
330
16
102
}
330
16
100
AcDbVisualStyle
  2
Dim
 70
11
 90
2
 40
0.6
 62
7
290
0
291
1
  0
VISUALSTYLE
  5
5E
102
{ACAD_REACTORS
330
16
102
}
330
16
100
AcDbVisualStyle
  2
EdgeColorOff
 70
22
 90
2
 40
0.6
 62
7
290
0
291
1
  0
VISUALSTYLE
  5
5F
102
{ACAD_REACTORS
330
16
102
}
330
16
100
AcDbVisualStyle
  2
Facepattern
 70
15
 90
2
 40
0.6
 62
7
290
0
291
1
  0
VISUALSTYLE
  5
60
102
{ACAD_REACTORS
330
16
102
}
330
16
100
AcDbVisualStyle
  2
Flat
 70
0
 90
2
 40
0.6
 62
7
290
0
291
1
  0
VISUALSTYLE
  5
61
102
{ACAD_REACTORS
330
16
102
}
330
16
100
AcDbVisualStyle
  2
FlatWithEdges
 70
1
 90
2
 40
0.6
 62
7
290
0
291
1
  0
VISUALSTYLE
  5
62
102
{ACAD_REACTORS
330
16
102
}
330
16
100
AcDbVisualStyle
  2
Gouraud
 70
2
 90
2
 40
0.6
 62
7
290
0
291
1
  0
VISUALSTYLE
  5
63
102
{ACAD_REACTORS
330
16
102
}
330
16
100
AcDbVisualStyle
  2
GouraudWithEdges
 70
3
 90
2
 40
0.6
 62
7
290
0
291
1
  0
VISUALSTYLE
  5
64
102
{ACAD_REACTORS
330
16
102
}
330
16
100
AcDbVisualStyle
  2
Hidden
 70
6
 90
1
 40
0.6
 62
7
290
0
291
0
  0
VISUALSTYLE
  5
65
102
{ACAD_REACTORS
330
16
102
}
330
16
100
AcDbVisualStyle
  2
JitterOff
 70
20
 90
2
 40
0.6
 62
7
290
0
291
1
  0
VISUALSTYLE
  5
66
102
{ACAD_REACTORS
330
16
102
}
330
16
100
AcDbVisualStyle
  2
Linepattern
 70
14
 90
2
 40
0.6
 62
7
290
0
291
1
  0
VISUALSTYLE
  5
67
102
{ACAD_REACTORS
330
16
102
}
330
16
100
AcDbVisualStyle
  2
Modeling
 70
10
 90
2
 40
0.6
 62
7
290
0
291
0
  0
VISUALSTYLE
  5
68
102
{ACAD_REACTORS
330
16
102
}
330
16
100
AcDbVisualStyle
  2
OverhangOff
 70
21
 90
2
 40
0.6
 62
7
290
0
291
1
  0
VISUALSTYLE
  5
69
102
{ACAD_REACTORS
330
16
102
}
330
16
100
AcDbVisualStyle
  2
Realistic
 70
8
 90
2
 40
0.6
 62
7
290
0
291
0
  0
VISUALSTYLE
  5
6A
102
{ACAD_REACTORS
330
16
102
}
330
16
100
AcDbVisualStyle
  2
Shaded
 70
27
 90
2
 40
0.6
 62
7
290
0
291
0
  0
VISUALSTYLE
  5
6B
102
{ACAD_REACTORS
330
16
102
}
330
16
100
AcDbVisualStyle
  2
Shaded with edges
 70
26
 90
2
 40
0.6
 62
7
290
0
291
0
  0
VISUALSTYLE
  5
6C
102
{ACAD_REACTORS
330
16
102
}
330
16
100
AcDbVisualStyle
  2
Shades of Gray
 70
23
 90
2
 40
0.6
 62
7
290
0
291
0
  0
VISUALSTYLE
  5
6D
102
{ACAD_REACTORS
330
16
102
}
330
16
100
AcDbVisualStyle
  2
Sketchy
 70
24
 90
1
 40
0.6
 62
7
290
0
291
0
  0
VISUALSTYLE
  5
6E
102
{ACAD_REACTORS
330
16
102
}
330
16
100
AcDbVisualStyle
  2
Thicken
 70
13
 90
2
 40
0.6
 62
7
290
0
291
1
  0
VISUALSTYLE
  5
6F
102
{ACAD_REACTORS
330
16
102
}
330
16
100
AcDbVisualStyle
  2
Wireframe
 70
5
 90
0
 40
0.6
 62
7
290
0
291
0
  0
VISUALSTYLE
  5
70
102
{ACAD_REACTORS
330
16
102
}
330
16
100
AcDbVisualStyle
  2
X-Ray
 70
25
 90
2
 40
0.5
 62
7
290
0
291
0
  0
ENDSEC
  0
EOF
